  0
SECTION
  2
HEADER
  9
$ACADVER
  1
AC1009
  9
$INSBASE
 10
0.0
 20
0.0
 30
0.0
  9
$EXTMIN
 10
0.0
 20
0.0
 30
0.0
  9
$EXTMAX
 10
0.0
 20
0.0
 30
0.0
  0
ENDSEC
  0
SECTION
  2
TABLES
  0
TABLE
  2
VPORT
 70
0
  0
ENDTAB
  0
TABLE
  2
LTYPE
 70
1
  0
LTYPE
  2
CONTINUOUS
 70
0
  3
Solid line
 72
65
 73
0
 40
0.0
  0
ENDTAB
  0
TABLE
  2
LAYER
 70
1
  0
LAYER
  2
0
 70
64
 62
7
  6
continuous
  0
ENDTAB
  0
TABLE
  2
STYLE
 70
1
  0
STYLE
  2
STANDARD
 70
0
 40
0
 41
1.0
 50
0.0
 71
0
 42
1
 3
ARIAL.TTF
 4

  0
ENDTAB
  0
TABLE
  2
VIEW
 70
0
  0
ENDTAB
  0
ENDSEC
  0
SECTION
  2
BLOCKS
  0
BLOCK
  8
0
  2
SKETCH042
 70
0
 10
0.0
 20
0.0
 30
0.0
  3
SKETCH042
  0
LINE
  8
0
 62
7
 10
93.2519
 20
34.6671
 30
0.0
 11
84.0594
 21
26.9536
 31
0.0
  0
LINE
  8
0
 62
7
 10
84.0594
 20
26.9536
 30
0.0
 11
83.2881
 21
27.8729
 31
0.0
  0
LINE
  8
0
 62
7
 10
83.2881
 20
27.8729
 30
0.0
 11
87.8843
 21
31.7296
 31
0.0
  0
LINE
  8
0
 62
7
 10
87.8843
 20
31.7296
 30
0.0
 11
92.4806
 21
35.5864
 31
0.0
  0
LINE
  8
0
 62
7
 10
92.4806
 20
35.5864
 30
0.0
 11
93.2519
 21
34.6671
 31
0.0
  0
LINE
  8
0
 62
7
 10
94.4354
 20
0.564592
 30
0.0
 11
94.4354
 21
13.7052503656
 31
0.0
  0
LINE
  8
0
 62
7
 10
94.4354
 20
13.7052503656
 30
0.0
 11
83.1205
 21
14.6952
 31
0.0
  0
LINE
  8
0
 62
7
 10
83.1205
 20
14.6952
 30
0.0
 11
83.2251
 21
15.8907
 31
0.0
  0
LINE
  8
0
 62
7
 10
83.2251
 20
15.8907
 30
0.0
 11
89.2023
 21
15.3677
 31
0.0
  0
LINE
  8
0
 62
7
 10
89.2023
 20
15.3677
 30
0.0
 11
94.4354
 21
14.9098956786
 31
0.0
  0
LINE
  8
0
 62
7
 10
94.4354
 20
14.9098956786
 30
0.0
 11
94.4354
 21
42.9354
 31
0.0
  0
LINE
  8
0
 62
7
 10
94.4354
 20
42.9354
 30
0.0
 11
53.5646
 21
42.9354
 31
0.0
  0
LINE
  8
0
 62
7
 10
53.5646
 20
42.9354
 30
0.0
 11
53.5646
 21
41.4354
 31
0.0
  0
LINE
  8
0
 62
7
 10
53.5646
 20
41.4354
 30
0.0
 11
41.4354
 21
41.4354
 31
0.0
  0
LINE
  8
0
 62
7
 10
41.4354
 20
41.4354
 30
0.0
 11
41.4354
 21
42.9354
 31
0.0
  0
LINE
  8
0
 62
7
 10
41.4354
 20
42.9354
 30
0.0
 11
0.564592
 21
42.9354
 31
0.0
  0
LINE
  8
0
 62
7
 10
0.564592
 20
42.9354
 30
0.0
 11
0.564592
 21
14.8998919593
 31
0.0
  0
LINE
  8
0
 62
7
 10
0.564592
 20
14.8998919593
 30
0.0
 11
5.79771
 21
15.3577
 31
0.0
  0
LINE
  8
0
 62
7
 10
5.79771
 20
15.3577
 30
0.0
 11
11.7749
 21
15.8807
 31
0.0
  0
LINE
  8
0
 62
7
 10
11.7749
 20
15.8807
 30
0.0
 11
11.8795
 21
14.6852
 31
0.0
  0
LINE
  8
0
 62
7
 10
11.8795
 20
14.6852
 30
0.0
 11
0.564592
 21
13.6952475954
 31
0.0
  0
LINE
  8
0
 62
7
 10
0.564592
 20
13.6952475954
 30
0.0
 11
0.564592
 21
0.564592
 31
0.0
  0
LINE
  8
0
 62
7
 10
0.564592
 20
0.564592
 30
0.0
 11
7.47324
 21
0.564592
 31
0.0
  0
LINE
  8
0
 62
7
 10
7.47324
 20
0.564592
 30
0.0
 11
11.9732
 21
5.06459
 31
0.0
  0
LINE
  8
0
 62
7
 10
11.9732
 20
5.06459
 30
0.0
 11
83.0268
 21
5.06459
 31
0.0
  0
LINE
  8
0
 62
7
 10
83.0268
 20
5.06459
 30
0.0
 11
87.5268
 21
0.564592
 31
0.0
  0
LINE
  8
0
 62
7
 10
87.5268
 20
0.564592
 30
0.0
 11
94.4354
 21
0.564592
 31
0.0
  0
LINE
  8
0
 62
7
 10
3.95
 20
23.3
 30
0.0
 11
3.95
 21
17.3
 31
0.0
  0
LINE
  8
0
 62
7
 10
3.95
 20
17.3
 30
0.0
 11
2.75
 21
17.3
 31
0.0
  0
LINE
  8
0
 62
7
 10
2.75
 20
17.3
 30
0.0
 11
2.75
 21
29.3
 31
0.0
  0
LINE
  8
0
 62
7
 10
2.75
 20
29.3
 30
0.0
 11
3.95
 21
29.3
 31
0.0
  0
LINE
  8
0
 62
7
 10
3.95
 20
29.3
 30
0.0
 11
3.95
 21
23.3
 31
0.0
  0
LINE
  8
0
 62
7
 10
11.7119
 20
27.8629
 30
0.0
 11
10.9406
 21
26.9436
 31
0.0
  0
LINE
  8
0
 62
7
 10
10.9406
 20
26.9436
 30
0.0
 11
1.74806
 21
34.6571
 31
0.0
  0
LINE
  8
0
 62
7
 10
1.74806
 20
34.6571
 30
0.0
 11
2.51941
 21
35.5764
 31
0.0
  0
LINE
  8
0
 62
7
 10
2.51941
 20
35.5764
 30
0.0
 11
7.11567
 21
31.7196
 31
0.0
  0
LINE
  8
0
 62
7
 10
7.11567
 20
31.7196
 30
0.0
 11
11.7119
 21
27.8629
 31
0.0
  0
LINE
  8
0
 62
7
 10
91.05
 20
29.3
 30
0.0
 11
92.25
 21
29.3
 31
0.0
  0
LINE
  8
0
 62
7
 10
92.25
 20
29.3
 30
0.0
 11
92.25
 21
17.3
 31
0.0
  0
LINE
  8
0
 62
7
 10
92.25
 20
17.3
 30
0.0
 11
91.05
 21
17.3
 31
0.0
  0
LINE
  8
0
 62
7
 10
91.05
 20
17.3
 30
0.0
 11
91.05
 21
23.3
 31
0.0
  0
LINE
  8
0
 62
7
 10
91.05
 20
23.3
 30
0.0
 11
91.05
 21
29.3
 31
0.0
  0
ENDBLK
  0
ENDSEC
  0
SECTION
  2
ENTITIES
  0
INSERT
  2
SKETCH042
  8
0
 62
7
 10
0.0
 20
0.0
 30
0.0
  0
ENDSEC
  0
EOF
