G04 #@! TF.FileFunction,Soldermask,Top*
%FSLAX46Y46*%
G04 Gerber Fmt 4.6, Leading zero omitted, Abs format (unit mm)*
G04 Created by KiCad (PCBNEW 4.0.7-e2-6376~58~ubuntu16.04.1) date Mon Apr 23 14:50:42 2018*
%MOMM*%
%LPD*%
G01*
G04 APERTURE LIST*
%ADD10C,0.100000*%
%ADD11C,0.300000*%
%ADD12C,0.127000*%
%ADD13C,0.010000*%
%ADD14C,4.000000*%
%ADD15R,2.700000X2.550000*%
%ADD16R,0.850000X2.650000*%
%ADD17R,0.850000X3.550000*%
%ADD18R,4.700000X1.200000*%
%ADD19R,1.000000X1.300000*%
%ADD20R,1.000000X1.200000*%
%ADD21R,1.000000X0.300000*%
%ADD22R,0.825000X0.950000*%
%ADD23R,1.060000X0.400000*%
%ADD24R,0.300000X0.850000*%
%ADD25R,0.850000X0.300000*%
%ADD26R,1.300000X1.300000*%
%ADD27R,1.000000X1.600000*%
%ADD28R,0.500000X0.600000*%
%ADD29R,0.800000X0.750000*%
%ADD30R,0.750000X0.800000*%
%ADD31R,2.500000X1.000000*%
%ADD32R,0.600000X0.500000*%
%ADD33R,0.600000X0.700000*%
%ADD34R,0.800000X0.800000*%
%ADD35R,0.400000X0.600000*%
%ADD36R,0.600000X0.400000*%
%ADD37R,0.300000X1.250000*%
%ADD38R,2.400000X2.200000*%
%ADD39R,1.300000X0.850000*%
%ADD40R,0.800000X1.600000*%
%ADD41O,0.740000X2.800000*%
%ADD42R,0.740000X2.800000*%
%ADD43R,2.000000X2.000000*%
%ADD44O,2.000000X2.000000*%
%ADD45R,0.860000X1.930000*%
%ADD46R,2.500000X3.400000*%
%ADD47R,1.270000X6.400000*%
%ADD48R,1.800000X1.800000*%
G04 APERTURE END LIST*
D10*
D11*
X76071428Y792857D02*
X74928571Y792857D01*
X75500000Y221429D02*
X75500000Y1364286D01*
D12*
X66000001Y21571833D02*
X66000001Y22271833D01*
X66000001Y21938500D02*
X66400001Y21938500D01*
X66400001Y21571833D02*
X66400001Y22271833D01*
X66733334Y21571833D02*
X66733334Y22271833D01*
X66966667Y21771833D01*
X67200000Y22271833D01*
X67200000Y21571833D01*
X65100000Y20861500D02*
X65266667Y20394833D01*
X65433333Y20861500D01*
X66066666Y20394833D02*
X65666666Y20394833D01*
X65866666Y20394833D02*
X65866666Y21094833D01*
X65800000Y20994833D01*
X65733333Y20928167D01*
X65666666Y20894833D01*
X66366667Y20461500D02*
X66400000Y20428167D01*
X66366667Y20394833D01*
X66333333Y20428167D01*
X66366667Y20461500D01*
X66366667Y20394833D01*
X67066666Y20394833D02*
X66666666Y20394833D01*
X66866666Y20394833D02*
X66866666Y21094833D01*
X66800000Y20994833D01*
X66733333Y20928167D01*
X66666666Y20894833D01*
X67366667Y20461500D02*
X67400000Y20428167D01*
X67366667Y20394833D01*
X67333333Y20428167D01*
X67366667Y20461500D01*
X67366667Y20394833D01*
X67833333Y21094833D02*
X67900000Y21094833D01*
X67966666Y21061500D01*
X68000000Y21028167D01*
X68033333Y20961500D01*
X68066666Y20828167D01*
X68066666Y20661500D01*
X68033333Y20528167D01*
X68000000Y20461500D01*
X67966666Y20428167D01*
X67900000Y20394833D01*
X67833333Y20394833D01*
X67766666Y20428167D01*
X67733333Y20461500D01*
X67700000Y20528167D01*
X67666666Y20661500D01*
X67666666Y20828167D01*
X67700000Y20961500D01*
X67733333Y21028167D01*
X67766666Y21061500D01*
X67833333Y21094833D01*
D13*
G36*
X39506442Y8569937D02*
X39595361Y8568950D01*
X39697693Y8567338D01*
X39778154Y8565635D01*
X39840272Y8563552D01*
X39887574Y8560797D01*
X39923590Y8557078D01*
X39951846Y8552106D01*
X39975871Y8545590D01*
X39999193Y8537237D01*
X40004330Y8535223D01*
X40085784Y8489945D01*
X40155316Y8425403D01*
X40207667Y8346843D01*
X40219516Y8320631D01*
X40248950Y8247750D01*
X40255844Y6044300D01*
X39721900Y6044300D01*
X39721900Y7096432D01*
X39721879Y7284563D01*
X39721795Y7448933D01*
X39721610Y7591182D01*
X39721291Y7712950D01*
X39720800Y7815876D01*
X39720104Y7901601D01*
X39719165Y7971763D01*
X39717950Y8028002D01*
X39716422Y8071958D01*
X39714545Y8105270D01*
X39712285Y8129577D01*
X39709606Y8146521D01*
X39706472Y8157739D01*
X39702849Y8164872D01*
X39698699Y8169560D01*
X39698674Y8169582D01*
X39681974Y8179707D01*
X39655503Y8186120D01*
X39614222Y8189518D01*
X39553092Y8190594D01*
X39546274Y8190601D01*
X39514596Y8191593D01*
X39486823Y8193537D01*
X39462703Y8194880D01*
X39441981Y8194070D01*
X39424403Y8189555D01*
X39409714Y8179785D01*
X39397661Y8163206D01*
X39387989Y8138268D01*
X39380444Y8103418D01*
X39374771Y8057104D01*
X39370717Y7997776D01*
X39368027Y7923880D01*
X39366447Y7833866D01*
X39365723Y7726181D01*
X39365600Y7599274D01*
X39365825Y7451593D01*
X39366143Y7281586D01*
X39366299Y7092050D01*
X39366300Y6044300D01*
X38832900Y6044300D01*
X38832900Y7089718D01*
X38833073Y7307526D01*
X38833592Y7502811D01*
X38834452Y7675210D01*
X38835648Y7824363D01*
X38837176Y7949909D01*
X38839032Y8051486D01*
X38841210Y8128733D01*
X38843708Y8181288D01*
X38846389Y8208107D01*
X38875604Y8314661D01*
X38920690Y8401620D01*
X38982499Y8469870D01*
X39061884Y8520300D01*
X39159698Y8553798D01*
X39183034Y8558838D01*
X39227866Y8564414D01*
X39296416Y8568115D01*
X39389127Y8569952D01*
X39506442Y8569937D01*
X39506442Y8569937D01*
G37*
X39506442Y8569937D02*
X39595361Y8568950D01*
X39697693Y8567338D01*
X39778154Y8565635D01*
X39840272Y8563552D01*
X39887574Y8560797D01*
X39923590Y8557078D01*
X39951846Y8552106D01*
X39975871Y8545590D01*
X39999193Y8537237D01*
X40004330Y8535223D01*
X40085784Y8489945D01*
X40155316Y8425403D01*
X40207667Y8346843D01*
X40219516Y8320631D01*
X40248950Y8247750D01*
X40255844Y6044300D01*
X39721900Y6044300D01*
X39721900Y7096432D01*
X39721879Y7284563D01*
X39721795Y7448933D01*
X39721610Y7591182D01*
X39721291Y7712950D01*
X39720800Y7815876D01*
X39720104Y7901601D01*
X39719165Y7971763D01*
X39717950Y8028002D01*
X39716422Y8071958D01*
X39714545Y8105270D01*
X39712285Y8129577D01*
X39709606Y8146521D01*
X39706472Y8157739D01*
X39702849Y8164872D01*
X39698699Y8169560D01*
X39698674Y8169582D01*
X39681974Y8179707D01*
X39655503Y8186120D01*
X39614222Y8189518D01*
X39553092Y8190594D01*
X39546274Y8190601D01*
X39514596Y8191593D01*
X39486823Y8193537D01*
X39462703Y8194880D01*
X39441981Y8194070D01*
X39424403Y8189555D01*
X39409714Y8179785D01*
X39397661Y8163206D01*
X39387989Y8138268D01*
X39380444Y8103418D01*
X39374771Y8057104D01*
X39370717Y7997776D01*
X39368027Y7923880D01*
X39366447Y7833866D01*
X39365723Y7726181D01*
X39365600Y7599274D01*
X39365825Y7451593D01*
X39366143Y7281586D01*
X39366299Y7092050D01*
X39366300Y6044300D01*
X38832900Y6044300D01*
X38832900Y7089718D01*
X38833073Y7307526D01*
X38833592Y7502811D01*
X38834452Y7675210D01*
X38835648Y7824363D01*
X38837176Y7949909D01*
X38839032Y8051486D01*
X38841210Y8128733D01*
X38843708Y8181288D01*
X38846389Y8208107D01*
X38875604Y8314661D01*
X38920690Y8401620D01*
X38982499Y8469870D01*
X39061884Y8520300D01*
X39159698Y8553798D01*
X39183034Y8558838D01*
X39227866Y8564414D01*
X39296416Y8568115D01*
X39389127Y8569952D01*
X39506442Y8569937D01*
G36*
X41459160Y8565190D02*
X41548531Y8564881D01*
X41618722Y8564130D01*
X41672843Y8562742D01*
X41714004Y8560524D01*
X41745314Y8557284D01*
X41769885Y8552826D01*
X41790825Y8546958D01*
X41811246Y8539486D01*
X41820430Y8535817D01*
X41902334Y8489674D01*
X41972132Y8424437D01*
X42024417Y8345514D01*
X42035616Y8320631D01*
X42065050Y8247750D01*
X42071944Y6044300D01*
X41538000Y6044300D01*
X41538000Y6883162D01*
X41150650Y6876150D01*
X41143952Y6044300D01*
X40610900Y6044300D01*
X40611292Y7063475D01*
X40611510Y7232626D01*
X40612017Y7394164D01*
X40612791Y7546126D01*
X40613810Y7686551D01*
X40614133Y7719642D01*
X41144487Y7719642D01*
X41144692Y7619544D01*
X41145363Y7527654D01*
X41146437Y7447033D01*
X41147857Y7380742D01*
X41149561Y7331840D01*
X41151490Y7303389D01*
X41152766Y7297367D01*
X41167823Y7294391D01*
X41203595Y7291873D01*
X41255400Y7290014D01*
X41318556Y7289016D01*
X41349616Y7288900D01*
X41538000Y7288900D01*
X41538000Y7724623D01*
X41537764Y7849829D01*
X41537011Y7951653D01*
X41535669Y8032112D01*
X41533669Y8093220D01*
X41530939Y8136992D01*
X41527409Y8165444D01*
X41523010Y8180590D01*
X41522001Y8182225D01*
X41512486Y8191260D01*
X41496694Y8197215D01*
X41470228Y8200537D01*
X41428693Y8201670D01*
X41367693Y8201061D01*
X41341379Y8200528D01*
X41274040Y8198883D01*
X41227617Y8196811D01*
X41197631Y8193435D01*
X41179601Y8187880D01*
X41169047Y8179269D01*
X41161489Y8166726D01*
X41160715Y8165200D01*
X41155921Y8148456D01*
X41152073Y8117839D01*
X41149099Y8071349D01*
X41146927Y8006989D01*
X41145482Y7922759D01*
X41144693Y7816661D01*
X41144487Y7719642D01*
X40614133Y7719642D01*
X40615051Y7813474D01*
X40616492Y7924932D01*
X40618111Y8018964D01*
X40619885Y8093605D01*
X40621793Y8146893D01*
X40623811Y8176864D01*
X40623938Y8177900D01*
X40642585Y8265745D01*
X40673724Y8348134D01*
X40714266Y8418469D01*
X40760698Y8469806D01*
X40800470Y8497263D01*
X40850040Y8524496D01*
X40877600Y8536933D01*
X40898077Y8544837D01*
X40918266Y8551117D01*
X40941260Y8555958D01*
X40970155Y8559547D01*
X41008048Y8562071D01*
X41058032Y8563716D01*
X41123203Y8564670D01*
X41206656Y8565118D01*
X41311488Y8565246D01*
X41347500Y8565250D01*
X41459160Y8565190D01*
X41459160Y8565190D01*
G37*
X41459160Y8565190D02*
X41548531Y8564881D01*
X41618722Y8564130D01*
X41672843Y8562742D01*
X41714004Y8560524D01*
X41745314Y8557284D01*
X41769885Y8552826D01*
X41790825Y8546958D01*
X41811246Y8539486D01*
X41820430Y8535817D01*
X41902334Y8489674D01*
X41972132Y8424437D01*
X42024417Y8345514D01*
X42035616Y8320631D01*
X42065050Y8247750D01*
X42071944Y6044300D01*
X41538000Y6044300D01*
X41538000Y6883162D01*
X41150650Y6876150D01*
X41143952Y6044300D01*
X40610900Y6044300D01*
X40611292Y7063475D01*
X40611510Y7232626D01*
X40612017Y7394164D01*
X40612791Y7546126D01*
X40613810Y7686551D01*
X40614133Y7719642D01*
X41144487Y7719642D01*
X41144692Y7619544D01*
X41145363Y7527654D01*
X41146437Y7447033D01*
X41147857Y7380742D01*
X41149561Y7331840D01*
X41151490Y7303389D01*
X41152766Y7297367D01*
X41167823Y7294391D01*
X41203595Y7291873D01*
X41255400Y7290014D01*
X41318556Y7289016D01*
X41349616Y7288900D01*
X41538000Y7288900D01*
X41538000Y7724623D01*
X41537764Y7849829D01*
X41537011Y7951653D01*
X41535669Y8032112D01*
X41533669Y8093220D01*
X41530939Y8136992D01*
X41527409Y8165444D01*
X41523010Y8180590D01*
X41522001Y8182225D01*
X41512486Y8191260D01*
X41496694Y8197215D01*
X41470228Y8200537D01*
X41428693Y8201670D01*
X41367693Y8201061D01*
X41341379Y8200528D01*
X41274040Y8198883D01*
X41227617Y8196811D01*
X41197631Y8193435D01*
X41179601Y8187880D01*
X41169047Y8179269D01*
X41161489Y8166726D01*
X41160715Y8165200D01*
X41155921Y8148456D01*
X41152073Y8117839D01*
X41149099Y8071349D01*
X41146927Y8006989D01*
X41145482Y7922759D01*
X41144693Y7816661D01*
X41144487Y7719642D01*
X40614133Y7719642D01*
X40615051Y7813474D01*
X40616492Y7924932D01*
X40618111Y8018964D01*
X40619885Y8093605D01*
X40621793Y8146893D01*
X40623811Y8176864D01*
X40623938Y8177900D01*
X40642585Y8265745D01*
X40673724Y8348134D01*
X40714266Y8418469D01*
X40760698Y8469806D01*
X40800470Y8497263D01*
X40850040Y8524496D01*
X40877600Y8536933D01*
X40898077Y8544837D01*
X40918266Y8551117D01*
X40941260Y8555958D01*
X40970155Y8559547D01*
X41008048Y8562071D01*
X41058032Y8563716D01*
X41123203Y8564670D01*
X41206656Y8565118D01*
X41311488Y8565246D01*
X41347500Y8565250D01*
X41459160Y8565190D01*
G36*
X43120592Y8533128D02*
X43243366Y8532041D01*
X43349777Y8530289D01*
X43437809Y8527920D01*
X43505451Y8524981D01*
X43550688Y8521520D01*
X43563981Y8519664D01*
X43665620Y8489801D01*
X43750433Y8440935D01*
X43818335Y8373135D01*
X43869242Y8286469D01*
X43877012Y8267808D01*
X43886641Y8240878D01*
X43893958Y8212925D01*
X43899386Y8179718D01*
X43903346Y8137024D01*
X43906257Y8080611D01*
X43908543Y8006246D01*
X43910120Y7935139D01*
X43911414Y7823568D01*
X43910473Y7730806D01*
X43907352Y7658893D01*
X43902108Y7609870D01*
X43900884Y7603350D01*
X43874317Y7523194D01*
X43831703Y7451639D01*
X43777511Y7395577D01*
X43756704Y7380933D01*
X43702208Y7347004D01*
X43759397Y7308427D01*
X43818282Y7253923D01*
X43848867Y7206718D01*
X43881150Y7143586D01*
X43884833Y6593943D01*
X43888517Y6044300D01*
X43354100Y6044300D01*
X43354100Y6527735D01*
X43353744Y6665323D01*
X43352697Y6782872D01*
X43350983Y6879371D01*
X43348629Y6953807D01*
X43345661Y7005169D01*
X43342105Y7032447D01*
X43340953Y7035735D01*
X43333283Y7046026D01*
X43320318Y7052980D01*
X43297579Y7057237D01*
X43260587Y7059442D01*
X43204865Y7060234D01*
X43169503Y7060300D01*
X43011200Y7060300D01*
X43011200Y6044300D01*
X42477800Y6044300D01*
X42477800Y8165200D01*
X43011200Y8165200D01*
X43011200Y7441300D01*
X43175579Y7441300D01*
X43243203Y7441551D01*
X43290021Y7442773D01*
X43320623Y7445670D01*
X43339603Y7450945D01*
X43351552Y7459303D01*
X43359729Y7469526D01*
X43366951Y7492590D01*
X43372754Y7536216D01*
X43377146Y7596041D01*
X43380135Y7667700D01*
X43381730Y7746827D01*
X43381938Y7829059D01*
X43380767Y7910029D01*
X43378227Y7985375D01*
X43374324Y8050731D01*
X43369067Y8101732D01*
X43362464Y8134013D01*
X43358481Y8141975D01*
X43346718Y8151703D01*
X43329155Y8158309D01*
X43301216Y8162371D01*
X43258320Y8164467D01*
X43195890Y8165173D01*
X43174331Y8165200D01*
X43011200Y8165200D01*
X42477800Y8165200D01*
X42477800Y8533500D01*
X42983467Y8533500D01*
X43120592Y8533128D01*
X43120592Y8533128D01*
G37*
X43120592Y8533128D02*
X43243366Y8532041D01*
X43349777Y8530289D01*
X43437809Y8527920D01*
X43505451Y8524981D01*
X43550688Y8521520D01*
X43563981Y8519664D01*
X43665620Y8489801D01*
X43750433Y8440935D01*
X43818335Y8373135D01*
X43869242Y8286469D01*
X43877012Y8267808D01*
X43886641Y8240878D01*
X43893958Y8212925D01*
X43899386Y8179718D01*
X43903346Y8137024D01*
X43906257Y8080611D01*
X43908543Y8006246D01*
X43910120Y7935139D01*
X43911414Y7823568D01*
X43910473Y7730806D01*
X43907352Y7658893D01*
X43902108Y7609870D01*
X43900884Y7603350D01*
X43874317Y7523194D01*
X43831703Y7451639D01*
X43777511Y7395577D01*
X43756704Y7380933D01*
X43702208Y7347004D01*
X43759397Y7308427D01*
X43818282Y7253923D01*
X43848867Y7206718D01*
X43881150Y7143586D01*
X43884833Y6593943D01*
X43888517Y6044300D01*
X43354100Y6044300D01*
X43354100Y6527735D01*
X43353744Y6665323D01*
X43352697Y6782872D01*
X43350983Y6879371D01*
X43348629Y6953807D01*
X43345661Y7005169D01*
X43342105Y7032447D01*
X43340953Y7035735D01*
X43333283Y7046026D01*
X43320318Y7052980D01*
X43297579Y7057237D01*
X43260587Y7059442D01*
X43204865Y7060234D01*
X43169503Y7060300D01*
X43011200Y7060300D01*
X43011200Y6044300D01*
X42477800Y6044300D01*
X42477800Y8165200D01*
X43011200Y8165200D01*
X43011200Y7441300D01*
X43175579Y7441300D01*
X43243203Y7441551D01*
X43290021Y7442773D01*
X43320623Y7445670D01*
X43339603Y7450945D01*
X43351552Y7459303D01*
X43359729Y7469526D01*
X43366951Y7492590D01*
X43372754Y7536216D01*
X43377146Y7596041D01*
X43380135Y7667700D01*
X43381730Y7746827D01*
X43381938Y7829059D01*
X43380767Y7910029D01*
X43378227Y7985375D01*
X43374324Y8050731D01*
X43369067Y8101732D01*
X43362464Y8134013D01*
X43358481Y8141975D01*
X43346718Y8151703D01*
X43329155Y8158309D01*
X43301216Y8162371D01*
X43258320Y8164467D01*
X43195890Y8165173D01*
X43174331Y8165200D01*
X43011200Y8165200D01*
X42477800Y8165200D01*
X42477800Y8533500D01*
X42983467Y8533500D01*
X43120592Y8533128D01*
G36*
X45116760Y8565190D02*
X45206131Y8564881D01*
X45276322Y8564130D01*
X45330443Y8562742D01*
X45371604Y8560524D01*
X45402914Y8557284D01*
X45427485Y8552826D01*
X45448425Y8546958D01*
X45468846Y8539486D01*
X45478030Y8535817D01*
X45559934Y8489674D01*
X45629732Y8424437D01*
X45682017Y8345514D01*
X45693216Y8320631D01*
X45722650Y8247750D01*
X45729544Y6044300D01*
X45195600Y6044300D01*
X45195600Y6883162D01*
X44808250Y6876150D01*
X44801552Y6044300D01*
X44268500Y6044300D01*
X44268892Y7063475D01*
X44269110Y7232626D01*
X44269617Y7394164D01*
X44270391Y7546126D01*
X44271410Y7686551D01*
X44271733Y7719642D01*
X44802087Y7719642D01*
X44802292Y7619544D01*
X44802963Y7527654D01*
X44804037Y7447033D01*
X44805457Y7380742D01*
X44807161Y7331840D01*
X44809090Y7303389D01*
X44810366Y7297367D01*
X44825423Y7294391D01*
X44861195Y7291873D01*
X44913000Y7290014D01*
X44976156Y7289016D01*
X45007216Y7288900D01*
X45195600Y7288900D01*
X45195600Y7724623D01*
X45195364Y7849829D01*
X45194611Y7951653D01*
X45193269Y8032112D01*
X45191269Y8093220D01*
X45188539Y8136992D01*
X45185009Y8165444D01*
X45180610Y8180590D01*
X45179601Y8182225D01*
X45170086Y8191260D01*
X45154294Y8197215D01*
X45127828Y8200537D01*
X45086293Y8201670D01*
X45025293Y8201061D01*
X44998979Y8200528D01*
X44931640Y8198883D01*
X44885217Y8196811D01*
X44855231Y8193435D01*
X44837201Y8187880D01*
X44826647Y8179269D01*
X44819089Y8166726D01*
X44818315Y8165200D01*
X44813521Y8148456D01*
X44809673Y8117839D01*
X44806699Y8071349D01*
X44804527Y8006989D01*
X44803082Y7922759D01*
X44802293Y7816661D01*
X44802087Y7719642D01*
X44271733Y7719642D01*
X44272651Y7813474D01*
X44274092Y7924932D01*
X44275711Y8018964D01*
X44277485Y8093605D01*
X44279393Y8146893D01*
X44281411Y8176864D01*
X44281538Y8177900D01*
X44300185Y8265745D01*
X44331324Y8348134D01*
X44371866Y8418469D01*
X44418298Y8469806D01*
X44458070Y8497263D01*
X44507640Y8524496D01*
X44535200Y8536933D01*
X44555677Y8544837D01*
X44575866Y8551117D01*
X44598860Y8555958D01*
X44627755Y8559547D01*
X44665648Y8562071D01*
X44715632Y8563716D01*
X44780803Y8564670D01*
X44864256Y8565118D01*
X44969088Y8565246D01*
X45005100Y8565250D01*
X45116760Y8565190D01*
X45116760Y8565190D01*
G37*
X45116760Y8565190D02*
X45206131Y8564881D01*
X45276322Y8564130D01*
X45330443Y8562742D01*
X45371604Y8560524D01*
X45402914Y8557284D01*
X45427485Y8552826D01*
X45448425Y8546958D01*
X45468846Y8539486D01*
X45478030Y8535817D01*
X45559934Y8489674D01*
X45629732Y8424437D01*
X45682017Y8345514D01*
X45693216Y8320631D01*
X45722650Y8247750D01*
X45729544Y6044300D01*
X45195600Y6044300D01*
X45195600Y6883162D01*
X44808250Y6876150D01*
X44801552Y6044300D01*
X44268500Y6044300D01*
X44268892Y7063475D01*
X44269110Y7232626D01*
X44269617Y7394164D01*
X44270391Y7546126D01*
X44271410Y7686551D01*
X44271733Y7719642D01*
X44802087Y7719642D01*
X44802292Y7619544D01*
X44802963Y7527654D01*
X44804037Y7447033D01*
X44805457Y7380742D01*
X44807161Y7331840D01*
X44809090Y7303389D01*
X44810366Y7297367D01*
X44825423Y7294391D01*
X44861195Y7291873D01*
X44913000Y7290014D01*
X44976156Y7289016D01*
X45007216Y7288900D01*
X45195600Y7288900D01*
X45195600Y7724623D01*
X45195364Y7849829D01*
X45194611Y7951653D01*
X45193269Y8032112D01*
X45191269Y8093220D01*
X45188539Y8136992D01*
X45185009Y8165444D01*
X45180610Y8180590D01*
X45179601Y8182225D01*
X45170086Y8191260D01*
X45154294Y8197215D01*
X45127828Y8200537D01*
X45086293Y8201670D01*
X45025293Y8201061D01*
X44998979Y8200528D01*
X44931640Y8198883D01*
X44885217Y8196811D01*
X44855231Y8193435D01*
X44837201Y8187880D01*
X44826647Y8179269D01*
X44819089Y8166726D01*
X44818315Y8165200D01*
X44813521Y8148456D01*
X44809673Y8117839D01*
X44806699Y8071349D01*
X44804527Y8006989D01*
X44803082Y7922759D01*
X44802293Y7816661D01*
X44802087Y7719642D01*
X44271733Y7719642D01*
X44272651Y7813474D01*
X44274092Y7924932D01*
X44275711Y8018964D01*
X44277485Y8093605D01*
X44279393Y8146893D01*
X44281411Y8176864D01*
X44281538Y8177900D01*
X44300185Y8265745D01*
X44331324Y8348134D01*
X44371866Y8418469D01*
X44418298Y8469806D01*
X44458070Y8497263D01*
X44507640Y8524496D01*
X44535200Y8536933D01*
X44555677Y8544837D01*
X44575866Y8551117D01*
X44598860Y8555958D01*
X44627755Y8559547D01*
X44665648Y8562071D01*
X44715632Y8563716D01*
X44780803Y8564670D01*
X44864256Y8565118D01*
X44969088Y8565246D01*
X45005100Y8565250D01*
X45116760Y8565190D01*
G36*
X30526425Y12439150D02*
X30548540Y12426180D01*
X30570253Y12407467D01*
X30574567Y12402870D01*
X30597396Y12377479D01*
X30594620Y11786215D01*
X30579301Y11761442D01*
X30563137Y11740814D01*
X30542089Y11725352D01*
X30536811Y11722475D01*
X30509639Y11708280D01*
X29067954Y11708280D01*
X29070620Y12081660D01*
X30206000Y12084244D01*
X30206000Y12190880D01*
X28961430Y12190880D01*
X28958860Y10517020D01*
X28786140Y10516153D01*
X28744651Y10516067D01*
X28705931Y10516221D01*
X28671271Y10516589D01*
X28641966Y10517151D01*
X28619310Y10517883D01*
X28604594Y10518762D01*
X28599660Y10519468D01*
X28573803Y10532486D01*
X28552691Y10553801D01*
X28541761Y10572395D01*
X28529699Y10598300D01*
X28529649Y11480370D01*
X28529600Y12362440D01*
X28543790Y12389604D01*
X28560542Y12414248D01*
X28579787Y12432094D01*
X28601594Y12447420D01*
X30501112Y12450040D01*
X30526425Y12439150D01*
X30526425Y12439150D01*
G37*
X30526425Y12439150D02*
X30548540Y12426180D01*
X30570253Y12407467D01*
X30574567Y12402870D01*
X30597396Y12377479D01*
X30594620Y11786215D01*
X30579301Y11761442D01*
X30563137Y11740814D01*
X30542089Y11725352D01*
X30536811Y11722475D01*
X30509639Y11708280D01*
X29067954Y11708280D01*
X29070620Y12081660D01*
X30206000Y12084244D01*
X30206000Y12190880D01*
X28961430Y12190880D01*
X28958860Y10517020D01*
X28786140Y10516153D01*
X28744651Y10516067D01*
X28705931Y10516221D01*
X28671271Y10516589D01*
X28641966Y10517151D01*
X28619310Y10517883D01*
X28604594Y10518762D01*
X28599660Y10519468D01*
X28573803Y10532486D01*
X28552691Y10553801D01*
X28541761Y10572395D01*
X28529699Y10598300D01*
X28529649Y11480370D01*
X28529600Y12362440D01*
X28543790Y12389604D01*
X28560542Y12414248D01*
X28579787Y12432094D01*
X28601594Y12447420D01*
X30501112Y12450040D01*
X30526425Y12439150D01*
G36*
X29879798Y11596482D02*
X29980531Y11596369D01*
X30072978Y11596182D01*
X30156952Y11595923D01*
X30232265Y11595592D01*
X30298730Y11595192D01*
X30356159Y11594723D01*
X30404366Y11594186D01*
X30443162Y11593584D01*
X30472361Y11592917D01*
X30491775Y11592187D01*
X30501216Y11591395D01*
X30536911Y11581371D01*
X30563962Y11566232D01*
X30582576Y11545856D01*
X30585386Y11540987D01*
X30597160Y11518722D01*
X30597160Y10582673D01*
X30585730Y10560304D01*
X30575758Y10544471D01*
X30564169Y10531052D01*
X30559958Y10527478D01*
X30557855Y10526016D01*
X30555419Y10524697D01*
X30552142Y10523511D01*
X30547518Y10522451D01*
X30541039Y10521509D01*
X30532197Y10520677D01*
X30520485Y10519946D01*
X30505396Y10519308D01*
X30486423Y10518756D01*
X30463058Y10518280D01*
X30434794Y10517873D01*
X30401123Y10517527D01*
X30361539Y10517234D01*
X30315533Y10516985D01*
X30262599Y10516773D01*
X30202228Y10516589D01*
X30133915Y10516424D01*
X30057151Y10516272D01*
X29971429Y10516124D01*
X29876241Y10515971D01*
X29838598Y10515912D01*
X29737002Y10515767D01*
X29645103Y10515668D01*
X29562438Y10515620D01*
X29488544Y10515626D01*
X29422957Y10515689D01*
X29365216Y10515814D01*
X29314856Y10516003D01*
X29271415Y10516261D01*
X29234430Y10516592D01*
X29203437Y10516998D01*
X29177974Y10517484D01*
X29157578Y10518052D01*
X29141785Y10518708D01*
X29130133Y10519454D01*
X29122159Y10520294D01*
X29117399Y10521233D01*
X29116340Y10521614D01*
X29094003Y10536758D01*
X29079014Y10558904D01*
X29073593Y10575440D01*
X29072431Y10585674D01*
X29071414Y10604848D01*
X29070542Y10631745D01*
X29069816Y10665148D01*
X29069237Y10703837D01*
X29068807Y10746596D01*
X29068525Y10792205D01*
X29068393Y10839448D01*
X29068412Y10887106D01*
X29068583Y10933962D01*
X29068907Y10978796D01*
X29069384Y11020392D01*
X29070016Y11057531D01*
X29070803Y11088996D01*
X29071746Y11113568D01*
X29072847Y11130029D01*
X29073174Y11132948D01*
X29078300Y11162136D01*
X29085565Y11183158D01*
X29096022Y11197950D01*
X29110722Y11208446D01*
X29115406Y11210728D01*
X29119232Y11212321D01*
X29123679Y11213728D01*
X29129365Y11214962D01*
X29136907Y11216035D01*
X29146922Y11216956D01*
X29160027Y11217739D01*
X29176838Y11218395D01*
X29197974Y11218935D01*
X29224050Y11219371D01*
X29255684Y11219714D01*
X29293493Y11219976D01*
X29338094Y11220169D01*
X29390104Y11220305D01*
X29450140Y11220394D01*
X29518819Y11220448D01*
X29596758Y11220479D01*
X29635770Y11220489D01*
X30134880Y11220600D01*
X30134880Y10920880D01*
X29403360Y10920880D01*
X29403360Y10824360D01*
X30221240Y10824360D01*
X30221240Y11332360D01*
X29068080Y11332360D01*
X29068080Y11596520D01*
X29770966Y11596520D01*
X29879798Y11596482D01*
X29879798Y11596482D01*
G37*
X29879798Y11596482D02*
X29980531Y11596369D01*
X30072978Y11596182D01*
X30156952Y11595923D01*
X30232265Y11595592D01*
X30298730Y11595192D01*
X30356159Y11594723D01*
X30404366Y11594186D01*
X30443162Y11593584D01*
X30472361Y11592917D01*
X30491775Y11592187D01*
X30501216Y11591395D01*
X30536911Y11581371D01*
X30563962Y11566232D01*
X30582576Y11545856D01*
X30585386Y11540987D01*
X30597160Y11518722D01*
X30597160Y10582673D01*
X30585730Y10560304D01*
X30575758Y10544471D01*
X30564169Y10531052D01*
X30559958Y10527478D01*
X30557855Y10526016D01*
X30555419Y10524697D01*
X30552142Y10523511D01*
X30547518Y10522451D01*
X30541039Y10521509D01*
X30532197Y10520677D01*
X30520485Y10519946D01*
X30505396Y10519308D01*
X30486423Y10518756D01*
X30463058Y10518280D01*
X30434794Y10517873D01*
X30401123Y10517527D01*
X30361539Y10517234D01*
X30315533Y10516985D01*
X30262599Y10516773D01*
X30202228Y10516589D01*
X30133915Y10516424D01*
X30057151Y10516272D01*
X29971429Y10516124D01*
X29876241Y10515971D01*
X29838598Y10515912D01*
X29737002Y10515767D01*
X29645103Y10515668D01*
X29562438Y10515620D01*
X29488544Y10515626D01*
X29422957Y10515689D01*
X29365216Y10515814D01*
X29314856Y10516003D01*
X29271415Y10516261D01*
X29234430Y10516592D01*
X29203437Y10516998D01*
X29177974Y10517484D01*
X29157578Y10518052D01*
X29141785Y10518708D01*
X29130133Y10519454D01*
X29122159Y10520294D01*
X29117399Y10521233D01*
X29116340Y10521614D01*
X29094003Y10536758D01*
X29079014Y10558904D01*
X29073593Y10575440D01*
X29072431Y10585674D01*
X29071414Y10604848D01*
X29070542Y10631745D01*
X29069816Y10665148D01*
X29069237Y10703837D01*
X29068807Y10746596D01*
X29068525Y10792205D01*
X29068393Y10839448D01*
X29068412Y10887106D01*
X29068583Y10933962D01*
X29068907Y10978796D01*
X29069384Y11020392D01*
X29070016Y11057531D01*
X29070803Y11088996D01*
X29071746Y11113568D01*
X29072847Y11130029D01*
X29073174Y11132948D01*
X29078300Y11162136D01*
X29085565Y11183158D01*
X29096022Y11197950D01*
X29110722Y11208446D01*
X29115406Y11210728D01*
X29119232Y11212321D01*
X29123679Y11213728D01*
X29129365Y11214962D01*
X29136907Y11216035D01*
X29146922Y11216956D01*
X29160027Y11217739D01*
X29176838Y11218395D01*
X29197974Y11218935D01*
X29224050Y11219371D01*
X29255684Y11219714D01*
X29293493Y11219976D01*
X29338094Y11220169D01*
X29390104Y11220305D01*
X29450140Y11220394D01*
X29518819Y11220448D01*
X29596758Y11220479D01*
X29635770Y11220489D01*
X30134880Y11220600D01*
X30134880Y10920880D01*
X29403360Y10920880D01*
X29403360Y10824360D01*
X30221240Y10824360D01*
X30221240Y11332360D01*
X29068080Y11332360D01*
X29068080Y11596520D01*
X29770966Y11596520D01*
X29879798Y11596482D01*
G36*
X31574919Y12076575D02*
X31662056Y12076554D01*
X31740070Y12076511D01*
X31809482Y12076438D01*
X31870809Y12076330D01*
X31924571Y12076180D01*
X31971287Y12075980D01*
X32011475Y12075725D01*
X32045655Y12075406D01*
X32074346Y12075019D01*
X32098066Y12074555D01*
X32117334Y12074008D01*
X32132670Y12073371D01*
X32144593Y12072638D01*
X32153620Y12071802D01*
X32160272Y12070856D01*
X32165068Y12069794D01*
X32168525Y12068608D01*
X32170642Y12067585D01*
X32180074Y12062195D01*
X32187601Y12056687D01*
X32193451Y12049904D01*
X32197855Y12040686D01*
X32201041Y12027877D01*
X32203240Y12010318D01*
X32204680Y11986852D01*
X32205592Y11956320D01*
X32206204Y11917564D01*
X32206562Y11886318D01*
X32206867Y11848089D01*
X32206938Y11812463D01*
X32206791Y11780913D01*
X32206437Y11754912D01*
X32205892Y11735933D01*
X32205168Y11725449D01*
X32205062Y11724790D01*
X32201979Y11708280D01*
X31079760Y11708280D01*
X31079760Y11325531D01*
X31079715Y11262484D01*
X31079587Y11201223D01*
X31079383Y11142686D01*
X31079109Y11087812D01*
X31078773Y11037537D01*
X31078382Y10992802D01*
X31077942Y10954543D01*
X31077462Y10923699D01*
X31076948Y10901209D01*
X31076448Y10888651D01*
X31073136Y10834520D01*
X32690120Y10834520D01*
X32690120Y10697108D01*
X32690035Y10652726D01*
X32689653Y10617349D01*
X32688780Y10589825D01*
X32687226Y10568999D01*
X32684796Y10553718D01*
X32681298Y10542828D01*
X32676540Y10535176D01*
X32670330Y10529608D01*
X32662474Y10524970D01*
X32661290Y10524360D01*
X32654421Y10523414D01*
X32638008Y10522513D01*
X32612670Y10521658D01*
X32579023Y10520850D01*
X32537683Y10520089D01*
X32489269Y10519377D01*
X32434396Y10518714D01*
X32373682Y10518102D01*
X32307744Y10517540D01*
X32237199Y10517030D01*
X32162664Y10516574D01*
X32084755Y10516171D01*
X32004091Y10515823D01*
X31921286Y10515530D01*
X31836960Y10515294D01*
X31751728Y10515115D01*
X31666208Y10514995D01*
X31581016Y10514933D01*
X31496770Y10514932D01*
X31414086Y10514991D01*
X31333582Y10515113D01*
X31255874Y10515296D01*
X31181580Y10515544D01*
X31111315Y10515856D01*
X31045699Y10516233D01*
X30985346Y10516677D01*
X30930875Y10517187D01*
X30882902Y10517766D01*
X30842045Y10518414D01*
X30808919Y10519131D01*
X30784143Y10519919D01*
X30768333Y10520779D01*
X30762260Y10521623D01*
X30747931Y10530347D01*
X30734549Y10541935D01*
X30734320Y10542182D01*
X30721620Y10555939D01*
X30721620Y12001921D01*
X30737500Y12024011D01*
X30751674Y12040079D01*
X30769450Y12055558D01*
X30777742Y12061340D01*
X30802103Y12076580D01*
X31478141Y12076580D01*
X31574919Y12076575D01*
X31574919Y12076575D01*
G37*
X31574919Y12076575D02*
X31662056Y12076554D01*
X31740070Y12076511D01*
X31809482Y12076438D01*
X31870809Y12076330D01*
X31924571Y12076180D01*
X31971287Y12075980D01*
X32011475Y12075725D01*
X32045655Y12075406D01*
X32074346Y12075019D01*
X32098066Y12074555D01*
X32117334Y12074008D01*
X32132670Y12073371D01*
X32144593Y12072638D01*
X32153620Y12071802D01*
X32160272Y12070856D01*
X32165068Y12069794D01*
X32168525Y12068608D01*
X32170642Y12067585D01*
X32180074Y12062195D01*
X32187601Y12056687D01*
X32193451Y12049904D01*
X32197855Y12040686D01*
X32201041Y12027877D01*
X32203240Y12010318D01*
X32204680Y11986852D01*
X32205592Y11956320D01*
X32206204Y11917564D01*
X32206562Y11886318D01*
X32206867Y11848089D01*
X32206938Y11812463D01*
X32206791Y11780913D01*
X32206437Y11754912D01*
X32205892Y11735933D01*
X32205168Y11725449D01*
X32205062Y11724790D01*
X32201979Y11708280D01*
X31079760Y11708280D01*
X31079760Y11325531D01*
X31079715Y11262484D01*
X31079587Y11201223D01*
X31079383Y11142686D01*
X31079109Y11087812D01*
X31078773Y11037537D01*
X31078382Y10992802D01*
X31077942Y10954543D01*
X31077462Y10923699D01*
X31076948Y10901209D01*
X31076448Y10888651D01*
X31073136Y10834520D01*
X32690120Y10834520D01*
X32690120Y10697108D01*
X32690035Y10652726D01*
X32689653Y10617349D01*
X32688780Y10589825D01*
X32687226Y10568999D01*
X32684796Y10553718D01*
X32681298Y10542828D01*
X32676540Y10535176D01*
X32670330Y10529608D01*
X32662474Y10524970D01*
X32661290Y10524360D01*
X32654421Y10523414D01*
X32638008Y10522513D01*
X32612670Y10521658D01*
X32579023Y10520850D01*
X32537683Y10520089D01*
X32489269Y10519377D01*
X32434396Y10518714D01*
X32373682Y10518102D01*
X32307744Y10517540D01*
X32237199Y10517030D01*
X32162664Y10516574D01*
X32084755Y10516171D01*
X32004091Y10515823D01*
X31921286Y10515530D01*
X31836960Y10515294D01*
X31751728Y10515115D01*
X31666208Y10514995D01*
X31581016Y10514933D01*
X31496770Y10514932D01*
X31414086Y10514991D01*
X31333582Y10515113D01*
X31255874Y10515296D01*
X31181580Y10515544D01*
X31111315Y10515856D01*
X31045699Y10516233D01*
X30985346Y10516677D01*
X30930875Y10517187D01*
X30882902Y10517766D01*
X30842045Y10518414D01*
X30808919Y10519131D01*
X30784143Y10519919D01*
X30768333Y10520779D01*
X30762260Y10521623D01*
X30747931Y10530347D01*
X30734549Y10541935D01*
X30734320Y10542182D01*
X30721620Y10555939D01*
X30721620Y12001921D01*
X30737500Y12024011D01*
X30751674Y12040079D01*
X30769450Y12055558D01*
X30777742Y12061340D01*
X30802103Y12076580D01*
X31478141Y12076580D01*
X31574919Y12076575D01*
G36*
X34356520Y12449376D02*
X34411136Y12449234D01*
X34459172Y12448993D01*
X34501073Y12448639D01*
X34537287Y12448161D01*
X34568262Y12447543D01*
X34594444Y12446774D01*
X34616281Y12445839D01*
X34634221Y12444725D01*
X34648710Y12443419D01*
X34660196Y12441907D01*
X34669127Y12440176D01*
X34675948Y12438213D01*
X34681109Y12436005D01*
X34685056Y12433537D01*
X34688236Y12430797D01*
X34691097Y12427771D01*
X34694086Y12424447D01*
X34697651Y12420809D01*
X34697990Y12420490D01*
X34711960Y12407420D01*
X34711960Y12086121D01*
X34711871Y12008743D01*
X34711606Y11941505D01*
X34711164Y11884390D01*
X34710545Y11837378D01*
X34709748Y11800452D01*
X34708774Y11773593D01*
X34707621Y11756784D01*
X34706556Y11750521D01*
X34699201Y11736888D01*
X34688645Y11723125D01*
X34687826Y11722250D01*
X34674499Y11708280D01*
X33243840Y11708280D01*
X33243840Y11596520D01*
X33952663Y11596520D01*
X34053590Y11596508D01*
X34144837Y11596469D01*
X34226885Y11596397D01*
X34300215Y11596288D01*
X34365307Y11596137D01*
X34422640Y11595940D01*
X34472697Y11595691D01*
X34515956Y11595386D01*
X34552899Y11595020D01*
X34584006Y11594589D01*
X34609757Y11594087D01*
X34630633Y11593509D01*
X34647115Y11592852D01*
X34659682Y11592110D01*
X34668815Y11591278D01*
X34674995Y11590352D01*
X34678702Y11589327D01*
X34678765Y11589301D01*
X34684192Y11587193D01*
X34688993Y11585277D01*
X34693209Y11582954D01*
X34696876Y11579625D01*
X34700034Y11574692D01*
X34702719Y11567555D01*
X34704970Y11557617D01*
X34706824Y11544278D01*
X34708321Y11526940D01*
X34709498Y11505004D01*
X34710393Y11477871D01*
X34711044Y11444943D01*
X34711490Y11405622D01*
X34711767Y11359307D01*
X34711915Y11305401D01*
X34711971Y11243306D01*
X34711974Y11172421D01*
X34711961Y11092149D01*
X34711960Y11066989D01*
X34711960Y10582673D01*
X34700530Y10560301D01*
X34684836Y10538779D01*
X34668780Y10527475D01*
X34666158Y10526172D01*
X34663284Y10524981D01*
X34659707Y10523897D01*
X34654976Y10522914D01*
X34648640Y10522026D01*
X34640248Y10521228D01*
X34629349Y10520513D01*
X34615493Y10519876D01*
X34598227Y10519312D01*
X34577102Y10518814D01*
X34551667Y10518377D01*
X34521470Y10517995D01*
X34486061Y10517662D01*
X34444988Y10517373D01*
X34397801Y10517122D01*
X34344050Y10516903D01*
X34283282Y10516711D01*
X34215048Y10516539D01*
X34138895Y10516382D01*
X34054374Y10516235D01*
X33961034Y10516091D01*
X33858423Y10515945D01*
X33749300Y10515795D01*
X33632755Y10515649D01*
X33525990Y10515545D01*
X33428623Y10515485D01*
X33340274Y10515471D01*
X33260561Y10515504D01*
X33189105Y10515588D01*
X33125525Y10515725D01*
X33069439Y10515916D01*
X33020467Y10516163D01*
X32978228Y10516470D01*
X32942342Y10516837D01*
X32912427Y10517268D01*
X32888104Y10517763D01*
X32868991Y10518327D01*
X32854707Y10518959D01*
X32844872Y10519664D01*
X32839105Y10520442D01*
X32837440Y10520945D01*
X32826673Y10529748D01*
X32816910Y10542976D01*
X32815813Y10545031D01*
X32813098Y10551345D01*
X32811019Y10559028D01*
X32809511Y10569370D01*
X32808510Y10583662D01*
X32807950Y10603192D01*
X32807768Y10629252D01*
X32807900Y10663130D01*
X32808193Y10697360D01*
X32809500Y10831980D01*
X34300480Y10834554D01*
X34300480Y10941200D01*
X33565150Y10941270D01*
X33479354Y10941299D01*
X33396243Y10941368D01*
X33316393Y10941474D01*
X33240381Y10941615D01*
X33168784Y10941790D01*
X33102180Y10941994D01*
X33041145Y10942226D01*
X32986256Y10942483D01*
X32938091Y10942764D01*
X32897226Y10943064D01*
X32864240Y10943383D01*
X32839708Y10943718D01*
X32824208Y10944066D01*
X32818367Y10944408D01*
X32806915Y10947477D01*
X32808207Y11512029D01*
X32809500Y12076580D01*
X34300480Y12079154D01*
X34300480Y12190880D01*
X32806960Y12190880D01*
X32806960Y12278858D01*
X32807417Y12320385D01*
X32808984Y12353227D01*
X32811946Y12378826D01*
X32816593Y12398626D01*
X32823214Y12414068D01*
X32832096Y12426594D01*
X32837653Y12432386D01*
X32853346Y12447420D01*
X33752344Y12448732D01*
X33865557Y12448907D01*
X33969056Y12449076D01*
X34063290Y12449226D01*
X34148706Y12449345D01*
X34225752Y12449419D01*
X34294874Y12449433D01*
X34356520Y12449376D01*
X34356520Y12449376D01*
G37*
X34356520Y12449376D02*
X34411136Y12449234D01*
X34459172Y12448993D01*
X34501073Y12448639D01*
X34537287Y12448161D01*
X34568262Y12447543D01*
X34594444Y12446774D01*
X34616281Y12445839D01*
X34634221Y12444725D01*
X34648710Y12443419D01*
X34660196Y12441907D01*
X34669127Y12440176D01*
X34675948Y12438213D01*
X34681109Y12436005D01*
X34685056Y12433537D01*
X34688236Y12430797D01*
X34691097Y12427771D01*
X34694086Y12424447D01*
X34697651Y12420809D01*
X34697990Y12420490D01*
X34711960Y12407420D01*
X34711960Y12086121D01*
X34711871Y12008743D01*
X34711606Y11941505D01*
X34711164Y11884390D01*
X34710545Y11837378D01*
X34709748Y11800452D01*
X34708774Y11773593D01*
X34707621Y11756784D01*
X34706556Y11750521D01*
X34699201Y11736888D01*
X34688645Y11723125D01*
X34687826Y11722250D01*
X34674499Y11708280D01*
X33243840Y11708280D01*
X33243840Y11596520D01*
X33952663Y11596520D01*
X34053590Y11596508D01*
X34144837Y11596469D01*
X34226885Y11596397D01*
X34300215Y11596288D01*
X34365307Y11596137D01*
X34422640Y11595940D01*
X34472697Y11595691D01*
X34515956Y11595386D01*
X34552899Y11595020D01*
X34584006Y11594589D01*
X34609757Y11594087D01*
X34630633Y11593509D01*
X34647115Y11592852D01*
X34659682Y11592110D01*
X34668815Y11591278D01*
X34674995Y11590352D01*
X34678702Y11589327D01*
X34678765Y11589301D01*
X34684192Y11587193D01*
X34688993Y11585277D01*
X34693209Y11582954D01*
X34696876Y11579625D01*
X34700034Y11574692D01*
X34702719Y11567555D01*
X34704970Y11557617D01*
X34706824Y11544278D01*
X34708321Y11526940D01*
X34709498Y11505004D01*
X34710393Y11477871D01*
X34711044Y11444943D01*
X34711490Y11405622D01*
X34711767Y11359307D01*
X34711915Y11305401D01*
X34711971Y11243306D01*
X34711974Y11172421D01*
X34711961Y11092149D01*
X34711960Y11066989D01*
X34711960Y10582673D01*
X34700530Y10560301D01*
X34684836Y10538779D01*
X34668780Y10527475D01*
X34666158Y10526172D01*
X34663284Y10524981D01*
X34659707Y10523897D01*
X34654976Y10522914D01*
X34648640Y10522026D01*
X34640248Y10521228D01*
X34629349Y10520513D01*
X34615493Y10519876D01*
X34598227Y10519312D01*
X34577102Y10518814D01*
X34551667Y10518377D01*
X34521470Y10517995D01*
X34486061Y10517662D01*
X34444988Y10517373D01*
X34397801Y10517122D01*
X34344050Y10516903D01*
X34283282Y10516711D01*
X34215048Y10516539D01*
X34138895Y10516382D01*
X34054374Y10516235D01*
X33961034Y10516091D01*
X33858423Y10515945D01*
X33749300Y10515795D01*
X33632755Y10515649D01*
X33525990Y10515545D01*
X33428623Y10515485D01*
X33340274Y10515471D01*
X33260561Y10515504D01*
X33189105Y10515588D01*
X33125525Y10515725D01*
X33069439Y10515916D01*
X33020467Y10516163D01*
X32978228Y10516470D01*
X32942342Y10516837D01*
X32912427Y10517268D01*
X32888104Y10517763D01*
X32868991Y10518327D01*
X32854707Y10518959D01*
X32844872Y10519664D01*
X32839105Y10520442D01*
X32837440Y10520945D01*
X32826673Y10529748D01*
X32816910Y10542976D01*
X32815813Y10545031D01*
X32813098Y10551345D01*
X32811019Y10559028D01*
X32809511Y10569370D01*
X32808510Y10583662D01*
X32807950Y10603192D01*
X32807768Y10629252D01*
X32807900Y10663130D01*
X32808193Y10697360D01*
X32809500Y10831980D01*
X34300480Y10834554D01*
X34300480Y10941200D01*
X33565150Y10941270D01*
X33479354Y10941299D01*
X33396243Y10941368D01*
X33316393Y10941474D01*
X33240381Y10941615D01*
X33168784Y10941790D01*
X33102180Y10941994D01*
X33041145Y10942226D01*
X32986256Y10942483D01*
X32938091Y10942764D01*
X32897226Y10943064D01*
X32864240Y10943383D01*
X32839708Y10943718D01*
X32824208Y10944066D01*
X32818367Y10944408D01*
X32806915Y10947477D01*
X32808207Y11512029D01*
X32809500Y12076580D01*
X34300480Y12079154D01*
X34300480Y12190880D01*
X32806960Y12190880D01*
X32806960Y12278858D01*
X32807417Y12320385D01*
X32808984Y12353227D01*
X32811946Y12378826D01*
X32816593Y12398626D01*
X32823214Y12414068D01*
X32832096Y12426594D01*
X32837653Y12432386D01*
X32853346Y12447420D01*
X33752344Y12448732D01*
X33865557Y12448907D01*
X33969056Y12449076D01*
X34063290Y12449226D01*
X34148706Y12449345D01*
X34225752Y12449419D01*
X34294874Y12449433D01*
X34356520Y12449376D01*
G36*
X35968869Y12074012D02*
X36035307Y12073944D01*
X36094032Y12073790D01*
X36145532Y12073528D01*
X36190299Y12073132D01*
X36228820Y12072579D01*
X36261585Y12071845D01*
X36289084Y12070905D01*
X36311805Y12069736D01*
X36330239Y12068312D01*
X36344874Y12066611D01*
X36356201Y12064607D01*
X36364707Y12062277D01*
X36370883Y12059597D01*
X36375219Y12056542D01*
X36378202Y12053088D01*
X36380323Y12049211D01*
X36382071Y12044887D01*
X36383935Y12040092D01*
X36385820Y12035940D01*
X36387225Y12032973D01*
X36388495Y12029638D01*
X36389636Y12025431D01*
X36390655Y12019844D01*
X36391558Y12012373D01*
X36392353Y12002510D01*
X36393046Y11989751D01*
X36393645Y11973589D01*
X36394157Y11953518D01*
X36394587Y11929033D01*
X36394944Y11899627D01*
X36395234Y11864795D01*
X36395464Y11824030D01*
X36395641Y11776827D01*
X36395773Y11722680D01*
X36395865Y11661082D01*
X36395924Y11591528D01*
X36395959Y11513512D01*
X36395975Y11426528D01*
X36395979Y11330070D01*
X36395980Y11293364D01*
X36395980Y10571108D01*
X36385369Y10556764D01*
X36374378Y10545503D01*
X36359048Y10533851D01*
X36352349Y10529720D01*
X36329940Y10517020D01*
X35633980Y10516373D01*
X35550197Y10516322D01*
X35468894Y10516328D01*
X35390682Y10516386D01*
X35316175Y10516494D01*
X35245985Y10516649D01*
X35180723Y10516850D01*
X35121004Y10517093D01*
X35067440Y10517375D01*
X35020642Y10517694D01*
X34981224Y10518047D01*
X34949798Y10518431D01*
X34926977Y10518845D01*
X34913373Y10519284D01*
X34910080Y10519531D01*
X34884445Y10524391D01*
X34866288Y10531716D01*
X34852975Y10542981D01*
X34843411Y10556914D01*
X34831340Y10577980D01*
X34831340Y11299340D01*
X34831344Y11399386D01*
X34831361Y11489774D01*
X34831398Y11571008D01*
X34831461Y11643590D01*
X34831555Y11708023D01*
X34831687Y11764809D01*
X34831864Y11814452D01*
X34832092Y11857455D01*
X34832376Y11894319D01*
X34832724Y11925548D01*
X34833142Y11951644D01*
X34833635Y11973110D01*
X34834211Y11990450D01*
X34834875Y12004165D01*
X34835633Y12014758D01*
X34836493Y12022733D01*
X34837460Y12028591D01*
X34838541Y12032836D01*
X34839741Y12035970D01*
X34840566Y12037610D01*
X34854129Y12053524D01*
X34871046Y12064168D01*
X34874247Y12065503D01*
X34878011Y12066709D01*
X34882846Y12067793D01*
X34889255Y12068761D01*
X34897746Y12069620D01*
X34908824Y12070377D01*
X34922993Y12071037D01*
X34940761Y12071609D01*
X34962633Y12072098D01*
X34989115Y12072511D01*
X35020711Y12072855D01*
X35057928Y12073136D01*
X35101272Y12073361D01*
X35151248Y12073537D01*
X35208363Y12073669D01*
X35273120Y12073766D01*
X35346027Y12073833D01*
X35427589Y12073876D01*
X35518311Y12073904D01*
X35616200Y12073921D01*
X35718384Y12073950D01*
X35810897Y12073991D01*
X35894229Y12074020D01*
X35968869Y12074012D01*
X35968869Y12074012D01*
G37*
X35968869Y12074012D02*
X36035307Y12073944D01*
X36094032Y12073790D01*
X36145532Y12073528D01*
X36190299Y12073132D01*
X36228820Y12072579D01*
X36261585Y12071845D01*
X36289084Y12070905D01*
X36311805Y12069736D01*
X36330239Y12068312D01*
X36344874Y12066611D01*
X36356201Y12064607D01*
X36364707Y12062277D01*
X36370883Y12059597D01*
X36375219Y12056542D01*
X36378202Y12053088D01*
X36380323Y12049211D01*
X36382071Y12044887D01*
X36383935Y12040092D01*
X36385820Y12035940D01*
X36387225Y12032973D01*
X36388495Y12029638D01*
X36389636Y12025431D01*
X36390655Y12019844D01*
X36391558Y12012373D01*
X36392353Y12002510D01*
X36393046Y11989751D01*
X36393645Y11973589D01*
X36394157Y11953518D01*
X36394587Y11929033D01*
X36394944Y11899627D01*
X36395234Y11864795D01*
X36395464Y11824030D01*
X36395641Y11776827D01*
X36395773Y11722680D01*
X36395865Y11661082D01*
X36395924Y11591528D01*
X36395959Y11513512D01*
X36395975Y11426528D01*
X36395979Y11330070D01*
X36395980Y11293364D01*
X36395980Y10571108D01*
X36385369Y10556764D01*
X36374378Y10545503D01*
X36359048Y10533851D01*
X36352349Y10529720D01*
X36329940Y10517020D01*
X35633980Y10516373D01*
X35550197Y10516322D01*
X35468894Y10516328D01*
X35390682Y10516386D01*
X35316175Y10516494D01*
X35245985Y10516649D01*
X35180723Y10516850D01*
X35121004Y10517093D01*
X35067440Y10517375D01*
X35020642Y10517694D01*
X34981224Y10518047D01*
X34949798Y10518431D01*
X34926977Y10518845D01*
X34913373Y10519284D01*
X34910080Y10519531D01*
X34884445Y10524391D01*
X34866288Y10531716D01*
X34852975Y10542981D01*
X34843411Y10556914D01*
X34831340Y10577980D01*
X34831340Y11299340D01*
X34831344Y11399386D01*
X34831361Y11489774D01*
X34831398Y11571008D01*
X34831461Y11643590D01*
X34831555Y11708023D01*
X34831687Y11764809D01*
X34831864Y11814452D01*
X34832092Y11857455D01*
X34832376Y11894319D01*
X34832724Y11925548D01*
X34833142Y11951644D01*
X34833635Y11973110D01*
X34834211Y11990450D01*
X34834875Y12004165D01*
X34835633Y12014758D01*
X34836493Y12022733D01*
X34837460Y12028591D01*
X34838541Y12032836D01*
X34839741Y12035970D01*
X34840566Y12037610D01*
X34854129Y12053524D01*
X34871046Y12064168D01*
X34874247Y12065503D01*
X34878011Y12066709D01*
X34882846Y12067793D01*
X34889255Y12068761D01*
X34897746Y12069620D01*
X34908824Y12070377D01*
X34922993Y12071037D01*
X34940761Y12071609D01*
X34962633Y12072098D01*
X34989115Y12072511D01*
X35020711Y12072855D01*
X35057928Y12073136D01*
X35101272Y12073361D01*
X35151248Y12073537D01*
X35208363Y12073669D01*
X35273120Y12073766D01*
X35346027Y12073833D01*
X35427589Y12073876D01*
X35518311Y12073904D01*
X35616200Y12073921D01*
X35718384Y12073950D01*
X35810897Y12073991D01*
X35894229Y12074020D01*
X35968869Y12074012D01*
G36*
X37479291Y12439185D02*
X37500191Y12424826D01*
X37515185Y12407825D01*
X37519840Y12400525D01*
X37523318Y12393595D01*
X37525818Y12385444D01*
X37527539Y12374480D01*
X37528682Y12359112D01*
X37529446Y12337747D01*
X37530030Y12308795D01*
X37530386Y12286521D01*
X37531952Y12185800D01*
X36942080Y12185800D01*
X36942080Y11382224D01*
X36942078Y11276550D01*
X36942070Y11180557D01*
X36942049Y11093766D01*
X36942009Y11015699D01*
X36941944Y10945875D01*
X36941849Y10883817D01*
X36941716Y10829046D01*
X36941541Y10781082D01*
X36941316Y10739446D01*
X36941037Y10703660D01*
X36940696Y10673245D01*
X36940289Y10647721D01*
X36939808Y10626611D01*
X36939248Y10609434D01*
X36938603Y10595712D01*
X36937867Y10584967D01*
X36937034Y10576718D01*
X36936097Y10570488D01*
X36935051Y10565797D01*
X36933890Y10562166D01*
X36932608Y10559117D01*
X36931695Y10557197D01*
X36926797Y10547482D01*
X36921738Y10539477D01*
X36915536Y10533008D01*
X36907206Y10527898D01*
X36895768Y10523975D01*
X36880237Y10521062D01*
X36859631Y10518985D01*
X36832968Y10517570D01*
X36799265Y10516642D01*
X36757539Y10516025D01*
X36706807Y10515546D01*
X36696970Y10515464D01*
X36510280Y10513907D01*
X36510280Y12185771D01*
X35668270Y12187056D01*
X34826260Y12188340D01*
X34826260Y12289940D01*
X34826347Y12325225D01*
X34826698Y12351949D01*
X34827445Y12371713D01*
X34828723Y12386115D01*
X34830664Y12396755D01*
X34833402Y12405231D01*
X34836420Y12411860D01*
X34850041Y12430561D01*
X34864360Y12441063D01*
X34866610Y12441996D01*
X34869731Y12442863D01*
X34874095Y12443664D01*
X34880074Y12444402D01*
X34888039Y12445081D01*
X34898363Y12445702D01*
X34911418Y12446268D01*
X34927575Y12446782D01*
X34947207Y12447246D01*
X34970684Y12447662D01*
X34998380Y12448034D01*
X35030666Y12448363D01*
X35067914Y12448653D01*
X35110496Y12448905D01*
X35158784Y12449123D01*
X35213149Y12449308D01*
X35273965Y12449464D01*
X35341601Y12449593D01*
X35416431Y12449697D01*
X35498827Y12449780D01*
X35589160Y12449842D01*
X35687802Y12449888D01*
X35795125Y12449920D01*
X35911501Y12449939D01*
X36037302Y12449949D01*
X36169586Y12449953D01*
X37457032Y12449960D01*
X37479291Y12439185D01*
X37479291Y12439185D01*
G37*
X37479291Y12439185D02*
X37500191Y12424826D01*
X37515185Y12407825D01*
X37519840Y12400525D01*
X37523318Y12393595D01*
X37525818Y12385444D01*
X37527539Y12374480D01*
X37528682Y12359112D01*
X37529446Y12337747D01*
X37530030Y12308795D01*
X37530386Y12286521D01*
X37531952Y12185800D01*
X36942080Y12185800D01*
X36942080Y11382224D01*
X36942078Y11276550D01*
X36942070Y11180557D01*
X36942049Y11093766D01*
X36942009Y11015699D01*
X36941944Y10945875D01*
X36941849Y10883817D01*
X36941716Y10829046D01*
X36941541Y10781082D01*
X36941316Y10739446D01*
X36941037Y10703660D01*
X36940696Y10673245D01*
X36940289Y10647721D01*
X36939808Y10626611D01*
X36939248Y10609434D01*
X36938603Y10595712D01*
X36937867Y10584967D01*
X36937034Y10576718D01*
X36936097Y10570488D01*
X36935051Y10565797D01*
X36933890Y10562166D01*
X36932608Y10559117D01*
X36931695Y10557197D01*
X36926797Y10547482D01*
X36921738Y10539477D01*
X36915536Y10533008D01*
X36907206Y10527898D01*
X36895768Y10523975D01*
X36880237Y10521062D01*
X36859631Y10518985D01*
X36832968Y10517570D01*
X36799265Y10516642D01*
X36757539Y10516025D01*
X36706807Y10515546D01*
X36696970Y10515464D01*
X36510280Y10513907D01*
X36510280Y12185771D01*
X35668270Y12187056D01*
X34826260Y12188340D01*
X34826260Y12289940D01*
X34826347Y12325225D01*
X34826698Y12351949D01*
X34827445Y12371713D01*
X34828723Y12386115D01*
X34830664Y12396755D01*
X34833402Y12405231D01*
X34836420Y12411860D01*
X34850041Y12430561D01*
X34864360Y12441063D01*
X34866610Y12441996D01*
X34869731Y12442863D01*
X34874095Y12443664D01*
X34880074Y12444402D01*
X34888039Y12445081D01*
X34898363Y12445702D01*
X34911418Y12446268D01*
X34927575Y12446782D01*
X34947207Y12447246D01*
X34970684Y12447662D01*
X34998380Y12448034D01*
X35030666Y12448363D01*
X35067914Y12448653D01*
X35110496Y12448905D01*
X35158784Y12449123D01*
X35213149Y12449308D01*
X35273965Y12449464D01*
X35341601Y12449593D01*
X35416431Y12449697D01*
X35498827Y12449780D01*
X35589160Y12449842D01*
X35687802Y12449888D01*
X35795125Y12449920D01*
X35911501Y12449939D01*
X36037302Y12449949D01*
X36169586Y12449953D01*
X37457032Y12449960D01*
X37479291Y12439185D01*
G36*
X31386583Y12454366D02*
X31492678Y12454299D01*
X31608520Y12454169D01*
X31719840Y12454002D01*
X31832510Y12453813D01*
X31935469Y12453631D01*
X32029163Y12453451D01*
X32114042Y12453269D01*
X32190552Y12453077D01*
X32259142Y12452872D01*
X32320261Y12452648D01*
X32374355Y12452399D01*
X32421873Y12452121D01*
X32463264Y12451807D01*
X32498974Y12451452D01*
X32529452Y12451052D01*
X32555145Y12450600D01*
X32576503Y12450092D01*
X32593973Y12449522D01*
X32608002Y12448884D01*
X32619040Y12448174D01*
X32627533Y12447386D01*
X32633930Y12446514D01*
X32638679Y12445554D01*
X32642227Y12444499D01*
X32645024Y12443345D01*
X32645843Y12442949D01*
X32663551Y12429858D01*
X32677593Y12412023D01*
X32690120Y12390648D01*
X32689998Y11687514D01*
X32689951Y11601089D01*
X32689842Y11517751D01*
X32689674Y11438066D01*
X32689452Y11362602D01*
X32689180Y11291927D01*
X32688859Y11226608D01*
X32688496Y11167214D01*
X32688092Y11114311D01*
X32687652Y11068468D01*
X32687179Y11030252D01*
X32686678Y11000231D01*
X32686151Y10978972D01*
X32685602Y10967043D01*
X32685343Y10964839D01*
X32679266Y10948450D01*
X32670434Y10934321D01*
X32669338Y10933089D01*
X32657868Y10920880D01*
X31936124Y10920899D01*
X31836226Y10920904D01*
X31745984Y10920917D01*
X31664894Y10920944D01*
X31592454Y10920994D01*
X31528158Y10921073D01*
X31471505Y10921188D01*
X31421989Y10921347D01*
X31379107Y10921555D01*
X31342356Y10921821D01*
X31311232Y10922150D01*
X31285231Y10922551D01*
X31263849Y10923030D01*
X31246583Y10923595D01*
X31232929Y10924251D01*
X31222383Y10925007D01*
X31214442Y10925869D01*
X31208602Y10926844D01*
X31204360Y10927939D01*
X31201211Y10929161D01*
X31198652Y10930518D01*
X31197564Y10931171D01*
X31190635Y10935452D01*
X31184719Y10939726D01*
X31179733Y10944788D01*
X31175591Y10951432D01*
X31172209Y10960453D01*
X31169502Y10972648D01*
X31167387Y10988810D01*
X31165778Y11009736D01*
X31164591Y11036220D01*
X31163742Y11069057D01*
X31163146Y11109043D01*
X31162719Y11156972D01*
X31162376Y11213640D01*
X31162110Y11264918D01*
X31161782Y11328431D01*
X31161553Y11382574D01*
X31161499Y11428135D01*
X31161696Y11465904D01*
X31162221Y11496670D01*
X31163150Y11521222D01*
X31164559Y11540350D01*
X31166524Y11554843D01*
X31169121Y11565490D01*
X31172427Y11573080D01*
X31176518Y11578403D01*
X31181470Y11582247D01*
X31187360Y11585403D01*
X31193333Y11588215D01*
X31196942Y11589596D01*
X31202003Y11590816D01*
X31209120Y11591885D01*
X31218899Y11592813D01*
X31231945Y11593611D01*
X31248862Y11594287D01*
X31270256Y11594851D01*
X31296730Y11595314D01*
X31328891Y11595685D01*
X31367343Y11595973D01*
X31412690Y11596188D01*
X31465538Y11596341D01*
X31526491Y11596440D01*
X31596155Y11596496D01*
X31675134Y11596519D01*
X31709177Y11596520D01*
X32207520Y11596520D01*
X32207520Y11342605D01*
X31921770Y11341293D01*
X31636020Y11339980D01*
X31634588Y11280290D01*
X31633157Y11220600D01*
X32293931Y11220600D01*
X32292635Y11707010D01*
X32291340Y12193420D01*
X31505210Y12194707D01*
X30719080Y12195993D01*
X30719191Y12283607D01*
X30719390Y12317065D01*
X30719990Y12342123D01*
X30721143Y12360539D01*
X30723003Y12374069D01*
X30725721Y12384471D01*
X30728554Y12391584D01*
X30743055Y12414070D01*
X30763465Y12433645D01*
X30786391Y12447283D01*
X30793925Y12449963D01*
X30800149Y12450718D01*
X30813490Y12451400D01*
X30834169Y12452009D01*
X30862404Y12452546D01*
X30898414Y12453011D01*
X30942418Y12453407D01*
X30994635Y12453734D01*
X31055285Y12453993D01*
X31124585Y12454184D01*
X31202756Y12454310D01*
X31290015Y12454370D01*
X31386583Y12454366D01*
X31386583Y12454366D01*
G37*
X31386583Y12454366D02*
X31492678Y12454299D01*
X31608520Y12454169D01*
X31719840Y12454002D01*
X31832510Y12453813D01*
X31935469Y12453631D01*
X32029163Y12453451D01*
X32114042Y12453269D01*
X32190552Y12453077D01*
X32259142Y12452872D01*
X32320261Y12452648D01*
X32374355Y12452399D01*
X32421873Y12452121D01*
X32463264Y12451807D01*
X32498974Y12451452D01*
X32529452Y12451052D01*
X32555145Y12450600D01*
X32576503Y12450092D01*
X32593973Y12449522D01*
X32608002Y12448884D01*
X32619040Y12448174D01*
X32627533Y12447386D01*
X32633930Y12446514D01*
X32638679Y12445554D01*
X32642227Y12444499D01*
X32645024Y12443345D01*
X32645843Y12442949D01*
X32663551Y12429858D01*
X32677593Y12412023D01*
X32690120Y12390648D01*
X32689998Y11687514D01*
X32689951Y11601089D01*
X32689842Y11517751D01*
X32689674Y11438066D01*
X32689452Y11362602D01*
X32689180Y11291927D01*
X32688859Y11226608D01*
X32688496Y11167214D01*
X32688092Y11114311D01*
X32687652Y11068468D01*
X32687179Y11030252D01*
X32686678Y11000231D01*
X32686151Y10978972D01*
X32685602Y10967043D01*
X32685343Y10964839D01*
X32679266Y10948450D01*
X32670434Y10934321D01*
X32669338Y10933089D01*
X32657868Y10920880D01*
X31936124Y10920899D01*
X31836226Y10920904D01*
X31745984Y10920917D01*
X31664894Y10920944D01*
X31592454Y10920994D01*
X31528158Y10921073D01*
X31471505Y10921188D01*
X31421989Y10921347D01*
X31379107Y10921555D01*
X31342356Y10921821D01*
X31311232Y10922150D01*
X31285231Y10922551D01*
X31263849Y10923030D01*
X31246583Y10923595D01*
X31232929Y10924251D01*
X31222383Y10925007D01*
X31214442Y10925869D01*
X31208602Y10926844D01*
X31204360Y10927939D01*
X31201211Y10929161D01*
X31198652Y10930518D01*
X31197564Y10931171D01*
X31190635Y10935452D01*
X31184719Y10939726D01*
X31179733Y10944788D01*
X31175591Y10951432D01*
X31172209Y10960453D01*
X31169502Y10972648D01*
X31167387Y10988810D01*
X31165778Y11009736D01*
X31164591Y11036220D01*
X31163742Y11069057D01*
X31163146Y11109043D01*
X31162719Y11156972D01*
X31162376Y11213640D01*
X31162110Y11264918D01*
X31161782Y11328431D01*
X31161553Y11382574D01*
X31161499Y11428135D01*
X31161696Y11465904D01*
X31162221Y11496670D01*
X31163150Y11521222D01*
X31164559Y11540350D01*
X31166524Y11554843D01*
X31169121Y11565490D01*
X31172427Y11573080D01*
X31176518Y11578403D01*
X31181470Y11582247D01*
X31187360Y11585403D01*
X31193333Y11588215D01*
X31196942Y11589596D01*
X31202003Y11590816D01*
X31209120Y11591885D01*
X31218899Y11592813D01*
X31231945Y11593611D01*
X31248862Y11594287D01*
X31270256Y11594851D01*
X31296730Y11595314D01*
X31328891Y11595685D01*
X31367343Y11595973D01*
X31412690Y11596188D01*
X31465538Y11596341D01*
X31526491Y11596440D01*
X31596155Y11596496D01*
X31675134Y11596519D01*
X31709177Y11596520D01*
X32207520Y11596520D01*
X32207520Y11342605D01*
X31921770Y11341293D01*
X31636020Y11339980D01*
X31634588Y11280290D01*
X31633157Y11220600D01*
X32293931Y11220600D01*
X32292635Y11707010D01*
X32291340Y12193420D01*
X31505210Y12194707D01*
X30719080Y12195993D01*
X30719191Y12283607D01*
X30719390Y12317065D01*
X30719990Y12342123D01*
X30721143Y12360539D01*
X30723003Y12374069D01*
X30725721Y12384471D01*
X30728554Y12391584D01*
X30743055Y12414070D01*
X30763465Y12433645D01*
X30786391Y12447283D01*
X30793925Y12449963D01*
X30800149Y12450718D01*
X30813490Y12451400D01*
X30834169Y12452009D01*
X30862404Y12452546D01*
X30898414Y12453011D01*
X30942418Y12453407D01*
X30994635Y12453734D01*
X31055285Y12453993D01*
X31124585Y12454184D01*
X31202756Y12454310D01*
X31290015Y12454370D01*
X31386583Y12454366D01*
D14*
X8000000Y38500000D03*
X14000000Y10500000D03*
X80000000Y10500000D03*
X86000000Y38500000D03*
D15*
X78000000Y21775000D03*
X78000000Y15425000D03*
X29000000Y21425000D03*
X29000000Y15075000D03*
X24000000Y21425000D03*
X24000000Y15075000D03*
X73000000Y21775000D03*
X73000000Y15425000D03*
D16*
X54750000Y38150000D03*
D17*
X54750000Y34250000D03*
D16*
X53250000Y38150000D03*
X51750000Y38150000D03*
X50250000Y38150000D03*
X48750000Y38150000D03*
D17*
X53250000Y34250000D03*
X51750000Y34250000D03*
X50250000Y34250000D03*
X48750000Y34250000D03*
D16*
X45250000Y38150000D03*
D17*
X45250000Y34250000D03*
D16*
X43750000Y38150000D03*
X42250000Y38150000D03*
X40750000Y38150000D03*
X39250000Y38150000D03*
D17*
X43750000Y34250000D03*
X42250000Y34250000D03*
X40750000Y34250000D03*
X39250000Y34250000D03*
D18*
X67000000Y10155000D03*
X67000000Y6845000D03*
D19*
X18750000Y18750000D03*
D20*
X14250000Y18750000D03*
X18750000Y15250000D03*
D21*
X61400000Y16350000D03*
X61400000Y15850000D03*
X61400000Y15350000D03*
X61400000Y14850000D03*
X61400000Y14350000D03*
X65800000Y14350000D03*
X65800000Y14850000D03*
X65800000Y15350000D03*
X65800000Y15850000D03*
X65800000Y16350000D03*
X61400000Y13850000D03*
X61400000Y13350000D03*
X61400000Y12850000D03*
X65800000Y13850000D03*
X65800000Y13350000D03*
X65800000Y12850000D03*
D22*
X64000000Y15550000D03*
X64000000Y14600000D03*
X64000000Y13650000D03*
X63200000Y13650000D03*
X63200000Y14600000D03*
X63200000Y15550000D03*
D16*
X61250000Y38150000D03*
D17*
X61250000Y34250000D03*
D16*
X59750000Y38150000D03*
X58250000Y38150000D03*
D17*
X59750000Y34250000D03*
X58250000Y34250000D03*
D16*
X35750000Y38150000D03*
D17*
X35750000Y34250000D03*
D16*
X34250000Y38150000D03*
X32750000Y38150000D03*
D17*
X34250000Y34250000D03*
X32750000Y34250000D03*
D23*
X74850000Y6520000D03*
X74850000Y7170000D03*
X74850000Y7830000D03*
X74850000Y8480000D03*
X72650000Y8480000D03*
X72650000Y7830000D03*
X72650000Y7170000D03*
X72650000Y6520000D03*
D24*
X58500000Y21300000D03*
X59000000Y21300000D03*
X59500000Y21300000D03*
X60000000Y21300000D03*
X60500000Y21300000D03*
X61000000Y21300000D03*
D25*
X61700000Y22000000D03*
X61700000Y22500000D03*
X61700000Y23000000D03*
X61700000Y23500000D03*
X61700000Y24000000D03*
X61700000Y24500000D03*
D24*
X61000000Y25200000D03*
X60500000Y25200000D03*
X60000000Y25200000D03*
X59500000Y25200000D03*
X59000000Y25200000D03*
X58500000Y25200000D03*
D25*
X57800000Y24500000D03*
X57800000Y24000000D03*
X57800000Y23500000D03*
X57800000Y23000000D03*
X57800000Y22500000D03*
X57800000Y22000000D03*
D26*
X60400000Y23900000D03*
X59100000Y23900000D03*
X60400000Y22600000D03*
X59100000Y22600000D03*
D27*
X59100000Y11200000D03*
X62100000Y11200000D03*
D28*
X60200000Y16000000D03*
X60200000Y17100000D03*
D29*
X67650000Y15400000D03*
X69150000Y15400000D03*
D30*
X29500000Y23200000D03*
X29500000Y24700000D03*
X81250000Y21000000D03*
X81250000Y22500000D03*
D28*
X67400000Y14350000D03*
X67400000Y13250000D03*
D30*
X71000000Y9250000D03*
X71000000Y7750000D03*
D31*
X59000000Y6250000D03*
X59000000Y9250000D03*
X62250000Y6250000D03*
X62250000Y9250000D03*
D32*
X76200000Y8250000D03*
X77300000Y8250000D03*
D28*
X63000000Y21750000D03*
X63000000Y20650000D03*
D32*
X61400000Y27900000D03*
X60300000Y27900000D03*
X61400000Y26700000D03*
X60300000Y26700000D03*
D28*
X63000000Y23450000D03*
X63000000Y24550000D03*
D33*
X22300000Y40200000D03*
X20900000Y40200000D03*
X75300000Y40200000D03*
X73900000Y40200000D03*
X18700000Y40200000D03*
X17300000Y40200000D03*
X71700000Y40200000D03*
X70300000Y40200000D03*
D34*
X43000000Y26300000D03*
X44600000Y26300000D03*
X58200000Y18200000D03*
X59800000Y18200000D03*
D35*
X59650000Y15300000D03*
X58750000Y15300000D03*
X41150000Y26300000D03*
X42050000Y26300000D03*
X77200000Y7000000D03*
X76300000Y7000000D03*
D36*
X51750000Y30450000D03*
X51750000Y29550000D03*
X50250000Y30450000D03*
X50250000Y29550000D03*
X48750000Y30450000D03*
X48750000Y29550000D03*
X42250000Y30450000D03*
X42250000Y29550000D03*
X40750000Y30450000D03*
X40750000Y29550000D03*
X39250000Y30450000D03*
X39250000Y29550000D03*
D35*
X58050000Y16800000D03*
X57150000Y16800000D03*
D36*
X45400000Y20250000D03*
X45400000Y21150000D03*
X46600000Y21150000D03*
X46600000Y20250000D03*
D37*
X41250000Y18500000D03*
X41750000Y18500000D03*
X42250000Y18500000D03*
X42750000Y18500000D03*
X43250000Y18500000D03*
X43750000Y18500000D03*
X44250000Y18500000D03*
X44750000Y18500000D03*
X45250000Y18500000D03*
X45750000Y18500000D03*
X46250000Y18500000D03*
X46750000Y18500000D03*
X47250000Y18500000D03*
X47750000Y18500000D03*
X48250000Y18500000D03*
X48750000Y18500000D03*
X49250000Y18500000D03*
X49750000Y18500000D03*
X50250000Y18500000D03*
X50750000Y18500000D03*
X51250000Y18500000D03*
X51750000Y18500000D03*
X52250000Y18500000D03*
X52750000Y18500000D03*
D38*
X38800000Y17200000D03*
X55200000Y17200000D03*
D39*
X39350000Y15670000D03*
X54650000Y15670000D03*
D40*
X40400000Y17250000D03*
X53600000Y17250000D03*
D41*
X20460000Y8000000D03*
D42*
X20460000Y12000000D03*
X21730000Y8000000D03*
X21730000Y12000000D03*
X23000000Y8000000D03*
X23000000Y12000000D03*
X24270000Y8000000D03*
X24270000Y12000000D03*
X25540000Y8000000D03*
X25540000Y12000000D03*
D43*
X75350000Y12000000D03*
D44*
X72250000Y12000000D03*
D45*
X14785000Y24874000D03*
X16055000Y24874000D03*
X17325000Y24874000D03*
X18595000Y24874000D03*
X19865000Y24874000D03*
X21135000Y24874000D03*
X22405000Y24874000D03*
X23675000Y24874000D03*
X24945000Y24874000D03*
X26215000Y24874000D03*
X26215000Y38126000D03*
X24945000Y38126000D03*
X23675000Y38126000D03*
X22405000Y38126000D03*
X21135000Y38126000D03*
X19865000Y38126000D03*
X18595000Y38126000D03*
X17325000Y38126000D03*
X16055000Y38126000D03*
X14785000Y38126000D03*
D46*
X13515000Y31500000D03*
X27485000Y31500000D03*
D47*
X16690000Y31500000D03*
X19230000Y31500000D03*
X21770000Y31500000D03*
X24310000Y31500000D03*
D45*
X67785000Y24874000D03*
X69055000Y24874000D03*
X70325000Y24874000D03*
X71595000Y24874000D03*
X72865000Y24874000D03*
X74135000Y24874000D03*
X75405000Y24874000D03*
X76675000Y24874000D03*
X77945000Y24874000D03*
X79215000Y24874000D03*
X79215000Y38126000D03*
X77945000Y38126000D03*
X76675000Y38126000D03*
X75405000Y38126000D03*
X74135000Y38126000D03*
X72865000Y38126000D03*
X71595000Y38126000D03*
X70325000Y38126000D03*
X69055000Y38126000D03*
X67785000Y38126000D03*
D46*
X66515000Y31500000D03*
X80485000Y31500000D03*
D47*
X69690000Y31500000D03*
X72230000Y31500000D03*
X74770000Y31500000D03*
X77310000Y31500000D03*
D10*
G36*
X8084289Y16395434D02*
X9877439Y16552314D01*
X10034319Y14759164D01*
X8241169Y14602284D01*
X8084289Y16395434D01*
X8084289Y16395434D01*
G37*
G36*
X5553955Y16174059D02*
X7347105Y16330939D01*
X7503985Y14537789D01*
X5710835Y14380909D01*
X5553955Y16174059D01*
X5553955Y16174059D01*
G37*
G36*
X3023620Y15952683D02*
X4816770Y16109563D01*
X4973650Y14316413D01*
X3180500Y14159533D01*
X3023620Y15952683D01*
X3023620Y15952683D01*
G37*
G36*
X493286Y15731308D02*
X2286436Y15888188D01*
X2443316Y14095038D01*
X650166Y13938158D01*
X493286Y15731308D01*
X493286Y15731308D01*
G37*
G36*
X8256684Y14424962D02*
X10049834Y14581842D01*
X10206714Y12788692D01*
X8413564Y12631812D01*
X8256684Y14424962D01*
X8256684Y14424962D01*
G37*
G36*
X5726350Y14203587D02*
X7519500Y14360467D01*
X7676380Y12567317D01*
X5883230Y12410437D01*
X5726350Y14203587D01*
X5726350Y14203587D01*
G37*
G36*
X3196015Y13982211D02*
X4989165Y14139091D01*
X5146045Y12345941D01*
X3352895Y12189061D01*
X3196015Y13982211D01*
X3196015Y13982211D01*
G37*
G36*
X665681Y13760836D02*
X2458831Y13917716D01*
X2615711Y12124566D01*
X822561Y11967686D01*
X665681Y13760836D01*
X665681Y13760836D01*
G37*
G36*
X9673416Y30336546D02*
X11052296Y29179528D01*
X9895278Y27800648D01*
X8516398Y28957666D01*
X9673416Y30336546D01*
X9673416Y30336546D01*
G37*
G36*
X7727663Y31969226D02*
X9106543Y30812208D01*
X7949525Y29433328D01*
X6570645Y30590346D01*
X7727663Y31969226D01*
X7727663Y31969226D01*
G37*
G36*
X5781910Y33601907D02*
X7160790Y32444889D01*
X6003772Y31066009D01*
X4624892Y32223027D01*
X5781910Y33601907D01*
X5781910Y33601907D01*
G37*
G36*
X3836157Y35234587D02*
X5215037Y34077569D01*
X4058019Y32698689D01*
X2679139Y33855707D01*
X3836157Y35234587D01*
X3836157Y35234587D01*
G37*
G36*
X8401981Y28821311D02*
X9780861Y27664293D01*
X8623843Y26285413D01*
X7244963Y27442431D01*
X8401981Y28821311D01*
X8401981Y28821311D01*
G37*
G36*
X6456228Y30453991D02*
X7835108Y29296973D01*
X6678090Y27918093D01*
X5299210Y29075111D01*
X6456228Y30453991D01*
X6456228Y30453991D01*
G37*
G36*
X4510475Y32086672D02*
X5889355Y30929654D01*
X4732337Y29550774D01*
X3353457Y30707792D01*
X4510475Y32086672D01*
X4510475Y32086672D01*
G37*
G36*
X2564722Y33719352D02*
X3943602Y32562334D01*
X2786584Y31183454D01*
X1407704Y32340472D01*
X2564722Y33719352D01*
X2564722Y33719352D01*
G37*
D48*
X3839000Y18990000D03*
X3839000Y21530000D03*
X3839000Y24070000D03*
X3839000Y26610000D03*
X1861000Y18990000D03*
X1861000Y21530000D03*
X1861000Y24070000D03*
X1861000Y26610000D03*
D10*
G36*
X91713564Y15898188D02*
X93506714Y15741308D01*
X93349834Y13948158D01*
X91556684Y14105038D01*
X91713564Y15898188D01*
X91713564Y15898188D01*
G37*
G36*
X89183230Y16119563D02*
X90976380Y15962683D01*
X90819500Y14169533D01*
X89026350Y14326413D01*
X89183230Y16119563D01*
X89183230Y16119563D01*
G37*
G36*
X86652895Y16340939D02*
X88446045Y16184059D01*
X88289165Y14390909D01*
X86496015Y14547789D01*
X86652895Y16340939D01*
X86652895Y16340939D01*
G37*
G36*
X84122561Y16562314D02*
X85915711Y16405434D01*
X85758831Y14612284D01*
X83965681Y14769164D01*
X84122561Y16562314D01*
X84122561Y16562314D01*
G37*
G36*
X91541169Y13927716D02*
X93334319Y13770836D01*
X93177439Y11977686D01*
X91384289Y12134566D01*
X91541169Y13927716D01*
X91541169Y13927716D01*
G37*
G36*
X89010835Y14149091D02*
X90803985Y13992211D01*
X90647105Y12199061D01*
X88853955Y12355941D01*
X89010835Y14149091D01*
X89010835Y14149091D01*
G37*
G36*
X86480500Y14370467D02*
X88273650Y14213587D01*
X88116770Y12420437D01*
X86323620Y12577317D01*
X86480500Y14370467D01*
X86480500Y14370467D01*
G37*
G36*
X83950166Y14591842D02*
X85743316Y14434962D01*
X85586436Y12641812D01*
X83793286Y12798692D01*
X83950166Y14591842D01*
X83950166Y14591842D01*
G37*
G36*
X88784963Y34087569D02*
X90163843Y35244587D01*
X91320861Y33865707D01*
X89941981Y32708689D01*
X88784963Y34087569D01*
X88784963Y34087569D01*
G37*
G36*
X86839210Y32454889D02*
X88218090Y33611907D01*
X89375108Y32233027D01*
X87996228Y31076009D01*
X86839210Y32454889D01*
X86839210Y32454889D01*
G37*
G36*
X84893457Y30822208D02*
X86272337Y31979226D01*
X87429355Y30600346D01*
X86050475Y29443328D01*
X84893457Y30822208D01*
X84893457Y30822208D01*
G37*
G36*
X82947704Y29189528D02*
X84326584Y30346546D01*
X85483602Y28967666D01*
X84104722Y27810648D01*
X82947704Y29189528D01*
X82947704Y29189528D01*
G37*
G36*
X90056398Y32572334D02*
X91435278Y33729352D01*
X92592296Y32350472D01*
X91213416Y31193454D01*
X90056398Y32572334D01*
X90056398Y32572334D01*
G37*
G36*
X88110645Y30939654D02*
X89489525Y32096672D01*
X90646543Y30717792D01*
X89267663Y29560774D01*
X88110645Y30939654D01*
X88110645Y30939654D01*
G37*
G36*
X86164892Y29306973D02*
X87543772Y30463991D01*
X88700790Y29085111D01*
X87321910Y27928093D01*
X86164892Y29306973D01*
X86164892Y29306973D01*
G37*
G36*
X84219139Y27674293D02*
X85598019Y28831311D01*
X86755037Y27452431D01*
X85376157Y26295413D01*
X84219139Y27674293D01*
X84219139Y27674293D01*
G37*
D48*
X90161000Y26610000D03*
X90161000Y24070000D03*
X90161000Y21530000D03*
X90161000Y18990000D03*
X92139000Y26610000D03*
X92139000Y24070000D03*
X92139000Y21530000D03*
X92139000Y18990000D03*
M02*
