G04 #@! TF.FileFunction,Soldermask,Bot*
%FSLAX46Y46*%
G04 Gerber Fmt 4.6, Leading zero omitted, Abs format (unit mm)*
G04 Created by KiCad (PCBNEW 4.0.7-e2-6376~58~ubuntu16.04.1) date Sun Apr 22 15:37:14 2018*
%MOMM*%
%LPD*%
G01*
G04 APERTURE LIST*
%ADD10C,0.100000*%
%ADD11C,0.127000*%
%ADD12C,0.010000*%
%ADD13C,4.000000*%
%ADD14R,0.900000X1.700000*%
%ADD15R,1.060000X0.650000*%
%ADD16R,0.700000X0.250000*%
%ADD17R,0.830000X1.190000*%
%ADD18R,1.700000X0.900000*%
%ADD19R,1.000000X1.250000*%
%ADD20R,0.600000X0.500000*%
%ADD21R,0.500000X0.600000*%
%ADD22R,1.250000X1.000000*%
%ADD23R,0.750000X0.800000*%
%ADD24R,1.000000X1.600000*%
%ADD25R,0.800000X0.750000*%
%ADD26R,0.900000X0.500000*%
%ADD27R,0.900000X0.800000*%
%ADD28R,0.800000X0.900000*%
%ADD29R,0.600000X0.400000*%
%ADD30R,0.400000X0.600000*%
%ADD31R,1.800000X1.100000*%
%ADD32R,0.800000X0.800000*%
%ADD33R,1.300480X0.899160*%
%ADD34R,2.000000X2.000000*%
%ADD35O,2.000000X2.000000*%
%ADD36R,1.800000X1.800000*%
G04 APERTURE END LIST*
D10*
D11*
X65966666Y19771833D02*
X65966666Y20471833D01*
X65700000Y20471833D01*
X65633333Y20438500D01*
X65600000Y20405167D01*
X65566666Y20338500D01*
X65566666Y20238500D01*
X65600000Y20171833D01*
X65633333Y20138500D01*
X65700000Y20105167D01*
X65966666Y20105167D01*
X64933333Y19771833D02*
X65266666Y19771833D01*
X65266666Y20471833D01*
X64466666Y20138500D02*
X64699999Y20138500D01*
X64699999Y19771833D02*
X64699999Y20471833D01*
X64366666Y20471833D01*
X66400001Y19228167D02*
X66366667Y19261500D01*
X66300001Y19294833D01*
X66133334Y19294833D01*
X66066667Y19261500D01*
X66033334Y19228167D01*
X66000001Y19161500D01*
X66000001Y19094833D01*
X66033334Y18994833D01*
X66433334Y18594833D01*
X66000001Y18594833D01*
X65566667Y19294833D02*
X65500000Y19294833D01*
X65433334Y19261500D01*
X65400000Y19228167D01*
X65366667Y19161500D01*
X65333334Y19028167D01*
X65333334Y18861500D01*
X65366667Y18728167D01*
X65400000Y18661500D01*
X65433334Y18628167D01*
X65500000Y18594833D01*
X65566667Y18594833D01*
X65633334Y18628167D01*
X65666667Y18661500D01*
X65700000Y18728167D01*
X65733334Y18861500D01*
X65733334Y19028167D01*
X65700000Y19161500D01*
X65666667Y19228167D01*
X65633334Y19261500D01*
X65566667Y19294833D01*
X64666667Y18594833D02*
X65066667Y18594833D01*
X64866667Y18594833D02*
X64866667Y19294833D01*
X64933333Y19194833D01*
X65000000Y19128167D01*
X65066667Y19094833D01*
X64266666Y18994833D02*
X64333333Y19028167D01*
X64366666Y19061500D01*
X64400000Y19128167D01*
X64400000Y19161500D01*
X64366666Y19228167D01*
X64333333Y19261500D01*
X64266666Y19294833D01*
X64133333Y19294833D01*
X64066666Y19261500D01*
X64033333Y19228167D01*
X64000000Y19161500D01*
X64000000Y19128167D01*
X64033333Y19061500D01*
X64066666Y19028167D01*
X64133333Y18994833D01*
X64266666Y18994833D01*
X64333333Y18961500D01*
X64366666Y18928167D01*
X64400000Y18861500D01*
X64400000Y18728167D01*
X64366666Y18661500D01*
X64333333Y18628167D01*
X64266666Y18594833D01*
X64133333Y18594833D01*
X64066666Y18628167D01*
X64033333Y18661500D01*
X64000000Y18728167D01*
X64000000Y18861500D01*
X64033333Y18928167D01*
X64066666Y18961500D01*
X64133333Y18994833D01*
X28283333Y4983333D02*
X28516667Y5316667D01*
X28683333Y4983333D02*
X28683333Y5683333D01*
X28416667Y5683333D01*
X28350000Y5650000D01*
X28316667Y5616667D01*
X28283333Y5550000D01*
X28283333Y5450000D01*
X28316667Y5383333D01*
X28350000Y5350000D01*
X28416667Y5316667D01*
X28683333Y5316667D01*
X28016667Y5016667D02*
X27916667Y4983333D01*
X27750000Y4983333D01*
X27683333Y5016667D01*
X27650000Y5050000D01*
X27616667Y5116667D01*
X27616667Y5183333D01*
X27650000Y5250000D01*
X27683333Y5283333D01*
X27750000Y5316667D01*
X27883333Y5350000D01*
X27950000Y5383333D01*
X27983333Y5416667D01*
X28016667Y5483333D01*
X28016667Y5550000D01*
X27983333Y5616667D01*
X27950000Y5650000D01*
X27883333Y5683333D01*
X27716667Y5683333D01*
X27616667Y5650000D01*
X27416666Y5683333D02*
X27016666Y5683333D01*
X27216666Y4983333D02*
X27216666Y5683333D01*
X66733332Y4983333D02*
X66733332Y5683333D01*
X65899999Y5716667D02*
X66499999Y4816667D01*
X65533333Y5683333D02*
X65400000Y5683333D01*
X65333333Y5650000D01*
X65266666Y5583333D01*
X65233333Y5450000D01*
X65233333Y5216667D01*
X65266666Y5083333D01*
X65333333Y5016667D01*
X65400000Y4983333D01*
X65533333Y4983333D01*
X65600000Y5016667D01*
X65666666Y5083333D01*
X65700000Y5216667D01*
X65700000Y5450000D01*
X65666666Y5583333D01*
X65600000Y5650000D01*
X65533333Y5683333D01*
D12*
G36*
X36861166Y8393766D02*
X36765654Y8393682D01*
X36680019Y8393527D01*
X36603696Y8393283D01*
X36536119Y8392929D01*
X36476726Y8392448D01*
X36424950Y8391821D01*
X36380227Y8391029D01*
X36341992Y8390053D01*
X36309681Y8388874D01*
X36282729Y8387474D01*
X36260572Y8385834D01*
X36242644Y8383935D01*
X36228381Y8381758D01*
X36217218Y8379285D01*
X36208591Y8376497D01*
X36201934Y8373375D01*
X36196684Y8369899D01*
X36192276Y8366053D01*
X36188144Y8361815D01*
X36183724Y8357169D01*
X36181341Y8354795D01*
X36160050Y8334159D01*
X36160050Y7927318D01*
X36160067Y7845126D01*
X36160135Y7774669D01*
X36160281Y7714983D01*
X36160530Y7665102D01*
X36160909Y7624062D01*
X36161443Y7590898D01*
X36162160Y7564646D01*
X36163086Y7544341D01*
X36164246Y7529018D01*
X36165666Y7517712D01*
X36167374Y7509458D01*
X36169395Y7503292D01*
X36171702Y7498351D01*
X36185414Y7480358D01*
X36203258Y7466087D01*
X36205039Y7465123D01*
X36208633Y7463567D01*
X36213450Y7462163D01*
X36220125Y7460903D01*
X36229291Y7459779D01*
X36241583Y7458784D01*
X36257632Y7457910D01*
X36278074Y7457149D01*
X36303542Y7456494D01*
X36334669Y7455936D01*
X36372089Y7455468D01*
X36416437Y7455081D01*
X36468344Y7454769D01*
X36528446Y7454524D01*
X36597376Y7454337D01*
X36675767Y7454201D01*
X36764254Y7454108D01*
X36863469Y7454051D01*
X36974047Y7454021D01*
X37096621Y7454011D01*
X37110963Y7454010D01*
X37995200Y7454000D01*
X37995200Y7320780D01*
X37096819Y7319128D01*
X36198438Y7317475D01*
X36180832Y7299870D01*
X36163225Y7282264D01*
X36161335Y6671220D01*
X36161036Y6554152D01*
X36160901Y6449576D01*
X36160933Y6357287D01*
X36161133Y6277076D01*
X36161504Y6208738D01*
X36162045Y6152067D01*
X36162760Y6106855D01*
X36163649Y6072896D01*
X36164714Y6049984D01*
X36165957Y6037912D01*
X36166213Y6036831D01*
X36179797Y6011083D01*
X36202681Y5989856D01*
X36231560Y5976114D01*
X36234952Y5975189D01*
X36243764Y5974531D01*
X36264470Y5973874D01*
X36296267Y5973220D01*
X36338348Y5972572D01*
X36389908Y5971932D01*
X36450141Y5971303D01*
X36518244Y5970689D01*
X36593411Y5970092D01*
X36674835Y5969515D01*
X36761713Y5968961D01*
X36853239Y5968433D01*
X36948608Y5967933D01*
X37047014Y5967465D01*
X37147653Y5967031D01*
X37249718Y5966634D01*
X37352406Y5966278D01*
X37454911Y5965964D01*
X37556427Y5965695D01*
X37656149Y5965476D01*
X37753273Y5965308D01*
X37846993Y5965194D01*
X37936503Y5965137D01*
X38020999Y5965140D01*
X38099676Y5965206D01*
X38171727Y5965338D01*
X38236349Y5965539D01*
X38292735Y5965811D01*
X38340081Y5966157D01*
X38377581Y5966580D01*
X38404430Y5967083D01*
X38415769Y5967454D01*
X38450720Y5969090D01*
X38475376Y5970741D01*
X38492130Y5972896D01*
X38503379Y5976044D01*
X38511518Y5980675D01*
X38518942Y5987279D01*
X38520544Y5988873D01*
X38538125Y6006470D01*
X38539992Y6187310D01*
X38541858Y6368150D01*
X36674400Y6368150D01*
X36674400Y6495150D01*
X36793463Y6496077D01*
X36814856Y6496224D01*
X36848044Y6496425D01*
X36892120Y6496675D01*
X36946181Y6496970D01*
X37009320Y6497305D01*
X37080632Y6497675D01*
X37159213Y6498077D01*
X37244155Y6498504D01*
X37334555Y6498953D01*
X37429507Y6499420D01*
X37528106Y6499898D01*
X37629446Y6500385D01*
X37725325Y6500840D01*
X38538125Y6504675D01*
X38541355Y7923901D01*
X37607878Y7923901D01*
X36674400Y7923900D01*
X36674400Y8057208D01*
X37606263Y8058817D01*
X38538125Y8060425D01*
X38539861Y8173497D01*
X38540090Y8215815D01*
X38539482Y8253382D01*
X38538120Y8283933D01*
X38536086Y8305203D01*
X38534831Y8311693D01*
X38522356Y8339849D01*
X38502582Y8364562D01*
X38478838Y8382169D01*
X38466166Y8387261D01*
X38456293Y8388205D01*
X38433772Y8389077D01*
X38398653Y8389875D01*
X38350989Y8390600D01*
X38290830Y8391251D01*
X38218228Y8391828D01*
X38133234Y8392330D01*
X38035899Y8392758D01*
X37926275Y8393110D01*
X37804413Y8393388D01*
X37670364Y8393589D01*
X37524180Y8393715D01*
X37365912Y8393764D01*
X37353272Y8393765D01*
X37212607Y8393778D01*
X37084078Y8393795D01*
X36967119Y8393797D01*
X36861166Y8393766D01*
X36861166Y8393766D01*
G37*
X36861166Y8393766D02*
X36765654Y8393682D01*
X36680019Y8393527D01*
X36603696Y8393283D01*
X36536119Y8392929D01*
X36476726Y8392448D01*
X36424950Y8391821D01*
X36380227Y8391029D01*
X36341992Y8390053D01*
X36309681Y8388874D01*
X36282729Y8387474D01*
X36260572Y8385834D01*
X36242644Y8383935D01*
X36228381Y8381758D01*
X36217218Y8379285D01*
X36208591Y8376497D01*
X36201934Y8373375D01*
X36196684Y8369899D01*
X36192276Y8366053D01*
X36188144Y8361815D01*
X36183724Y8357169D01*
X36181341Y8354795D01*
X36160050Y8334159D01*
X36160050Y7927318D01*
X36160067Y7845126D01*
X36160135Y7774669D01*
X36160281Y7714983D01*
X36160530Y7665102D01*
X36160909Y7624062D01*
X36161443Y7590898D01*
X36162160Y7564646D01*
X36163086Y7544341D01*
X36164246Y7529018D01*
X36165666Y7517712D01*
X36167374Y7509458D01*
X36169395Y7503292D01*
X36171702Y7498351D01*
X36185414Y7480358D01*
X36203258Y7466087D01*
X36205039Y7465123D01*
X36208633Y7463567D01*
X36213450Y7462163D01*
X36220125Y7460903D01*
X36229291Y7459779D01*
X36241583Y7458784D01*
X36257632Y7457910D01*
X36278074Y7457149D01*
X36303542Y7456494D01*
X36334669Y7455936D01*
X36372089Y7455468D01*
X36416437Y7455081D01*
X36468344Y7454769D01*
X36528446Y7454524D01*
X36597376Y7454337D01*
X36675767Y7454201D01*
X36764254Y7454108D01*
X36863469Y7454051D01*
X36974047Y7454021D01*
X37096621Y7454011D01*
X37110963Y7454010D01*
X37995200Y7454000D01*
X37995200Y7320780D01*
X37096819Y7319128D01*
X36198438Y7317475D01*
X36180832Y7299870D01*
X36163225Y7282264D01*
X36161335Y6671220D01*
X36161036Y6554152D01*
X36160901Y6449576D01*
X36160933Y6357287D01*
X36161133Y6277076D01*
X36161504Y6208738D01*
X36162045Y6152067D01*
X36162760Y6106855D01*
X36163649Y6072896D01*
X36164714Y6049984D01*
X36165957Y6037912D01*
X36166213Y6036831D01*
X36179797Y6011083D01*
X36202681Y5989856D01*
X36231560Y5976114D01*
X36234952Y5975189D01*
X36243764Y5974531D01*
X36264470Y5973874D01*
X36296267Y5973220D01*
X36338348Y5972572D01*
X36389908Y5971932D01*
X36450141Y5971303D01*
X36518244Y5970689D01*
X36593411Y5970092D01*
X36674835Y5969515D01*
X36761713Y5968961D01*
X36853239Y5968433D01*
X36948608Y5967933D01*
X37047014Y5967465D01*
X37147653Y5967031D01*
X37249718Y5966634D01*
X37352406Y5966278D01*
X37454911Y5965964D01*
X37556427Y5965695D01*
X37656149Y5965476D01*
X37753273Y5965308D01*
X37846993Y5965194D01*
X37936503Y5965137D01*
X38020999Y5965140D01*
X38099676Y5965206D01*
X38171727Y5965338D01*
X38236349Y5965539D01*
X38292735Y5965811D01*
X38340081Y5966157D01*
X38377581Y5966580D01*
X38404430Y5967083D01*
X38415769Y5967454D01*
X38450720Y5969090D01*
X38475376Y5970741D01*
X38492130Y5972896D01*
X38503379Y5976044D01*
X38511518Y5980675D01*
X38518942Y5987279D01*
X38520544Y5988873D01*
X38538125Y6006470D01*
X38539992Y6187310D01*
X38541858Y6368150D01*
X36674400Y6368150D01*
X36674400Y6495150D01*
X36793463Y6496077D01*
X36814856Y6496224D01*
X36848044Y6496425D01*
X36892120Y6496675D01*
X36946181Y6496970D01*
X37009320Y6497305D01*
X37080632Y6497675D01*
X37159213Y6498077D01*
X37244155Y6498504D01*
X37334555Y6498953D01*
X37429507Y6499420D01*
X37528106Y6499898D01*
X37629446Y6500385D01*
X37725325Y6500840D01*
X38538125Y6504675D01*
X38541355Y7923901D01*
X37607878Y7923901D01*
X36674400Y7923900D01*
X36674400Y8057208D01*
X37606263Y8058817D01*
X38538125Y8060425D01*
X38539861Y8173497D01*
X38540090Y8215815D01*
X38539482Y8253382D01*
X38538120Y8283933D01*
X38536086Y8305203D01*
X38534831Y8311693D01*
X38522356Y8339849D01*
X38502582Y8364562D01*
X38478838Y8382169D01*
X38466166Y8387261D01*
X38456293Y8388205D01*
X38433772Y8389077D01*
X38398653Y8389875D01*
X38350989Y8390600D01*
X38290830Y8391251D01*
X38218228Y8391828D01*
X38133234Y8392330D01*
X38035899Y8392758D01*
X37926275Y8393110D01*
X37804413Y8393388D01*
X37670364Y8393589D01*
X37524180Y8393715D01*
X37365912Y8393764D01*
X37353272Y8393765D01*
X37212607Y8393778D01*
X37084078Y8393795D01*
X36967119Y8393797D01*
X36861166Y8393766D01*
G36*
X42099501Y8390619D02*
X41999868Y8390554D01*
X41910177Y8390434D01*
X41829875Y8390245D01*
X41758410Y8389972D01*
X41695230Y8389600D01*
X41639784Y8389114D01*
X41591520Y8388501D01*
X41549886Y8387744D01*
X41514330Y8386830D01*
X41484300Y8385744D01*
X41459245Y8384471D01*
X41438613Y8382996D01*
X41421852Y8381305D01*
X41408410Y8379383D01*
X41397735Y8377215D01*
X41389275Y8374787D01*
X41382480Y8372084D01*
X41376796Y8369091D01*
X41371672Y8365794D01*
X41366556Y8362178D01*
X41360897Y8358227D01*
X41359628Y8357380D01*
X41341230Y8342162D01*
X41323262Y8322615D01*
X41318353Y8316047D01*
X41300375Y8290100D01*
X41300375Y7933963D01*
X41300377Y7854221D01*
X41300451Y7786142D01*
X41300703Y7728687D01*
X41301238Y7680817D01*
X41302160Y7641495D01*
X41303576Y7609683D01*
X41305589Y7584342D01*
X41308305Y7564435D01*
X41311828Y7548923D01*
X41316265Y7536769D01*
X41321719Y7526934D01*
X41328296Y7518381D01*
X41336101Y7510070D01*
X41344055Y7502147D01*
X41349869Y7496045D01*
X41354882Y7490523D01*
X41359722Y7485551D01*
X41365018Y7481100D01*
X41371399Y7477139D01*
X41379492Y7473638D01*
X41389925Y7470568D01*
X41403328Y7467898D01*
X41420328Y7465597D01*
X41441553Y7463637D01*
X41467633Y7461987D01*
X41499194Y7460616D01*
X41536867Y7459496D01*
X41581278Y7458595D01*
X41633056Y7457885D01*
X41692830Y7457334D01*
X41761228Y7456913D01*
X41838877Y7456591D01*
X41926407Y7456339D01*
X42024446Y7456127D01*
X42133622Y7455924D01*
X42254563Y7455701D01*
X42317963Y7455576D01*
X43214900Y7453745D01*
X43214900Y7930250D01*
X41792500Y7930250D01*
X41792500Y8063600D01*
X43348250Y8063600D01*
X43348250Y5968100D01*
X43568913Y5968240D01*
X43628356Y5968326D01*
X43676489Y5968545D01*
X43714702Y5968964D01*
X43744385Y5969650D01*
X43766928Y5970671D01*
X43783722Y5972092D01*
X43796155Y5973983D01*
X43805619Y5976408D01*
X43813503Y5979435D01*
X43814975Y5980102D01*
X43847081Y6000625D01*
X43870018Y6029120D01*
X43878172Y6045771D01*
X43879419Y6049747D01*
X43880557Y6055811D01*
X43881591Y6064518D01*
X43882527Y6076422D01*
X43883368Y6092077D01*
X43884121Y6112038D01*
X43884789Y6136859D01*
X43885378Y6167095D01*
X43885892Y6203299D01*
X43886336Y6246027D01*
X43886716Y6295833D01*
X43887035Y6353271D01*
X43887298Y6418896D01*
X43887512Y6493261D01*
X43887679Y6576922D01*
X43887806Y6670433D01*
X43887896Y6774348D01*
X43887956Y6889221D01*
X43887989Y7015608D01*
X43888000Y7154062D01*
X43888000Y7174600D01*
X43887987Y7317144D01*
X43887942Y7447505D01*
X43887864Y7566201D01*
X43887747Y7673751D01*
X43887589Y7770671D01*
X43887384Y7857480D01*
X43887129Y7934696D01*
X43886820Y8002836D01*
X43886453Y8062417D01*
X43886025Y8113958D01*
X43885530Y8157977D01*
X43884966Y8194990D01*
X43884328Y8225517D01*
X43883613Y8250073D01*
X43882816Y8269178D01*
X43881934Y8283349D01*
X43880962Y8293104D01*
X43879897Y8298960D01*
X43879438Y8300342D01*
X43859554Y8333541D01*
X43831136Y8362211D01*
X43809414Y8376616D01*
X43783225Y8390625D01*
X42608475Y8390625D01*
X42463561Y8390632D01*
X42330795Y8390643D01*
X42209626Y8390644D01*
X42099501Y8390619D01*
X42099501Y8390619D01*
G37*
X42099501Y8390619D02*
X41999868Y8390554D01*
X41910177Y8390434D01*
X41829875Y8390245D01*
X41758410Y8389972D01*
X41695230Y8389600D01*
X41639784Y8389114D01*
X41591520Y8388501D01*
X41549886Y8387744D01*
X41514330Y8386830D01*
X41484300Y8385744D01*
X41459245Y8384471D01*
X41438613Y8382996D01*
X41421852Y8381305D01*
X41408410Y8379383D01*
X41397735Y8377215D01*
X41389275Y8374787D01*
X41382480Y8372084D01*
X41376796Y8369091D01*
X41371672Y8365794D01*
X41366556Y8362178D01*
X41360897Y8358227D01*
X41359628Y8357380D01*
X41341230Y8342162D01*
X41323262Y8322615D01*
X41318353Y8316047D01*
X41300375Y8290100D01*
X41300375Y7933963D01*
X41300377Y7854221D01*
X41300451Y7786142D01*
X41300703Y7728687D01*
X41301238Y7680817D01*
X41302160Y7641495D01*
X41303576Y7609683D01*
X41305589Y7584342D01*
X41308305Y7564435D01*
X41311828Y7548923D01*
X41316265Y7536769D01*
X41321719Y7526934D01*
X41328296Y7518381D01*
X41336101Y7510070D01*
X41344055Y7502147D01*
X41349869Y7496045D01*
X41354882Y7490523D01*
X41359722Y7485551D01*
X41365018Y7481100D01*
X41371399Y7477139D01*
X41379492Y7473638D01*
X41389925Y7470568D01*
X41403328Y7467898D01*
X41420328Y7465597D01*
X41441553Y7463637D01*
X41467633Y7461987D01*
X41499194Y7460616D01*
X41536867Y7459496D01*
X41581278Y7458595D01*
X41633056Y7457885D01*
X41692830Y7457334D01*
X41761228Y7456913D01*
X41838877Y7456591D01*
X41926407Y7456339D01*
X42024446Y7456127D01*
X42133622Y7455924D01*
X42254563Y7455701D01*
X42317963Y7455576D01*
X43214900Y7453745D01*
X43214900Y7930250D01*
X41792500Y7930250D01*
X41792500Y8063600D01*
X43348250Y8063600D01*
X43348250Y5968100D01*
X43568913Y5968240D01*
X43628356Y5968326D01*
X43676489Y5968545D01*
X43714702Y5968964D01*
X43744385Y5969650D01*
X43766928Y5970671D01*
X43783722Y5972092D01*
X43796155Y5973983D01*
X43805619Y5976408D01*
X43813503Y5979435D01*
X43814975Y5980102D01*
X43847081Y6000625D01*
X43870018Y6029120D01*
X43878172Y6045771D01*
X43879419Y6049747D01*
X43880557Y6055811D01*
X43881591Y6064518D01*
X43882527Y6076422D01*
X43883368Y6092077D01*
X43884121Y6112038D01*
X43884789Y6136859D01*
X43885378Y6167095D01*
X43885892Y6203299D01*
X43886336Y6246027D01*
X43886716Y6295833D01*
X43887035Y6353271D01*
X43887298Y6418896D01*
X43887512Y6493261D01*
X43887679Y6576922D01*
X43887806Y6670433D01*
X43887896Y6774348D01*
X43887956Y6889221D01*
X43887989Y7015608D01*
X43888000Y7154062D01*
X43888000Y7174600D01*
X43887987Y7317144D01*
X43887942Y7447505D01*
X43887864Y7566201D01*
X43887747Y7673751D01*
X43887589Y7770671D01*
X43887384Y7857480D01*
X43887129Y7934696D01*
X43886820Y8002836D01*
X43886453Y8062417D01*
X43886025Y8113958D01*
X43885530Y8157977D01*
X43884966Y8194990D01*
X43884328Y8225517D01*
X43883613Y8250073D01*
X43882816Y8269178D01*
X43881934Y8283349D01*
X43880962Y8293104D01*
X43879897Y8298960D01*
X43879438Y8300342D01*
X43859554Y8333541D01*
X43831136Y8362211D01*
X43809414Y8376616D01*
X43783225Y8390625D01*
X42608475Y8390625D01*
X42463561Y8390632D01*
X42330795Y8390643D01*
X42209626Y8390644D01*
X42099501Y8390619D01*
G36*
X42311613Y7319169D02*
X41408325Y7317475D01*
X41370225Y7298425D01*
X41347524Y7285829D01*
X41332612Y7273396D01*
X41321274Y7257157D01*
X41316250Y7247625D01*
X41300375Y7215875D01*
X41300375Y6641200D01*
X41300378Y6540007D01*
X41300410Y6450720D01*
X41300511Y6372549D01*
X41300719Y6304701D01*
X41301071Y6246382D01*
X41301607Y6196802D01*
X41302365Y6155167D01*
X41303382Y6120686D01*
X41304697Y6092564D01*
X41306349Y6070011D01*
X41308375Y6052234D01*
X41310814Y6038440D01*
X41313705Y6027837D01*
X41317085Y6019632D01*
X41320993Y6013034D01*
X41325467Y6007249D01*
X41330545Y6001485D01*
X41331320Y6000620D01*
X41335172Y5996119D01*
X41338701Y5992054D01*
X41342537Y5988401D01*
X41347312Y5985139D01*
X41353657Y5982246D01*
X41362205Y5979700D01*
X41373586Y5977480D01*
X41388431Y5975564D01*
X41407373Y5973930D01*
X41431042Y5972555D01*
X41460070Y5971419D01*
X41495088Y5970499D01*
X41536728Y5969773D01*
X41585620Y5969221D01*
X41642398Y5968819D01*
X41707691Y5968546D01*
X41782131Y5968380D01*
X41866350Y5968300D01*
X41960979Y5968283D01*
X42066649Y5968308D01*
X42183992Y5968353D01*
X42263784Y5968381D01*
X42387050Y5968426D01*
X42498255Y5968482D01*
X42598037Y5968558D01*
X42687035Y5968663D01*
X42765888Y5968806D01*
X42835234Y5968995D01*
X42895713Y5969239D01*
X42947962Y5969546D01*
X42992621Y5969924D01*
X43030328Y5970384D01*
X43061722Y5970932D01*
X43087441Y5971578D01*
X43108125Y5972330D01*
X43124411Y5973196D01*
X43136939Y5974187D01*
X43146348Y5975309D01*
X43153275Y5976572D01*
X43158360Y5977984D01*
X43162241Y5979554D01*
X43164100Y5980491D01*
X43182654Y5994261D01*
X43198012Y6011924D01*
X43199025Y6013547D01*
X43201715Y6018414D01*
X43203996Y6023986D01*
X43205901Y6031287D01*
X43207465Y6041342D01*
X43208721Y6055175D01*
X43209702Y6073811D01*
X43210443Y6098275D01*
X43210978Y6129590D01*
X43211339Y6168781D01*
X43211560Y6216874D01*
X43211676Y6274891D01*
X43211720Y6343858D01*
X43211725Y6399900D01*
X43211725Y6765025D01*
X43195850Y6796775D01*
X43180529Y6821178D01*
X43161973Y6837140D01*
X43154575Y6841225D01*
X43150106Y6843321D01*
X43145072Y6845176D01*
X43138703Y6846807D01*
X43130228Y6848232D01*
X43118876Y6849468D01*
X43103877Y6850531D01*
X43084459Y6851440D01*
X43059853Y6852211D01*
X43029288Y6852862D01*
X42991992Y6853409D01*
X42947195Y6853871D01*
X42894127Y6854264D01*
X42832016Y6854605D01*
X42760093Y6854912D01*
X42677585Y6855202D01*
X42583724Y6855493D01*
X42505862Y6855720D01*
X41882548Y6857514D01*
X41880146Y6668395D01*
X41879612Y6620574D01*
X41879265Y6576879D01*
X41879105Y6538921D01*
X41879135Y6508310D01*
X41879357Y6486657D01*
X41879772Y6475570D01*
X41879947Y6474513D01*
X41886498Y6473732D01*
X41904740Y6472990D01*
X41933665Y6472299D01*
X41972263Y6471669D01*
X42019526Y6471110D01*
X42074445Y6470633D01*
X42136012Y6470248D01*
X42203217Y6469966D01*
X42275052Y6469797D01*
X42338975Y6469750D01*
X42795800Y6469750D01*
X42795800Y6355450D01*
X41773450Y6355450D01*
X41773450Y6990450D01*
X43214900Y6990450D01*
X43214900Y7320863D01*
X42311613Y7319169D01*
X42311613Y7319169D01*
G37*
X42311613Y7319169D02*
X41408325Y7317475D01*
X41370225Y7298425D01*
X41347524Y7285829D01*
X41332612Y7273396D01*
X41321274Y7257157D01*
X41316250Y7247625D01*
X41300375Y7215875D01*
X41300375Y6641200D01*
X41300378Y6540007D01*
X41300410Y6450720D01*
X41300511Y6372549D01*
X41300719Y6304701D01*
X41301071Y6246382D01*
X41301607Y6196802D01*
X41302365Y6155167D01*
X41303382Y6120686D01*
X41304697Y6092564D01*
X41306349Y6070011D01*
X41308375Y6052234D01*
X41310814Y6038440D01*
X41313705Y6027837D01*
X41317085Y6019632D01*
X41320993Y6013034D01*
X41325467Y6007249D01*
X41330545Y6001485D01*
X41331320Y6000620D01*
X41335172Y5996119D01*
X41338701Y5992054D01*
X41342537Y5988401D01*
X41347312Y5985139D01*
X41353657Y5982246D01*
X41362205Y5979700D01*
X41373586Y5977480D01*
X41388431Y5975564D01*
X41407373Y5973930D01*
X41431042Y5972555D01*
X41460070Y5971419D01*
X41495088Y5970499D01*
X41536728Y5969773D01*
X41585620Y5969221D01*
X41642398Y5968819D01*
X41707691Y5968546D01*
X41782131Y5968380D01*
X41866350Y5968300D01*
X41960979Y5968283D01*
X42066649Y5968308D01*
X42183992Y5968353D01*
X42263784Y5968381D01*
X42387050Y5968426D01*
X42498255Y5968482D01*
X42598037Y5968558D01*
X42687035Y5968663D01*
X42765888Y5968806D01*
X42835234Y5968995D01*
X42895713Y5969239D01*
X42947962Y5969546D01*
X42992621Y5969924D01*
X43030328Y5970384D01*
X43061722Y5970932D01*
X43087441Y5971578D01*
X43108125Y5972330D01*
X43124411Y5973196D01*
X43136939Y5974187D01*
X43146348Y5975309D01*
X43153275Y5976572D01*
X43158360Y5977984D01*
X43162241Y5979554D01*
X43164100Y5980491D01*
X43182654Y5994261D01*
X43198012Y6011924D01*
X43199025Y6013547D01*
X43201715Y6018414D01*
X43203996Y6023986D01*
X43205901Y6031287D01*
X43207465Y6041342D01*
X43208721Y6055175D01*
X43209702Y6073811D01*
X43210443Y6098275D01*
X43210978Y6129590D01*
X43211339Y6168781D01*
X43211560Y6216874D01*
X43211676Y6274891D01*
X43211720Y6343858D01*
X43211725Y6399900D01*
X43211725Y6765025D01*
X43195850Y6796775D01*
X43180529Y6821178D01*
X43161973Y6837140D01*
X43154575Y6841225D01*
X43150106Y6843321D01*
X43145072Y6845176D01*
X43138703Y6846807D01*
X43130228Y6848232D01*
X43118876Y6849468D01*
X43103877Y6850531D01*
X43084459Y6851440D01*
X43059853Y6852211D01*
X43029288Y6852862D01*
X42991992Y6853409D01*
X42947195Y6853871D01*
X42894127Y6854264D01*
X42832016Y6854605D01*
X42760093Y6854912D01*
X42677585Y6855202D01*
X42583724Y6855493D01*
X42505862Y6855720D01*
X41882548Y6857514D01*
X41880146Y6668395D01*
X41879612Y6620574D01*
X41879265Y6576879D01*
X41879105Y6538921D01*
X41879135Y6508310D01*
X41879357Y6486657D01*
X41879772Y6475570D01*
X41879947Y6474513D01*
X41886498Y6473732D01*
X41904740Y6472990D01*
X41933665Y6472299D01*
X41972263Y6471669D01*
X42019526Y6471110D01*
X42074445Y6470633D01*
X42136012Y6470248D01*
X42203217Y6469966D01*
X42275052Y6469797D01*
X42338975Y6469750D01*
X42795800Y6469750D01*
X42795800Y6355450D01*
X41773450Y6355450D01*
X41773450Y6990450D01*
X43214900Y6990450D01*
X43214900Y7320863D01*
X42311613Y7319169D01*
G36*
X40080641Y7920719D02*
X39971329Y7920696D01*
X39873427Y7920646D01*
X39786292Y7920561D01*
X39709279Y7920433D01*
X39641744Y7920254D01*
X39583042Y7920014D01*
X39532528Y7919705D01*
X39489558Y7919319D01*
X39453488Y7918848D01*
X39423674Y7918282D01*
X39399469Y7917614D01*
X39380231Y7916835D01*
X39365315Y7915935D01*
X39354076Y7914908D01*
X39345869Y7913744D01*
X39340051Y7912435D01*
X39335977Y7910972D01*
X39333002Y7909347D01*
X39332880Y7909268D01*
X39317249Y7895604D01*
X39303443Y7878278D01*
X39302971Y7877518D01*
X39299506Y7871236D01*
X39296771Y7864011D01*
X39294695Y7854399D01*
X39293206Y7840957D01*
X39292233Y7822239D01*
X39291707Y7796800D01*
X39291555Y7763198D01*
X39291708Y7719986D01*
X39292093Y7665721D01*
X39292161Y7657200D01*
X39293775Y7457175D01*
X39997038Y7455560D01*
X40700300Y7453945D01*
X40700300Y6368150D01*
X38687350Y6368150D01*
X38687351Y6193108D01*
X38687613Y6133434D01*
X38688388Y6084497D01*
X38689659Y6046758D01*
X38691410Y6020679D01*
X38693623Y6006722D01*
X38694213Y6005243D01*
X38704067Y5994800D01*
X38720631Y5983858D01*
X38727550Y5980400D01*
X38731093Y5978926D01*
X38735315Y5977578D01*
X38740770Y5976350D01*
X38748009Y5975235D01*
X38757588Y5974229D01*
X38770059Y5973326D01*
X38785975Y5972520D01*
X38805890Y5971806D01*
X38830358Y5971177D01*
X38859930Y5970629D01*
X38895162Y5970155D01*
X38936605Y5969751D01*
X38984814Y5969409D01*
X39040341Y5969126D01*
X39103740Y5968894D01*
X39175565Y5968709D01*
X39256368Y5968564D01*
X39346703Y5968454D01*
X39447124Y5968374D01*
X39558182Y5968318D01*
X39680433Y5968280D01*
X39814429Y5968254D01*
X39919350Y5968240D01*
X40062236Y5968226D01*
X40192973Y5968224D01*
X40312113Y5968239D01*
X40420205Y5968277D01*
X40517802Y5968343D01*
X40605453Y5968442D01*
X40683710Y5968581D01*
X40753124Y5968763D01*
X40814247Y5968995D01*
X40867628Y5969283D01*
X40913819Y5969631D01*
X40953371Y5970045D01*
X40986835Y5970531D01*
X41014762Y5971093D01*
X41037703Y5971738D01*
X41056209Y5972470D01*
X41070831Y5973296D01*
X41082119Y5974220D01*
X41090626Y5975248D01*
X41096901Y5976385D01*
X41101497Y5977638D01*
X41104963Y5979010D01*
X41106800Y5979931D01*
X41125335Y5993825D01*
X41140673Y6011720D01*
X41141625Y6013269D01*
X41143409Y6016490D01*
X41145020Y6020233D01*
X41146466Y6025137D01*
X41147760Y6031843D01*
X41148910Y6040990D01*
X41149928Y6053219D01*
X41150824Y6069170D01*
X41151607Y6089482D01*
X41152289Y6114795D01*
X41152879Y6145751D01*
X41153387Y6182988D01*
X41153824Y6227146D01*
X41154201Y6278867D01*
X41154527Y6338789D01*
X41154812Y6407552D01*
X41155068Y6485798D01*
X41155303Y6574165D01*
X41155530Y6673293D01*
X41155756Y6783824D01*
X41155994Y6906396D01*
X41156001Y6910069D01*
X41156223Y7051024D01*
X41156327Y7180299D01*
X41156314Y7297799D01*
X41156183Y7403429D01*
X41155937Y7497095D01*
X41155574Y7578703D01*
X41155096Y7648156D01*
X41154503Y7705361D01*
X41153796Y7750222D01*
X41152975Y7782646D01*
X41152041Y7802536D01*
X41151257Y7809203D01*
X41137778Y7840409D01*
X41115697Y7871267D01*
X41088416Y7897282D01*
X41080225Y7903141D01*
X41053652Y7920725D01*
X40202009Y7920725D01*
X40080641Y7920719D01*
X40080641Y7920719D01*
G37*
X40080641Y7920719D02*
X39971329Y7920696D01*
X39873427Y7920646D01*
X39786292Y7920561D01*
X39709279Y7920433D01*
X39641744Y7920254D01*
X39583042Y7920014D01*
X39532528Y7919705D01*
X39489558Y7919319D01*
X39453488Y7918848D01*
X39423674Y7918282D01*
X39399469Y7917614D01*
X39380231Y7916835D01*
X39365315Y7915935D01*
X39354076Y7914908D01*
X39345869Y7913744D01*
X39340051Y7912435D01*
X39335977Y7910972D01*
X39333002Y7909347D01*
X39332880Y7909268D01*
X39317249Y7895604D01*
X39303443Y7878278D01*
X39302971Y7877518D01*
X39299506Y7871236D01*
X39296771Y7864011D01*
X39294695Y7854399D01*
X39293206Y7840957D01*
X39292233Y7822239D01*
X39291707Y7796800D01*
X39291555Y7763198D01*
X39291708Y7719986D01*
X39292093Y7665721D01*
X39292161Y7657200D01*
X39293775Y7457175D01*
X39997038Y7455560D01*
X40700300Y7453945D01*
X40700300Y6368150D01*
X38687350Y6368150D01*
X38687351Y6193108D01*
X38687613Y6133434D01*
X38688388Y6084497D01*
X38689659Y6046758D01*
X38691410Y6020679D01*
X38693623Y6006722D01*
X38694213Y6005243D01*
X38704067Y5994800D01*
X38720631Y5983858D01*
X38727550Y5980400D01*
X38731093Y5978926D01*
X38735315Y5977578D01*
X38740770Y5976350D01*
X38748009Y5975235D01*
X38757588Y5974229D01*
X38770059Y5973326D01*
X38785975Y5972520D01*
X38805890Y5971806D01*
X38830358Y5971177D01*
X38859930Y5970629D01*
X38895162Y5970155D01*
X38936605Y5969751D01*
X38984814Y5969409D01*
X39040341Y5969126D01*
X39103740Y5968894D01*
X39175565Y5968709D01*
X39256368Y5968564D01*
X39346703Y5968454D01*
X39447124Y5968374D01*
X39558182Y5968318D01*
X39680433Y5968280D01*
X39814429Y5968254D01*
X39919350Y5968240D01*
X40062236Y5968226D01*
X40192973Y5968224D01*
X40312113Y5968239D01*
X40420205Y5968277D01*
X40517802Y5968343D01*
X40605453Y5968442D01*
X40683710Y5968581D01*
X40753124Y5968763D01*
X40814247Y5968995D01*
X40867628Y5969283D01*
X40913819Y5969631D01*
X40953371Y5970045D01*
X40986835Y5970531D01*
X41014762Y5971093D01*
X41037703Y5971738D01*
X41056209Y5972470D01*
X41070831Y5973296D01*
X41082119Y5974220D01*
X41090626Y5975248D01*
X41096901Y5976385D01*
X41101497Y5977638D01*
X41104963Y5979010D01*
X41106800Y5979931D01*
X41125335Y5993825D01*
X41140673Y6011720D01*
X41141625Y6013269D01*
X41143409Y6016490D01*
X41145020Y6020233D01*
X41146466Y6025137D01*
X41147760Y6031843D01*
X41148910Y6040990D01*
X41149928Y6053219D01*
X41150824Y6069170D01*
X41151607Y6089482D01*
X41152289Y6114795D01*
X41152879Y6145751D01*
X41153387Y6182988D01*
X41153824Y6227146D01*
X41154201Y6278867D01*
X41154527Y6338789D01*
X41154812Y6407552D01*
X41155068Y6485798D01*
X41155303Y6574165D01*
X41155530Y6673293D01*
X41155756Y6783824D01*
X41155994Y6906396D01*
X41156001Y6910069D01*
X41156223Y7051024D01*
X41156327Y7180299D01*
X41156314Y7297799D01*
X41156183Y7403429D01*
X41155937Y7497095D01*
X41155574Y7578703D01*
X41155096Y7648156D01*
X41154503Y7705361D01*
X41153796Y7750222D01*
X41152975Y7782646D01*
X41152041Y7802536D01*
X41151257Y7809203D01*
X41137778Y7840409D01*
X41115697Y7871267D01*
X41088416Y7897282D01*
X41080225Y7903141D01*
X41053652Y7920725D01*
X40202009Y7920725D01*
X40080641Y7920719D01*
G36*
X35232806Y7922745D02*
X35099561Y7922581D01*
X35010700Y7922427D01*
X34886214Y7922183D01*
X34773797Y7921944D01*
X34672820Y7921700D01*
X34582653Y7921442D01*
X34502664Y7921163D01*
X34432226Y7920852D01*
X34370706Y7920502D01*
X34317475Y7920102D01*
X34271903Y7919644D01*
X34233360Y7919120D01*
X34201215Y7918520D01*
X34174838Y7917835D01*
X34153600Y7917056D01*
X34136870Y7916175D01*
X34124017Y7915183D01*
X34114413Y7914070D01*
X34107426Y7912828D01*
X34102427Y7911448D01*
X34098784Y7909920D01*
X34097995Y7909506D01*
X34080386Y7895736D01*
X34066447Y7878121D01*
X34066245Y7877756D01*
X34064693Y7874387D01*
X34063287Y7869829D01*
X34062019Y7863456D01*
X34060881Y7854644D01*
X34059863Y7842769D01*
X34058958Y7827207D01*
X34058156Y7807334D01*
X34057450Y7782525D01*
X34056829Y7752156D01*
X34056286Y7715603D01*
X34055812Y7672242D01*
X34055398Y7621448D01*
X34055035Y7562598D01*
X34054716Y7495068D01*
X34054431Y7418232D01*
X34054171Y7331467D01*
X34053928Y7234149D01*
X34053694Y7125653D01*
X34053459Y7005355D01*
X34053354Y6948652D01*
X34051682Y6040079D01*
X34066137Y6018377D01*
X34081549Y6001294D01*
X34101427Y5986432D01*
X34105909Y5983975D01*
X34109630Y5982211D01*
X34113828Y5980617D01*
X34119139Y5979183D01*
X34126197Y5977902D01*
X34135637Y5976762D01*
X34148096Y5975755D01*
X34164207Y5974871D01*
X34184606Y5974101D01*
X34209929Y5973434D01*
X34240809Y5972863D01*
X34277884Y5972376D01*
X34321787Y5971966D01*
X34373154Y5971621D01*
X34432619Y5971333D01*
X34500819Y5971092D01*
X34578388Y5970889D01*
X34665961Y5970714D01*
X34764174Y5970558D01*
X34873662Y5970411D01*
X34995059Y5970264D01*
X35026575Y5970227D01*
X35164143Y5970112D01*
X35291267Y5970099D01*
X35407746Y5970188D01*
X35513377Y5970377D01*
X35607956Y5970664D01*
X35691282Y5971050D01*
X35763152Y5971533D01*
X35823362Y5972111D01*
X35871711Y5972783D01*
X35907996Y5973549D01*
X35932013Y5974407D01*
X35943561Y5975356D01*
X35944150Y5975490D01*
X35964822Y5984647D01*
X35983165Y5997719D01*
X35987837Y6002060D01*
X35992062Y6006206D01*
X35995860Y6010786D01*
X35999255Y6016430D01*
X36002270Y6023768D01*
X36004926Y6033431D01*
X36007247Y6046048D01*
X36009255Y6062250D01*
X36010973Y6082667D01*
X36012424Y6107929D01*
X36013629Y6138665D01*
X36014612Y6175506D01*
X36015395Y6219083D01*
X36016001Y6270025D01*
X36016452Y6328963D01*
X36016771Y6396525D01*
X36016980Y6473344D01*
X36017103Y6560048D01*
X36017162Y6657268D01*
X36017179Y6765634D01*
X36017177Y6885776D01*
X36017175Y6946000D01*
X36017139Y7050695D01*
X36017033Y7152149D01*
X36016860Y7249610D01*
X36016627Y7342327D01*
X36016336Y7429548D01*
X36015992Y7510521D01*
X36015599Y7584494D01*
X36015161Y7650716D01*
X36014684Y7708435D01*
X36014170Y7756900D01*
X36013625Y7795357D01*
X36013052Y7823057D01*
X36012456Y7839246D01*
X36012100Y7843074D01*
X35999346Y7874437D01*
X35976841Y7898862D01*
X35946460Y7914523D01*
X35935892Y7917281D01*
X35925511Y7918352D01*
X35905116Y7919304D01*
X35874476Y7920139D01*
X35833360Y7920858D01*
X35781537Y7921462D01*
X35718776Y7921952D01*
X35644846Y7922330D01*
X35559514Y7922597D01*
X35462551Y7922755D01*
X35353726Y7922804D01*
X35232806Y7922745D01*
X35232806Y7922745D01*
G37*
X35232806Y7922745D02*
X35099561Y7922581D01*
X35010700Y7922427D01*
X34886214Y7922183D01*
X34773797Y7921944D01*
X34672820Y7921700D01*
X34582653Y7921442D01*
X34502664Y7921163D01*
X34432226Y7920852D01*
X34370706Y7920502D01*
X34317475Y7920102D01*
X34271903Y7919644D01*
X34233360Y7919120D01*
X34201215Y7918520D01*
X34174838Y7917835D01*
X34153600Y7917056D01*
X34136870Y7916175D01*
X34124017Y7915183D01*
X34114413Y7914070D01*
X34107426Y7912828D01*
X34102427Y7911448D01*
X34098784Y7909920D01*
X34097995Y7909506D01*
X34080386Y7895736D01*
X34066447Y7878121D01*
X34066245Y7877756D01*
X34064693Y7874387D01*
X34063287Y7869829D01*
X34062019Y7863456D01*
X34060881Y7854644D01*
X34059863Y7842769D01*
X34058958Y7827207D01*
X34058156Y7807334D01*
X34057450Y7782525D01*
X34056829Y7752156D01*
X34056286Y7715603D01*
X34055812Y7672242D01*
X34055398Y7621448D01*
X34055035Y7562598D01*
X34054716Y7495068D01*
X34054431Y7418232D01*
X34054171Y7331467D01*
X34053928Y7234149D01*
X34053694Y7125653D01*
X34053459Y7005355D01*
X34053354Y6948652D01*
X34051682Y6040079D01*
X34066137Y6018377D01*
X34081549Y6001294D01*
X34101427Y5986432D01*
X34105909Y5983975D01*
X34109630Y5982211D01*
X34113828Y5980617D01*
X34119139Y5979183D01*
X34126197Y5977902D01*
X34135637Y5976762D01*
X34148096Y5975755D01*
X34164207Y5974871D01*
X34184606Y5974101D01*
X34209929Y5973434D01*
X34240809Y5972863D01*
X34277884Y5972376D01*
X34321787Y5971966D01*
X34373154Y5971621D01*
X34432619Y5971333D01*
X34500819Y5971092D01*
X34578388Y5970889D01*
X34665961Y5970714D01*
X34764174Y5970558D01*
X34873662Y5970411D01*
X34995059Y5970264D01*
X35026575Y5970227D01*
X35164143Y5970112D01*
X35291267Y5970099D01*
X35407746Y5970188D01*
X35513377Y5970377D01*
X35607956Y5970664D01*
X35691282Y5971050D01*
X35763152Y5971533D01*
X35823362Y5972111D01*
X35871711Y5972783D01*
X35907996Y5973549D01*
X35932013Y5974407D01*
X35943561Y5975356D01*
X35944150Y5975490D01*
X35964822Y5984647D01*
X35983165Y5997719D01*
X35987837Y6002060D01*
X35992062Y6006206D01*
X35995860Y6010786D01*
X35999255Y6016430D01*
X36002270Y6023768D01*
X36004926Y6033431D01*
X36007247Y6046048D01*
X36009255Y6062250D01*
X36010973Y6082667D01*
X36012424Y6107929D01*
X36013629Y6138665D01*
X36014612Y6175506D01*
X36015395Y6219083D01*
X36016001Y6270025D01*
X36016452Y6328963D01*
X36016771Y6396525D01*
X36016980Y6473344D01*
X36017103Y6560048D01*
X36017162Y6657268D01*
X36017179Y6765634D01*
X36017177Y6885776D01*
X36017175Y6946000D01*
X36017139Y7050695D01*
X36017033Y7152149D01*
X36016860Y7249610D01*
X36016627Y7342327D01*
X36016336Y7429548D01*
X36015992Y7510521D01*
X36015599Y7584494D01*
X36015161Y7650716D01*
X36014684Y7708435D01*
X36014170Y7756900D01*
X36013625Y7795357D01*
X36013052Y7823057D01*
X36012456Y7839246D01*
X36012100Y7843074D01*
X35999346Y7874437D01*
X35976841Y7898862D01*
X35946460Y7914523D01*
X35935892Y7917281D01*
X35925511Y7918352D01*
X35905116Y7919304D01*
X35874476Y7920139D01*
X35833360Y7920858D01*
X35781537Y7921462D01*
X35718776Y7921952D01*
X35644846Y7922330D01*
X35559514Y7922597D01*
X35462551Y7922755D01*
X35353726Y7922804D01*
X35232806Y7922745D01*
G36*
X34220086Y8394169D02*
X34096192Y8394097D01*
X33973588Y8393985D01*
X33852941Y8393834D01*
X33734916Y8393642D01*
X33620181Y8393411D01*
X33509400Y8393140D01*
X33403241Y8392830D01*
X33302370Y8392480D01*
X33207452Y8392091D01*
X33119154Y8391663D01*
X33038142Y8391195D01*
X32965082Y8390689D01*
X32900641Y8390143D01*
X32845485Y8389558D01*
X32800279Y8388935D01*
X32765691Y8388272D01*
X32742386Y8387571D01*
X32731030Y8386831D01*
X32730480Y8386735D01*
X32705262Y8378733D01*
X32683844Y8364931D01*
X32670478Y8352612D01*
X32656336Y8336604D01*
X32645703Y8319326D01*
X32638172Y8298801D01*
X32633337Y8273053D01*
X32630791Y8240106D01*
X32630129Y8197983D01*
X32630629Y8158850D01*
X32632625Y8060425D01*
X33002513Y8058787D01*
X33372400Y8057148D01*
X33372410Y7049137D01*
X33372418Y6916422D01*
X33372441Y6795815D01*
X33372486Y6686725D01*
X33372560Y6588558D01*
X33372669Y6500724D01*
X33372820Y6422630D01*
X33373018Y6353684D01*
X33373271Y6293294D01*
X33373584Y6240869D01*
X33373964Y6195816D01*
X33374418Y6157543D01*
X33374951Y6125459D01*
X33375571Y6098971D01*
X33376283Y6077488D01*
X33377094Y6060417D01*
X33378010Y6047167D01*
X33379038Y6037145D01*
X33380184Y6029761D01*
X33381455Y6024420D01*
X33382856Y6020533D01*
X33383523Y6019117D01*
X33396801Y6000938D01*
X33414596Y5985578D01*
X33416850Y5984192D01*
X33423166Y5980844D01*
X33430325Y5978113D01*
X33439646Y5975922D01*
X33452448Y5974197D01*
X33470050Y5972861D01*
X33493769Y5971840D01*
X33524926Y5971059D01*
X33564837Y5970441D01*
X33614823Y5969911D01*
X33675613Y5969399D01*
X33912150Y5967523D01*
X33912150Y8057250D01*
X36020350Y8057250D01*
X36020315Y8176313D01*
X36019936Y8216157D01*
X36018904Y8253149D01*
X36017340Y8284755D01*
X36015367Y8308442D01*
X36013373Y8320775D01*
X35999273Y8351923D01*
X35976389Y8373899D01*
X35944695Y8386728D01*
X35942977Y8387109D01*
X35933180Y8387851D01*
X35911348Y8388552D01*
X35878149Y8389212D01*
X35834249Y8389830D01*
X35780314Y8390407D01*
X35717009Y8390943D01*
X35645003Y8391438D01*
X35564959Y8391892D01*
X35477545Y8392305D01*
X35383427Y8392677D01*
X35283271Y8393008D01*
X35177744Y8393299D01*
X35067511Y8393549D01*
X34953238Y8393759D01*
X34835593Y8393928D01*
X34715240Y8394057D01*
X34592847Y8394145D01*
X34469080Y8394193D01*
X34344604Y8394201D01*
X34220086Y8394169D01*
X34220086Y8394169D01*
G37*
X34220086Y8394169D02*
X34096192Y8394097D01*
X33973588Y8393985D01*
X33852941Y8393834D01*
X33734916Y8393642D01*
X33620181Y8393411D01*
X33509400Y8393140D01*
X33403241Y8392830D01*
X33302370Y8392480D01*
X33207452Y8392091D01*
X33119154Y8391663D01*
X33038142Y8391195D01*
X32965082Y8390689D01*
X32900641Y8390143D01*
X32845485Y8389558D01*
X32800279Y8388935D01*
X32765691Y8388272D01*
X32742386Y8387571D01*
X32731030Y8386831D01*
X32730480Y8386735D01*
X32705262Y8378733D01*
X32683844Y8364931D01*
X32670478Y8352612D01*
X32656336Y8336604D01*
X32645703Y8319326D01*
X32638172Y8298801D01*
X32633337Y8273053D01*
X32630791Y8240106D01*
X32630129Y8197983D01*
X32630629Y8158850D01*
X32632625Y8060425D01*
X33002513Y8058787D01*
X33372400Y8057148D01*
X33372410Y7049137D01*
X33372418Y6916422D01*
X33372441Y6795815D01*
X33372486Y6686725D01*
X33372560Y6588558D01*
X33372669Y6500724D01*
X33372820Y6422630D01*
X33373018Y6353684D01*
X33373271Y6293294D01*
X33373584Y6240869D01*
X33373964Y6195816D01*
X33374418Y6157543D01*
X33374951Y6125459D01*
X33375571Y6098971D01*
X33376283Y6077488D01*
X33377094Y6060417D01*
X33378010Y6047167D01*
X33379038Y6037145D01*
X33380184Y6029761D01*
X33381455Y6024420D01*
X33382856Y6020533D01*
X33383523Y6019117D01*
X33396801Y6000938D01*
X33414596Y5985578D01*
X33416850Y5984192D01*
X33423166Y5980844D01*
X33430325Y5978113D01*
X33439646Y5975922D01*
X33452448Y5974197D01*
X33470050Y5972861D01*
X33493769Y5971840D01*
X33524926Y5971059D01*
X33564837Y5970441D01*
X33614823Y5969911D01*
X33675613Y5969399D01*
X33912150Y5967523D01*
X33912150Y8057250D01*
X36020350Y8057250D01*
X36020315Y8176313D01*
X36019936Y8216157D01*
X36018904Y8253149D01*
X36017340Y8284755D01*
X36015367Y8308442D01*
X36013373Y8320775D01*
X35999273Y8351923D01*
X35976389Y8373899D01*
X35944695Y8386728D01*
X35942977Y8387109D01*
X35933180Y8387851D01*
X35911348Y8388552D01*
X35878149Y8389212D01*
X35834249Y8389830D01*
X35780314Y8390407D01*
X35717009Y8390943D01*
X35645003Y8391438D01*
X35564959Y8391892D01*
X35477545Y8392305D01*
X35383427Y8392677D01*
X35283271Y8393008D01*
X35177744Y8393299D01*
X35067511Y8393549D01*
X34953238Y8393759D01*
X34835593Y8393928D01*
X34715240Y8394057D01*
X34592847Y8394145D01*
X34469080Y8394193D01*
X34344604Y8394201D01*
X34220086Y8394169D01*
G36*
X39771118Y8390621D02*
X39641020Y8390604D01*
X39522518Y8390569D01*
X39415060Y8390511D01*
X39318094Y8390425D01*
X39231067Y8390304D01*
X39153427Y8390145D01*
X39084623Y8389941D01*
X39024103Y8389688D01*
X38971313Y8389379D01*
X38925703Y8389011D01*
X38886720Y8388576D01*
X38853812Y8388071D01*
X38826428Y8387489D01*
X38804014Y8386826D01*
X38786018Y8386076D01*
X38771890Y8385233D01*
X38761076Y8384293D01*
X38753025Y8383251D01*
X38747184Y8382100D01*
X38743002Y8380836D01*
X38739926Y8379452D01*
X38739703Y8379332D01*
X38723209Y8366648D01*
X38707175Y8348716D01*
X38703105Y8342810D01*
X38687179Y8317581D01*
X38688852Y7420653D01*
X38689092Y7295783D01*
X38689328Y7182986D01*
X38689569Y7081633D01*
X38689825Y6991096D01*
X38690102Y6910748D01*
X38690411Y6839961D01*
X38690761Y6778107D01*
X38691159Y6724558D01*
X38691615Y6678686D01*
X38692137Y6639864D01*
X38692734Y6607464D01*
X38693415Y6580857D01*
X38694189Y6559417D01*
X38695064Y6542515D01*
X38696050Y6529523D01*
X38697154Y6519814D01*
X38698386Y6512760D01*
X38699755Y6507732D01*
X38701269Y6504104D01*
X38701648Y6503384D01*
X38717637Y6484979D01*
X38736573Y6476432D01*
X38745823Y6475614D01*
X38766879Y6474855D01*
X38798844Y6474155D01*
X38840826Y6473513D01*
X38891928Y6472930D01*
X38951256Y6472406D01*
X39017916Y6471941D01*
X39091013Y6471536D01*
X39169652Y6471189D01*
X39252938Y6470902D01*
X39339976Y6470674D01*
X39429873Y6470505D01*
X39521732Y6470396D01*
X39614660Y6470347D01*
X39707761Y6470357D01*
X39800141Y6470427D01*
X39890905Y6470558D01*
X39979159Y6470748D01*
X40064008Y6470998D01*
X40144556Y6471308D01*
X40219909Y6471678D01*
X40289173Y6472109D01*
X40351453Y6472601D01*
X40405854Y6473152D01*
X40451481Y6473765D01*
X40487440Y6474438D01*
X40512835Y6475172D01*
X40526772Y6475966D01*
X40528759Y6476254D01*
X40553065Y6487887D01*
X40574275Y6508900D01*
X40589293Y6535972D01*
X40591923Y6544025D01*
X40593562Y6556604D01*
X40594984Y6581553D01*
X40596184Y6618541D01*
X40597154Y6667238D01*
X40597890Y6727316D01*
X40598386Y6798444D01*
X40598635Y6880294D01*
X40598665Y6920775D01*
X40598643Y6997344D01*
X40598542Y7062222D01*
X40598334Y7116418D01*
X40597989Y7160940D01*
X40597481Y7196798D01*
X40596780Y7225000D01*
X40595858Y7246554D01*
X40594686Y7262471D01*
X40593238Y7273758D01*
X40591483Y7281424D01*
X40589394Y7286479D01*
X40588346Y7288158D01*
X40584718Y7293399D01*
X40581113Y7298045D01*
X40576784Y7302130D01*
X40570984Y7305691D01*
X40562967Y7308764D01*
X40551986Y7311385D01*
X40537294Y7313590D01*
X40518144Y7315415D01*
X40493790Y7316895D01*
X40463484Y7318067D01*
X40426481Y7318967D01*
X40382033Y7319629D01*
X40329394Y7320092D01*
X40267816Y7320389D01*
X40196554Y7320558D01*
X40114860Y7320634D01*
X40021987Y7320653D01*
X39917190Y7320651D01*
X39290382Y7320651D01*
X39292079Y7160313D01*
X39293775Y6999975D01*
X39647788Y6998335D01*
X40001800Y6996694D01*
X40001800Y6850750D01*
X39189000Y6850750D01*
X39189000Y8063560D01*
X40171663Y8065168D01*
X41154325Y8066775D01*
X41154211Y8177900D01*
X41154101Y8218108D01*
X41153681Y8247915D01*
X41152670Y8269621D01*
X41150790Y8285524D01*
X41147760Y8297925D01*
X41143302Y8309123D01*
X41137136Y8321416D01*
X41136656Y8322334D01*
X41115246Y8353356D01*
X41092784Y8373134D01*
X41066353Y8390625D01*
X39913364Y8390625D01*
X39771118Y8390621D01*
X39771118Y8390621D01*
G37*
X39771118Y8390621D02*
X39641020Y8390604D01*
X39522518Y8390569D01*
X39415060Y8390511D01*
X39318094Y8390425D01*
X39231067Y8390304D01*
X39153427Y8390145D01*
X39084623Y8389941D01*
X39024103Y8389688D01*
X38971313Y8389379D01*
X38925703Y8389011D01*
X38886720Y8388576D01*
X38853812Y8388071D01*
X38826428Y8387489D01*
X38804014Y8386826D01*
X38786018Y8386076D01*
X38771890Y8385233D01*
X38761076Y8384293D01*
X38753025Y8383251D01*
X38747184Y8382100D01*
X38743002Y8380836D01*
X38739926Y8379452D01*
X38739703Y8379332D01*
X38723209Y8366648D01*
X38707175Y8348716D01*
X38703105Y8342810D01*
X38687179Y8317581D01*
X38688852Y7420653D01*
X38689092Y7295783D01*
X38689328Y7182986D01*
X38689569Y7081633D01*
X38689825Y6991096D01*
X38690102Y6910748D01*
X38690411Y6839961D01*
X38690761Y6778107D01*
X38691159Y6724558D01*
X38691615Y6678686D01*
X38692137Y6639864D01*
X38692734Y6607464D01*
X38693415Y6580857D01*
X38694189Y6559417D01*
X38695064Y6542515D01*
X38696050Y6529523D01*
X38697154Y6519814D01*
X38698386Y6512760D01*
X38699755Y6507732D01*
X38701269Y6504104D01*
X38701648Y6503384D01*
X38717637Y6484979D01*
X38736573Y6476432D01*
X38745823Y6475614D01*
X38766879Y6474855D01*
X38798844Y6474155D01*
X38840826Y6473513D01*
X38891928Y6472930D01*
X38951256Y6472406D01*
X39017916Y6471941D01*
X39091013Y6471536D01*
X39169652Y6471189D01*
X39252938Y6470902D01*
X39339976Y6470674D01*
X39429873Y6470505D01*
X39521732Y6470396D01*
X39614660Y6470347D01*
X39707761Y6470357D01*
X39800141Y6470427D01*
X39890905Y6470558D01*
X39979159Y6470748D01*
X40064008Y6470998D01*
X40144556Y6471308D01*
X40219909Y6471678D01*
X40289173Y6472109D01*
X40351453Y6472601D01*
X40405854Y6473152D01*
X40451481Y6473765D01*
X40487440Y6474438D01*
X40512835Y6475172D01*
X40526772Y6475966D01*
X40528759Y6476254D01*
X40553065Y6487887D01*
X40574275Y6508900D01*
X40589293Y6535972D01*
X40591923Y6544025D01*
X40593562Y6556604D01*
X40594984Y6581553D01*
X40596184Y6618541D01*
X40597154Y6667238D01*
X40597890Y6727316D01*
X40598386Y6798444D01*
X40598635Y6880294D01*
X40598665Y6920775D01*
X40598643Y6997344D01*
X40598542Y7062222D01*
X40598334Y7116418D01*
X40597989Y7160940D01*
X40597481Y7196798D01*
X40596780Y7225000D01*
X40595858Y7246554D01*
X40594686Y7262471D01*
X40593238Y7273758D01*
X40591483Y7281424D01*
X40589394Y7286479D01*
X40588346Y7288158D01*
X40584718Y7293399D01*
X40581113Y7298045D01*
X40576784Y7302130D01*
X40570984Y7305691D01*
X40562967Y7308764D01*
X40551986Y7311385D01*
X40537294Y7313590D01*
X40518144Y7315415D01*
X40493790Y7316895D01*
X40463484Y7318067D01*
X40426481Y7318967D01*
X40382033Y7319629D01*
X40329394Y7320092D01*
X40267816Y7320389D01*
X40196554Y7320558D01*
X40114860Y7320634D01*
X40021987Y7320653D01*
X39917190Y7320651D01*
X39290382Y7320651D01*
X39292079Y7160313D01*
X39293775Y6999975D01*
X39647788Y6998335D01*
X40001800Y6996694D01*
X40001800Y6850750D01*
X39189000Y6850750D01*
X39189000Y8063560D01*
X40171663Y8065168D01*
X41154325Y8066775D01*
X41154211Y8177900D01*
X41154101Y8218108D01*
X41153681Y8247915D01*
X41152670Y8269621D01*
X41150790Y8285524D01*
X41147760Y8297925D01*
X41143302Y8309123D01*
X41137136Y8321416D01*
X41136656Y8322334D01*
X41115246Y8353356D01*
X41092784Y8373134D01*
X41066353Y8390625D01*
X39913364Y8390625D01*
X39771118Y8390621D01*
G36*
X31493558Y16969937D02*
X31404639Y16968950D01*
X31302307Y16967338D01*
X31221846Y16965635D01*
X31159728Y16963552D01*
X31112426Y16960797D01*
X31076410Y16957078D01*
X31048154Y16952106D01*
X31024129Y16945590D01*
X31000807Y16937237D01*
X30995670Y16935223D01*
X30914216Y16889945D01*
X30844684Y16825403D01*
X30792333Y16746843D01*
X30780484Y16720631D01*
X30751050Y16647750D01*
X30744156Y14444300D01*
X31278100Y14444300D01*
X31278100Y15496432D01*
X31278121Y15684563D01*
X31278205Y15848933D01*
X31278390Y15991182D01*
X31278709Y16112950D01*
X31279200Y16215876D01*
X31279896Y16301601D01*
X31280835Y16371763D01*
X31282050Y16428002D01*
X31283578Y16471958D01*
X31285455Y16505270D01*
X31287715Y16529577D01*
X31290394Y16546521D01*
X31293528Y16557739D01*
X31297151Y16564872D01*
X31301301Y16569560D01*
X31301326Y16569582D01*
X31318026Y16579707D01*
X31344497Y16586120D01*
X31385778Y16589518D01*
X31446908Y16590594D01*
X31453726Y16590601D01*
X31485404Y16591593D01*
X31513177Y16593537D01*
X31537297Y16594880D01*
X31558019Y16594070D01*
X31575597Y16589555D01*
X31590286Y16579785D01*
X31602339Y16563206D01*
X31612011Y16538268D01*
X31619556Y16503418D01*
X31625229Y16457104D01*
X31629283Y16397776D01*
X31631973Y16323880D01*
X31633553Y16233866D01*
X31634277Y16126181D01*
X31634400Y15999274D01*
X31634175Y15851593D01*
X31633857Y15681586D01*
X31633701Y15492050D01*
X31633700Y14444300D01*
X32167100Y14444300D01*
X32167100Y15489718D01*
X32166927Y15707526D01*
X32166408Y15902811D01*
X32165548Y16075210D01*
X32164352Y16224363D01*
X32162824Y16349909D01*
X32160968Y16451486D01*
X32158790Y16528733D01*
X32156292Y16581288D01*
X32153611Y16608107D01*
X32124396Y16714661D01*
X32079310Y16801620D01*
X32017501Y16869870D01*
X31938116Y16920300D01*
X31840302Y16953798D01*
X31816966Y16958838D01*
X31772134Y16964414D01*
X31703584Y16968115D01*
X31610873Y16969952D01*
X31493558Y16969937D01*
X31493558Y16969937D01*
G37*
X31493558Y16969937D02*
X31404639Y16968950D01*
X31302307Y16967338D01*
X31221846Y16965635D01*
X31159728Y16963552D01*
X31112426Y16960797D01*
X31076410Y16957078D01*
X31048154Y16952106D01*
X31024129Y16945590D01*
X31000807Y16937237D01*
X30995670Y16935223D01*
X30914216Y16889945D01*
X30844684Y16825403D01*
X30792333Y16746843D01*
X30780484Y16720631D01*
X30751050Y16647750D01*
X30744156Y14444300D01*
X31278100Y14444300D01*
X31278100Y15496432D01*
X31278121Y15684563D01*
X31278205Y15848933D01*
X31278390Y15991182D01*
X31278709Y16112950D01*
X31279200Y16215876D01*
X31279896Y16301601D01*
X31280835Y16371763D01*
X31282050Y16428002D01*
X31283578Y16471958D01*
X31285455Y16505270D01*
X31287715Y16529577D01*
X31290394Y16546521D01*
X31293528Y16557739D01*
X31297151Y16564872D01*
X31301301Y16569560D01*
X31301326Y16569582D01*
X31318026Y16579707D01*
X31344497Y16586120D01*
X31385778Y16589518D01*
X31446908Y16590594D01*
X31453726Y16590601D01*
X31485404Y16591593D01*
X31513177Y16593537D01*
X31537297Y16594880D01*
X31558019Y16594070D01*
X31575597Y16589555D01*
X31590286Y16579785D01*
X31602339Y16563206D01*
X31612011Y16538268D01*
X31619556Y16503418D01*
X31625229Y16457104D01*
X31629283Y16397776D01*
X31631973Y16323880D01*
X31633553Y16233866D01*
X31634277Y16126181D01*
X31634400Y15999274D01*
X31634175Y15851593D01*
X31633857Y15681586D01*
X31633701Y15492050D01*
X31633700Y14444300D01*
X32167100Y14444300D01*
X32167100Y15489718D01*
X32166927Y15707526D01*
X32166408Y15902811D01*
X32165548Y16075210D01*
X32164352Y16224363D01*
X32162824Y16349909D01*
X32160968Y16451486D01*
X32158790Y16528733D01*
X32156292Y16581288D01*
X32153611Y16608107D01*
X32124396Y16714661D01*
X32079310Y16801620D01*
X32017501Y16869870D01*
X31938116Y16920300D01*
X31840302Y16953798D01*
X31816966Y16958838D01*
X31772134Y16964414D01*
X31703584Y16968115D01*
X31610873Y16969952D01*
X31493558Y16969937D01*
G36*
X29540840Y16965190D02*
X29451469Y16964881D01*
X29381278Y16964130D01*
X29327157Y16962742D01*
X29285996Y16960524D01*
X29254686Y16957284D01*
X29230115Y16952826D01*
X29209175Y16946958D01*
X29188754Y16939486D01*
X29179570Y16935817D01*
X29097666Y16889674D01*
X29027868Y16824437D01*
X28975583Y16745514D01*
X28964384Y16720631D01*
X28934950Y16647750D01*
X28928056Y14444300D01*
X29462000Y14444300D01*
X29462000Y15283162D01*
X29849350Y15276150D01*
X29856048Y14444300D01*
X30389100Y14444300D01*
X30388708Y15463475D01*
X30388490Y15632626D01*
X30387983Y15794164D01*
X30387209Y15946126D01*
X30386190Y16086551D01*
X30385867Y16119642D01*
X29855513Y16119642D01*
X29855308Y16019544D01*
X29854637Y15927654D01*
X29853563Y15847033D01*
X29852143Y15780742D01*
X29850439Y15731840D01*
X29848510Y15703389D01*
X29847234Y15697367D01*
X29832177Y15694391D01*
X29796405Y15691873D01*
X29744600Y15690014D01*
X29681444Y15689016D01*
X29650384Y15688900D01*
X29462000Y15688900D01*
X29462000Y16124623D01*
X29462236Y16249829D01*
X29462989Y16351653D01*
X29464331Y16432112D01*
X29466331Y16493220D01*
X29469061Y16536992D01*
X29472591Y16565444D01*
X29476990Y16580590D01*
X29477999Y16582225D01*
X29487514Y16591260D01*
X29503306Y16597215D01*
X29529772Y16600537D01*
X29571307Y16601670D01*
X29632307Y16601061D01*
X29658621Y16600528D01*
X29725960Y16598883D01*
X29772383Y16596811D01*
X29802369Y16593435D01*
X29820399Y16587880D01*
X29830953Y16579269D01*
X29838511Y16566726D01*
X29839285Y16565200D01*
X29844079Y16548456D01*
X29847927Y16517839D01*
X29850901Y16471349D01*
X29853073Y16406989D01*
X29854518Y16322759D01*
X29855307Y16216661D01*
X29855513Y16119642D01*
X30385867Y16119642D01*
X30384949Y16213474D01*
X30383508Y16324932D01*
X30381889Y16418964D01*
X30380115Y16493605D01*
X30378207Y16546893D01*
X30376189Y16576864D01*
X30376062Y16577900D01*
X30357415Y16665745D01*
X30326276Y16748134D01*
X30285734Y16818469D01*
X30239302Y16869806D01*
X30199530Y16897263D01*
X30149960Y16924496D01*
X30122400Y16936933D01*
X30101923Y16944837D01*
X30081734Y16951117D01*
X30058740Y16955958D01*
X30029845Y16959547D01*
X29991952Y16962071D01*
X29941968Y16963716D01*
X29876797Y16964670D01*
X29793344Y16965118D01*
X29688512Y16965246D01*
X29652500Y16965250D01*
X29540840Y16965190D01*
X29540840Y16965190D01*
G37*
X29540840Y16965190D02*
X29451469Y16964881D01*
X29381278Y16964130D01*
X29327157Y16962742D01*
X29285996Y16960524D01*
X29254686Y16957284D01*
X29230115Y16952826D01*
X29209175Y16946958D01*
X29188754Y16939486D01*
X29179570Y16935817D01*
X29097666Y16889674D01*
X29027868Y16824437D01*
X28975583Y16745514D01*
X28964384Y16720631D01*
X28934950Y16647750D01*
X28928056Y14444300D01*
X29462000Y14444300D01*
X29462000Y15283162D01*
X29849350Y15276150D01*
X29856048Y14444300D01*
X30389100Y14444300D01*
X30388708Y15463475D01*
X30388490Y15632626D01*
X30387983Y15794164D01*
X30387209Y15946126D01*
X30386190Y16086551D01*
X30385867Y16119642D01*
X29855513Y16119642D01*
X29855308Y16019544D01*
X29854637Y15927654D01*
X29853563Y15847033D01*
X29852143Y15780742D01*
X29850439Y15731840D01*
X29848510Y15703389D01*
X29847234Y15697367D01*
X29832177Y15694391D01*
X29796405Y15691873D01*
X29744600Y15690014D01*
X29681444Y15689016D01*
X29650384Y15688900D01*
X29462000Y15688900D01*
X29462000Y16124623D01*
X29462236Y16249829D01*
X29462989Y16351653D01*
X29464331Y16432112D01*
X29466331Y16493220D01*
X29469061Y16536992D01*
X29472591Y16565444D01*
X29476990Y16580590D01*
X29477999Y16582225D01*
X29487514Y16591260D01*
X29503306Y16597215D01*
X29529772Y16600537D01*
X29571307Y16601670D01*
X29632307Y16601061D01*
X29658621Y16600528D01*
X29725960Y16598883D01*
X29772383Y16596811D01*
X29802369Y16593435D01*
X29820399Y16587880D01*
X29830953Y16579269D01*
X29838511Y16566726D01*
X29839285Y16565200D01*
X29844079Y16548456D01*
X29847927Y16517839D01*
X29850901Y16471349D01*
X29853073Y16406989D01*
X29854518Y16322759D01*
X29855307Y16216661D01*
X29855513Y16119642D01*
X30385867Y16119642D01*
X30384949Y16213474D01*
X30383508Y16324932D01*
X30381889Y16418964D01*
X30380115Y16493605D01*
X30378207Y16546893D01*
X30376189Y16576864D01*
X30376062Y16577900D01*
X30357415Y16665745D01*
X30326276Y16748134D01*
X30285734Y16818469D01*
X30239302Y16869806D01*
X30199530Y16897263D01*
X30149960Y16924496D01*
X30122400Y16936933D01*
X30101923Y16944837D01*
X30081734Y16951117D01*
X30058740Y16955958D01*
X30029845Y16959547D01*
X29991952Y16962071D01*
X29941968Y16963716D01*
X29876797Y16964670D01*
X29793344Y16965118D01*
X29688512Y16965246D01*
X29652500Y16965250D01*
X29540840Y16965190D01*
G36*
X27879408Y16933128D02*
X27756634Y16932041D01*
X27650223Y16930289D01*
X27562191Y16927920D01*
X27494549Y16924981D01*
X27449312Y16921520D01*
X27436019Y16919664D01*
X27334380Y16889801D01*
X27249567Y16840935D01*
X27181665Y16773135D01*
X27130758Y16686469D01*
X27122988Y16667808D01*
X27113359Y16640878D01*
X27106042Y16612925D01*
X27100614Y16579718D01*
X27096654Y16537024D01*
X27093743Y16480611D01*
X27091457Y16406246D01*
X27089880Y16335139D01*
X27088586Y16223568D01*
X27089527Y16130806D01*
X27092648Y16058893D01*
X27097892Y16009870D01*
X27099116Y16003350D01*
X27125683Y15923194D01*
X27168297Y15851639D01*
X27222489Y15795577D01*
X27243296Y15780933D01*
X27297792Y15747004D01*
X27240603Y15708427D01*
X27181718Y15653923D01*
X27151133Y15606718D01*
X27118850Y15543586D01*
X27115167Y14993943D01*
X27111483Y14444300D01*
X27645900Y14444300D01*
X27645900Y14927735D01*
X27646256Y15065323D01*
X27647303Y15182872D01*
X27649017Y15279371D01*
X27651371Y15353807D01*
X27654339Y15405169D01*
X27657895Y15432447D01*
X27659047Y15435735D01*
X27666717Y15446026D01*
X27679682Y15452980D01*
X27702421Y15457237D01*
X27739413Y15459442D01*
X27795135Y15460234D01*
X27830497Y15460300D01*
X27988800Y15460300D01*
X27988800Y14444300D01*
X28522200Y14444300D01*
X28522200Y16565200D01*
X27988800Y16565200D01*
X27988800Y15841300D01*
X27824421Y15841300D01*
X27756797Y15841551D01*
X27709979Y15842773D01*
X27679377Y15845670D01*
X27660397Y15850945D01*
X27648448Y15859303D01*
X27640271Y15869526D01*
X27633049Y15892590D01*
X27627246Y15936216D01*
X27622854Y15996041D01*
X27619865Y16067700D01*
X27618270Y16146827D01*
X27618062Y16229059D01*
X27619233Y16310029D01*
X27621773Y16385375D01*
X27625676Y16450731D01*
X27630933Y16501732D01*
X27637536Y16534013D01*
X27641519Y16541975D01*
X27653282Y16551703D01*
X27670845Y16558309D01*
X27698784Y16562371D01*
X27741680Y16564467D01*
X27804110Y16565173D01*
X27825669Y16565200D01*
X27988800Y16565200D01*
X28522200Y16565200D01*
X28522200Y16933500D01*
X28016533Y16933500D01*
X27879408Y16933128D01*
X27879408Y16933128D01*
G37*
X27879408Y16933128D02*
X27756634Y16932041D01*
X27650223Y16930289D01*
X27562191Y16927920D01*
X27494549Y16924981D01*
X27449312Y16921520D01*
X27436019Y16919664D01*
X27334380Y16889801D01*
X27249567Y16840935D01*
X27181665Y16773135D01*
X27130758Y16686469D01*
X27122988Y16667808D01*
X27113359Y16640878D01*
X27106042Y16612925D01*
X27100614Y16579718D01*
X27096654Y16537024D01*
X27093743Y16480611D01*
X27091457Y16406246D01*
X27089880Y16335139D01*
X27088586Y16223568D01*
X27089527Y16130806D01*
X27092648Y16058893D01*
X27097892Y16009870D01*
X27099116Y16003350D01*
X27125683Y15923194D01*
X27168297Y15851639D01*
X27222489Y15795577D01*
X27243296Y15780933D01*
X27297792Y15747004D01*
X27240603Y15708427D01*
X27181718Y15653923D01*
X27151133Y15606718D01*
X27118850Y15543586D01*
X27115167Y14993943D01*
X27111483Y14444300D01*
X27645900Y14444300D01*
X27645900Y14927735D01*
X27646256Y15065323D01*
X27647303Y15182872D01*
X27649017Y15279371D01*
X27651371Y15353807D01*
X27654339Y15405169D01*
X27657895Y15432447D01*
X27659047Y15435735D01*
X27666717Y15446026D01*
X27679682Y15452980D01*
X27702421Y15457237D01*
X27739413Y15459442D01*
X27795135Y15460234D01*
X27830497Y15460300D01*
X27988800Y15460300D01*
X27988800Y14444300D01*
X28522200Y14444300D01*
X28522200Y16565200D01*
X27988800Y16565200D01*
X27988800Y15841300D01*
X27824421Y15841300D01*
X27756797Y15841551D01*
X27709979Y15842773D01*
X27679377Y15845670D01*
X27660397Y15850945D01*
X27648448Y15859303D01*
X27640271Y15869526D01*
X27633049Y15892590D01*
X27627246Y15936216D01*
X27622854Y15996041D01*
X27619865Y16067700D01*
X27618270Y16146827D01*
X27618062Y16229059D01*
X27619233Y16310029D01*
X27621773Y16385375D01*
X27625676Y16450731D01*
X27630933Y16501732D01*
X27637536Y16534013D01*
X27641519Y16541975D01*
X27653282Y16551703D01*
X27670845Y16558309D01*
X27698784Y16562371D01*
X27741680Y16564467D01*
X27804110Y16565173D01*
X27825669Y16565200D01*
X27988800Y16565200D01*
X28522200Y16565200D01*
X28522200Y16933500D01*
X28016533Y16933500D01*
X27879408Y16933128D01*
G36*
X25883240Y16965190D02*
X25793869Y16964881D01*
X25723678Y16964130D01*
X25669557Y16962742D01*
X25628396Y16960524D01*
X25597086Y16957284D01*
X25572515Y16952826D01*
X25551575Y16946958D01*
X25531154Y16939486D01*
X25521970Y16935817D01*
X25440066Y16889674D01*
X25370268Y16824437D01*
X25317983Y16745514D01*
X25306784Y16720631D01*
X25277350Y16647750D01*
X25270456Y14444300D01*
X25804400Y14444300D01*
X25804400Y15283162D01*
X26191750Y15276150D01*
X26198448Y14444300D01*
X26731500Y14444300D01*
X26731108Y15463475D01*
X26730890Y15632626D01*
X26730383Y15794164D01*
X26729609Y15946126D01*
X26728590Y16086551D01*
X26728267Y16119642D01*
X26197913Y16119642D01*
X26197708Y16019544D01*
X26197037Y15927654D01*
X26195963Y15847033D01*
X26194543Y15780742D01*
X26192839Y15731840D01*
X26190910Y15703389D01*
X26189634Y15697367D01*
X26174577Y15694391D01*
X26138805Y15691873D01*
X26087000Y15690014D01*
X26023844Y15689016D01*
X25992784Y15688900D01*
X25804400Y15688900D01*
X25804400Y16124623D01*
X25804636Y16249829D01*
X25805389Y16351653D01*
X25806731Y16432112D01*
X25808731Y16493220D01*
X25811461Y16536992D01*
X25814991Y16565444D01*
X25819390Y16580590D01*
X25820399Y16582225D01*
X25829914Y16591260D01*
X25845706Y16597215D01*
X25872172Y16600537D01*
X25913707Y16601670D01*
X25974707Y16601061D01*
X26001021Y16600528D01*
X26068360Y16598883D01*
X26114783Y16596811D01*
X26144769Y16593435D01*
X26162799Y16587880D01*
X26173353Y16579269D01*
X26180911Y16566726D01*
X26181685Y16565200D01*
X26186479Y16548456D01*
X26190327Y16517839D01*
X26193301Y16471349D01*
X26195473Y16406989D01*
X26196918Y16322759D01*
X26197707Y16216661D01*
X26197913Y16119642D01*
X26728267Y16119642D01*
X26727349Y16213474D01*
X26725908Y16324932D01*
X26724289Y16418964D01*
X26722515Y16493605D01*
X26720607Y16546893D01*
X26718589Y16576864D01*
X26718462Y16577900D01*
X26699815Y16665745D01*
X26668676Y16748134D01*
X26628134Y16818469D01*
X26581702Y16869806D01*
X26541930Y16897263D01*
X26492360Y16924496D01*
X26464800Y16936933D01*
X26444323Y16944837D01*
X26424134Y16951117D01*
X26401140Y16955958D01*
X26372245Y16959547D01*
X26334352Y16962071D01*
X26284368Y16963716D01*
X26219197Y16964670D01*
X26135744Y16965118D01*
X26030912Y16965246D01*
X25994900Y16965250D01*
X25883240Y16965190D01*
X25883240Y16965190D01*
G37*
X25883240Y16965190D02*
X25793869Y16964881D01*
X25723678Y16964130D01*
X25669557Y16962742D01*
X25628396Y16960524D01*
X25597086Y16957284D01*
X25572515Y16952826D01*
X25551575Y16946958D01*
X25531154Y16939486D01*
X25521970Y16935817D01*
X25440066Y16889674D01*
X25370268Y16824437D01*
X25317983Y16745514D01*
X25306784Y16720631D01*
X25277350Y16647750D01*
X25270456Y14444300D01*
X25804400Y14444300D01*
X25804400Y15283162D01*
X26191750Y15276150D01*
X26198448Y14444300D01*
X26731500Y14444300D01*
X26731108Y15463475D01*
X26730890Y15632626D01*
X26730383Y15794164D01*
X26729609Y15946126D01*
X26728590Y16086551D01*
X26728267Y16119642D01*
X26197913Y16119642D01*
X26197708Y16019544D01*
X26197037Y15927654D01*
X26195963Y15847033D01*
X26194543Y15780742D01*
X26192839Y15731840D01*
X26190910Y15703389D01*
X26189634Y15697367D01*
X26174577Y15694391D01*
X26138805Y15691873D01*
X26087000Y15690014D01*
X26023844Y15689016D01*
X25992784Y15688900D01*
X25804400Y15688900D01*
X25804400Y16124623D01*
X25804636Y16249829D01*
X25805389Y16351653D01*
X25806731Y16432112D01*
X25808731Y16493220D01*
X25811461Y16536992D01*
X25814991Y16565444D01*
X25819390Y16580590D01*
X25820399Y16582225D01*
X25829914Y16591260D01*
X25845706Y16597215D01*
X25872172Y16600537D01*
X25913707Y16601670D01*
X25974707Y16601061D01*
X26001021Y16600528D01*
X26068360Y16598883D01*
X26114783Y16596811D01*
X26144769Y16593435D01*
X26162799Y16587880D01*
X26173353Y16579269D01*
X26180911Y16566726D01*
X26181685Y16565200D01*
X26186479Y16548456D01*
X26190327Y16517839D01*
X26193301Y16471349D01*
X26195473Y16406989D01*
X26196918Y16322759D01*
X26197707Y16216661D01*
X26197913Y16119642D01*
X26728267Y16119642D01*
X26727349Y16213474D01*
X26725908Y16324932D01*
X26724289Y16418964D01*
X26722515Y16493605D01*
X26720607Y16546893D01*
X26718589Y16576864D01*
X26718462Y16577900D01*
X26699815Y16665745D01*
X26668676Y16748134D01*
X26628134Y16818469D01*
X26581702Y16869806D01*
X26541930Y16897263D01*
X26492360Y16924496D01*
X26464800Y16936933D01*
X26444323Y16944837D01*
X26424134Y16951117D01*
X26401140Y16955958D01*
X26372245Y16959547D01*
X26334352Y16962071D01*
X26284368Y16963716D01*
X26219197Y16964670D01*
X26135744Y16965118D01*
X26030912Y16965246D01*
X25994900Y16965250D01*
X25883240Y16965190D01*
D13*
X8000000Y38500000D03*
X14000000Y10500000D03*
X80000000Y10500000D03*
X86000000Y38500000D03*
D14*
X78950000Y18750000D03*
X76050000Y18750000D03*
D15*
X37350000Y37450000D03*
X37350000Y36500000D03*
X37350000Y35550000D03*
X35150000Y35550000D03*
X35150000Y37450000D03*
D10*
G36*
X45225162Y11291891D02*
X45027172Y11489881D01*
X46087832Y12550541D01*
X46285822Y12352551D01*
X45225162Y11291891D01*
X45225162Y11291891D01*
G37*
G36*
X44871609Y11645444D02*
X44673619Y11843434D01*
X45734279Y12904094D01*
X45932269Y12706104D01*
X44871609Y11645444D01*
X44871609Y11645444D01*
G37*
G36*
X44518055Y11998998D02*
X44320065Y12196988D01*
X45380725Y13257648D01*
X45578715Y13059658D01*
X44518055Y11998998D01*
X44518055Y11998998D01*
G37*
G36*
X44164502Y12352551D02*
X43966512Y12550541D01*
X45027172Y13611201D01*
X45225162Y13413211D01*
X44164502Y12352551D01*
X44164502Y12352551D01*
G37*
G36*
X43810949Y12706104D02*
X43612959Y12904094D01*
X44673619Y13964754D01*
X44871609Y13766764D01*
X43810949Y12706104D01*
X43810949Y12706104D01*
G37*
G36*
X43457395Y13059658D02*
X43259405Y13257648D01*
X44320065Y14318308D01*
X44518055Y14120318D01*
X43457395Y13059658D01*
X43457395Y13059658D01*
G37*
G36*
X43103842Y13413211D02*
X42905852Y13611201D01*
X43966512Y14671861D01*
X44164502Y14473871D01*
X43103842Y13413211D01*
X43103842Y13413211D01*
G37*
G36*
X42750288Y13766764D02*
X42552298Y13964754D01*
X43612958Y15025414D01*
X43810948Y14827424D01*
X42750288Y13766764D01*
X42750288Y13766764D01*
G37*
G36*
X42396735Y14120318D02*
X42198745Y14318308D01*
X43259405Y15378968D01*
X43457395Y15180978D01*
X42396735Y14120318D01*
X42396735Y14120318D01*
G37*
G36*
X42043182Y14473871D02*
X41845192Y14671861D01*
X42905852Y15732521D01*
X43103842Y15534531D01*
X42043182Y14473871D01*
X42043182Y14473871D01*
G37*
G36*
X41689628Y14827425D02*
X41491638Y15025415D01*
X42552298Y16086075D01*
X42750288Y15888085D01*
X41689628Y14827425D01*
X41689628Y14827425D01*
G37*
G36*
X41336075Y15180978D02*
X41138085Y15378968D01*
X42198745Y16439628D01*
X42396735Y16241638D01*
X41336075Y15180978D01*
X41336075Y15180978D01*
G37*
G36*
X40982521Y15534531D02*
X40784531Y15732521D01*
X41845191Y16793181D01*
X42043181Y16595191D01*
X40982521Y15534531D01*
X40982521Y15534531D01*
G37*
G36*
X40628968Y15888085D02*
X40430978Y16086075D01*
X41491638Y17146735D01*
X41689628Y16948745D01*
X40628968Y15888085D01*
X40628968Y15888085D01*
G37*
G36*
X40275415Y16241638D02*
X40077425Y16439628D01*
X41138085Y17500288D01*
X41336075Y17302298D01*
X40275415Y16241638D01*
X40275415Y16241638D01*
G37*
G36*
X39921861Y16595192D02*
X39723871Y16793182D01*
X40784531Y17853842D01*
X40982521Y17655852D01*
X39921861Y16595192D01*
X39921861Y16595192D01*
G37*
G36*
X39568308Y16948745D02*
X39370318Y17146735D01*
X40430978Y18207395D01*
X40628968Y18009405D01*
X39568308Y16948745D01*
X39568308Y16948745D01*
G37*
G36*
X39214754Y17302298D02*
X39016764Y17500288D01*
X40077424Y18560948D01*
X40275414Y18362958D01*
X39214754Y17302298D01*
X39214754Y17302298D01*
G37*
G36*
X38861201Y17655852D02*
X38663211Y17853842D01*
X39723871Y18914502D01*
X39921861Y18716512D01*
X38861201Y17655852D01*
X38861201Y17655852D01*
G37*
G36*
X38507648Y18009405D02*
X38309658Y18207395D01*
X39370318Y19268055D01*
X39568308Y19070065D01*
X38507648Y18009405D01*
X38507648Y18009405D01*
G37*
G36*
X38154094Y18362959D02*
X37956104Y18560949D01*
X39016764Y19621609D01*
X39214754Y19423619D01*
X38154094Y18362959D01*
X38154094Y18362959D01*
G37*
G36*
X37800541Y18716512D02*
X37602551Y18914502D01*
X38663211Y19975162D01*
X38861201Y19777172D01*
X37800541Y18716512D01*
X37800541Y18716512D01*
G37*
G36*
X37446988Y19070065D02*
X37248998Y19268055D01*
X38309658Y20328715D01*
X38507648Y20130725D01*
X37446988Y19070065D01*
X37446988Y19070065D01*
G37*
G36*
X37093434Y19423619D02*
X36895444Y19621609D01*
X37956104Y20682269D01*
X38154094Y20484279D01*
X37093434Y19423619D01*
X37093434Y19423619D01*
G37*
G36*
X36739881Y19777172D02*
X36541891Y19975162D01*
X37602551Y21035822D01*
X37800541Y20837832D01*
X36739881Y19777172D01*
X36739881Y19777172D01*
G37*
G36*
X36541891Y23524838D02*
X36739881Y23722828D01*
X37800541Y22662168D01*
X37602551Y22464178D01*
X36541891Y23524838D01*
X36541891Y23524838D01*
G37*
G36*
X36895444Y23878391D02*
X37093434Y24076381D01*
X38154094Y23015721D01*
X37956104Y22817731D01*
X36895444Y23878391D01*
X36895444Y23878391D01*
G37*
G36*
X37248998Y24231945D02*
X37446988Y24429935D01*
X38507648Y23369275D01*
X38309658Y23171285D01*
X37248998Y24231945D01*
X37248998Y24231945D01*
G37*
G36*
X37602551Y24585498D02*
X37800541Y24783488D01*
X38861201Y23722828D01*
X38663211Y23524838D01*
X37602551Y24585498D01*
X37602551Y24585498D01*
G37*
G36*
X37956104Y24939051D02*
X38154094Y25137041D01*
X39214754Y24076381D01*
X39016764Y23878391D01*
X37956104Y24939051D01*
X37956104Y24939051D01*
G37*
G36*
X38309658Y25292605D02*
X38507648Y25490595D01*
X39568308Y24429935D01*
X39370318Y24231945D01*
X38309658Y25292605D01*
X38309658Y25292605D01*
G37*
G36*
X38663211Y25646158D02*
X38861201Y25844148D01*
X39921861Y24783488D01*
X39723871Y24585498D01*
X38663211Y25646158D01*
X38663211Y25646158D01*
G37*
G36*
X39016764Y25999712D02*
X39214754Y26197702D01*
X40275414Y25137042D01*
X40077424Y24939052D01*
X39016764Y25999712D01*
X39016764Y25999712D01*
G37*
G36*
X39370318Y26353265D02*
X39568308Y26551255D01*
X40628968Y25490595D01*
X40430978Y25292605D01*
X39370318Y26353265D01*
X39370318Y26353265D01*
G37*
G36*
X39723871Y26706818D02*
X39921861Y26904808D01*
X40982521Y25844148D01*
X40784531Y25646158D01*
X39723871Y26706818D01*
X39723871Y26706818D01*
G37*
G36*
X40077425Y27060372D02*
X40275415Y27258362D01*
X41336075Y26197702D01*
X41138085Y25999712D01*
X40077425Y27060372D01*
X40077425Y27060372D01*
G37*
G36*
X40430978Y27413925D02*
X40628968Y27611915D01*
X41689628Y26551255D01*
X41491638Y26353265D01*
X40430978Y27413925D01*
X40430978Y27413925D01*
G37*
G36*
X40784531Y27767479D02*
X40982521Y27965469D01*
X42043181Y26904809D01*
X41845191Y26706819D01*
X40784531Y27767479D01*
X40784531Y27767479D01*
G37*
G36*
X41138085Y28121032D02*
X41336075Y28319022D01*
X42396735Y27258362D01*
X42198745Y27060372D01*
X41138085Y28121032D01*
X41138085Y28121032D01*
G37*
G36*
X41491638Y28474585D02*
X41689628Y28672575D01*
X42750288Y27611915D01*
X42552298Y27413925D01*
X41491638Y28474585D01*
X41491638Y28474585D01*
G37*
G36*
X41845192Y28828139D02*
X42043182Y29026129D01*
X43103842Y27965469D01*
X42905852Y27767479D01*
X41845192Y28828139D01*
X41845192Y28828139D01*
G37*
G36*
X42198745Y29181692D02*
X42396735Y29379682D01*
X43457395Y28319022D01*
X43259405Y28121032D01*
X42198745Y29181692D01*
X42198745Y29181692D01*
G37*
G36*
X42552298Y29535246D02*
X42750288Y29733236D01*
X43810948Y28672576D01*
X43612958Y28474586D01*
X42552298Y29535246D01*
X42552298Y29535246D01*
G37*
G36*
X42905852Y29888799D02*
X43103842Y30086789D01*
X44164502Y29026129D01*
X43966512Y28828139D01*
X42905852Y29888799D01*
X42905852Y29888799D01*
G37*
G36*
X43259405Y30242352D02*
X43457395Y30440342D01*
X44518055Y29379682D01*
X44320065Y29181692D01*
X43259405Y30242352D01*
X43259405Y30242352D01*
G37*
G36*
X43612959Y30595906D02*
X43810949Y30793896D01*
X44871609Y29733236D01*
X44673619Y29535246D01*
X43612959Y30595906D01*
X43612959Y30595906D01*
G37*
G36*
X43966512Y30949459D02*
X44164502Y31147449D01*
X45225162Y30086789D01*
X45027172Y29888799D01*
X43966512Y30949459D01*
X43966512Y30949459D01*
G37*
G36*
X44320065Y31303012D02*
X44518055Y31501002D01*
X45578715Y30440342D01*
X45380725Y30242352D01*
X44320065Y31303012D01*
X44320065Y31303012D01*
G37*
G36*
X44673619Y31656566D02*
X44871609Y31854556D01*
X45932269Y30793896D01*
X45734279Y30595906D01*
X44673619Y31656566D01*
X44673619Y31656566D01*
G37*
G36*
X45027172Y32010119D02*
X45225162Y32208109D01*
X46285822Y31147449D01*
X46087832Y30949459D01*
X45027172Y32010119D01*
X45027172Y32010119D01*
G37*
G36*
X47912168Y30949459D02*
X47714178Y31147449D01*
X48774838Y32208109D01*
X48972828Y32010119D01*
X47912168Y30949459D01*
X47912168Y30949459D01*
G37*
G36*
X48265721Y30595906D02*
X48067731Y30793896D01*
X49128391Y31854556D01*
X49326381Y31656566D01*
X48265721Y30595906D01*
X48265721Y30595906D01*
G37*
G36*
X48619275Y30242352D02*
X48421285Y30440342D01*
X49481945Y31501002D01*
X49679935Y31303012D01*
X48619275Y30242352D01*
X48619275Y30242352D01*
G37*
G36*
X48972828Y29888799D02*
X48774838Y30086789D01*
X49835498Y31147449D01*
X50033488Y30949459D01*
X48972828Y29888799D01*
X48972828Y29888799D01*
G37*
G36*
X49326381Y29535246D02*
X49128391Y29733236D01*
X50189051Y30793896D01*
X50387041Y30595906D01*
X49326381Y29535246D01*
X49326381Y29535246D01*
G37*
G36*
X49679935Y29181692D02*
X49481945Y29379682D01*
X50542605Y30440342D01*
X50740595Y30242352D01*
X49679935Y29181692D01*
X49679935Y29181692D01*
G37*
G36*
X50033488Y28828139D02*
X49835498Y29026129D01*
X50896158Y30086789D01*
X51094148Y29888799D01*
X50033488Y28828139D01*
X50033488Y28828139D01*
G37*
G36*
X50387042Y28474586D02*
X50189052Y28672576D01*
X51249712Y29733236D01*
X51447702Y29535246D01*
X50387042Y28474586D01*
X50387042Y28474586D01*
G37*
G36*
X50740595Y28121032D02*
X50542605Y28319022D01*
X51603265Y29379682D01*
X51801255Y29181692D01*
X50740595Y28121032D01*
X50740595Y28121032D01*
G37*
G36*
X51094148Y27767479D02*
X50896158Y27965469D01*
X51956818Y29026129D01*
X52154808Y28828139D01*
X51094148Y27767479D01*
X51094148Y27767479D01*
G37*
G36*
X51447702Y27413925D02*
X51249712Y27611915D01*
X52310372Y28672575D01*
X52508362Y28474585D01*
X51447702Y27413925D01*
X51447702Y27413925D01*
G37*
G36*
X51801255Y27060372D02*
X51603265Y27258362D01*
X52663925Y28319022D01*
X52861915Y28121032D01*
X51801255Y27060372D01*
X51801255Y27060372D01*
G37*
G36*
X52154809Y26706819D02*
X51956819Y26904809D01*
X53017479Y27965469D01*
X53215469Y27767479D01*
X52154809Y26706819D01*
X52154809Y26706819D01*
G37*
G36*
X52508362Y26353265D02*
X52310372Y26551255D01*
X53371032Y27611915D01*
X53569022Y27413925D01*
X52508362Y26353265D01*
X52508362Y26353265D01*
G37*
G36*
X52861915Y25999712D02*
X52663925Y26197702D01*
X53724585Y27258362D01*
X53922575Y27060372D01*
X52861915Y25999712D01*
X52861915Y25999712D01*
G37*
G36*
X53215469Y25646158D02*
X53017479Y25844148D01*
X54078139Y26904808D01*
X54276129Y26706818D01*
X53215469Y25646158D01*
X53215469Y25646158D01*
G37*
G36*
X53569022Y25292605D02*
X53371032Y25490595D01*
X54431692Y26551255D01*
X54629682Y26353265D01*
X53569022Y25292605D01*
X53569022Y25292605D01*
G37*
G36*
X53922576Y24939052D02*
X53724586Y25137042D01*
X54785246Y26197702D01*
X54983236Y25999712D01*
X53922576Y24939052D01*
X53922576Y24939052D01*
G37*
G36*
X54276129Y24585498D02*
X54078139Y24783488D01*
X55138799Y25844148D01*
X55336789Y25646158D01*
X54276129Y24585498D01*
X54276129Y24585498D01*
G37*
G36*
X54629682Y24231945D02*
X54431692Y24429935D01*
X55492352Y25490595D01*
X55690342Y25292605D01*
X54629682Y24231945D01*
X54629682Y24231945D01*
G37*
G36*
X54983236Y23878391D02*
X54785246Y24076381D01*
X55845906Y25137041D01*
X56043896Y24939051D01*
X54983236Y23878391D01*
X54983236Y23878391D01*
G37*
G36*
X55336789Y23524838D02*
X55138799Y23722828D01*
X56199459Y24783488D01*
X56397449Y24585498D01*
X55336789Y23524838D01*
X55336789Y23524838D01*
G37*
G36*
X55690342Y23171285D02*
X55492352Y23369275D01*
X56553012Y24429935D01*
X56751002Y24231945D01*
X55690342Y23171285D01*
X55690342Y23171285D01*
G37*
G36*
X56043896Y22817731D02*
X55845906Y23015721D01*
X56906566Y24076381D01*
X57104556Y23878391D01*
X56043896Y22817731D01*
X56043896Y22817731D01*
G37*
G36*
X56397449Y22464178D02*
X56199459Y22662168D01*
X57260119Y23722828D01*
X57458109Y23524838D01*
X56397449Y22464178D01*
X56397449Y22464178D01*
G37*
G36*
X56199459Y20837832D02*
X56397449Y21035822D01*
X57458109Y19975162D01*
X57260119Y19777172D01*
X56199459Y20837832D01*
X56199459Y20837832D01*
G37*
G36*
X55845906Y20484279D02*
X56043896Y20682269D01*
X57104556Y19621609D01*
X56906566Y19423619D01*
X55845906Y20484279D01*
X55845906Y20484279D01*
G37*
G36*
X55492352Y20130725D02*
X55690342Y20328715D01*
X56751002Y19268055D01*
X56553012Y19070065D01*
X55492352Y20130725D01*
X55492352Y20130725D01*
G37*
G36*
X55138799Y19777172D02*
X55336789Y19975162D01*
X56397449Y18914502D01*
X56199459Y18716512D01*
X55138799Y19777172D01*
X55138799Y19777172D01*
G37*
G36*
X54785246Y19423619D02*
X54983236Y19621609D01*
X56043896Y18560949D01*
X55845906Y18362959D01*
X54785246Y19423619D01*
X54785246Y19423619D01*
G37*
G36*
X54431692Y19070065D02*
X54629682Y19268055D01*
X55690342Y18207395D01*
X55492352Y18009405D01*
X54431692Y19070065D01*
X54431692Y19070065D01*
G37*
G36*
X54078139Y18716512D02*
X54276129Y18914502D01*
X55336789Y17853842D01*
X55138799Y17655852D01*
X54078139Y18716512D01*
X54078139Y18716512D01*
G37*
G36*
X53724586Y18362958D02*
X53922576Y18560948D01*
X54983236Y17500288D01*
X54785246Y17302298D01*
X53724586Y18362958D01*
X53724586Y18362958D01*
G37*
G36*
X53371032Y18009405D02*
X53569022Y18207395D01*
X54629682Y17146735D01*
X54431692Y16948745D01*
X53371032Y18009405D01*
X53371032Y18009405D01*
G37*
G36*
X53017479Y17655852D02*
X53215469Y17853842D01*
X54276129Y16793182D01*
X54078139Y16595192D01*
X53017479Y17655852D01*
X53017479Y17655852D01*
G37*
G36*
X52663925Y17302298D02*
X52861915Y17500288D01*
X53922575Y16439628D01*
X53724585Y16241638D01*
X52663925Y17302298D01*
X52663925Y17302298D01*
G37*
G36*
X52310372Y16948745D02*
X52508362Y17146735D01*
X53569022Y16086075D01*
X53371032Y15888085D01*
X52310372Y16948745D01*
X52310372Y16948745D01*
G37*
G36*
X51956819Y16595191D02*
X52154809Y16793181D01*
X53215469Y15732521D01*
X53017479Y15534531D01*
X51956819Y16595191D01*
X51956819Y16595191D01*
G37*
G36*
X51603265Y16241638D02*
X51801255Y16439628D01*
X52861915Y15378968D01*
X52663925Y15180978D01*
X51603265Y16241638D01*
X51603265Y16241638D01*
G37*
G36*
X51249712Y15888085D02*
X51447702Y16086075D01*
X52508362Y15025415D01*
X52310372Y14827425D01*
X51249712Y15888085D01*
X51249712Y15888085D01*
G37*
G36*
X50896158Y15534531D02*
X51094148Y15732521D01*
X52154808Y14671861D01*
X51956818Y14473871D01*
X50896158Y15534531D01*
X50896158Y15534531D01*
G37*
G36*
X50542605Y15180978D02*
X50740595Y15378968D01*
X51801255Y14318308D01*
X51603265Y14120318D01*
X50542605Y15180978D01*
X50542605Y15180978D01*
G37*
G36*
X50189052Y14827424D02*
X50387042Y15025414D01*
X51447702Y13964754D01*
X51249712Y13766764D01*
X50189052Y14827424D01*
X50189052Y14827424D01*
G37*
G36*
X49835498Y14473871D02*
X50033488Y14671861D01*
X51094148Y13611201D01*
X50896158Y13413211D01*
X49835498Y14473871D01*
X49835498Y14473871D01*
G37*
G36*
X49481945Y14120318D02*
X49679935Y14318308D01*
X50740595Y13257648D01*
X50542605Y13059658D01*
X49481945Y14120318D01*
X49481945Y14120318D01*
G37*
G36*
X49128391Y13766764D02*
X49326381Y13964754D01*
X50387041Y12904094D01*
X50189051Y12706104D01*
X49128391Y13766764D01*
X49128391Y13766764D01*
G37*
G36*
X48774838Y13413211D02*
X48972828Y13611201D01*
X50033488Y12550541D01*
X49835498Y12352551D01*
X48774838Y13413211D01*
X48774838Y13413211D01*
G37*
G36*
X48421285Y13059658D02*
X48619275Y13257648D01*
X49679935Y12196988D01*
X49481945Y11998998D01*
X48421285Y13059658D01*
X48421285Y13059658D01*
G37*
G36*
X48067731Y12706104D02*
X48265721Y12904094D01*
X49326381Y11843434D01*
X49128391Y11645444D01*
X48067731Y12706104D01*
X48067731Y12706104D01*
G37*
G36*
X47714178Y12352551D02*
X47912168Y12550541D01*
X48972828Y11489881D01*
X48774838Y11291891D01*
X47714178Y12352551D01*
X47714178Y12352551D01*
G37*
D16*
X78900000Y16500000D03*
X78900000Y16000000D03*
X78900000Y15500000D03*
X78900000Y15000000D03*
X76100000Y15000000D03*
X76100000Y15500000D03*
X76100000Y16000000D03*
X76100000Y16500000D03*
D17*
X77085000Y15155000D03*
X77085000Y16345000D03*
X77915000Y15155000D03*
X77915000Y16345000D03*
D18*
X74000000Y17200000D03*
X74000000Y14300000D03*
D19*
X35250000Y39500000D03*
X37250000Y39500000D03*
D20*
X18650000Y40200000D03*
X19750000Y40200000D03*
X71650000Y40200000D03*
X72750000Y40200000D03*
D21*
X33750000Y37450000D03*
X33750000Y38550000D03*
D22*
X19800000Y36500000D03*
X19800000Y38500000D03*
X72800000Y36500000D03*
X72800000Y38500000D03*
D19*
X79000000Y20400000D03*
X77000000Y20400000D03*
D23*
X17400000Y37950000D03*
X17400000Y36450000D03*
X70400000Y38150000D03*
X70400000Y36650000D03*
D20*
X23300000Y16750000D03*
X22200000Y16750000D03*
D23*
X35750000Y15750000D03*
X35750000Y17250000D03*
D21*
X37000000Y16200000D03*
X37000000Y17300000D03*
D24*
X51000000Y8500000D03*
X48000000Y8500000D03*
D20*
X42450000Y32250000D03*
X43550000Y32250000D03*
D21*
X57500000Y26550000D03*
X57500000Y25450000D03*
D23*
X2750000Y5250000D03*
X2750000Y6750000D03*
D25*
X6750000Y9750000D03*
X5250000Y9750000D03*
D23*
X86200000Y2450000D03*
X86200000Y3950000D03*
X91750000Y9250000D03*
X91750000Y7750000D03*
D21*
X23050000Y10350000D03*
X23050000Y9250000D03*
D26*
X34000000Y15750000D03*
X34000000Y17250000D03*
D27*
X20000000Y16700000D03*
X20000000Y14800000D03*
X18000000Y15750000D03*
X13500000Y20200000D03*
X13500000Y18300000D03*
X11500000Y19250000D03*
D28*
X2600000Y38750000D03*
X4500000Y38750000D03*
X3550000Y36750000D03*
D27*
X8500000Y25200000D03*
X8500000Y23300000D03*
X6500000Y24250000D03*
D28*
X81050000Y18000000D03*
X82950000Y18000000D03*
X82000000Y16000000D03*
X82800000Y34250000D03*
X84700000Y34250000D03*
X83750000Y32250000D03*
D27*
X86250000Y20550000D03*
X86250000Y22450000D03*
X88250000Y21500000D03*
D28*
X8800000Y11250000D03*
X10700000Y11250000D03*
X9750000Y9250000D03*
X86350000Y11500000D03*
X88250000Y11500000D03*
X87300000Y9500000D03*
D29*
X22400000Y26650000D03*
X22400000Y25750000D03*
D30*
X73800000Y23250000D03*
X74700000Y23250000D03*
D29*
X18600000Y26650000D03*
X18600000Y25750000D03*
X72000000Y22550000D03*
X72000000Y23450000D03*
X22400000Y36350000D03*
X22400000Y37250000D03*
X75400000Y36350000D03*
X75400000Y37250000D03*
D30*
X53200000Y11550000D03*
X52300000Y11550000D03*
D29*
X38750000Y36450000D03*
X38750000Y35550000D03*
X23600000Y26650000D03*
X23600000Y25750000D03*
D30*
X78450000Y23250000D03*
X77550000Y23250000D03*
X53950000Y12750000D03*
X53050000Y12750000D03*
D29*
X17400000Y26650000D03*
X17400000Y25750000D03*
X70750000Y22550000D03*
X70750000Y23450000D03*
X52500000Y31700000D03*
X52500000Y30800000D03*
X23600000Y36350000D03*
X23600000Y37250000D03*
X76600000Y36350000D03*
X76600000Y37250000D03*
X42250000Y11800000D03*
X42250000Y12700000D03*
X21250000Y15800000D03*
X21250000Y16700000D03*
D26*
X16250000Y15750000D03*
X16250000Y17250000D03*
D29*
X14750000Y19050000D03*
X14750000Y19950000D03*
D30*
X3500000Y40000000D03*
X2600000Y40000000D03*
D29*
X10000000Y24150000D03*
X10000000Y25050000D03*
D30*
X82950000Y19250000D03*
X82050000Y19250000D03*
X83850000Y35600000D03*
X82950000Y35600000D03*
D29*
X85000000Y21450000D03*
X85000000Y20550000D03*
D30*
X6800000Y11250000D03*
X7700000Y11250000D03*
X84300000Y11500000D03*
X85200000Y11500000D03*
D29*
X1400000Y5950000D03*
X1400000Y5050000D03*
X2750000Y7800000D03*
X2750000Y8700000D03*
D30*
X91850000Y5000000D03*
X90950000Y5000000D03*
X91850000Y6400000D03*
X90950000Y6400000D03*
D29*
X39500000Y14300000D03*
X39500000Y15200000D03*
X38250000Y15050000D03*
X38250000Y15950000D03*
D30*
X35800000Y25750000D03*
X36700000Y25750000D03*
X36300000Y26750000D03*
X37200000Y26750000D03*
X6550000Y19600000D03*
X7450000Y19600000D03*
X7450000Y21000000D03*
X6550000Y21000000D03*
X88450000Y25600000D03*
X87550000Y25600000D03*
X87550000Y24200000D03*
X88450000Y24200000D03*
D31*
X69100000Y10350000D03*
X62900000Y10350000D03*
X69100000Y6650000D03*
X62900000Y6650000D03*
X24900000Y6650000D03*
X31100000Y6650000D03*
X24900000Y10350000D03*
X31100000Y10350000D03*
D20*
X43700000Y33250000D03*
X44800000Y33250000D03*
X50050000Y10250000D03*
X48950000Y10250000D03*
D21*
X58500000Y24800000D03*
X58500000Y23700000D03*
D20*
X34950000Y24750000D03*
X36050000Y24750000D03*
D32*
X47800000Y6000000D03*
X46200000Y6000000D03*
D30*
X49700000Y6000000D03*
X48800000Y6000000D03*
D33*
X89551240Y5850840D03*
X84948760Y5850840D03*
X84948760Y7649160D03*
X89551240Y7649160D03*
X87948760Y3149160D03*
X92551240Y3149160D03*
X92551240Y1350840D03*
X87948760Y1350840D03*
X4448760Y7649160D03*
X9051240Y7649160D03*
X9051240Y5850840D03*
X4448760Y5850840D03*
X1448760Y3149160D03*
X6051240Y3149160D03*
X6051240Y1350840D03*
X1448760Y1350840D03*
D34*
X75350000Y12000000D03*
D35*
X72250000Y12000000D03*
D10*
G36*
X8084289Y16395434D02*
X9877439Y16552314D01*
X10034319Y14759164D01*
X8241169Y14602284D01*
X8084289Y16395434D01*
X8084289Y16395434D01*
G37*
G36*
X5553955Y16174059D02*
X7347105Y16330939D01*
X7503985Y14537789D01*
X5710835Y14380909D01*
X5553955Y16174059D01*
X5553955Y16174059D01*
G37*
G36*
X3023620Y15952683D02*
X4816770Y16109563D01*
X4973650Y14316413D01*
X3180500Y14159533D01*
X3023620Y15952683D01*
X3023620Y15952683D01*
G37*
G36*
X493286Y15731308D02*
X2286436Y15888188D01*
X2443316Y14095038D01*
X650166Y13938158D01*
X493286Y15731308D01*
X493286Y15731308D01*
G37*
G36*
X8256684Y14424962D02*
X10049834Y14581842D01*
X10206714Y12788692D01*
X8413564Y12631812D01*
X8256684Y14424962D01*
X8256684Y14424962D01*
G37*
G36*
X5726350Y14203587D02*
X7519500Y14360467D01*
X7676380Y12567317D01*
X5883230Y12410437D01*
X5726350Y14203587D01*
X5726350Y14203587D01*
G37*
G36*
X3196015Y13982211D02*
X4989165Y14139091D01*
X5146045Y12345941D01*
X3352895Y12189061D01*
X3196015Y13982211D01*
X3196015Y13982211D01*
G37*
G36*
X665681Y13760836D02*
X2458831Y13917716D01*
X2615711Y12124566D01*
X822561Y11967686D01*
X665681Y13760836D01*
X665681Y13760836D01*
G37*
G36*
X9673416Y30336546D02*
X11052296Y29179528D01*
X9895278Y27800648D01*
X8516398Y28957666D01*
X9673416Y30336546D01*
X9673416Y30336546D01*
G37*
G36*
X7727663Y31969226D02*
X9106543Y30812208D01*
X7949525Y29433328D01*
X6570645Y30590346D01*
X7727663Y31969226D01*
X7727663Y31969226D01*
G37*
G36*
X5781910Y33601907D02*
X7160790Y32444889D01*
X6003772Y31066009D01*
X4624892Y32223027D01*
X5781910Y33601907D01*
X5781910Y33601907D01*
G37*
G36*
X3836157Y35234587D02*
X5215037Y34077569D01*
X4058019Y32698689D01*
X2679139Y33855707D01*
X3836157Y35234587D01*
X3836157Y35234587D01*
G37*
G36*
X8401981Y28821311D02*
X9780861Y27664293D01*
X8623843Y26285413D01*
X7244963Y27442431D01*
X8401981Y28821311D01*
X8401981Y28821311D01*
G37*
G36*
X6456228Y30453991D02*
X7835108Y29296973D01*
X6678090Y27918093D01*
X5299210Y29075111D01*
X6456228Y30453991D01*
X6456228Y30453991D01*
G37*
G36*
X4510475Y32086672D02*
X5889355Y30929654D01*
X4732337Y29550774D01*
X3353457Y30707792D01*
X4510475Y32086672D01*
X4510475Y32086672D01*
G37*
G36*
X2564722Y33719352D02*
X3943602Y32562334D01*
X2786584Y31183454D01*
X1407704Y32340472D01*
X2564722Y33719352D01*
X2564722Y33719352D01*
G37*
D36*
X3839000Y18990000D03*
X3839000Y21530000D03*
X3839000Y24070000D03*
X3839000Y26610000D03*
X1861000Y18990000D03*
X1861000Y21530000D03*
X1861000Y24070000D03*
X1861000Y26610000D03*
D10*
G36*
X91713564Y15898188D02*
X93506714Y15741308D01*
X93349834Y13948158D01*
X91556684Y14105038D01*
X91713564Y15898188D01*
X91713564Y15898188D01*
G37*
G36*
X89183230Y16119563D02*
X90976380Y15962683D01*
X90819500Y14169533D01*
X89026350Y14326413D01*
X89183230Y16119563D01*
X89183230Y16119563D01*
G37*
G36*
X86652895Y16340939D02*
X88446045Y16184059D01*
X88289165Y14390909D01*
X86496015Y14547789D01*
X86652895Y16340939D01*
X86652895Y16340939D01*
G37*
G36*
X84122561Y16562314D02*
X85915711Y16405434D01*
X85758831Y14612284D01*
X83965681Y14769164D01*
X84122561Y16562314D01*
X84122561Y16562314D01*
G37*
G36*
X91541169Y13927716D02*
X93334319Y13770836D01*
X93177439Y11977686D01*
X91384289Y12134566D01*
X91541169Y13927716D01*
X91541169Y13927716D01*
G37*
G36*
X89010835Y14149091D02*
X90803985Y13992211D01*
X90647105Y12199061D01*
X88853955Y12355941D01*
X89010835Y14149091D01*
X89010835Y14149091D01*
G37*
G36*
X86480500Y14370467D02*
X88273650Y14213587D01*
X88116770Y12420437D01*
X86323620Y12577317D01*
X86480500Y14370467D01*
X86480500Y14370467D01*
G37*
G36*
X83950166Y14591842D02*
X85743316Y14434962D01*
X85586436Y12641812D01*
X83793286Y12798692D01*
X83950166Y14591842D01*
X83950166Y14591842D01*
G37*
G36*
X88784963Y34087569D02*
X90163843Y35244587D01*
X91320861Y33865707D01*
X89941981Y32708689D01*
X88784963Y34087569D01*
X88784963Y34087569D01*
G37*
G36*
X86839210Y32454889D02*
X88218090Y33611907D01*
X89375108Y32233027D01*
X87996228Y31076009D01*
X86839210Y32454889D01*
X86839210Y32454889D01*
G37*
G36*
X84893457Y30822208D02*
X86272337Y31979226D01*
X87429355Y30600346D01*
X86050475Y29443328D01*
X84893457Y30822208D01*
X84893457Y30822208D01*
G37*
G36*
X82947704Y29189528D02*
X84326584Y30346546D01*
X85483602Y28967666D01*
X84104722Y27810648D01*
X82947704Y29189528D01*
X82947704Y29189528D01*
G37*
G36*
X90056398Y32572334D02*
X91435278Y33729352D01*
X92592296Y32350472D01*
X91213416Y31193454D01*
X90056398Y32572334D01*
X90056398Y32572334D01*
G37*
G36*
X88110645Y30939654D02*
X89489525Y32096672D01*
X90646543Y30717792D01*
X89267663Y29560774D01*
X88110645Y30939654D01*
X88110645Y30939654D01*
G37*
G36*
X86164892Y29306973D02*
X87543772Y30463991D01*
X88700790Y29085111D01*
X87321910Y27928093D01*
X86164892Y29306973D01*
X86164892Y29306973D01*
G37*
G36*
X84219139Y27674293D02*
X85598019Y28831311D01*
X86755037Y27452431D01*
X85376157Y26295413D01*
X84219139Y27674293D01*
X84219139Y27674293D01*
G37*
D36*
X90161000Y26610000D03*
X90161000Y24070000D03*
X90161000Y21530000D03*
X90161000Y18990000D03*
X92139000Y26610000D03*
X92139000Y24070000D03*
X92139000Y21530000D03*
X92139000Y18990000D03*
M02*
