  0
SECTION
  2
HEADER
  9
$ANGBASE
  50
0.0
  9
$ANGDIR
  70
  1
  9
$MEASUREMENT
  70
0
  0
ENDSEC
  0
SECTION
  2
TABLES
  0
TABLE
  2
LTYPE
  70
1
  0
LTYPE
  2
CONTINUOUS
  70
0
  3
Solid line
  72
65
  73
0
  40
0.0
  0
ENDTAB
  0
TABLE
  2
STYLE
  70
4
  0
STYLE
  2
KICAD
  70
0
  40
0
  41
1
  42
1
  50
0
  71
0
  3
isocp.shx
  0
STYLE
  2
KICADB
  70
0
  40
0
  41
1
  42
1
  50
0
  71
0
  3
isocp.shx
  0
STYLE
  2
KICADI
  70
0
  40
0
  41
1
  42
1
  50
15
  71
0
  3
isocp.shx
  0
STYLE
  2
KICADBI
  70
0
  40
0
  41
1
  42
1
  50
15
  71
0
  3
isocp.shx
  0
ENDTAB
  0
TABLE
  2
LAYER
  70
30
  0
LAYER
  2
BLACK
  70
0
  62
7
  6
CONTINUOUS
  0
LAYER
  2
GRAY1
  70
0
  62
251
  6
CONTINUOUS
  0
LAYER
  2
GRAY2
  70
0
  62
8
  6
CONTINUOUS
  0
LAYER
  2
GRAY3
  70
0
  62
9
  6
CONTINUOUS
  0
LAYER
  2
WHITE
  70
0
  62
7
  6
CONTINUOUS
  0
LAYER
  2
LYELLOW
  70
0
  62
51
  6
CONTINUOUS
  0
LAYER
  2
BLUE1
  70
0
  62
178
  6
CONTINUOUS
  0
LAYER
  2
GREEN1
  70
0
  62
98
  6
CONTINUOUS
  0
LAYER
  2
CYAN1
  70
0
  62
138
  6
CONTINUOUS
  0
LAYER
  2
RED1
  70
0
  62
18
  6
CONTINUOUS
  0
LAYER
  2
MAGENTA1
  70
0
  62
228
  6
CONTINUOUS
  0
LAYER
  2
BROWN1
  70
0
  62
58
  6
CONTINUOUS
  0
LAYER
  2
BLUE2
  70
0
  62
5
  6
CONTINUOUS
  0
LAYER
  2
GREEN2
  70
0
  62
3
  6
CONTINUOUS
  0
LAYER
  2
CYAN2
  70
0
  62
4
  6
CONTINUOUS
  0
LAYER
  2
RED2
  70
0
  62
1
  6
CONTINUOUS
  0
LAYER
  2
MAGENTA2
  70
0
  62
6
  6
CONTINUOUS
  0
LAYER
  2
BROWN2
  70
0
  62
54
  6
CONTINUOUS
  0
LAYER
  2
BLUE3
  70
0
  62
171
  6
CONTINUOUS
  0
LAYER
  2
GREEN3
  70
0
  62
91
  6
CONTINUOUS
  0
LAYER
  2
CYAN3
  70
0
  62
131
  6
CONTINUOUS
  0
LAYER
  2
RED3
  70
0
  62
11
  6
CONTINUOUS
  0
LAYER
  2
MAGENTA3
  70
0
  62
221
  6
CONTINUOUS
  0
LAYER
  2
YELLOW3
  70
0
  62
2
  6
CONTINUOUS
  0
LAYER
  2
BLUE4
  70
0
  62
5
  6
CONTINUOUS
  0
LAYER
  2
GREEN4
  70
0
  62
3
  6
CONTINUOUS
  0
LAYER
  2
CYAN4
  70
0
  62
4
  6
CONTINUOUS
  0
LAYER
  2
RED4
  70
0
  62
1
  6
CONTINUOUS
  0
LAYER
  2
MAGENTA4
  70
0
  62
6
  6
CONTINUOUS
  0
LAYER
  2
YELLOW4
  70
0
  62
2
  6
CONTINUOUS
  0
ENDTAB
  0
ENDSEC
  0
SECTION
  2
ENTITIES
0
LINE
8
Black
10
94.4354
20
0.564592
11
94.4354
21
42.9354
0
LINE
8
Black
10
94.4354
20
42.9354
11
53.5646
21
42.9354
0
LINE
8
Black
10
53.5646
20
42.9354
11
53.5646
21
41.4354
0
LINE
8
Black
10
53.5646
20
41.4354
11
41.4354
21
41.4354
0
LINE
8
Black
10
41.4354
20
41.4354
11
41.4354
21
42.9354
0
LINE
8
Black
10
41.4354
20
42.9354
11
0.564592
21
42.9354
0
LINE
8
Black
10
0.564592
20
42.9354
11
0.564592
21
0.564592
0
LINE
8
Black
10
0.564592
20
0.564592
11
7.47324
21
0.564592
0
LINE
8
Black
10
7.47324
20
0.564592
11
11.9732
21
5.06459
0
LINE
8
Black
10
11.9732
20
5.06459
11
83.0268
21
5.06459
0
LINE
8
Black
10
83.0268
20
5.06459
11
87.5268
21
0.564592
0
LINE
8
Black
10
87.5268
20
0.564592
11
94.4354
21
0.564592
0
LINE
8
Black
10
5.79771
20
15.3577
11
11.7749
21
15.8807
0
LINE
8
Black
10
11.7749
20
15.8807
11
11.8795
21
14.6852
0
LINE
8
Black
10
11.8795
20
14.6852
11
-0.074875
21
13.6393
0
LINE
8
Black
10
-0.074875
20
13.6393
11
-0.179462
21
14.8348
0
LINE
8
Black
10
-0.179462
20
14.8348
11
5.79771
21
15.3577
0
LINE
8
Black
10
7.11567
20
31.7196
11
11.7119
21
27.8629
0
LINE
8
Black
10
11.7119
20
27.8629
11
10.9406
21
26.9436
0
LINE
8
Black
10
10.9406
20
26.9436
11
1.74806
21
34.6571
0
LINE
8
Black
10
1.74806
20
34.6571
11
2.51941
21
35.5764
0
LINE
8
Black
10
2.51941
20
35.5764
11
7.11567
21
31.7196
0
LINE
8
Black
10
3.95
20
23.3
11
3.95
21
17.3
0
LINE
8
Black
10
3.95
20
17.3
11
2.75
21
17.3
0
LINE
8
Black
10
2.75
20
17.3
11
2.75
21
29.3
0
LINE
8
Black
10
2.75
20
29.3
11
3.95
21
29.3
0
LINE
8
Black
10
3.95
20
29.3
11
3.95
21
23.3
0
LINE
8
Black
10
89.2023
20
15.3677
11
95.1795
21
14.8448
0
LINE
8
Black
10
95.1795
20
14.8448
11
95.0749
21
13.6493
0
LINE
8
Black
10
95.0749
20
13.6493
11
83.1205
21
14.6952
0
LINE
8
Black
10
83.1205
20
14.6952
11
83.2251
21
15.8907
0
LINE
8
Black
10
83.2251
20
15.8907
11
89.2023
21
15.3677
0
LINE
8
Black
10
87.8843
20
31.7296
11
92.4806
21
35.5864
0
LINE
8
Black
10
92.4806
20
35.5864
11
93.2519
21
34.6671
0
LINE
8
Black
10
93.2519
20
34.6671
11
84.0594
21
26.9536
0
LINE
8
Black
10
84.0594
20
26.9536
11
83.2881
21
27.8729
0
LINE
8
Black
10
83.2881
20
27.8729
11
87.8843
21
31.7296
0
LINE
8
Black
10
91.05
20
23.3
11
91.05
21
29.3
0
LINE
8
Black
10
91.05
20
29.3
11
92.25
21
29.3
0
LINE
8
Black
10
92.25
20
29.3
11
92.25
21
17.3
0
LINE
8
Black
10
92.25
20
17.3
11
91.05
21
17.3
0
LINE
8
Black
10
91.05
20
17.3
11
91.05
21
23.3
  0
ENDSEC
  0
EOF
