G04 #@! TF.FileFunction,Soldermask,Bot*
%FSLAX46Y46*%
G04 Gerber Fmt 4.6, Leading zero omitted, Abs format (unit mm)*
G04 Created by KiCad (PCBNEW 4.0.7-e2-6376~58~ubuntu16.04.1) date Wed Apr 25 16:37:15 2018*
%MOMM*%
%LPD*%
G01*
G04 APERTURE LIST*
%ADD10C,0.100000*%
%ADD11C,0.127000*%
%ADD12C,0.010000*%
%ADD13C,4.000000*%
%ADD14R,0.900000X1.700000*%
%ADD15R,1.060000X0.650000*%
%ADD16R,0.700000X0.250000*%
%ADD17R,0.830000X1.190000*%
%ADD18R,1.700000X0.900000*%
%ADD19R,1.000000X1.250000*%
%ADD20R,0.600000X0.500000*%
%ADD21R,0.500000X0.600000*%
%ADD22R,1.250000X1.000000*%
%ADD23R,0.750000X0.800000*%
%ADD24R,1.000000X1.600000*%
%ADD25R,0.800000X0.750000*%
%ADD26R,0.900000X0.500000*%
%ADD27R,0.900000X0.800000*%
%ADD28R,0.800000X0.900000*%
%ADD29R,0.600000X0.400000*%
%ADD30R,0.400000X0.600000*%
%ADD31R,1.800000X1.100000*%
%ADD32R,0.800000X0.800000*%
%ADD33R,1.300480X0.899160*%
%ADD34R,2.000000X2.000000*%
%ADD35O,2.000000X2.000000*%
%ADD36R,1.150000X2.100000*%
G04 APERTURE END LIST*
D10*
D11*
X65966666Y19771833D02*
X65966666Y20471833D01*
X65700000Y20471833D01*
X65633333Y20438500D01*
X65600000Y20405167D01*
X65566666Y20338500D01*
X65566666Y20238500D01*
X65600000Y20171833D01*
X65633333Y20138500D01*
X65700000Y20105167D01*
X65966666Y20105167D01*
X64933333Y19771833D02*
X65266666Y19771833D01*
X65266666Y20471833D01*
X64466666Y20138500D02*
X64699999Y20138500D01*
X64699999Y19771833D02*
X64699999Y20471833D01*
X64366666Y20471833D01*
X66400001Y19228167D02*
X66366667Y19261500D01*
X66300001Y19294833D01*
X66133334Y19294833D01*
X66066667Y19261500D01*
X66033334Y19228167D01*
X66000001Y19161500D01*
X66000001Y19094833D01*
X66033334Y18994833D01*
X66433334Y18594833D01*
X66000001Y18594833D01*
X65566667Y19294833D02*
X65500000Y19294833D01*
X65433334Y19261500D01*
X65400000Y19228167D01*
X65366667Y19161500D01*
X65333334Y19028167D01*
X65333334Y18861500D01*
X65366667Y18728167D01*
X65400000Y18661500D01*
X65433334Y18628167D01*
X65500000Y18594833D01*
X65566667Y18594833D01*
X65633334Y18628167D01*
X65666667Y18661500D01*
X65700000Y18728167D01*
X65733334Y18861500D01*
X65733334Y19028167D01*
X65700000Y19161500D01*
X65666667Y19228167D01*
X65633334Y19261500D01*
X65566667Y19294833D01*
X64666667Y18594833D02*
X65066667Y18594833D01*
X64866667Y18594833D02*
X64866667Y19294833D01*
X64933333Y19194833D01*
X65000000Y19128167D01*
X65066667Y19094833D01*
X64266666Y18994833D02*
X64333333Y19028167D01*
X64366666Y19061500D01*
X64400000Y19128167D01*
X64400000Y19161500D01*
X64366666Y19228167D01*
X64333333Y19261500D01*
X64266666Y19294833D01*
X64133333Y19294833D01*
X64066666Y19261500D01*
X64033333Y19228167D01*
X64000000Y19161500D01*
X64000000Y19128167D01*
X64033333Y19061500D01*
X64066666Y19028167D01*
X64133333Y18994833D01*
X64266666Y18994833D01*
X64333333Y18961500D01*
X64366666Y18928167D01*
X64400000Y18861500D01*
X64400000Y18728167D01*
X64366666Y18661500D01*
X64333333Y18628167D01*
X64266666Y18594833D01*
X64133333Y18594833D01*
X64066666Y18628167D01*
X64033333Y18661500D01*
X64000000Y18728167D01*
X64000000Y18861500D01*
X64033333Y18928167D01*
X64066666Y18961500D01*
X64133333Y18994833D01*
X28283333Y4983333D02*
X28516667Y5316667D01*
X28683333Y4983333D02*
X28683333Y5683333D01*
X28416667Y5683333D01*
X28350000Y5650000D01*
X28316667Y5616667D01*
X28283333Y5550000D01*
X28283333Y5450000D01*
X28316667Y5383333D01*
X28350000Y5350000D01*
X28416667Y5316667D01*
X28683333Y5316667D01*
X28016667Y5016667D02*
X27916667Y4983333D01*
X27750000Y4983333D01*
X27683333Y5016667D01*
X27650000Y5050000D01*
X27616667Y5116667D01*
X27616667Y5183333D01*
X27650000Y5250000D01*
X27683333Y5283333D01*
X27750000Y5316667D01*
X27883333Y5350000D01*
X27950000Y5383333D01*
X27983333Y5416667D01*
X28016667Y5483333D01*
X28016667Y5550000D01*
X27983333Y5616667D01*
X27950000Y5650000D01*
X27883333Y5683333D01*
X27716667Y5683333D01*
X27616667Y5650000D01*
X27416666Y5683333D02*
X27016666Y5683333D01*
X27216666Y4983333D02*
X27216666Y5683333D01*
X66733332Y4983333D02*
X66733332Y5683333D01*
X65899999Y5716667D02*
X66499999Y4816667D01*
X65533333Y5683333D02*
X65400000Y5683333D01*
X65333333Y5650000D01*
X65266666Y5583333D01*
X65233333Y5450000D01*
X65233333Y5216667D01*
X65266666Y5083333D01*
X65333333Y5016667D01*
X65400000Y4983333D01*
X65533333Y4983333D01*
X65600000Y5016667D01*
X65666666Y5083333D01*
X65700000Y5216667D01*
X65700000Y5450000D01*
X65666666Y5583333D01*
X65600000Y5650000D01*
X65533333Y5683333D01*
D12*
G36*
X31543558Y17619937D02*
X31454639Y17618950D01*
X31352307Y17617338D01*
X31271846Y17615635D01*
X31209728Y17613552D01*
X31162426Y17610797D01*
X31126410Y17607078D01*
X31098154Y17602106D01*
X31074129Y17595590D01*
X31050807Y17587237D01*
X31045670Y17585223D01*
X30964216Y17539945D01*
X30894684Y17475403D01*
X30842333Y17396843D01*
X30830484Y17370631D01*
X30801050Y17297750D01*
X30794156Y15094300D01*
X31328100Y15094300D01*
X31328100Y16146432D01*
X31328121Y16334563D01*
X31328205Y16498933D01*
X31328390Y16641182D01*
X31328709Y16762950D01*
X31329200Y16865876D01*
X31329896Y16951601D01*
X31330835Y17021763D01*
X31332050Y17078002D01*
X31333578Y17121958D01*
X31335455Y17155270D01*
X31337715Y17179577D01*
X31340394Y17196521D01*
X31343528Y17207739D01*
X31347151Y17214872D01*
X31351301Y17219560D01*
X31351326Y17219582D01*
X31368026Y17229707D01*
X31394497Y17236120D01*
X31435778Y17239518D01*
X31496908Y17240594D01*
X31503726Y17240601D01*
X31535404Y17241593D01*
X31563177Y17243537D01*
X31587297Y17244880D01*
X31608019Y17244070D01*
X31625597Y17239555D01*
X31640286Y17229785D01*
X31652339Y17213206D01*
X31662011Y17188268D01*
X31669556Y17153418D01*
X31675229Y17107104D01*
X31679283Y17047776D01*
X31681973Y16973880D01*
X31683553Y16883866D01*
X31684277Y16776181D01*
X31684400Y16649274D01*
X31684175Y16501593D01*
X31683857Y16331586D01*
X31683701Y16142050D01*
X31683700Y15094300D01*
X32217100Y15094300D01*
X32217100Y16139718D01*
X32216927Y16357526D01*
X32216408Y16552811D01*
X32215548Y16725210D01*
X32214352Y16874363D01*
X32212824Y16999909D01*
X32210968Y17101486D01*
X32208790Y17178733D01*
X32206292Y17231288D01*
X32203611Y17258107D01*
X32174396Y17364661D01*
X32129310Y17451620D01*
X32067501Y17519870D01*
X31988116Y17570300D01*
X31890302Y17603798D01*
X31866966Y17608838D01*
X31822134Y17614414D01*
X31753584Y17618115D01*
X31660873Y17619952D01*
X31543558Y17619937D01*
X31543558Y17619937D01*
G37*
X31543558Y17619937D02*
X31454639Y17618950D01*
X31352307Y17617338D01*
X31271846Y17615635D01*
X31209728Y17613552D01*
X31162426Y17610797D01*
X31126410Y17607078D01*
X31098154Y17602106D01*
X31074129Y17595590D01*
X31050807Y17587237D01*
X31045670Y17585223D01*
X30964216Y17539945D01*
X30894684Y17475403D01*
X30842333Y17396843D01*
X30830484Y17370631D01*
X30801050Y17297750D01*
X30794156Y15094300D01*
X31328100Y15094300D01*
X31328100Y16146432D01*
X31328121Y16334563D01*
X31328205Y16498933D01*
X31328390Y16641182D01*
X31328709Y16762950D01*
X31329200Y16865876D01*
X31329896Y16951601D01*
X31330835Y17021763D01*
X31332050Y17078002D01*
X31333578Y17121958D01*
X31335455Y17155270D01*
X31337715Y17179577D01*
X31340394Y17196521D01*
X31343528Y17207739D01*
X31347151Y17214872D01*
X31351301Y17219560D01*
X31351326Y17219582D01*
X31368026Y17229707D01*
X31394497Y17236120D01*
X31435778Y17239518D01*
X31496908Y17240594D01*
X31503726Y17240601D01*
X31535404Y17241593D01*
X31563177Y17243537D01*
X31587297Y17244880D01*
X31608019Y17244070D01*
X31625597Y17239555D01*
X31640286Y17229785D01*
X31652339Y17213206D01*
X31662011Y17188268D01*
X31669556Y17153418D01*
X31675229Y17107104D01*
X31679283Y17047776D01*
X31681973Y16973880D01*
X31683553Y16883866D01*
X31684277Y16776181D01*
X31684400Y16649274D01*
X31684175Y16501593D01*
X31683857Y16331586D01*
X31683701Y16142050D01*
X31683700Y15094300D01*
X32217100Y15094300D01*
X32217100Y16139718D01*
X32216927Y16357526D01*
X32216408Y16552811D01*
X32215548Y16725210D01*
X32214352Y16874363D01*
X32212824Y16999909D01*
X32210968Y17101486D01*
X32208790Y17178733D01*
X32206292Y17231288D01*
X32203611Y17258107D01*
X32174396Y17364661D01*
X32129310Y17451620D01*
X32067501Y17519870D01*
X31988116Y17570300D01*
X31890302Y17603798D01*
X31866966Y17608838D01*
X31822134Y17614414D01*
X31753584Y17618115D01*
X31660873Y17619952D01*
X31543558Y17619937D01*
G36*
X29590840Y17615190D02*
X29501469Y17614881D01*
X29431278Y17614130D01*
X29377157Y17612742D01*
X29335996Y17610524D01*
X29304686Y17607284D01*
X29280115Y17602826D01*
X29259175Y17596958D01*
X29238754Y17589486D01*
X29229570Y17585817D01*
X29147666Y17539674D01*
X29077868Y17474437D01*
X29025583Y17395514D01*
X29014384Y17370631D01*
X28984950Y17297750D01*
X28978056Y15094300D01*
X29512000Y15094300D01*
X29512000Y15933162D01*
X29899350Y15926150D01*
X29906048Y15094300D01*
X30439100Y15094300D01*
X30438708Y16113475D01*
X30438490Y16282626D01*
X30437983Y16444164D01*
X30437209Y16596126D01*
X30436190Y16736551D01*
X30435867Y16769642D01*
X29905513Y16769642D01*
X29905308Y16669544D01*
X29904637Y16577654D01*
X29903563Y16497033D01*
X29902143Y16430742D01*
X29900439Y16381840D01*
X29898510Y16353389D01*
X29897234Y16347367D01*
X29882177Y16344391D01*
X29846405Y16341873D01*
X29794600Y16340014D01*
X29731444Y16339016D01*
X29700384Y16338900D01*
X29512000Y16338900D01*
X29512000Y16774623D01*
X29512236Y16899829D01*
X29512989Y17001653D01*
X29514331Y17082112D01*
X29516331Y17143220D01*
X29519061Y17186992D01*
X29522591Y17215444D01*
X29526990Y17230590D01*
X29527999Y17232225D01*
X29537514Y17241260D01*
X29553306Y17247215D01*
X29579772Y17250537D01*
X29621307Y17251670D01*
X29682307Y17251061D01*
X29708621Y17250528D01*
X29775960Y17248883D01*
X29822383Y17246811D01*
X29852369Y17243435D01*
X29870399Y17237880D01*
X29880953Y17229269D01*
X29888511Y17216726D01*
X29889285Y17215200D01*
X29894079Y17198456D01*
X29897927Y17167839D01*
X29900901Y17121349D01*
X29903073Y17056989D01*
X29904518Y16972759D01*
X29905307Y16866661D01*
X29905513Y16769642D01*
X30435867Y16769642D01*
X30434949Y16863474D01*
X30433508Y16974932D01*
X30431889Y17068964D01*
X30430115Y17143605D01*
X30428207Y17196893D01*
X30426189Y17226864D01*
X30426062Y17227900D01*
X30407415Y17315745D01*
X30376276Y17398134D01*
X30335734Y17468469D01*
X30289302Y17519806D01*
X30249530Y17547263D01*
X30199960Y17574496D01*
X30172400Y17586933D01*
X30151923Y17594837D01*
X30131734Y17601117D01*
X30108740Y17605958D01*
X30079845Y17609547D01*
X30041952Y17612071D01*
X29991968Y17613716D01*
X29926797Y17614670D01*
X29843344Y17615118D01*
X29738512Y17615246D01*
X29702500Y17615250D01*
X29590840Y17615190D01*
X29590840Y17615190D01*
G37*
X29590840Y17615190D02*
X29501469Y17614881D01*
X29431278Y17614130D01*
X29377157Y17612742D01*
X29335996Y17610524D01*
X29304686Y17607284D01*
X29280115Y17602826D01*
X29259175Y17596958D01*
X29238754Y17589486D01*
X29229570Y17585817D01*
X29147666Y17539674D01*
X29077868Y17474437D01*
X29025583Y17395514D01*
X29014384Y17370631D01*
X28984950Y17297750D01*
X28978056Y15094300D01*
X29512000Y15094300D01*
X29512000Y15933162D01*
X29899350Y15926150D01*
X29906048Y15094300D01*
X30439100Y15094300D01*
X30438708Y16113475D01*
X30438490Y16282626D01*
X30437983Y16444164D01*
X30437209Y16596126D01*
X30436190Y16736551D01*
X30435867Y16769642D01*
X29905513Y16769642D01*
X29905308Y16669544D01*
X29904637Y16577654D01*
X29903563Y16497033D01*
X29902143Y16430742D01*
X29900439Y16381840D01*
X29898510Y16353389D01*
X29897234Y16347367D01*
X29882177Y16344391D01*
X29846405Y16341873D01*
X29794600Y16340014D01*
X29731444Y16339016D01*
X29700384Y16338900D01*
X29512000Y16338900D01*
X29512000Y16774623D01*
X29512236Y16899829D01*
X29512989Y17001653D01*
X29514331Y17082112D01*
X29516331Y17143220D01*
X29519061Y17186992D01*
X29522591Y17215444D01*
X29526990Y17230590D01*
X29527999Y17232225D01*
X29537514Y17241260D01*
X29553306Y17247215D01*
X29579772Y17250537D01*
X29621307Y17251670D01*
X29682307Y17251061D01*
X29708621Y17250528D01*
X29775960Y17248883D01*
X29822383Y17246811D01*
X29852369Y17243435D01*
X29870399Y17237880D01*
X29880953Y17229269D01*
X29888511Y17216726D01*
X29889285Y17215200D01*
X29894079Y17198456D01*
X29897927Y17167839D01*
X29900901Y17121349D01*
X29903073Y17056989D01*
X29904518Y16972759D01*
X29905307Y16866661D01*
X29905513Y16769642D01*
X30435867Y16769642D01*
X30434949Y16863474D01*
X30433508Y16974932D01*
X30431889Y17068964D01*
X30430115Y17143605D01*
X30428207Y17196893D01*
X30426189Y17226864D01*
X30426062Y17227900D01*
X30407415Y17315745D01*
X30376276Y17398134D01*
X30335734Y17468469D01*
X30289302Y17519806D01*
X30249530Y17547263D01*
X30199960Y17574496D01*
X30172400Y17586933D01*
X30151923Y17594837D01*
X30131734Y17601117D01*
X30108740Y17605958D01*
X30079845Y17609547D01*
X30041952Y17612071D01*
X29991968Y17613716D01*
X29926797Y17614670D01*
X29843344Y17615118D01*
X29738512Y17615246D01*
X29702500Y17615250D01*
X29590840Y17615190D01*
G36*
X27929408Y17583128D02*
X27806634Y17582041D01*
X27700223Y17580289D01*
X27612191Y17577920D01*
X27544549Y17574981D01*
X27499312Y17571520D01*
X27486019Y17569664D01*
X27384380Y17539801D01*
X27299567Y17490935D01*
X27231665Y17423135D01*
X27180758Y17336469D01*
X27172988Y17317808D01*
X27163359Y17290878D01*
X27156042Y17262925D01*
X27150614Y17229718D01*
X27146654Y17187024D01*
X27143743Y17130611D01*
X27141457Y17056246D01*
X27139880Y16985139D01*
X27138586Y16873568D01*
X27139527Y16780806D01*
X27142648Y16708893D01*
X27147892Y16659870D01*
X27149116Y16653350D01*
X27175683Y16573194D01*
X27218297Y16501639D01*
X27272489Y16445577D01*
X27293296Y16430933D01*
X27347792Y16397004D01*
X27290603Y16358427D01*
X27231718Y16303923D01*
X27201133Y16256718D01*
X27168850Y16193586D01*
X27165167Y15643943D01*
X27161483Y15094300D01*
X27695900Y15094300D01*
X27695900Y15577735D01*
X27696256Y15715323D01*
X27697303Y15832872D01*
X27699017Y15929371D01*
X27701371Y16003807D01*
X27704339Y16055169D01*
X27707895Y16082447D01*
X27709047Y16085735D01*
X27716717Y16096026D01*
X27729682Y16102980D01*
X27752421Y16107237D01*
X27789413Y16109442D01*
X27845135Y16110234D01*
X27880497Y16110300D01*
X28038800Y16110300D01*
X28038800Y15094300D01*
X28572200Y15094300D01*
X28572200Y17215200D01*
X28038800Y17215200D01*
X28038800Y16491300D01*
X27874421Y16491300D01*
X27806797Y16491551D01*
X27759979Y16492773D01*
X27729377Y16495670D01*
X27710397Y16500945D01*
X27698448Y16509303D01*
X27690271Y16519526D01*
X27683049Y16542590D01*
X27677246Y16586216D01*
X27672854Y16646041D01*
X27669865Y16717700D01*
X27668270Y16796827D01*
X27668062Y16879059D01*
X27669233Y16960029D01*
X27671773Y17035375D01*
X27675676Y17100731D01*
X27680933Y17151732D01*
X27687536Y17184013D01*
X27691519Y17191975D01*
X27703282Y17201703D01*
X27720845Y17208309D01*
X27748784Y17212371D01*
X27791680Y17214467D01*
X27854110Y17215173D01*
X27875669Y17215200D01*
X28038800Y17215200D01*
X28572200Y17215200D01*
X28572200Y17583500D01*
X28066533Y17583500D01*
X27929408Y17583128D01*
X27929408Y17583128D01*
G37*
X27929408Y17583128D02*
X27806634Y17582041D01*
X27700223Y17580289D01*
X27612191Y17577920D01*
X27544549Y17574981D01*
X27499312Y17571520D01*
X27486019Y17569664D01*
X27384380Y17539801D01*
X27299567Y17490935D01*
X27231665Y17423135D01*
X27180758Y17336469D01*
X27172988Y17317808D01*
X27163359Y17290878D01*
X27156042Y17262925D01*
X27150614Y17229718D01*
X27146654Y17187024D01*
X27143743Y17130611D01*
X27141457Y17056246D01*
X27139880Y16985139D01*
X27138586Y16873568D01*
X27139527Y16780806D01*
X27142648Y16708893D01*
X27147892Y16659870D01*
X27149116Y16653350D01*
X27175683Y16573194D01*
X27218297Y16501639D01*
X27272489Y16445577D01*
X27293296Y16430933D01*
X27347792Y16397004D01*
X27290603Y16358427D01*
X27231718Y16303923D01*
X27201133Y16256718D01*
X27168850Y16193586D01*
X27165167Y15643943D01*
X27161483Y15094300D01*
X27695900Y15094300D01*
X27695900Y15577735D01*
X27696256Y15715323D01*
X27697303Y15832872D01*
X27699017Y15929371D01*
X27701371Y16003807D01*
X27704339Y16055169D01*
X27707895Y16082447D01*
X27709047Y16085735D01*
X27716717Y16096026D01*
X27729682Y16102980D01*
X27752421Y16107237D01*
X27789413Y16109442D01*
X27845135Y16110234D01*
X27880497Y16110300D01*
X28038800Y16110300D01*
X28038800Y15094300D01*
X28572200Y15094300D01*
X28572200Y17215200D01*
X28038800Y17215200D01*
X28038800Y16491300D01*
X27874421Y16491300D01*
X27806797Y16491551D01*
X27759979Y16492773D01*
X27729377Y16495670D01*
X27710397Y16500945D01*
X27698448Y16509303D01*
X27690271Y16519526D01*
X27683049Y16542590D01*
X27677246Y16586216D01*
X27672854Y16646041D01*
X27669865Y16717700D01*
X27668270Y16796827D01*
X27668062Y16879059D01*
X27669233Y16960029D01*
X27671773Y17035375D01*
X27675676Y17100731D01*
X27680933Y17151732D01*
X27687536Y17184013D01*
X27691519Y17191975D01*
X27703282Y17201703D01*
X27720845Y17208309D01*
X27748784Y17212371D01*
X27791680Y17214467D01*
X27854110Y17215173D01*
X27875669Y17215200D01*
X28038800Y17215200D01*
X28572200Y17215200D01*
X28572200Y17583500D01*
X28066533Y17583500D01*
X27929408Y17583128D01*
G36*
X25933240Y17615190D02*
X25843869Y17614881D01*
X25773678Y17614130D01*
X25719557Y17612742D01*
X25678396Y17610524D01*
X25647086Y17607284D01*
X25622515Y17602826D01*
X25601575Y17596958D01*
X25581154Y17589486D01*
X25571970Y17585817D01*
X25490066Y17539674D01*
X25420268Y17474437D01*
X25367983Y17395514D01*
X25356784Y17370631D01*
X25327350Y17297750D01*
X25320456Y15094300D01*
X25854400Y15094300D01*
X25854400Y15933162D01*
X26241750Y15926150D01*
X26248448Y15094300D01*
X26781500Y15094300D01*
X26781108Y16113475D01*
X26780890Y16282626D01*
X26780383Y16444164D01*
X26779609Y16596126D01*
X26778590Y16736551D01*
X26778267Y16769642D01*
X26247913Y16769642D01*
X26247708Y16669544D01*
X26247037Y16577654D01*
X26245963Y16497033D01*
X26244543Y16430742D01*
X26242839Y16381840D01*
X26240910Y16353389D01*
X26239634Y16347367D01*
X26224577Y16344391D01*
X26188805Y16341873D01*
X26137000Y16340014D01*
X26073844Y16339016D01*
X26042784Y16338900D01*
X25854400Y16338900D01*
X25854400Y16774623D01*
X25854636Y16899829D01*
X25855389Y17001653D01*
X25856731Y17082112D01*
X25858731Y17143220D01*
X25861461Y17186992D01*
X25864991Y17215444D01*
X25869390Y17230590D01*
X25870399Y17232225D01*
X25879914Y17241260D01*
X25895706Y17247215D01*
X25922172Y17250537D01*
X25963707Y17251670D01*
X26024707Y17251061D01*
X26051021Y17250528D01*
X26118360Y17248883D01*
X26164783Y17246811D01*
X26194769Y17243435D01*
X26212799Y17237880D01*
X26223353Y17229269D01*
X26230911Y17216726D01*
X26231685Y17215200D01*
X26236479Y17198456D01*
X26240327Y17167839D01*
X26243301Y17121349D01*
X26245473Y17056989D01*
X26246918Y16972759D01*
X26247707Y16866661D01*
X26247913Y16769642D01*
X26778267Y16769642D01*
X26777349Y16863474D01*
X26775908Y16974932D01*
X26774289Y17068964D01*
X26772515Y17143605D01*
X26770607Y17196893D01*
X26768589Y17226864D01*
X26768462Y17227900D01*
X26749815Y17315745D01*
X26718676Y17398134D01*
X26678134Y17468469D01*
X26631702Y17519806D01*
X26591930Y17547263D01*
X26542360Y17574496D01*
X26514800Y17586933D01*
X26494323Y17594837D01*
X26474134Y17601117D01*
X26451140Y17605958D01*
X26422245Y17609547D01*
X26384352Y17612071D01*
X26334368Y17613716D01*
X26269197Y17614670D01*
X26185744Y17615118D01*
X26080912Y17615246D01*
X26044900Y17615250D01*
X25933240Y17615190D01*
X25933240Y17615190D01*
G37*
X25933240Y17615190D02*
X25843869Y17614881D01*
X25773678Y17614130D01*
X25719557Y17612742D01*
X25678396Y17610524D01*
X25647086Y17607284D01*
X25622515Y17602826D01*
X25601575Y17596958D01*
X25581154Y17589486D01*
X25571970Y17585817D01*
X25490066Y17539674D01*
X25420268Y17474437D01*
X25367983Y17395514D01*
X25356784Y17370631D01*
X25327350Y17297750D01*
X25320456Y15094300D01*
X25854400Y15094300D01*
X25854400Y15933162D01*
X26241750Y15926150D01*
X26248448Y15094300D01*
X26781500Y15094300D01*
X26781108Y16113475D01*
X26780890Y16282626D01*
X26780383Y16444164D01*
X26779609Y16596126D01*
X26778590Y16736551D01*
X26778267Y16769642D01*
X26247913Y16769642D01*
X26247708Y16669544D01*
X26247037Y16577654D01*
X26245963Y16497033D01*
X26244543Y16430742D01*
X26242839Y16381840D01*
X26240910Y16353389D01*
X26239634Y16347367D01*
X26224577Y16344391D01*
X26188805Y16341873D01*
X26137000Y16340014D01*
X26073844Y16339016D01*
X26042784Y16338900D01*
X25854400Y16338900D01*
X25854400Y16774623D01*
X25854636Y16899829D01*
X25855389Y17001653D01*
X25856731Y17082112D01*
X25858731Y17143220D01*
X25861461Y17186992D01*
X25864991Y17215444D01*
X25869390Y17230590D01*
X25870399Y17232225D01*
X25879914Y17241260D01*
X25895706Y17247215D01*
X25922172Y17250537D01*
X25963707Y17251670D01*
X26024707Y17251061D01*
X26051021Y17250528D01*
X26118360Y17248883D01*
X26164783Y17246811D01*
X26194769Y17243435D01*
X26212799Y17237880D01*
X26223353Y17229269D01*
X26230911Y17216726D01*
X26231685Y17215200D01*
X26236479Y17198456D01*
X26240327Y17167839D01*
X26243301Y17121349D01*
X26245473Y17056989D01*
X26246918Y16972759D01*
X26247707Y16866661D01*
X26247913Y16769642D01*
X26778267Y16769642D01*
X26777349Y16863474D01*
X26775908Y16974932D01*
X26774289Y17068964D01*
X26772515Y17143605D01*
X26770607Y17196893D01*
X26768589Y17226864D01*
X26768462Y17227900D01*
X26749815Y17315745D01*
X26718676Y17398134D01*
X26678134Y17468469D01*
X26631702Y17519806D01*
X26591930Y17547263D01*
X26542360Y17574496D01*
X26514800Y17586933D01*
X26494323Y17594837D01*
X26474134Y17601117D01*
X26451140Y17605958D01*
X26422245Y17609547D01*
X26384352Y17612071D01*
X26334368Y17613716D01*
X26269197Y17614670D01*
X26185744Y17615118D01*
X26080912Y17615246D01*
X26044900Y17615250D01*
X25933240Y17615190D01*
G36*
X40773575Y8139150D02*
X40751460Y8126180D01*
X40729747Y8107467D01*
X40725433Y8102870D01*
X40702604Y8077479D01*
X40705380Y7486215D01*
X40720699Y7461442D01*
X40736863Y7440814D01*
X40757911Y7425352D01*
X40763189Y7422475D01*
X40790361Y7408280D01*
X42232046Y7408280D01*
X42229380Y7781660D01*
X41094000Y7784244D01*
X41094000Y7890880D01*
X42338570Y7890880D01*
X42341140Y6217020D01*
X42513860Y6216153D01*
X42555349Y6216067D01*
X42594069Y6216221D01*
X42628729Y6216589D01*
X42658034Y6217151D01*
X42680690Y6217883D01*
X42695406Y6218762D01*
X42700340Y6219468D01*
X42726197Y6232486D01*
X42747309Y6253801D01*
X42758239Y6272395D01*
X42770301Y6298300D01*
X42770351Y7180370D01*
X42770400Y8062440D01*
X42756210Y8089604D01*
X42739458Y8114248D01*
X42720213Y8132094D01*
X42698406Y8147420D01*
X40798888Y8150040D01*
X40773575Y8139150D01*
X40773575Y8139150D01*
G37*
X40773575Y8139150D02*
X40751460Y8126180D01*
X40729747Y8107467D01*
X40725433Y8102870D01*
X40702604Y8077479D01*
X40705380Y7486215D01*
X40720699Y7461442D01*
X40736863Y7440814D01*
X40757911Y7425352D01*
X40763189Y7422475D01*
X40790361Y7408280D01*
X42232046Y7408280D01*
X42229380Y7781660D01*
X41094000Y7784244D01*
X41094000Y7890880D01*
X42338570Y7890880D01*
X42341140Y6217020D01*
X42513860Y6216153D01*
X42555349Y6216067D01*
X42594069Y6216221D01*
X42628729Y6216589D01*
X42658034Y6217151D01*
X42680690Y6217883D01*
X42695406Y6218762D01*
X42700340Y6219468D01*
X42726197Y6232486D01*
X42747309Y6253801D01*
X42758239Y6272395D01*
X42770301Y6298300D01*
X42770351Y7180370D01*
X42770400Y8062440D01*
X42756210Y8089604D01*
X42739458Y8114248D01*
X42720213Y8132094D01*
X42698406Y8147420D01*
X40798888Y8150040D01*
X40773575Y8139150D01*
G36*
X41420202Y7296482D02*
X41319469Y7296369D01*
X41227022Y7296182D01*
X41143048Y7295923D01*
X41067735Y7295592D01*
X41001270Y7295192D01*
X40943841Y7294723D01*
X40895634Y7294186D01*
X40856838Y7293584D01*
X40827639Y7292917D01*
X40808225Y7292187D01*
X40798784Y7291395D01*
X40763089Y7281371D01*
X40736038Y7266232D01*
X40717424Y7245856D01*
X40714614Y7240987D01*
X40702840Y7218722D01*
X40702840Y6282673D01*
X40714270Y6260304D01*
X40724242Y6244471D01*
X40735831Y6231052D01*
X40740042Y6227478D01*
X40742145Y6226016D01*
X40744581Y6224697D01*
X40747858Y6223511D01*
X40752482Y6222451D01*
X40758961Y6221509D01*
X40767803Y6220677D01*
X40779515Y6219946D01*
X40794604Y6219308D01*
X40813577Y6218756D01*
X40836942Y6218280D01*
X40865206Y6217873D01*
X40898877Y6217527D01*
X40938461Y6217234D01*
X40984467Y6216985D01*
X41037401Y6216773D01*
X41097772Y6216589D01*
X41166085Y6216424D01*
X41242849Y6216272D01*
X41328571Y6216124D01*
X41423759Y6215971D01*
X41461402Y6215912D01*
X41562998Y6215767D01*
X41654897Y6215668D01*
X41737562Y6215620D01*
X41811456Y6215626D01*
X41877043Y6215689D01*
X41934784Y6215814D01*
X41985144Y6216003D01*
X42028585Y6216261D01*
X42065570Y6216592D01*
X42096563Y6216998D01*
X42122026Y6217484D01*
X42142422Y6218052D01*
X42158215Y6218708D01*
X42169867Y6219454D01*
X42177841Y6220294D01*
X42182601Y6221233D01*
X42183660Y6221614D01*
X42205997Y6236758D01*
X42220986Y6258904D01*
X42226407Y6275440D01*
X42227569Y6285674D01*
X42228586Y6304848D01*
X42229458Y6331745D01*
X42230184Y6365148D01*
X42230763Y6403837D01*
X42231193Y6446596D01*
X42231475Y6492205D01*
X42231607Y6539448D01*
X42231588Y6587106D01*
X42231417Y6633962D01*
X42231093Y6678796D01*
X42230616Y6720392D01*
X42229984Y6757531D01*
X42229197Y6788996D01*
X42228254Y6813568D01*
X42227153Y6830029D01*
X42226826Y6832948D01*
X42221700Y6862136D01*
X42214435Y6883158D01*
X42203978Y6897950D01*
X42189278Y6908446D01*
X42184594Y6910728D01*
X42180768Y6912321D01*
X42176321Y6913728D01*
X42170635Y6914962D01*
X42163093Y6916035D01*
X42153078Y6916956D01*
X42139973Y6917739D01*
X42123162Y6918395D01*
X42102026Y6918935D01*
X42075950Y6919371D01*
X42044316Y6919714D01*
X42006507Y6919976D01*
X41961906Y6920169D01*
X41909896Y6920305D01*
X41849860Y6920394D01*
X41781181Y6920448D01*
X41703242Y6920479D01*
X41664230Y6920489D01*
X41165120Y6920600D01*
X41165120Y6620880D01*
X41896640Y6620880D01*
X41896640Y6524360D01*
X41078760Y6524360D01*
X41078760Y7032360D01*
X42231920Y7032360D01*
X42231920Y7296520D01*
X41529034Y7296520D01*
X41420202Y7296482D01*
X41420202Y7296482D01*
G37*
X41420202Y7296482D02*
X41319469Y7296369D01*
X41227022Y7296182D01*
X41143048Y7295923D01*
X41067735Y7295592D01*
X41001270Y7295192D01*
X40943841Y7294723D01*
X40895634Y7294186D01*
X40856838Y7293584D01*
X40827639Y7292917D01*
X40808225Y7292187D01*
X40798784Y7291395D01*
X40763089Y7281371D01*
X40736038Y7266232D01*
X40717424Y7245856D01*
X40714614Y7240987D01*
X40702840Y7218722D01*
X40702840Y6282673D01*
X40714270Y6260304D01*
X40724242Y6244471D01*
X40735831Y6231052D01*
X40740042Y6227478D01*
X40742145Y6226016D01*
X40744581Y6224697D01*
X40747858Y6223511D01*
X40752482Y6222451D01*
X40758961Y6221509D01*
X40767803Y6220677D01*
X40779515Y6219946D01*
X40794604Y6219308D01*
X40813577Y6218756D01*
X40836942Y6218280D01*
X40865206Y6217873D01*
X40898877Y6217527D01*
X40938461Y6217234D01*
X40984467Y6216985D01*
X41037401Y6216773D01*
X41097772Y6216589D01*
X41166085Y6216424D01*
X41242849Y6216272D01*
X41328571Y6216124D01*
X41423759Y6215971D01*
X41461402Y6215912D01*
X41562998Y6215767D01*
X41654897Y6215668D01*
X41737562Y6215620D01*
X41811456Y6215626D01*
X41877043Y6215689D01*
X41934784Y6215814D01*
X41985144Y6216003D01*
X42028585Y6216261D01*
X42065570Y6216592D01*
X42096563Y6216998D01*
X42122026Y6217484D01*
X42142422Y6218052D01*
X42158215Y6218708D01*
X42169867Y6219454D01*
X42177841Y6220294D01*
X42182601Y6221233D01*
X42183660Y6221614D01*
X42205997Y6236758D01*
X42220986Y6258904D01*
X42226407Y6275440D01*
X42227569Y6285674D01*
X42228586Y6304848D01*
X42229458Y6331745D01*
X42230184Y6365148D01*
X42230763Y6403837D01*
X42231193Y6446596D01*
X42231475Y6492205D01*
X42231607Y6539448D01*
X42231588Y6587106D01*
X42231417Y6633962D01*
X42231093Y6678796D01*
X42230616Y6720392D01*
X42229984Y6757531D01*
X42229197Y6788996D01*
X42228254Y6813568D01*
X42227153Y6830029D01*
X42226826Y6832948D01*
X42221700Y6862136D01*
X42214435Y6883158D01*
X42203978Y6897950D01*
X42189278Y6908446D01*
X42184594Y6910728D01*
X42180768Y6912321D01*
X42176321Y6913728D01*
X42170635Y6914962D01*
X42163093Y6916035D01*
X42153078Y6916956D01*
X42139973Y6917739D01*
X42123162Y6918395D01*
X42102026Y6918935D01*
X42075950Y6919371D01*
X42044316Y6919714D01*
X42006507Y6919976D01*
X41961906Y6920169D01*
X41909896Y6920305D01*
X41849860Y6920394D01*
X41781181Y6920448D01*
X41703242Y6920479D01*
X41664230Y6920489D01*
X41165120Y6920600D01*
X41165120Y6620880D01*
X41896640Y6620880D01*
X41896640Y6524360D01*
X41078760Y6524360D01*
X41078760Y7032360D01*
X42231920Y7032360D01*
X42231920Y7296520D01*
X41529034Y7296520D01*
X41420202Y7296482D01*
G36*
X39725081Y7776575D02*
X39637944Y7776554D01*
X39559930Y7776511D01*
X39490518Y7776438D01*
X39429191Y7776330D01*
X39375429Y7776180D01*
X39328713Y7775980D01*
X39288525Y7775725D01*
X39254345Y7775406D01*
X39225654Y7775019D01*
X39201934Y7774555D01*
X39182666Y7774008D01*
X39167330Y7773371D01*
X39155407Y7772638D01*
X39146380Y7771802D01*
X39139728Y7770856D01*
X39134932Y7769794D01*
X39131475Y7768608D01*
X39129358Y7767585D01*
X39119926Y7762195D01*
X39112399Y7756687D01*
X39106549Y7749904D01*
X39102145Y7740686D01*
X39098959Y7727877D01*
X39096760Y7710318D01*
X39095320Y7686852D01*
X39094408Y7656320D01*
X39093796Y7617564D01*
X39093438Y7586318D01*
X39093133Y7548089D01*
X39093062Y7512463D01*
X39093209Y7480913D01*
X39093563Y7454912D01*
X39094108Y7435933D01*
X39094832Y7425449D01*
X39094938Y7424790D01*
X39098021Y7408280D01*
X40220240Y7408280D01*
X40220240Y7025531D01*
X40220285Y6962484D01*
X40220413Y6901223D01*
X40220617Y6842686D01*
X40220891Y6787812D01*
X40221227Y6737537D01*
X40221618Y6692802D01*
X40222058Y6654543D01*
X40222538Y6623699D01*
X40223052Y6601209D01*
X40223552Y6588651D01*
X40226864Y6534520D01*
X38609880Y6534520D01*
X38609880Y6397108D01*
X38609965Y6352726D01*
X38610347Y6317349D01*
X38611220Y6289825D01*
X38612774Y6268999D01*
X38615204Y6253718D01*
X38618702Y6242828D01*
X38623460Y6235176D01*
X38629670Y6229608D01*
X38637526Y6224970D01*
X38638710Y6224360D01*
X38645579Y6223414D01*
X38661992Y6222513D01*
X38687330Y6221658D01*
X38720977Y6220850D01*
X38762317Y6220089D01*
X38810731Y6219377D01*
X38865604Y6218714D01*
X38926318Y6218102D01*
X38992256Y6217540D01*
X39062801Y6217030D01*
X39137336Y6216574D01*
X39215245Y6216171D01*
X39295909Y6215823D01*
X39378714Y6215530D01*
X39463040Y6215294D01*
X39548272Y6215115D01*
X39633792Y6214995D01*
X39718984Y6214933D01*
X39803230Y6214932D01*
X39885914Y6214991D01*
X39966418Y6215113D01*
X40044126Y6215296D01*
X40118420Y6215544D01*
X40188685Y6215856D01*
X40254301Y6216233D01*
X40314654Y6216677D01*
X40369125Y6217187D01*
X40417098Y6217766D01*
X40457955Y6218414D01*
X40491081Y6219131D01*
X40515857Y6219919D01*
X40531667Y6220779D01*
X40537740Y6221623D01*
X40552069Y6230347D01*
X40565451Y6241935D01*
X40565680Y6242182D01*
X40578380Y6255939D01*
X40578380Y7701921D01*
X40562500Y7724011D01*
X40548326Y7740079D01*
X40530550Y7755558D01*
X40522258Y7761340D01*
X40497897Y7776580D01*
X39821859Y7776580D01*
X39725081Y7776575D01*
X39725081Y7776575D01*
G37*
X39725081Y7776575D02*
X39637944Y7776554D01*
X39559930Y7776511D01*
X39490518Y7776438D01*
X39429191Y7776330D01*
X39375429Y7776180D01*
X39328713Y7775980D01*
X39288525Y7775725D01*
X39254345Y7775406D01*
X39225654Y7775019D01*
X39201934Y7774555D01*
X39182666Y7774008D01*
X39167330Y7773371D01*
X39155407Y7772638D01*
X39146380Y7771802D01*
X39139728Y7770856D01*
X39134932Y7769794D01*
X39131475Y7768608D01*
X39129358Y7767585D01*
X39119926Y7762195D01*
X39112399Y7756687D01*
X39106549Y7749904D01*
X39102145Y7740686D01*
X39098959Y7727877D01*
X39096760Y7710318D01*
X39095320Y7686852D01*
X39094408Y7656320D01*
X39093796Y7617564D01*
X39093438Y7586318D01*
X39093133Y7548089D01*
X39093062Y7512463D01*
X39093209Y7480913D01*
X39093563Y7454912D01*
X39094108Y7435933D01*
X39094832Y7425449D01*
X39094938Y7424790D01*
X39098021Y7408280D01*
X40220240Y7408280D01*
X40220240Y7025531D01*
X40220285Y6962484D01*
X40220413Y6901223D01*
X40220617Y6842686D01*
X40220891Y6787812D01*
X40221227Y6737537D01*
X40221618Y6692802D01*
X40222058Y6654543D01*
X40222538Y6623699D01*
X40223052Y6601209D01*
X40223552Y6588651D01*
X40226864Y6534520D01*
X38609880Y6534520D01*
X38609880Y6397108D01*
X38609965Y6352726D01*
X38610347Y6317349D01*
X38611220Y6289825D01*
X38612774Y6268999D01*
X38615204Y6253718D01*
X38618702Y6242828D01*
X38623460Y6235176D01*
X38629670Y6229608D01*
X38637526Y6224970D01*
X38638710Y6224360D01*
X38645579Y6223414D01*
X38661992Y6222513D01*
X38687330Y6221658D01*
X38720977Y6220850D01*
X38762317Y6220089D01*
X38810731Y6219377D01*
X38865604Y6218714D01*
X38926318Y6218102D01*
X38992256Y6217540D01*
X39062801Y6217030D01*
X39137336Y6216574D01*
X39215245Y6216171D01*
X39295909Y6215823D01*
X39378714Y6215530D01*
X39463040Y6215294D01*
X39548272Y6215115D01*
X39633792Y6214995D01*
X39718984Y6214933D01*
X39803230Y6214932D01*
X39885914Y6214991D01*
X39966418Y6215113D01*
X40044126Y6215296D01*
X40118420Y6215544D01*
X40188685Y6215856D01*
X40254301Y6216233D01*
X40314654Y6216677D01*
X40369125Y6217187D01*
X40417098Y6217766D01*
X40457955Y6218414D01*
X40491081Y6219131D01*
X40515857Y6219919D01*
X40531667Y6220779D01*
X40537740Y6221623D01*
X40552069Y6230347D01*
X40565451Y6241935D01*
X40565680Y6242182D01*
X40578380Y6255939D01*
X40578380Y7701921D01*
X40562500Y7724011D01*
X40548326Y7740079D01*
X40530550Y7755558D01*
X40522258Y7761340D01*
X40497897Y7776580D01*
X39821859Y7776580D01*
X39725081Y7776575D01*
G36*
X36943480Y8149376D02*
X36888864Y8149234D01*
X36840828Y8148993D01*
X36798927Y8148639D01*
X36762713Y8148161D01*
X36731738Y8147543D01*
X36705556Y8146774D01*
X36683719Y8145839D01*
X36665779Y8144725D01*
X36651290Y8143419D01*
X36639804Y8141907D01*
X36630873Y8140176D01*
X36624052Y8138213D01*
X36618891Y8136005D01*
X36614944Y8133537D01*
X36611764Y8130797D01*
X36608903Y8127771D01*
X36605914Y8124447D01*
X36602349Y8120809D01*
X36602010Y8120490D01*
X36588040Y8107420D01*
X36588040Y7786121D01*
X36588129Y7708743D01*
X36588394Y7641505D01*
X36588836Y7584390D01*
X36589455Y7537378D01*
X36590252Y7500452D01*
X36591226Y7473593D01*
X36592379Y7456784D01*
X36593444Y7450521D01*
X36600799Y7436888D01*
X36611355Y7423125D01*
X36612174Y7422250D01*
X36625501Y7408280D01*
X38056160Y7408280D01*
X38056160Y7296520D01*
X37347337Y7296520D01*
X37246410Y7296508D01*
X37155163Y7296469D01*
X37073115Y7296397D01*
X36999785Y7296288D01*
X36934693Y7296137D01*
X36877360Y7295940D01*
X36827303Y7295691D01*
X36784044Y7295386D01*
X36747101Y7295020D01*
X36715994Y7294589D01*
X36690243Y7294087D01*
X36669367Y7293509D01*
X36652885Y7292852D01*
X36640318Y7292110D01*
X36631185Y7291278D01*
X36625005Y7290352D01*
X36621298Y7289327D01*
X36621235Y7289301D01*
X36615808Y7287193D01*
X36611007Y7285277D01*
X36606791Y7282954D01*
X36603124Y7279625D01*
X36599966Y7274692D01*
X36597281Y7267555D01*
X36595030Y7257617D01*
X36593176Y7244278D01*
X36591679Y7226940D01*
X36590502Y7205004D01*
X36589607Y7177871D01*
X36588956Y7144943D01*
X36588510Y7105622D01*
X36588233Y7059307D01*
X36588085Y7005401D01*
X36588029Y6943306D01*
X36588026Y6872421D01*
X36588039Y6792149D01*
X36588040Y6766989D01*
X36588040Y6282673D01*
X36599470Y6260301D01*
X36615164Y6238779D01*
X36631220Y6227475D01*
X36633842Y6226172D01*
X36636716Y6224981D01*
X36640293Y6223897D01*
X36645024Y6222914D01*
X36651360Y6222026D01*
X36659752Y6221228D01*
X36670651Y6220513D01*
X36684507Y6219876D01*
X36701773Y6219312D01*
X36722898Y6218814D01*
X36748333Y6218377D01*
X36778530Y6217995D01*
X36813939Y6217662D01*
X36855012Y6217373D01*
X36902199Y6217122D01*
X36955950Y6216903D01*
X37016718Y6216711D01*
X37084952Y6216539D01*
X37161105Y6216382D01*
X37245626Y6216235D01*
X37338966Y6216091D01*
X37441577Y6215945D01*
X37550700Y6215795D01*
X37667245Y6215649D01*
X37774010Y6215545D01*
X37871377Y6215485D01*
X37959726Y6215471D01*
X38039439Y6215504D01*
X38110895Y6215588D01*
X38174475Y6215725D01*
X38230561Y6215916D01*
X38279533Y6216163D01*
X38321772Y6216470D01*
X38357658Y6216837D01*
X38387573Y6217268D01*
X38411896Y6217763D01*
X38431009Y6218327D01*
X38445293Y6218959D01*
X38455128Y6219664D01*
X38460895Y6220442D01*
X38462560Y6220945D01*
X38473327Y6229748D01*
X38483090Y6242976D01*
X38484187Y6245031D01*
X38486902Y6251345D01*
X38488981Y6259028D01*
X38490489Y6269370D01*
X38491490Y6283662D01*
X38492050Y6303192D01*
X38492232Y6329252D01*
X38492100Y6363130D01*
X38491807Y6397360D01*
X38490500Y6531980D01*
X36999520Y6534554D01*
X36999520Y6641200D01*
X37734850Y6641270D01*
X37820646Y6641299D01*
X37903757Y6641368D01*
X37983607Y6641474D01*
X38059619Y6641615D01*
X38131216Y6641790D01*
X38197820Y6641994D01*
X38258855Y6642226D01*
X38313744Y6642483D01*
X38361909Y6642764D01*
X38402774Y6643064D01*
X38435760Y6643383D01*
X38460292Y6643718D01*
X38475792Y6644066D01*
X38481633Y6644408D01*
X38493085Y6647477D01*
X38491793Y7212029D01*
X38490500Y7776580D01*
X36999520Y7779154D01*
X36999520Y7890880D01*
X38493040Y7890880D01*
X38493040Y7978858D01*
X38492583Y8020385D01*
X38491016Y8053227D01*
X38488054Y8078826D01*
X38483407Y8098626D01*
X38476786Y8114068D01*
X38467904Y8126594D01*
X38462347Y8132386D01*
X38446654Y8147420D01*
X37547656Y8148732D01*
X37434443Y8148907D01*
X37330944Y8149076D01*
X37236710Y8149226D01*
X37151294Y8149345D01*
X37074248Y8149419D01*
X37005126Y8149433D01*
X36943480Y8149376D01*
X36943480Y8149376D01*
G37*
X36943480Y8149376D02*
X36888864Y8149234D01*
X36840828Y8148993D01*
X36798927Y8148639D01*
X36762713Y8148161D01*
X36731738Y8147543D01*
X36705556Y8146774D01*
X36683719Y8145839D01*
X36665779Y8144725D01*
X36651290Y8143419D01*
X36639804Y8141907D01*
X36630873Y8140176D01*
X36624052Y8138213D01*
X36618891Y8136005D01*
X36614944Y8133537D01*
X36611764Y8130797D01*
X36608903Y8127771D01*
X36605914Y8124447D01*
X36602349Y8120809D01*
X36602010Y8120490D01*
X36588040Y8107420D01*
X36588040Y7786121D01*
X36588129Y7708743D01*
X36588394Y7641505D01*
X36588836Y7584390D01*
X36589455Y7537378D01*
X36590252Y7500452D01*
X36591226Y7473593D01*
X36592379Y7456784D01*
X36593444Y7450521D01*
X36600799Y7436888D01*
X36611355Y7423125D01*
X36612174Y7422250D01*
X36625501Y7408280D01*
X38056160Y7408280D01*
X38056160Y7296520D01*
X37347337Y7296520D01*
X37246410Y7296508D01*
X37155163Y7296469D01*
X37073115Y7296397D01*
X36999785Y7296288D01*
X36934693Y7296137D01*
X36877360Y7295940D01*
X36827303Y7295691D01*
X36784044Y7295386D01*
X36747101Y7295020D01*
X36715994Y7294589D01*
X36690243Y7294087D01*
X36669367Y7293509D01*
X36652885Y7292852D01*
X36640318Y7292110D01*
X36631185Y7291278D01*
X36625005Y7290352D01*
X36621298Y7289327D01*
X36621235Y7289301D01*
X36615808Y7287193D01*
X36611007Y7285277D01*
X36606791Y7282954D01*
X36603124Y7279625D01*
X36599966Y7274692D01*
X36597281Y7267555D01*
X36595030Y7257617D01*
X36593176Y7244278D01*
X36591679Y7226940D01*
X36590502Y7205004D01*
X36589607Y7177871D01*
X36588956Y7144943D01*
X36588510Y7105622D01*
X36588233Y7059307D01*
X36588085Y7005401D01*
X36588029Y6943306D01*
X36588026Y6872421D01*
X36588039Y6792149D01*
X36588040Y6766989D01*
X36588040Y6282673D01*
X36599470Y6260301D01*
X36615164Y6238779D01*
X36631220Y6227475D01*
X36633842Y6226172D01*
X36636716Y6224981D01*
X36640293Y6223897D01*
X36645024Y6222914D01*
X36651360Y6222026D01*
X36659752Y6221228D01*
X36670651Y6220513D01*
X36684507Y6219876D01*
X36701773Y6219312D01*
X36722898Y6218814D01*
X36748333Y6218377D01*
X36778530Y6217995D01*
X36813939Y6217662D01*
X36855012Y6217373D01*
X36902199Y6217122D01*
X36955950Y6216903D01*
X37016718Y6216711D01*
X37084952Y6216539D01*
X37161105Y6216382D01*
X37245626Y6216235D01*
X37338966Y6216091D01*
X37441577Y6215945D01*
X37550700Y6215795D01*
X37667245Y6215649D01*
X37774010Y6215545D01*
X37871377Y6215485D01*
X37959726Y6215471D01*
X38039439Y6215504D01*
X38110895Y6215588D01*
X38174475Y6215725D01*
X38230561Y6215916D01*
X38279533Y6216163D01*
X38321772Y6216470D01*
X38357658Y6216837D01*
X38387573Y6217268D01*
X38411896Y6217763D01*
X38431009Y6218327D01*
X38445293Y6218959D01*
X38455128Y6219664D01*
X38460895Y6220442D01*
X38462560Y6220945D01*
X38473327Y6229748D01*
X38483090Y6242976D01*
X38484187Y6245031D01*
X38486902Y6251345D01*
X38488981Y6259028D01*
X38490489Y6269370D01*
X38491490Y6283662D01*
X38492050Y6303192D01*
X38492232Y6329252D01*
X38492100Y6363130D01*
X38491807Y6397360D01*
X38490500Y6531980D01*
X36999520Y6534554D01*
X36999520Y6641200D01*
X37734850Y6641270D01*
X37820646Y6641299D01*
X37903757Y6641368D01*
X37983607Y6641474D01*
X38059619Y6641615D01*
X38131216Y6641790D01*
X38197820Y6641994D01*
X38258855Y6642226D01*
X38313744Y6642483D01*
X38361909Y6642764D01*
X38402774Y6643064D01*
X38435760Y6643383D01*
X38460292Y6643718D01*
X38475792Y6644066D01*
X38481633Y6644408D01*
X38493085Y6647477D01*
X38491793Y7212029D01*
X38490500Y7776580D01*
X36999520Y7779154D01*
X36999520Y7890880D01*
X38493040Y7890880D01*
X38493040Y7978858D01*
X38492583Y8020385D01*
X38491016Y8053227D01*
X38488054Y8078826D01*
X38483407Y8098626D01*
X38476786Y8114068D01*
X38467904Y8126594D01*
X38462347Y8132386D01*
X38446654Y8147420D01*
X37547656Y8148732D01*
X37434443Y8148907D01*
X37330944Y8149076D01*
X37236710Y8149226D01*
X37151294Y8149345D01*
X37074248Y8149419D01*
X37005126Y8149433D01*
X36943480Y8149376D01*
G36*
X35331131Y7774012D02*
X35264693Y7773944D01*
X35205968Y7773790D01*
X35154468Y7773528D01*
X35109701Y7773132D01*
X35071180Y7772579D01*
X35038415Y7771845D01*
X35010916Y7770905D01*
X34988195Y7769736D01*
X34969761Y7768312D01*
X34955126Y7766611D01*
X34943799Y7764607D01*
X34935293Y7762277D01*
X34929117Y7759597D01*
X34924781Y7756542D01*
X34921798Y7753088D01*
X34919677Y7749211D01*
X34917929Y7744887D01*
X34916065Y7740092D01*
X34914180Y7735940D01*
X34912775Y7732973D01*
X34911505Y7729638D01*
X34910364Y7725431D01*
X34909345Y7719844D01*
X34908442Y7712373D01*
X34907647Y7702510D01*
X34906954Y7689751D01*
X34906355Y7673589D01*
X34905843Y7653518D01*
X34905413Y7629033D01*
X34905056Y7599627D01*
X34904766Y7564795D01*
X34904536Y7524030D01*
X34904359Y7476827D01*
X34904227Y7422680D01*
X34904135Y7361082D01*
X34904076Y7291528D01*
X34904041Y7213512D01*
X34904025Y7126528D01*
X34904021Y7030070D01*
X34904020Y6993364D01*
X34904020Y6271108D01*
X34914631Y6256764D01*
X34925622Y6245503D01*
X34940952Y6233851D01*
X34947651Y6229720D01*
X34970060Y6217020D01*
X35666020Y6216373D01*
X35749803Y6216322D01*
X35831106Y6216328D01*
X35909318Y6216386D01*
X35983825Y6216494D01*
X36054015Y6216649D01*
X36119277Y6216850D01*
X36178996Y6217093D01*
X36232560Y6217375D01*
X36279358Y6217694D01*
X36318776Y6218047D01*
X36350202Y6218431D01*
X36373023Y6218845D01*
X36386627Y6219284D01*
X36389920Y6219531D01*
X36415555Y6224391D01*
X36433712Y6231716D01*
X36447025Y6242981D01*
X36456589Y6256914D01*
X36468660Y6277980D01*
X36468660Y6999340D01*
X36468656Y7099386D01*
X36468639Y7189774D01*
X36468602Y7271008D01*
X36468539Y7343590D01*
X36468445Y7408023D01*
X36468313Y7464809D01*
X36468136Y7514452D01*
X36467908Y7557455D01*
X36467624Y7594319D01*
X36467276Y7625548D01*
X36466858Y7651644D01*
X36466365Y7673110D01*
X36465789Y7690450D01*
X36465125Y7704165D01*
X36464367Y7714758D01*
X36463507Y7722733D01*
X36462540Y7728591D01*
X36461459Y7732836D01*
X36460259Y7735970D01*
X36459434Y7737610D01*
X36445871Y7753524D01*
X36428954Y7764168D01*
X36425753Y7765503D01*
X36421989Y7766709D01*
X36417154Y7767793D01*
X36410745Y7768761D01*
X36402254Y7769620D01*
X36391176Y7770377D01*
X36377007Y7771037D01*
X36359239Y7771609D01*
X36337367Y7772098D01*
X36310885Y7772511D01*
X36279289Y7772855D01*
X36242072Y7773136D01*
X36198728Y7773361D01*
X36148752Y7773537D01*
X36091637Y7773669D01*
X36026880Y7773766D01*
X35953973Y7773833D01*
X35872411Y7773876D01*
X35781689Y7773904D01*
X35683800Y7773921D01*
X35581616Y7773950D01*
X35489103Y7773991D01*
X35405771Y7774020D01*
X35331131Y7774012D01*
X35331131Y7774012D01*
G37*
X35331131Y7774012D02*
X35264693Y7773944D01*
X35205968Y7773790D01*
X35154468Y7773528D01*
X35109701Y7773132D01*
X35071180Y7772579D01*
X35038415Y7771845D01*
X35010916Y7770905D01*
X34988195Y7769736D01*
X34969761Y7768312D01*
X34955126Y7766611D01*
X34943799Y7764607D01*
X34935293Y7762277D01*
X34929117Y7759597D01*
X34924781Y7756542D01*
X34921798Y7753088D01*
X34919677Y7749211D01*
X34917929Y7744887D01*
X34916065Y7740092D01*
X34914180Y7735940D01*
X34912775Y7732973D01*
X34911505Y7729638D01*
X34910364Y7725431D01*
X34909345Y7719844D01*
X34908442Y7712373D01*
X34907647Y7702510D01*
X34906954Y7689751D01*
X34906355Y7673589D01*
X34905843Y7653518D01*
X34905413Y7629033D01*
X34905056Y7599627D01*
X34904766Y7564795D01*
X34904536Y7524030D01*
X34904359Y7476827D01*
X34904227Y7422680D01*
X34904135Y7361082D01*
X34904076Y7291528D01*
X34904041Y7213512D01*
X34904025Y7126528D01*
X34904021Y7030070D01*
X34904020Y6993364D01*
X34904020Y6271108D01*
X34914631Y6256764D01*
X34925622Y6245503D01*
X34940952Y6233851D01*
X34947651Y6229720D01*
X34970060Y6217020D01*
X35666020Y6216373D01*
X35749803Y6216322D01*
X35831106Y6216328D01*
X35909318Y6216386D01*
X35983825Y6216494D01*
X36054015Y6216649D01*
X36119277Y6216850D01*
X36178996Y6217093D01*
X36232560Y6217375D01*
X36279358Y6217694D01*
X36318776Y6218047D01*
X36350202Y6218431D01*
X36373023Y6218845D01*
X36386627Y6219284D01*
X36389920Y6219531D01*
X36415555Y6224391D01*
X36433712Y6231716D01*
X36447025Y6242981D01*
X36456589Y6256914D01*
X36468660Y6277980D01*
X36468660Y6999340D01*
X36468656Y7099386D01*
X36468639Y7189774D01*
X36468602Y7271008D01*
X36468539Y7343590D01*
X36468445Y7408023D01*
X36468313Y7464809D01*
X36468136Y7514452D01*
X36467908Y7557455D01*
X36467624Y7594319D01*
X36467276Y7625548D01*
X36466858Y7651644D01*
X36466365Y7673110D01*
X36465789Y7690450D01*
X36465125Y7704165D01*
X36464367Y7714758D01*
X36463507Y7722733D01*
X36462540Y7728591D01*
X36461459Y7732836D01*
X36460259Y7735970D01*
X36459434Y7737610D01*
X36445871Y7753524D01*
X36428954Y7764168D01*
X36425753Y7765503D01*
X36421989Y7766709D01*
X36417154Y7767793D01*
X36410745Y7768761D01*
X36402254Y7769620D01*
X36391176Y7770377D01*
X36377007Y7771037D01*
X36359239Y7771609D01*
X36337367Y7772098D01*
X36310885Y7772511D01*
X36279289Y7772855D01*
X36242072Y7773136D01*
X36198728Y7773361D01*
X36148752Y7773537D01*
X36091637Y7773669D01*
X36026880Y7773766D01*
X35953973Y7773833D01*
X35872411Y7773876D01*
X35781689Y7773904D01*
X35683800Y7773921D01*
X35581616Y7773950D01*
X35489103Y7773991D01*
X35405771Y7774020D01*
X35331131Y7774012D01*
G36*
X33820709Y8139185D02*
X33799809Y8124826D01*
X33784815Y8107825D01*
X33780160Y8100525D01*
X33776682Y8093595D01*
X33774182Y8085444D01*
X33772461Y8074480D01*
X33771318Y8059112D01*
X33770554Y8037747D01*
X33769970Y8008795D01*
X33769614Y7986521D01*
X33768048Y7885800D01*
X34357920Y7885800D01*
X34357920Y7082224D01*
X34357922Y6976550D01*
X34357930Y6880557D01*
X34357951Y6793766D01*
X34357991Y6715699D01*
X34358056Y6645875D01*
X34358151Y6583817D01*
X34358284Y6529046D01*
X34358459Y6481082D01*
X34358684Y6439446D01*
X34358963Y6403660D01*
X34359304Y6373245D01*
X34359711Y6347721D01*
X34360192Y6326611D01*
X34360752Y6309434D01*
X34361397Y6295712D01*
X34362133Y6284967D01*
X34362966Y6276718D01*
X34363903Y6270488D01*
X34364949Y6265797D01*
X34366110Y6262166D01*
X34367392Y6259117D01*
X34368305Y6257197D01*
X34373203Y6247482D01*
X34378262Y6239477D01*
X34384464Y6233008D01*
X34392794Y6227898D01*
X34404232Y6223975D01*
X34419763Y6221062D01*
X34440369Y6218985D01*
X34467032Y6217570D01*
X34500735Y6216642D01*
X34542461Y6216025D01*
X34593193Y6215546D01*
X34603030Y6215464D01*
X34789720Y6213907D01*
X34789720Y7885771D01*
X35631730Y7887056D01*
X36473740Y7888340D01*
X36473740Y7989940D01*
X36473653Y8025225D01*
X36473302Y8051949D01*
X36472555Y8071713D01*
X36471277Y8086115D01*
X36469336Y8096755D01*
X36466598Y8105231D01*
X36463580Y8111860D01*
X36449959Y8130561D01*
X36435640Y8141063D01*
X36433390Y8141996D01*
X36430269Y8142863D01*
X36425905Y8143664D01*
X36419926Y8144402D01*
X36411961Y8145081D01*
X36401637Y8145702D01*
X36388582Y8146268D01*
X36372425Y8146782D01*
X36352793Y8147246D01*
X36329316Y8147662D01*
X36301620Y8148034D01*
X36269334Y8148363D01*
X36232086Y8148653D01*
X36189504Y8148905D01*
X36141216Y8149123D01*
X36086851Y8149308D01*
X36026035Y8149464D01*
X35958399Y8149593D01*
X35883569Y8149697D01*
X35801173Y8149780D01*
X35710840Y8149842D01*
X35612198Y8149888D01*
X35504875Y8149920D01*
X35388499Y8149939D01*
X35262698Y8149949D01*
X35130414Y8149953D01*
X33842968Y8149960D01*
X33820709Y8139185D01*
X33820709Y8139185D01*
G37*
X33820709Y8139185D02*
X33799809Y8124826D01*
X33784815Y8107825D01*
X33780160Y8100525D01*
X33776682Y8093595D01*
X33774182Y8085444D01*
X33772461Y8074480D01*
X33771318Y8059112D01*
X33770554Y8037747D01*
X33769970Y8008795D01*
X33769614Y7986521D01*
X33768048Y7885800D01*
X34357920Y7885800D01*
X34357920Y7082224D01*
X34357922Y6976550D01*
X34357930Y6880557D01*
X34357951Y6793766D01*
X34357991Y6715699D01*
X34358056Y6645875D01*
X34358151Y6583817D01*
X34358284Y6529046D01*
X34358459Y6481082D01*
X34358684Y6439446D01*
X34358963Y6403660D01*
X34359304Y6373245D01*
X34359711Y6347721D01*
X34360192Y6326611D01*
X34360752Y6309434D01*
X34361397Y6295712D01*
X34362133Y6284967D01*
X34362966Y6276718D01*
X34363903Y6270488D01*
X34364949Y6265797D01*
X34366110Y6262166D01*
X34367392Y6259117D01*
X34368305Y6257197D01*
X34373203Y6247482D01*
X34378262Y6239477D01*
X34384464Y6233008D01*
X34392794Y6227898D01*
X34404232Y6223975D01*
X34419763Y6221062D01*
X34440369Y6218985D01*
X34467032Y6217570D01*
X34500735Y6216642D01*
X34542461Y6216025D01*
X34593193Y6215546D01*
X34603030Y6215464D01*
X34789720Y6213907D01*
X34789720Y7885771D01*
X35631730Y7887056D01*
X36473740Y7888340D01*
X36473740Y7989940D01*
X36473653Y8025225D01*
X36473302Y8051949D01*
X36472555Y8071713D01*
X36471277Y8086115D01*
X36469336Y8096755D01*
X36466598Y8105231D01*
X36463580Y8111860D01*
X36449959Y8130561D01*
X36435640Y8141063D01*
X36433390Y8141996D01*
X36430269Y8142863D01*
X36425905Y8143664D01*
X36419926Y8144402D01*
X36411961Y8145081D01*
X36401637Y8145702D01*
X36388582Y8146268D01*
X36372425Y8146782D01*
X36352793Y8147246D01*
X36329316Y8147662D01*
X36301620Y8148034D01*
X36269334Y8148363D01*
X36232086Y8148653D01*
X36189504Y8148905D01*
X36141216Y8149123D01*
X36086851Y8149308D01*
X36026035Y8149464D01*
X35958399Y8149593D01*
X35883569Y8149697D01*
X35801173Y8149780D01*
X35710840Y8149842D01*
X35612198Y8149888D01*
X35504875Y8149920D01*
X35388499Y8149939D01*
X35262698Y8149949D01*
X35130414Y8149953D01*
X33842968Y8149960D01*
X33820709Y8139185D01*
G36*
X39913417Y8154366D02*
X39807322Y8154299D01*
X39691480Y8154169D01*
X39580160Y8154002D01*
X39467490Y8153813D01*
X39364531Y8153631D01*
X39270837Y8153451D01*
X39185958Y8153269D01*
X39109448Y8153077D01*
X39040858Y8152872D01*
X38979739Y8152648D01*
X38925645Y8152399D01*
X38878127Y8152121D01*
X38836736Y8151807D01*
X38801026Y8151452D01*
X38770548Y8151052D01*
X38744855Y8150600D01*
X38723497Y8150092D01*
X38706027Y8149522D01*
X38691998Y8148884D01*
X38680960Y8148174D01*
X38672467Y8147386D01*
X38666070Y8146514D01*
X38661321Y8145554D01*
X38657773Y8144499D01*
X38654976Y8143345D01*
X38654157Y8142949D01*
X38636449Y8129858D01*
X38622407Y8112023D01*
X38609880Y8090648D01*
X38610002Y7387514D01*
X38610049Y7301089D01*
X38610158Y7217751D01*
X38610326Y7138066D01*
X38610548Y7062602D01*
X38610820Y6991927D01*
X38611141Y6926608D01*
X38611504Y6867214D01*
X38611908Y6814311D01*
X38612348Y6768468D01*
X38612821Y6730252D01*
X38613322Y6700231D01*
X38613849Y6678972D01*
X38614398Y6667043D01*
X38614657Y6664839D01*
X38620734Y6648450D01*
X38629566Y6634321D01*
X38630662Y6633089D01*
X38642132Y6620880D01*
X39363876Y6620899D01*
X39463774Y6620904D01*
X39554016Y6620917D01*
X39635106Y6620944D01*
X39707546Y6620994D01*
X39771842Y6621073D01*
X39828495Y6621188D01*
X39878011Y6621347D01*
X39920893Y6621555D01*
X39957644Y6621821D01*
X39988768Y6622150D01*
X40014769Y6622551D01*
X40036151Y6623030D01*
X40053417Y6623595D01*
X40067071Y6624251D01*
X40077617Y6625007D01*
X40085558Y6625869D01*
X40091398Y6626844D01*
X40095640Y6627939D01*
X40098789Y6629161D01*
X40101348Y6630518D01*
X40102436Y6631171D01*
X40109365Y6635452D01*
X40115281Y6639726D01*
X40120267Y6644788D01*
X40124409Y6651432D01*
X40127791Y6660453D01*
X40130498Y6672648D01*
X40132613Y6688810D01*
X40134222Y6709736D01*
X40135409Y6736220D01*
X40136258Y6769057D01*
X40136854Y6809043D01*
X40137281Y6856972D01*
X40137624Y6913640D01*
X40137890Y6964918D01*
X40138218Y7028431D01*
X40138447Y7082574D01*
X40138501Y7128135D01*
X40138304Y7165904D01*
X40137779Y7196670D01*
X40136850Y7221222D01*
X40135441Y7240350D01*
X40133476Y7254843D01*
X40130879Y7265490D01*
X40127573Y7273080D01*
X40123482Y7278403D01*
X40118530Y7282247D01*
X40112640Y7285403D01*
X40106667Y7288215D01*
X40103058Y7289596D01*
X40097997Y7290816D01*
X40090880Y7291885D01*
X40081101Y7292813D01*
X40068055Y7293611D01*
X40051138Y7294287D01*
X40029744Y7294851D01*
X40003270Y7295314D01*
X39971109Y7295685D01*
X39932657Y7295973D01*
X39887310Y7296188D01*
X39834462Y7296341D01*
X39773509Y7296440D01*
X39703845Y7296496D01*
X39624866Y7296519D01*
X39590823Y7296520D01*
X39092480Y7296520D01*
X39092480Y7042605D01*
X39378230Y7041293D01*
X39663980Y7039980D01*
X39665412Y6980290D01*
X39666843Y6920600D01*
X39006069Y6920600D01*
X39007365Y7407010D01*
X39008660Y7893420D01*
X39794790Y7894707D01*
X40580920Y7895993D01*
X40580809Y7983607D01*
X40580610Y8017065D01*
X40580010Y8042123D01*
X40578857Y8060539D01*
X40576997Y8074069D01*
X40574279Y8084471D01*
X40571446Y8091584D01*
X40556945Y8114070D01*
X40536535Y8133645D01*
X40513609Y8147283D01*
X40506075Y8149963D01*
X40499851Y8150718D01*
X40486510Y8151400D01*
X40465831Y8152009D01*
X40437596Y8152546D01*
X40401586Y8153011D01*
X40357582Y8153407D01*
X40305365Y8153734D01*
X40244715Y8153993D01*
X40175415Y8154184D01*
X40097244Y8154310D01*
X40009985Y8154370D01*
X39913417Y8154366D01*
X39913417Y8154366D01*
G37*
X39913417Y8154366D02*
X39807322Y8154299D01*
X39691480Y8154169D01*
X39580160Y8154002D01*
X39467490Y8153813D01*
X39364531Y8153631D01*
X39270837Y8153451D01*
X39185958Y8153269D01*
X39109448Y8153077D01*
X39040858Y8152872D01*
X38979739Y8152648D01*
X38925645Y8152399D01*
X38878127Y8152121D01*
X38836736Y8151807D01*
X38801026Y8151452D01*
X38770548Y8151052D01*
X38744855Y8150600D01*
X38723497Y8150092D01*
X38706027Y8149522D01*
X38691998Y8148884D01*
X38680960Y8148174D01*
X38672467Y8147386D01*
X38666070Y8146514D01*
X38661321Y8145554D01*
X38657773Y8144499D01*
X38654976Y8143345D01*
X38654157Y8142949D01*
X38636449Y8129858D01*
X38622407Y8112023D01*
X38609880Y8090648D01*
X38610002Y7387514D01*
X38610049Y7301089D01*
X38610158Y7217751D01*
X38610326Y7138066D01*
X38610548Y7062602D01*
X38610820Y6991927D01*
X38611141Y6926608D01*
X38611504Y6867214D01*
X38611908Y6814311D01*
X38612348Y6768468D01*
X38612821Y6730252D01*
X38613322Y6700231D01*
X38613849Y6678972D01*
X38614398Y6667043D01*
X38614657Y6664839D01*
X38620734Y6648450D01*
X38629566Y6634321D01*
X38630662Y6633089D01*
X38642132Y6620880D01*
X39363876Y6620899D01*
X39463774Y6620904D01*
X39554016Y6620917D01*
X39635106Y6620944D01*
X39707546Y6620994D01*
X39771842Y6621073D01*
X39828495Y6621188D01*
X39878011Y6621347D01*
X39920893Y6621555D01*
X39957644Y6621821D01*
X39988768Y6622150D01*
X40014769Y6622551D01*
X40036151Y6623030D01*
X40053417Y6623595D01*
X40067071Y6624251D01*
X40077617Y6625007D01*
X40085558Y6625869D01*
X40091398Y6626844D01*
X40095640Y6627939D01*
X40098789Y6629161D01*
X40101348Y6630518D01*
X40102436Y6631171D01*
X40109365Y6635452D01*
X40115281Y6639726D01*
X40120267Y6644788D01*
X40124409Y6651432D01*
X40127791Y6660453D01*
X40130498Y6672648D01*
X40132613Y6688810D01*
X40134222Y6709736D01*
X40135409Y6736220D01*
X40136258Y6769057D01*
X40136854Y6809043D01*
X40137281Y6856972D01*
X40137624Y6913640D01*
X40137890Y6964918D01*
X40138218Y7028431D01*
X40138447Y7082574D01*
X40138501Y7128135D01*
X40138304Y7165904D01*
X40137779Y7196670D01*
X40136850Y7221222D01*
X40135441Y7240350D01*
X40133476Y7254843D01*
X40130879Y7265490D01*
X40127573Y7273080D01*
X40123482Y7278403D01*
X40118530Y7282247D01*
X40112640Y7285403D01*
X40106667Y7288215D01*
X40103058Y7289596D01*
X40097997Y7290816D01*
X40090880Y7291885D01*
X40081101Y7292813D01*
X40068055Y7293611D01*
X40051138Y7294287D01*
X40029744Y7294851D01*
X40003270Y7295314D01*
X39971109Y7295685D01*
X39932657Y7295973D01*
X39887310Y7296188D01*
X39834462Y7296341D01*
X39773509Y7296440D01*
X39703845Y7296496D01*
X39624866Y7296519D01*
X39590823Y7296520D01*
X39092480Y7296520D01*
X39092480Y7042605D01*
X39378230Y7041293D01*
X39663980Y7039980D01*
X39665412Y6980290D01*
X39666843Y6920600D01*
X39006069Y6920600D01*
X39007365Y7407010D01*
X39008660Y7893420D01*
X39794790Y7894707D01*
X40580920Y7895993D01*
X40580809Y7983607D01*
X40580610Y8017065D01*
X40580010Y8042123D01*
X40578857Y8060539D01*
X40576997Y8074069D01*
X40574279Y8084471D01*
X40571446Y8091584D01*
X40556945Y8114070D01*
X40536535Y8133645D01*
X40513609Y8147283D01*
X40506075Y8149963D01*
X40499851Y8150718D01*
X40486510Y8151400D01*
X40465831Y8152009D01*
X40437596Y8152546D01*
X40401586Y8153011D01*
X40357582Y8153407D01*
X40305365Y8153734D01*
X40244715Y8153993D01*
X40175415Y8154184D01*
X40097244Y8154310D01*
X40009985Y8154370D01*
X39913417Y8154366D01*
D13*
X8000000Y38500000D03*
X14000000Y10500000D03*
X80000000Y10500000D03*
X86000000Y38500000D03*
D14*
X78950000Y18750000D03*
X76050000Y18750000D03*
D15*
X37350000Y37450000D03*
X37350000Y36500000D03*
X37350000Y35550000D03*
X35150000Y35550000D03*
X35150000Y37450000D03*
D10*
G36*
X45225162Y11291891D02*
X45027172Y11489881D01*
X46087832Y12550541D01*
X46285822Y12352551D01*
X45225162Y11291891D01*
X45225162Y11291891D01*
G37*
G36*
X44871609Y11645444D02*
X44673619Y11843434D01*
X45734279Y12904094D01*
X45932269Y12706104D01*
X44871609Y11645444D01*
X44871609Y11645444D01*
G37*
G36*
X44518055Y11998998D02*
X44320065Y12196988D01*
X45380725Y13257648D01*
X45578715Y13059658D01*
X44518055Y11998998D01*
X44518055Y11998998D01*
G37*
G36*
X44164502Y12352551D02*
X43966512Y12550541D01*
X45027172Y13611201D01*
X45225162Y13413211D01*
X44164502Y12352551D01*
X44164502Y12352551D01*
G37*
G36*
X43810949Y12706104D02*
X43612959Y12904094D01*
X44673619Y13964754D01*
X44871609Y13766764D01*
X43810949Y12706104D01*
X43810949Y12706104D01*
G37*
G36*
X43457395Y13059658D02*
X43259405Y13257648D01*
X44320065Y14318308D01*
X44518055Y14120318D01*
X43457395Y13059658D01*
X43457395Y13059658D01*
G37*
G36*
X43103842Y13413211D02*
X42905852Y13611201D01*
X43966512Y14671861D01*
X44164502Y14473871D01*
X43103842Y13413211D01*
X43103842Y13413211D01*
G37*
G36*
X42750288Y13766764D02*
X42552298Y13964754D01*
X43612958Y15025414D01*
X43810948Y14827424D01*
X42750288Y13766764D01*
X42750288Y13766764D01*
G37*
G36*
X42396735Y14120318D02*
X42198745Y14318308D01*
X43259405Y15378968D01*
X43457395Y15180978D01*
X42396735Y14120318D01*
X42396735Y14120318D01*
G37*
G36*
X42043182Y14473871D02*
X41845192Y14671861D01*
X42905852Y15732521D01*
X43103842Y15534531D01*
X42043182Y14473871D01*
X42043182Y14473871D01*
G37*
G36*
X41689628Y14827425D02*
X41491638Y15025415D01*
X42552298Y16086075D01*
X42750288Y15888085D01*
X41689628Y14827425D01*
X41689628Y14827425D01*
G37*
G36*
X41336075Y15180978D02*
X41138085Y15378968D01*
X42198745Y16439628D01*
X42396735Y16241638D01*
X41336075Y15180978D01*
X41336075Y15180978D01*
G37*
G36*
X40982521Y15534531D02*
X40784531Y15732521D01*
X41845191Y16793181D01*
X42043181Y16595191D01*
X40982521Y15534531D01*
X40982521Y15534531D01*
G37*
G36*
X40628968Y15888085D02*
X40430978Y16086075D01*
X41491638Y17146735D01*
X41689628Y16948745D01*
X40628968Y15888085D01*
X40628968Y15888085D01*
G37*
G36*
X40275415Y16241638D02*
X40077425Y16439628D01*
X41138085Y17500288D01*
X41336075Y17302298D01*
X40275415Y16241638D01*
X40275415Y16241638D01*
G37*
G36*
X39921861Y16595192D02*
X39723871Y16793182D01*
X40784531Y17853842D01*
X40982521Y17655852D01*
X39921861Y16595192D01*
X39921861Y16595192D01*
G37*
G36*
X39568308Y16948745D02*
X39370318Y17146735D01*
X40430978Y18207395D01*
X40628968Y18009405D01*
X39568308Y16948745D01*
X39568308Y16948745D01*
G37*
G36*
X39214754Y17302298D02*
X39016764Y17500288D01*
X40077424Y18560948D01*
X40275414Y18362958D01*
X39214754Y17302298D01*
X39214754Y17302298D01*
G37*
G36*
X38861201Y17655852D02*
X38663211Y17853842D01*
X39723871Y18914502D01*
X39921861Y18716512D01*
X38861201Y17655852D01*
X38861201Y17655852D01*
G37*
G36*
X38507648Y18009405D02*
X38309658Y18207395D01*
X39370318Y19268055D01*
X39568308Y19070065D01*
X38507648Y18009405D01*
X38507648Y18009405D01*
G37*
G36*
X38154094Y18362959D02*
X37956104Y18560949D01*
X39016764Y19621609D01*
X39214754Y19423619D01*
X38154094Y18362959D01*
X38154094Y18362959D01*
G37*
G36*
X37800541Y18716512D02*
X37602551Y18914502D01*
X38663211Y19975162D01*
X38861201Y19777172D01*
X37800541Y18716512D01*
X37800541Y18716512D01*
G37*
G36*
X37446988Y19070065D02*
X37248998Y19268055D01*
X38309658Y20328715D01*
X38507648Y20130725D01*
X37446988Y19070065D01*
X37446988Y19070065D01*
G37*
G36*
X37093434Y19423619D02*
X36895444Y19621609D01*
X37956104Y20682269D01*
X38154094Y20484279D01*
X37093434Y19423619D01*
X37093434Y19423619D01*
G37*
G36*
X36739881Y19777172D02*
X36541891Y19975162D01*
X37602551Y21035822D01*
X37800541Y20837832D01*
X36739881Y19777172D01*
X36739881Y19777172D01*
G37*
G36*
X36541891Y23524838D02*
X36739881Y23722828D01*
X37800541Y22662168D01*
X37602551Y22464178D01*
X36541891Y23524838D01*
X36541891Y23524838D01*
G37*
G36*
X36895444Y23878391D02*
X37093434Y24076381D01*
X38154094Y23015721D01*
X37956104Y22817731D01*
X36895444Y23878391D01*
X36895444Y23878391D01*
G37*
G36*
X37248998Y24231945D02*
X37446988Y24429935D01*
X38507648Y23369275D01*
X38309658Y23171285D01*
X37248998Y24231945D01*
X37248998Y24231945D01*
G37*
G36*
X37602551Y24585498D02*
X37800541Y24783488D01*
X38861201Y23722828D01*
X38663211Y23524838D01*
X37602551Y24585498D01*
X37602551Y24585498D01*
G37*
G36*
X37956104Y24939051D02*
X38154094Y25137041D01*
X39214754Y24076381D01*
X39016764Y23878391D01*
X37956104Y24939051D01*
X37956104Y24939051D01*
G37*
G36*
X38309658Y25292605D02*
X38507648Y25490595D01*
X39568308Y24429935D01*
X39370318Y24231945D01*
X38309658Y25292605D01*
X38309658Y25292605D01*
G37*
G36*
X38663211Y25646158D02*
X38861201Y25844148D01*
X39921861Y24783488D01*
X39723871Y24585498D01*
X38663211Y25646158D01*
X38663211Y25646158D01*
G37*
G36*
X39016764Y25999712D02*
X39214754Y26197702D01*
X40275414Y25137042D01*
X40077424Y24939052D01*
X39016764Y25999712D01*
X39016764Y25999712D01*
G37*
G36*
X39370318Y26353265D02*
X39568308Y26551255D01*
X40628968Y25490595D01*
X40430978Y25292605D01*
X39370318Y26353265D01*
X39370318Y26353265D01*
G37*
G36*
X39723871Y26706818D02*
X39921861Y26904808D01*
X40982521Y25844148D01*
X40784531Y25646158D01*
X39723871Y26706818D01*
X39723871Y26706818D01*
G37*
G36*
X40077425Y27060372D02*
X40275415Y27258362D01*
X41336075Y26197702D01*
X41138085Y25999712D01*
X40077425Y27060372D01*
X40077425Y27060372D01*
G37*
G36*
X40430978Y27413925D02*
X40628968Y27611915D01*
X41689628Y26551255D01*
X41491638Y26353265D01*
X40430978Y27413925D01*
X40430978Y27413925D01*
G37*
G36*
X40784531Y27767479D02*
X40982521Y27965469D01*
X42043181Y26904809D01*
X41845191Y26706819D01*
X40784531Y27767479D01*
X40784531Y27767479D01*
G37*
G36*
X41138085Y28121032D02*
X41336075Y28319022D01*
X42396735Y27258362D01*
X42198745Y27060372D01*
X41138085Y28121032D01*
X41138085Y28121032D01*
G37*
G36*
X41491638Y28474585D02*
X41689628Y28672575D01*
X42750288Y27611915D01*
X42552298Y27413925D01*
X41491638Y28474585D01*
X41491638Y28474585D01*
G37*
G36*
X41845192Y28828139D02*
X42043182Y29026129D01*
X43103842Y27965469D01*
X42905852Y27767479D01*
X41845192Y28828139D01*
X41845192Y28828139D01*
G37*
G36*
X42198745Y29181692D02*
X42396735Y29379682D01*
X43457395Y28319022D01*
X43259405Y28121032D01*
X42198745Y29181692D01*
X42198745Y29181692D01*
G37*
G36*
X42552298Y29535246D02*
X42750288Y29733236D01*
X43810948Y28672576D01*
X43612958Y28474586D01*
X42552298Y29535246D01*
X42552298Y29535246D01*
G37*
G36*
X42905852Y29888799D02*
X43103842Y30086789D01*
X44164502Y29026129D01*
X43966512Y28828139D01*
X42905852Y29888799D01*
X42905852Y29888799D01*
G37*
G36*
X43259405Y30242352D02*
X43457395Y30440342D01*
X44518055Y29379682D01*
X44320065Y29181692D01*
X43259405Y30242352D01*
X43259405Y30242352D01*
G37*
G36*
X43612959Y30595906D02*
X43810949Y30793896D01*
X44871609Y29733236D01*
X44673619Y29535246D01*
X43612959Y30595906D01*
X43612959Y30595906D01*
G37*
G36*
X43966512Y30949459D02*
X44164502Y31147449D01*
X45225162Y30086789D01*
X45027172Y29888799D01*
X43966512Y30949459D01*
X43966512Y30949459D01*
G37*
G36*
X44320065Y31303012D02*
X44518055Y31501002D01*
X45578715Y30440342D01*
X45380725Y30242352D01*
X44320065Y31303012D01*
X44320065Y31303012D01*
G37*
G36*
X44673619Y31656566D02*
X44871609Y31854556D01*
X45932269Y30793896D01*
X45734279Y30595906D01*
X44673619Y31656566D01*
X44673619Y31656566D01*
G37*
G36*
X45027172Y32010119D02*
X45225162Y32208109D01*
X46285822Y31147449D01*
X46087832Y30949459D01*
X45027172Y32010119D01*
X45027172Y32010119D01*
G37*
G36*
X47912168Y30949459D02*
X47714178Y31147449D01*
X48774838Y32208109D01*
X48972828Y32010119D01*
X47912168Y30949459D01*
X47912168Y30949459D01*
G37*
G36*
X48265721Y30595906D02*
X48067731Y30793896D01*
X49128391Y31854556D01*
X49326381Y31656566D01*
X48265721Y30595906D01*
X48265721Y30595906D01*
G37*
G36*
X48619275Y30242352D02*
X48421285Y30440342D01*
X49481945Y31501002D01*
X49679935Y31303012D01*
X48619275Y30242352D01*
X48619275Y30242352D01*
G37*
G36*
X48972828Y29888799D02*
X48774838Y30086789D01*
X49835498Y31147449D01*
X50033488Y30949459D01*
X48972828Y29888799D01*
X48972828Y29888799D01*
G37*
G36*
X49326381Y29535246D02*
X49128391Y29733236D01*
X50189051Y30793896D01*
X50387041Y30595906D01*
X49326381Y29535246D01*
X49326381Y29535246D01*
G37*
G36*
X49679935Y29181692D02*
X49481945Y29379682D01*
X50542605Y30440342D01*
X50740595Y30242352D01*
X49679935Y29181692D01*
X49679935Y29181692D01*
G37*
G36*
X50033488Y28828139D02*
X49835498Y29026129D01*
X50896158Y30086789D01*
X51094148Y29888799D01*
X50033488Y28828139D01*
X50033488Y28828139D01*
G37*
G36*
X50387042Y28474586D02*
X50189052Y28672576D01*
X51249712Y29733236D01*
X51447702Y29535246D01*
X50387042Y28474586D01*
X50387042Y28474586D01*
G37*
G36*
X50740595Y28121032D02*
X50542605Y28319022D01*
X51603265Y29379682D01*
X51801255Y29181692D01*
X50740595Y28121032D01*
X50740595Y28121032D01*
G37*
G36*
X51094148Y27767479D02*
X50896158Y27965469D01*
X51956818Y29026129D01*
X52154808Y28828139D01*
X51094148Y27767479D01*
X51094148Y27767479D01*
G37*
G36*
X51447702Y27413925D02*
X51249712Y27611915D01*
X52310372Y28672575D01*
X52508362Y28474585D01*
X51447702Y27413925D01*
X51447702Y27413925D01*
G37*
G36*
X51801255Y27060372D02*
X51603265Y27258362D01*
X52663925Y28319022D01*
X52861915Y28121032D01*
X51801255Y27060372D01*
X51801255Y27060372D01*
G37*
G36*
X52154809Y26706819D02*
X51956819Y26904809D01*
X53017479Y27965469D01*
X53215469Y27767479D01*
X52154809Y26706819D01*
X52154809Y26706819D01*
G37*
G36*
X52508362Y26353265D02*
X52310372Y26551255D01*
X53371032Y27611915D01*
X53569022Y27413925D01*
X52508362Y26353265D01*
X52508362Y26353265D01*
G37*
G36*
X52861915Y25999712D02*
X52663925Y26197702D01*
X53724585Y27258362D01*
X53922575Y27060372D01*
X52861915Y25999712D01*
X52861915Y25999712D01*
G37*
G36*
X53215469Y25646158D02*
X53017479Y25844148D01*
X54078139Y26904808D01*
X54276129Y26706818D01*
X53215469Y25646158D01*
X53215469Y25646158D01*
G37*
G36*
X53569022Y25292605D02*
X53371032Y25490595D01*
X54431692Y26551255D01*
X54629682Y26353265D01*
X53569022Y25292605D01*
X53569022Y25292605D01*
G37*
G36*
X53922576Y24939052D02*
X53724586Y25137042D01*
X54785246Y26197702D01*
X54983236Y25999712D01*
X53922576Y24939052D01*
X53922576Y24939052D01*
G37*
G36*
X54276129Y24585498D02*
X54078139Y24783488D01*
X55138799Y25844148D01*
X55336789Y25646158D01*
X54276129Y24585498D01*
X54276129Y24585498D01*
G37*
G36*
X54629682Y24231945D02*
X54431692Y24429935D01*
X55492352Y25490595D01*
X55690342Y25292605D01*
X54629682Y24231945D01*
X54629682Y24231945D01*
G37*
G36*
X54983236Y23878391D02*
X54785246Y24076381D01*
X55845906Y25137041D01*
X56043896Y24939051D01*
X54983236Y23878391D01*
X54983236Y23878391D01*
G37*
G36*
X55336789Y23524838D02*
X55138799Y23722828D01*
X56199459Y24783488D01*
X56397449Y24585498D01*
X55336789Y23524838D01*
X55336789Y23524838D01*
G37*
G36*
X55690342Y23171285D02*
X55492352Y23369275D01*
X56553012Y24429935D01*
X56751002Y24231945D01*
X55690342Y23171285D01*
X55690342Y23171285D01*
G37*
G36*
X56043896Y22817731D02*
X55845906Y23015721D01*
X56906566Y24076381D01*
X57104556Y23878391D01*
X56043896Y22817731D01*
X56043896Y22817731D01*
G37*
G36*
X56397449Y22464178D02*
X56199459Y22662168D01*
X57260119Y23722828D01*
X57458109Y23524838D01*
X56397449Y22464178D01*
X56397449Y22464178D01*
G37*
G36*
X56199459Y20837832D02*
X56397449Y21035822D01*
X57458109Y19975162D01*
X57260119Y19777172D01*
X56199459Y20837832D01*
X56199459Y20837832D01*
G37*
G36*
X55845906Y20484279D02*
X56043896Y20682269D01*
X57104556Y19621609D01*
X56906566Y19423619D01*
X55845906Y20484279D01*
X55845906Y20484279D01*
G37*
G36*
X55492352Y20130725D02*
X55690342Y20328715D01*
X56751002Y19268055D01*
X56553012Y19070065D01*
X55492352Y20130725D01*
X55492352Y20130725D01*
G37*
G36*
X55138799Y19777172D02*
X55336789Y19975162D01*
X56397449Y18914502D01*
X56199459Y18716512D01*
X55138799Y19777172D01*
X55138799Y19777172D01*
G37*
G36*
X54785246Y19423619D02*
X54983236Y19621609D01*
X56043896Y18560949D01*
X55845906Y18362959D01*
X54785246Y19423619D01*
X54785246Y19423619D01*
G37*
G36*
X54431692Y19070065D02*
X54629682Y19268055D01*
X55690342Y18207395D01*
X55492352Y18009405D01*
X54431692Y19070065D01*
X54431692Y19070065D01*
G37*
G36*
X54078139Y18716512D02*
X54276129Y18914502D01*
X55336789Y17853842D01*
X55138799Y17655852D01*
X54078139Y18716512D01*
X54078139Y18716512D01*
G37*
G36*
X53724586Y18362958D02*
X53922576Y18560948D01*
X54983236Y17500288D01*
X54785246Y17302298D01*
X53724586Y18362958D01*
X53724586Y18362958D01*
G37*
G36*
X53371032Y18009405D02*
X53569022Y18207395D01*
X54629682Y17146735D01*
X54431692Y16948745D01*
X53371032Y18009405D01*
X53371032Y18009405D01*
G37*
G36*
X53017479Y17655852D02*
X53215469Y17853842D01*
X54276129Y16793182D01*
X54078139Y16595192D01*
X53017479Y17655852D01*
X53017479Y17655852D01*
G37*
G36*
X52663925Y17302298D02*
X52861915Y17500288D01*
X53922575Y16439628D01*
X53724585Y16241638D01*
X52663925Y17302298D01*
X52663925Y17302298D01*
G37*
G36*
X52310372Y16948745D02*
X52508362Y17146735D01*
X53569022Y16086075D01*
X53371032Y15888085D01*
X52310372Y16948745D01*
X52310372Y16948745D01*
G37*
G36*
X51956819Y16595191D02*
X52154809Y16793181D01*
X53215469Y15732521D01*
X53017479Y15534531D01*
X51956819Y16595191D01*
X51956819Y16595191D01*
G37*
G36*
X51603265Y16241638D02*
X51801255Y16439628D01*
X52861915Y15378968D01*
X52663925Y15180978D01*
X51603265Y16241638D01*
X51603265Y16241638D01*
G37*
G36*
X51249712Y15888085D02*
X51447702Y16086075D01*
X52508362Y15025415D01*
X52310372Y14827425D01*
X51249712Y15888085D01*
X51249712Y15888085D01*
G37*
G36*
X50896158Y15534531D02*
X51094148Y15732521D01*
X52154808Y14671861D01*
X51956818Y14473871D01*
X50896158Y15534531D01*
X50896158Y15534531D01*
G37*
G36*
X50542605Y15180978D02*
X50740595Y15378968D01*
X51801255Y14318308D01*
X51603265Y14120318D01*
X50542605Y15180978D01*
X50542605Y15180978D01*
G37*
G36*
X50189052Y14827424D02*
X50387042Y15025414D01*
X51447702Y13964754D01*
X51249712Y13766764D01*
X50189052Y14827424D01*
X50189052Y14827424D01*
G37*
G36*
X49835498Y14473871D02*
X50033488Y14671861D01*
X51094148Y13611201D01*
X50896158Y13413211D01*
X49835498Y14473871D01*
X49835498Y14473871D01*
G37*
G36*
X49481945Y14120318D02*
X49679935Y14318308D01*
X50740595Y13257648D01*
X50542605Y13059658D01*
X49481945Y14120318D01*
X49481945Y14120318D01*
G37*
G36*
X49128391Y13766764D02*
X49326381Y13964754D01*
X50387041Y12904094D01*
X50189051Y12706104D01*
X49128391Y13766764D01*
X49128391Y13766764D01*
G37*
G36*
X48774838Y13413211D02*
X48972828Y13611201D01*
X50033488Y12550541D01*
X49835498Y12352551D01*
X48774838Y13413211D01*
X48774838Y13413211D01*
G37*
G36*
X48421285Y13059658D02*
X48619275Y13257648D01*
X49679935Y12196988D01*
X49481945Y11998998D01*
X48421285Y13059658D01*
X48421285Y13059658D01*
G37*
G36*
X48067731Y12706104D02*
X48265721Y12904094D01*
X49326381Y11843434D01*
X49128391Y11645444D01*
X48067731Y12706104D01*
X48067731Y12706104D01*
G37*
G36*
X47714178Y12352551D02*
X47912168Y12550541D01*
X48972828Y11489881D01*
X48774838Y11291891D01*
X47714178Y12352551D01*
X47714178Y12352551D01*
G37*
D16*
X78900000Y16500000D03*
X78900000Y16000000D03*
X78900000Y15500000D03*
X78900000Y15000000D03*
X76100000Y15000000D03*
X76100000Y15500000D03*
X76100000Y16000000D03*
X76100000Y16500000D03*
D17*
X77085000Y15155000D03*
X77085000Y16345000D03*
X77915000Y15155000D03*
X77915000Y16345000D03*
D18*
X74000000Y17200000D03*
X74000000Y14300000D03*
D19*
X35250000Y39500000D03*
X37250000Y39500000D03*
D20*
X18650000Y40200000D03*
X19750000Y40200000D03*
X71650000Y40200000D03*
X72750000Y40200000D03*
D21*
X33750000Y37450000D03*
X33750000Y38550000D03*
D22*
X19800000Y36500000D03*
X19800000Y38500000D03*
X72800000Y36500000D03*
X72800000Y38500000D03*
D19*
X79000000Y20400000D03*
X77000000Y20400000D03*
D23*
X17400000Y37950000D03*
X17400000Y36450000D03*
X70400000Y38150000D03*
X70400000Y36650000D03*
D20*
X23300000Y16750000D03*
X22200000Y16750000D03*
D23*
X35750000Y15750000D03*
X35750000Y17250000D03*
D21*
X37000000Y16200000D03*
X37000000Y17300000D03*
D24*
X51000000Y8500000D03*
X48000000Y8500000D03*
D20*
X42450000Y32250000D03*
X43550000Y32250000D03*
D21*
X57500000Y26550000D03*
X57500000Y25450000D03*
D23*
X2750000Y5250000D03*
X2750000Y6750000D03*
D25*
X6750000Y9750000D03*
X5250000Y9750000D03*
D23*
X86200000Y2450000D03*
X86200000Y3950000D03*
X91750000Y9250000D03*
X91750000Y7750000D03*
D21*
X23050000Y10350000D03*
X23050000Y9250000D03*
D26*
X34000000Y15750000D03*
X34000000Y17250000D03*
D27*
X20000000Y16700000D03*
X20000000Y14800000D03*
X18000000Y15750000D03*
X13500000Y20200000D03*
X13500000Y18300000D03*
X11500000Y19250000D03*
D28*
X2600000Y38750000D03*
X4500000Y38750000D03*
X3550000Y36750000D03*
D27*
X8500000Y25200000D03*
X8500000Y23300000D03*
X6500000Y24250000D03*
D28*
X81050000Y18000000D03*
X82950000Y18000000D03*
X82000000Y16000000D03*
X82800000Y34250000D03*
X84700000Y34250000D03*
X83750000Y32250000D03*
D27*
X86250000Y20550000D03*
X86250000Y22450000D03*
X88250000Y21500000D03*
D28*
X8800000Y11250000D03*
X10700000Y11250000D03*
X9750000Y9250000D03*
X86350000Y11500000D03*
X88250000Y11500000D03*
X87300000Y9500000D03*
D29*
X22400000Y26650000D03*
X22400000Y25750000D03*
D30*
X73800000Y23250000D03*
X74700000Y23250000D03*
D29*
X18600000Y26650000D03*
X18600000Y25750000D03*
X72000000Y22550000D03*
X72000000Y23450000D03*
X22400000Y36350000D03*
X22400000Y37250000D03*
X75400000Y36350000D03*
X75400000Y37250000D03*
D30*
X53200000Y11550000D03*
X52300000Y11550000D03*
D29*
X38750000Y36450000D03*
X38750000Y35550000D03*
X23600000Y26650000D03*
X23600000Y25750000D03*
D30*
X78450000Y23250000D03*
X77550000Y23250000D03*
X53950000Y12750000D03*
X53050000Y12750000D03*
D29*
X17400000Y26650000D03*
X17400000Y25750000D03*
X70750000Y22550000D03*
X70750000Y23450000D03*
X52500000Y31700000D03*
X52500000Y30800000D03*
X23600000Y36350000D03*
X23600000Y37250000D03*
X76600000Y36350000D03*
X76600000Y37250000D03*
X42250000Y11800000D03*
X42250000Y12700000D03*
X21250000Y15800000D03*
X21250000Y16700000D03*
D26*
X16250000Y15750000D03*
X16250000Y17250000D03*
D29*
X14750000Y19050000D03*
X14750000Y19950000D03*
D30*
X3500000Y40000000D03*
X2600000Y40000000D03*
D29*
X10000000Y24150000D03*
X10000000Y25050000D03*
D30*
X82950000Y19250000D03*
X82050000Y19250000D03*
X83850000Y35600000D03*
X82950000Y35600000D03*
D29*
X85000000Y21450000D03*
X85000000Y20550000D03*
D30*
X6800000Y11250000D03*
X7700000Y11250000D03*
X84300000Y11500000D03*
X85200000Y11500000D03*
D29*
X1400000Y5950000D03*
X1400000Y5050000D03*
X2750000Y7800000D03*
X2750000Y8700000D03*
D30*
X91850000Y5000000D03*
X90950000Y5000000D03*
X91850000Y6400000D03*
X90950000Y6400000D03*
D29*
X39500000Y14300000D03*
X39500000Y15200000D03*
X38250000Y15050000D03*
X38250000Y15950000D03*
D30*
X35800000Y25750000D03*
X36700000Y25750000D03*
X36300000Y26750000D03*
X37200000Y26750000D03*
X6550000Y19600000D03*
X7450000Y19600000D03*
X7450000Y21000000D03*
X6550000Y21000000D03*
X88450000Y25600000D03*
X87550000Y25600000D03*
X87550000Y24200000D03*
X88450000Y24200000D03*
D31*
X69100000Y10350000D03*
X62900000Y10350000D03*
X69100000Y6650000D03*
X62900000Y6650000D03*
X24900000Y6650000D03*
X31100000Y6650000D03*
X24900000Y10350000D03*
X31100000Y10350000D03*
D20*
X43700000Y33250000D03*
X44800000Y33250000D03*
X50050000Y10250000D03*
X48950000Y10250000D03*
D21*
X58500000Y24800000D03*
X58500000Y23700000D03*
D20*
X34950000Y24750000D03*
X36050000Y24750000D03*
D32*
X47800000Y6000000D03*
X46200000Y6000000D03*
D30*
X49700000Y6000000D03*
X48800000Y6000000D03*
D33*
X89551240Y5850840D03*
X84948760Y5850840D03*
X84948760Y7649160D03*
X89551240Y7649160D03*
X87948760Y3149160D03*
X92551240Y3149160D03*
X92551240Y1350840D03*
X87948760Y1350840D03*
X4448760Y7649160D03*
X9051240Y7649160D03*
X9051240Y5850840D03*
X4448760Y5850840D03*
X1448760Y3149160D03*
X6051240Y3149160D03*
X6051240Y1350840D03*
X1448760Y1350840D03*
D34*
X75350000Y12000000D03*
D35*
X72250000Y12000000D03*
D10*
G36*
X7920985Y16540955D02*
X10012994Y16723982D01*
X10113223Y15578359D01*
X8021214Y15395332D01*
X7920985Y16540955D01*
X7920985Y16540955D01*
G37*
G36*
X5390650Y16319580D02*
X7482659Y16502607D01*
X7582888Y15356984D01*
X5490879Y15173957D01*
X5390650Y16319580D01*
X5390650Y16319580D01*
G37*
G36*
X2860316Y16098204D02*
X4952325Y16281231D01*
X5052554Y15135608D01*
X2960545Y14952581D01*
X2860316Y16098204D01*
X2860316Y16098204D01*
G37*
G36*
X329981Y15876829D02*
X2421990Y16059856D01*
X2522219Y14914233D01*
X430210Y14731206D01*
X329981Y15876829D01*
X329981Y15876829D01*
G37*
G36*
X8177781Y13605767D02*
X10269790Y13788794D01*
X10370019Y12643171D01*
X8278010Y12460144D01*
X8177781Y13605767D01*
X8177781Y13605767D01*
G37*
G36*
X5647446Y13384392D02*
X7739455Y13567419D01*
X7839684Y12421796D01*
X5747675Y12238769D01*
X5647446Y13384392D01*
X5647446Y13384392D01*
G37*
G36*
X3117112Y13163016D02*
X5209121Y13346043D01*
X5309350Y12200420D01*
X3217341Y12017393D01*
X3117112Y13163016D01*
X3117112Y13163016D01*
G37*
G36*
X586777Y12941641D02*
X2678786Y13124668D01*
X2779015Y11979045D01*
X687006Y11796018D01*
X586777Y12941641D01*
X586777Y12941641D01*
G37*
G36*
X9660840Y30554919D02*
X11269534Y29205065D01*
X10530328Y28324113D01*
X8921634Y29673967D01*
X9660840Y30554919D01*
X9660840Y30554919D01*
G37*
G36*
X7715087Y32187599D02*
X9323781Y30837745D01*
X8584575Y29956793D01*
X6975881Y31306647D01*
X7715087Y32187599D01*
X7715087Y32187599D01*
G37*
G36*
X5769334Y33820280D02*
X7378028Y32470426D01*
X6638822Y31589474D01*
X5030128Y32939328D01*
X5769334Y33820280D01*
X5769334Y33820280D01*
G37*
G36*
X3823581Y35452960D02*
X5432275Y34103106D01*
X4693069Y33222154D01*
X3084375Y34572008D01*
X3823581Y35452960D01*
X3823581Y35452960D01*
G37*
G36*
X7766931Y28297846D02*
X9375625Y26947992D01*
X8636419Y26067040D01*
X7027725Y27416894D01*
X7766931Y28297846D01*
X7766931Y28297846D01*
G37*
G36*
X5821178Y29930526D02*
X7429872Y28580672D01*
X6690666Y27699720D01*
X5081972Y29049574D01*
X5821178Y29930526D01*
X5821178Y29930526D01*
G37*
G36*
X3875425Y31563207D02*
X5484119Y30213353D01*
X4744913Y29332401D01*
X3136219Y30682255D01*
X3875425Y31563207D01*
X3875425Y31563207D01*
G37*
G36*
X1929672Y33195887D02*
X3538366Y31846033D01*
X2799160Y30965081D01*
X1190466Y32314935D01*
X1929672Y33195887D01*
X1929672Y33195887D01*
G37*
D36*
X4323200Y18990000D03*
X4323200Y21530000D03*
X4323200Y24070000D03*
X4323200Y26610000D03*
X1376800Y18990000D03*
X1376800Y21530000D03*
X1376800Y24070000D03*
X1376800Y26610000D03*
D10*
G36*
X91578010Y16069856D02*
X93670019Y15886829D01*
X93569790Y14741206D01*
X91477781Y14924233D01*
X91578010Y16069856D01*
X91578010Y16069856D01*
G37*
G36*
X89047675Y16291231D02*
X91139684Y16108204D01*
X91039455Y14962581D01*
X88947446Y15145608D01*
X89047675Y16291231D01*
X89047675Y16291231D01*
G37*
G36*
X86517341Y16512607D02*
X88609350Y16329580D01*
X88509121Y15183957D01*
X86417112Y15366984D01*
X86517341Y16512607D01*
X86517341Y16512607D01*
G37*
G36*
X83987006Y16733982D02*
X86079015Y16550955D01*
X85978786Y15405332D01*
X83886777Y15588359D01*
X83987006Y16733982D01*
X83987006Y16733982D01*
G37*
G36*
X91321214Y13134668D02*
X93413223Y12951641D01*
X93312994Y11806018D01*
X91220985Y11989045D01*
X91321214Y13134668D01*
X91321214Y13134668D01*
G37*
G36*
X88790879Y13356043D02*
X90882888Y13173016D01*
X90782659Y12027393D01*
X88690650Y12210420D01*
X88790879Y13356043D01*
X88790879Y13356043D01*
G37*
G36*
X86260545Y13577419D02*
X88352554Y13394392D01*
X88252325Y12248769D01*
X86160316Y12431796D01*
X86260545Y13577419D01*
X86260545Y13577419D01*
G37*
G36*
X83730210Y13798794D02*
X85822219Y13615767D01*
X85721990Y12470144D01*
X83629981Y12653171D01*
X83730210Y13798794D01*
X83730210Y13798794D01*
G37*
G36*
X88567725Y34113106D02*
X90176419Y35462960D01*
X90915625Y34582008D01*
X89306931Y33232154D01*
X88567725Y34113106D01*
X88567725Y34113106D01*
G37*
G36*
X86621972Y32480426D02*
X88230666Y33830280D01*
X88969872Y32949328D01*
X87361178Y31599474D01*
X86621972Y32480426D01*
X86621972Y32480426D01*
G37*
G36*
X84676219Y30847745D02*
X86284913Y32197599D01*
X87024119Y31316647D01*
X85415425Y29966793D01*
X84676219Y30847745D01*
X84676219Y30847745D01*
G37*
G36*
X82730466Y29215065D02*
X84339160Y30564919D01*
X85078366Y29683967D01*
X83469672Y28334113D01*
X82730466Y29215065D01*
X82730466Y29215065D01*
G37*
G36*
X90461634Y31856033D02*
X92070328Y33205887D01*
X92809534Y32324935D01*
X91200840Y30975081D01*
X90461634Y31856033D01*
X90461634Y31856033D01*
G37*
G36*
X88515881Y30223353D02*
X90124575Y31573207D01*
X90863781Y30692255D01*
X89255087Y29342401D01*
X88515881Y30223353D01*
X88515881Y30223353D01*
G37*
G36*
X86570128Y28590672D02*
X88178822Y29940526D01*
X88918028Y29059574D01*
X87309334Y27709720D01*
X86570128Y28590672D01*
X86570128Y28590672D01*
G37*
G36*
X84624375Y26957992D02*
X86233069Y28307846D01*
X86972275Y27426894D01*
X85363581Y26077040D01*
X84624375Y26957992D01*
X84624375Y26957992D01*
G37*
D36*
X89676800Y26610000D03*
X89676800Y24070000D03*
X89676800Y21530000D03*
X89676800Y18990000D03*
X92623200Y26610000D03*
X92623200Y24070000D03*
X92623200Y21530000D03*
X92623200Y18990000D03*
M02*
