G04 #@! TF.FileFunction,Profile,NP*
%FSLAX46Y46*%
G04 Gerber Fmt 4.6, Leading zero omitted, Abs format (unit mm)*
G04 Created by KiCad (PCBNEW 4.0.7-e2-6376~58~ubuntu16.04.1) date Wed Apr 25 16:37:15 2018*
%MOMM*%
%LPD*%
G01*
G04 APERTURE LIST*
%ADD10C,0.100000*%
%ADD11C,0.500000*%
G04 APERTURE END LIST*
D10*
D11*
X90550000Y22800000D02*
X90550000Y28800000D01*
X90550000Y16800000D02*
X90550000Y22800000D01*
X91750000Y16800000D02*
X90550000Y16800000D01*
X91750000Y28800000D02*
X91750000Y16800000D01*
X90550000Y28800000D02*
X91750000Y28800000D01*
X6615670Y31219600D02*
X11211900Y27362900D01*
X2019410Y35076400D02*
X6615670Y31219600D01*
X1248060Y34157100D02*
X2019410Y35076400D01*
X10440600Y26443600D02*
X1248060Y34157100D01*
X11211900Y27362900D02*
X10440600Y26443600D01*
X3450000Y28800000D02*
X3450000Y22800000D01*
X2250000Y28800000D02*
X3450000Y28800000D01*
X2250000Y16800000D02*
X2250000Y28800000D01*
X3450000Y16800000D02*
X2250000Y16800000D01*
X3450000Y22800000D02*
X3450000Y16800000D01*
X87026800Y64592D02*
X93935400Y64592D01*
X82526800Y4564590D02*
X87026800Y64592D01*
X11473200Y4564590D02*
X82526800Y4564590D01*
X6973240Y64592D02*
X11473200Y4564590D01*
X64592Y64592D02*
X6973240Y64592D01*
X64592Y13195248D02*
X64592Y64592D01*
X11379500Y14185200D02*
X64592Y13195248D01*
X11274900Y15380700D02*
X11379500Y14185200D01*
X5297710Y14857700D02*
X11274900Y15380700D01*
X64592Y14399892D02*
X5297710Y14857700D01*
X64592Y42435400D02*
X64592Y14399892D01*
X40935400Y42435400D02*
X64592Y42435400D01*
X40935400Y40935400D02*
X40935400Y42435400D01*
X53064600Y40935400D02*
X40935400Y40935400D01*
X53064600Y42435400D02*
X53064600Y40935400D01*
X93935400Y42435400D02*
X53064600Y42435400D01*
X93935400Y14409896D02*
X93935400Y42435400D01*
X88702300Y14867700D02*
X93935400Y14409896D01*
X82725100Y15390700D02*
X88702300Y14867700D01*
X82620500Y14195200D02*
X82725100Y15390700D01*
X93935400Y13205250D02*
X82620500Y14195200D01*
X93935400Y64592D02*
X93935400Y13205250D01*
X91980600Y35086400D02*
X92751900Y34167100D01*
X87384300Y31229600D02*
X91980600Y35086400D01*
X82788100Y27372900D02*
X87384300Y31229600D01*
X83559400Y26453600D02*
X82788100Y27372900D01*
X92751900Y34167100D02*
X83559400Y26453600D01*
M02*
