M48
;DRILL file {KiCad 4.0.7-e2-6376~58~ubuntu16.04.1} date Wed Apr 25 16:37:16 2018
;FORMAT={-:-/ absolute / metric / decimal}
FMAT,2
METRIC,TZ
T1C0.200
T2C0.300
T3C0.400
T4C0.600
T5C0.750
T6C1.200
T7C2.000
%
G90
G05
M71
T1
X11.25Y30.35
X12.Y21.9
X13.Y7.6
X17.25Y39.5
X17.3Y23.4
X18.6Y39.4
X18.6Y23.4
X19.5Y39.5
X20.2Y10.1
X20.328Y39.5
X22.2Y39.423
X22.4Y23.4
X23.027Y39.407
X24.4Y26.2
X27.35Y9.4
X28.15Y9.35
X31.1Y9.4
X35.9Y20.8
X36.6Y21.1
X37.01Y24.669
X37.84Y26.557
X38.275Y25.872
X41.1Y9.95
X41.6Y9.4
X43.4Y12.1
X43.771Y17.441
X45.007Y28.535
X45.738Y28.792
X45.75Y17.438
X46.25Y16.896
X46.4Y8.35
X46.527Y29.284
X46.9Y6.
X47.581Y22.516
X47.9Y16.4
X48.136Y19.604
X48.25Y17.1
X48.4Y15.85
X48.572Y22.562
X48.826Y19.832
X48.9Y16.4
X49.596Y22.412
X49.799Y27.194
X50.215Y12.111
X50.6Y21.4
X50.629Y27.451
X50.942Y12.214
X51.2Y20.7
X51.34Y26.885
X51.678Y21.247
X53.15Y29.675
X53.7Y19.675
X55.25Y11.25
X55.3Y28.2
X55.372Y21.136
X55.55Y13.85
X55.9Y32.2
X56.275Y21.523
X57.259Y21.412
X57.386Y17.685
X62.27Y20.905
X68.75Y11.327
X70.1Y23.45
X70.3Y39.475
X70.314Y8.48
X70.382Y19.431
X70.8Y21.85
X71.151Y20.2
X71.157Y39.483
X71.508Y6.463
X72.473Y39.5
X73.388Y39.479
X73.848Y9.863
X75.4Y39.4
X75.4Y23.45
X76.7Y23.5
X77.289Y36.809
X78.7Y13.7
X91.175Y1.881
T2
X1.5Y6.6
X2.Y7.8
X2.5Y1.4
X4.4Y9.7
X4.4Y5.
X4.5Y39.75
X5.8Y18.1
X6.8Y9.
X7.75Y17.75
X8.1Y19.6
X8.1Y21.
X9.6Y23.4
X11.5Y11.25
X13.5Y17.5
X13.8Y24.9
X14.77Y39.63
X14.8Y23.45
X15.3Y40.3
X15.7Y18.75
X15.83Y39.626
X16.05Y23.45
X20.Y14.
X20.5Y15.8
X25.9Y14.2
X26.35Y12.
X26.35Y8.
X26.6Y6.7
X27.1Y24.9
X27.2Y38.15
X27.75Y38.7
X29.4Y6.7
X29.5Y25.5
X30.9Y14.2
X31.6Y38.5
X34.Y15.
X35.7Y27.5
X35.8Y26.4
X35.8Y14.98
X36.9Y34.748
X37.Y18.2
X37.3Y38.4
X38.5Y14.4
X40.3Y12.6
X40.36Y19.058
X41.1Y14.1
X41.2Y19.568
X41.5Y32.
X42.295Y19.568
X43.329Y15.929
X44.587Y21.033
X44.729Y14.529
X45.496Y16.7
X46.05Y26.3
X46.1Y32.
X46.2Y38.1
X46.2Y34.4
X46.2Y30.3
X48.2Y10.4
X48.65Y14.1
X48.9Y8.5
X49.175Y25.85
X50.261Y17.374
X50.4Y6.
X51.Y16.9
X51.325Y25.875
X51.95Y9.95
X52.3Y8.5
X52.4Y13.9
X52.9Y19.5
X53.3Y31.551
X53.4Y22.875
X53.516Y18.833
X53.67Y14.7
X53.9Y11.8
X55.486Y22.698
X55.8Y38.1
X55.866Y34.734
X56.8Y26.5
X56.8Y18.3
X58.1Y15.3
X58.1Y14.5
X58.5Y26.1
X59.Y8.25
X59.5Y27.901
X59.6Y14.1
X60.1Y13.3
X60.5Y14.1
X60.686Y18.345
X61.Y11.044
X61.4Y25.9
X61.4Y16.9
X62.25Y8.25
X62.7Y22.4
X63.Y20.
X63.6Y15.6
X63.6Y14.6
X63.6Y13.6
X63.7Y24.6
X64.Y9.2
X65.5Y16.9
X66.8Y16.
X67.8Y23.5
X67.8Y39.5
X68.35Y22.95
X68.75Y39.5
X68.9Y22.4
X69.2Y14.5
X69.65Y9.181
X70.5Y6.56
X74.9Y16.2
X74.9Y5.9
X75.5Y10.
X75.989Y20.373
X77.8Y7.
X78.Y8.284
X79.2Y36.7
X79.755Y15.615
X80.35Y24.9
X82.1Y22.5
X82.85Y31.4
X83.5Y10.5
X83.8Y18.
X84.2Y21.4
X84.6Y35.3
X85.2Y22.4
X86.Y10.
X86.2Y4.8
X86.7Y1.6
X86.9Y25.6
X86.9Y24.1
X86.9Y21.55
X88.375Y19.
X88.4Y7.7
X89.Y1.4
X89.25Y11.5
X90.9Y9.2
X92.5Y7.7
X92.5Y6.4
X92.5Y5.
T3
X19.7Y18.6
X24.1Y39.9
X24.9Y39.6
X25.7Y39.9
X25.8Y21.4
X27.2Y21.4
X30.922Y21.4
X38.2Y30.
X55.45Y6.25
X56.375Y6.25
X57.3Y6.25
X58.25Y31.9
X70.5Y13.
X74.1Y26.3
X74.934Y21.8
X76.2Y21.8
X77.Y40.5
X77.9Y39.6
X77.9Y40.5
X80.Y23.5
X80.Y22.5
X80.Y21.5
X80.Y20.5
T4
X12.88Y35.31
X12.88Y34.04
X12.88Y28.96
X12.88Y27.69
X14.15Y35.31
X14.15Y34.04
X14.15Y28.96
X14.15Y27.69
X15.42Y35.31
X15.42Y34.04
X15.42Y32.77
X15.42Y31.5
X15.42Y30.23
X15.42Y28.96
X15.42Y27.69
X16.69Y35.31
X16.69Y27.69
X17.96Y35.31
X17.96Y34.04
X17.96Y32.77
X17.96Y31.5
X17.96Y30.23
X17.96Y28.96
X17.96Y27.69
X19.23Y35.31
X19.23Y27.69
X20.5Y35.31
X20.5Y34.04
X20.5Y32.77
X20.5Y31.5
X20.5Y30.23
X20.5Y28.96
X20.5Y27.69
X21.77Y35.31
X21.77Y27.69
X23.04Y35.31
X23.04Y34.04
X23.04Y32.77
X23.04Y31.5
X23.04Y30.23
X23.04Y28.96
X23.04Y27.69
X24.31Y35.31
X24.31Y27.69
X25.58Y35.31
X25.58Y34.04
X25.58Y32.77
X25.58Y31.5
X25.58Y30.23
X25.58Y28.96
X25.58Y27.69
X26.85Y35.31
X26.85Y34.04
X26.85Y28.96
X26.85Y27.69
X28.12Y35.31
X28.12Y34.04
X28.12Y28.96
X28.12Y27.69
X65.88Y35.31
X65.88Y34.04
X65.88Y28.96
X65.88Y27.69
X67.15Y35.31
X67.15Y34.04
X67.15Y28.96
X67.15Y27.69
X68.42Y35.31
X68.42Y34.04
X68.42Y32.77
X68.42Y31.5
X68.42Y30.23
X68.42Y28.96
X68.42Y27.69
X69.69Y35.31
X69.69Y27.69
X70.96Y35.31
X70.96Y34.04
X70.96Y32.77
X70.96Y31.5
X70.96Y30.23
X70.96Y28.96
X70.96Y27.69
X72.23Y35.31
X72.23Y27.69
X73.5Y35.31
X73.5Y34.04
X73.5Y32.77
X73.5Y31.5
X73.5Y30.23
X73.5Y28.96
X73.5Y27.69
X74.77Y35.31
X74.77Y27.69
X76.04Y35.31
X76.04Y34.04
X76.04Y32.77
X76.04Y31.5
X76.04Y30.23
X76.04Y28.96
X76.04Y27.69
X77.31Y35.31
X77.31Y27.69
X78.58Y35.31
X78.58Y34.04
X78.58Y32.77
X78.58Y31.5
X78.58Y30.23
X78.58Y28.96
X78.58Y27.69
X79.85Y35.31
X79.85Y34.04
X79.85Y28.96
X79.85Y27.69
X81.12Y35.31
X81.12Y34.04
X81.12Y28.96
X81.12Y27.69
T5
X1.377Y26.61
X1.377Y24.07
X1.377Y21.53
X1.377Y18.99
X1.426Y15.396
X1.683Y12.46
X2.364Y32.08
X3.956Y15.617
X4.213Y12.682
X4.258Y34.338
X4.31Y30.448
X4.323Y26.61
X4.323Y24.07
X4.323Y21.53
X4.323Y18.99
X6.204Y32.705
X6.256Y28.815
X6.487Y15.838
X6.744Y12.903
X8.15Y31.072
X8.202Y27.182
X9.017Y16.06
X9.274Y13.124
X10.096Y29.44
X83.904Y29.45
X84.726Y13.134
X84.983Y16.07
X85.798Y27.192
X85.85Y31.082
X87.256Y12.913
X87.513Y15.848
X87.744Y28.825
X87.796Y32.715
X89.677Y26.61
X89.677Y24.07
X89.677Y21.53
X89.677Y18.99
X89.69Y30.458
X89.742Y34.348
X89.787Y12.692
X90.044Y15.627
X91.636Y32.09
X92.317Y12.47
X92.574Y15.406
X92.623Y26.61
X92.623Y24.07
X92.623Y21.53
X92.623Y18.99
T6
X72.25Y12.
X75.35Y12.
T7
X8.Y38.5
X14.Y10.5
X80.Y10.5
X86.Y38.5
T0
M30
