G04 #@! TF.FileFunction,Soldermask,Top*
%FSLAX46Y46*%
G04 Gerber Fmt 4.6, Leading zero omitted, Abs format (unit mm)*
G04 Created by KiCad (PCBNEW 4.0.7-e2-6376~58~ubuntu16.04.1) date Sun Apr 22 01:14:24 2018*
%MOMM*%
%LPD*%
G01*
G04 APERTURE LIST*
%ADD10C,0.100000*%
%ADD11C,0.300000*%
%ADD12C,0.127000*%
%ADD13C,0.010000*%
%ADD14C,4.000000*%
%ADD15R,2.700000X2.550000*%
%ADD16R,0.850000X2.650000*%
%ADD17R,0.850000X3.550000*%
%ADD18R,4.700000X1.200000*%
%ADD19R,1.000000X1.300000*%
%ADD20R,1.000000X1.200000*%
%ADD21R,1.000000X0.300000*%
%ADD22R,0.825000X0.950000*%
%ADD23R,1.060000X0.400000*%
%ADD24R,0.300000X0.850000*%
%ADD25R,0.850000X0.300000*%
%ADD26R,1.300000X1.300000*%
%ADD27R,1.000000X1.600000*%
%ADD28R,0.500000X0.600000*%
%ADD29R,0.800000X0.750000*%
%ADD30R,0.750000X0.800000*%
%ADD31R,2.500000X1.000000*%
%ADD32R,0.600000X0.500000*%
%ADD33R,0.600000X0.700000*%
%ADD34R,0.800000X0.800000*%
%ADD35R,0.400000X0.600000*%
%ADD36R,0.600000X0.400000*%
%ADD37R,0.300000X1.250000*%
%ADD38R,2.400000X2.200000*%
%ADD39R,1.300000X0.850000*%
%ADD40R,0.800000X1.600000*%
%ADD41R,1.600000X1.800000*%
%ADD42R,0.860000X1.930000*%
%ADD43R,2.500000X3.400000*%
%ADD44R,1.270000X6.400000*%
%ADD45O,0.740000X2.800000*%
%ADD46R,0.740000X2.800000*%
%ADD47R,2.000000X2.000000*%
%ADD48O,2.000000X2.000000*%
G04 APERTURE END LIST*
D10*
D11*
X76071428Y792857D02*
X74928571Y792857D01*
X75500000Y221429D02*
X75500000Y1364286D01*
D12*
X66000001Y21571833D02*
X66000001Y22271833D01*
X66000001Y21938500D02*
X66400001Y21938500D01*
X66400001Y21571833D02*
X66400001Y22271833D01*
X66733334Y21571833D02*
X66733334Y22271833D01*
X66966667Y21771833D01*
X67200000Y22271833D01*
X67200000Y21571833D01*
X65100000Y20861500D02*
X65266667Y20394833D01*
X65433333Y20861500D01*
X66066666Y20394833D02*
X65666666Y20394833D01*
X65866666Y20394833D02*
X65866666Y21094833D01*
X65800000Y20994833D01*
X65733333Y20928167D01*
X65666666Y20894833D01*
X66366667Y20461500D02*
X66400000Y20428167D01*
X66366667Y20394833D01*
X66333333Y20428167D01*
X66366667Y20461500D01*
X66366667Y20394833D01*
X67066666Y20394833D02*
X66666666Y20394833D01*
X66866666Y20394833D02*
X66866666Y21094833D01*
X66800000Y20994833D01*
X66733333Y20928167D01*
X66666666Y20894833D01*
X67366667Y20461500D02*
X67400000Y20428167D01*
X67366667Y20394833D01*
X67333333Y20428167D01*
X67366667Y20461500D01*
X67366667Y20394833D01*
X67833333Y21094833D02*
X67900000Y21094833D01*
X67966666Y21061500D01*
X68000000Y21028167D01*
X68033333Y20961500D01*
X68066666Y20828167D01*
X68066666Y20661500D01*
X68033333Y20528167D01*
X68000000Y20461500D01*
X67966666Y20428167D01*
X67900000Y20394833D01*
X67833333Y20394833D01*
X67766666Y20428167D01*
X67733333Y20461500D01*
X67700000Y20528167D01*
X67666666Y20661500D01*
X67666666Y20828167D01*
X67700000Y20961500D01*
X67733333Y21028167D01*
X67766666Y21061500D01*
X67833333Y21094833D01*
D10*
X90550000Y22800000D02*
X90550000Y28800000D01*
X90550000Y16800000D02*
X90550000Y22800000D01*
X91750000Y16800000D02*
X90550000Y16800000D01*
X91750000Y28800000D02*
X91750000Y16800000D01*
X90550000Y28800000D02*
X91750000Y28800000D01*
X6615670Y31219600D02*
X11211900Y27362900D01*
X2019410Y35076400D02*
X6615670Y31219600D01*
X1248060Y34157100D02*
X2019410Y35076400D01*
X10440600Y26443600D02*
X1248060Y34157100D01*
X11211900Y27362900D02*
X10440600Y26443600D01*
X3450000Y28800000D02*
X3450000Y22800000D01*
X2250000Y28800000D02*
X3450000Y28800000D01*
X2250000Y16800000D02*
X2250000Y28800000D01*
X3450000Y16800000D02*
X2250000Y16800000D01*
X3450000Y22800000D02*
X3450000Y16800000D01*
X87026800Y64592D02*
X93935400Y64592D01*
X82526800Y4564590D02*
X87026800Y64592D01*
X11473200Y4564590D02*
X82526800Y4564590D01*
X6973240Y64592D02*
X11473200Y4564590D01*
X64592Y64592D02*
X6973240Y64592D01*
X64592Y13195248D02*
X64592Y64592D01*
X11379500Y14185200D02*
X64592Y13195248D01*
X11274900Y15380700D02*
X11379500Y14185200D01*
X5297710Y14857700D02*
X11274900Y15380700D01*
X64592Y14399892D02*
X5297710Y14857700D01*
X64592Y42435400D02*
X64592Y14399892D01*
X40935400Y42435400D02*
X64592Y42435400D01*
X40935400Y40935400D02*
X40935400Y42435400D01*
X53064600Y40935400D02*
X40935400Y40935400D01*
X53064600Y42435400D02*
X53064600Y40935400D01*
X93935400Y42435400D02*
X53064600Y42435400D01*
X93935400Y14409896D02*
X93935400Y42435400D01*
X88702300Y14867700D02*
X93935400Y14409896D01*
X82725100Y15390700D02*
X88702300Y14867700D01*
X82620500Y14195200D02*
X82725100Y15390700D01*
X93935400Y13205250D02*
X82620500Y14195200D01*
X93935400Y64592D02*
X93935400Y13205250D01*
X91980600Y35086400D02*
X92751900Y34167100D01*
X87384300Y31229600D02*
X91980600Y35086400D01*
X82788100Y27372900D02*
X87384300Y31229600D01*
X83559400Y26453600D02*
X82788100Y27372900D01*
X92751900Y34167100D02*
X83559400Y26453600D01*
D13*
G36*
X24238834Y12793766D02*
X24334346Y12793682D01*
X24419981Y12793527D01*
X24496304Y12793283D01*
X24563881Y12792929D01*
X24623274Y12792448D01*
X24675050Y12791821D01*
X24719773Y12791029D01*
X24758008Y12790053D01*
X24790319Y12788874D01*
X24817271Y12787474D01*
X24839428Y12785834D01*
X24857356Y12783935D01*
X24871619Y12781758D01*
X24882782Y12779285D01*
X24891409Y12776497D01*
X24898066Y12773375D01*
X24903316Y12769899D01*
X24907724Y12766053D01*
X24911856Y12761815D01*
X24916276Y12757169D01*
X24918659Y12754795D01*
X24939950Y12734159D01*
X24939950Y12327318D01*
X24939933Y12245126D01*
X24939865Y12174669D01*
X24939719Y12114983D01*
X24939470Y12065102D01*
X24939091Y12024062D01*
X24938557Y11990898D01*
X24937840Y11964646D01*
X24936914Y11944341D01*
X24935754Y11929018D01*
X24934334Y11917712D01*
X24932626Y11909458D01*
X24930605Y11903292D01*
X24928298Y11898351D01*
X24914586Y11880358D01*
X24896742Y11866087D01*
X24894961Y11865123D01*
X24891367Y11863567D01*
X24886550Y11862163D01*
X24879875Y11860903D01*
X24870709Y11859779D01*
X24858417Y11858784D01*
X24842368Y11857910D01*
X24821926Y11857149D01*
X24796458Y11856494D01*
X24765331Y11855936D01*
X24727911Y11855468D01*
X24683563Y11855081D01*
X24631656Y11854769D01*
X24571554Y11854524D01*
X24502624Y11854337D01*
X24424233Y11854201D01*
X24335746Y11854108D01*
X24236531Y11854051D01*
X24125953Y11854021D01*
X24003379Y11854011D01*
X23989037Y11854010D01*
X23104800Y11854000D01*
X23104800Y11720780D01*
X24003181Y11719128D01*
X24901562Y11717475D01*
X24919168Y11699870D01*
X24936775Y11682264D01*
X24938665Y11071220D01*
X24938964Y10954152D01*
X24939099Y10849576D01*
X24939067Y10757287D01*
X24938867Y10677076D01*
X24938496Y10608738D01*
X24937955Y10552067D01*
X24937240Y10506855D01*
X24936351Y10472896D01*
X24935286Y10449984D01*
X24934043Y10437912D01*
X24933787Y10436831D01*
X24920203Y10411083D01*
X24897319Y10389856D01*
X24868440Y10376114D01*
X24865048Y10375189D01*
X24856236Y10374531D01*
X24835530Y10373874D01*
X24803733Y10373220D01*
X24761652Y10372572D01*
X24710092Y10371932D01*
X24649859Y10371303D01*
X24581756Y10370689D01*
X24506589Y10370092D01*
X24425165Y10369515D01*
X24338287Y10368961D01*
X24246761Y10368433D01*
X24151392Y10367933D01*
X24052986Y10367465D01*
X23952347Y10367031D01*
X23850282Y10366634D01*
X23747594Y10366278D01*
X23645089Y10365964D01*
X23543573Y10365695D01*
X23443851Y10365476D01*
X23346727Y10365308D01*
X23253007Y10365194D01*
X23163497Y10365137D01*
X23079001Y10365140D01*
X23000324Y10365206D01*
X22928273Y10365338D01*
X22863651Y10365539D01*
X22807265Y10365811D01*
X22759919Y10366157D01*
X22722419Y10366580D01*
X22695570Y10367083D01*
X22684231Y10367454D01*
X22649280Y10369090D01*
X22624624Y10370741D01*
X22607870Y10372896D01*
X22596621Y10376044D01*
X22588482Y10380675D01*
X22581058Y10387279D01*
X22579456Y10388873D01*
X22561875Y10406470D01*
X22560008Y10587310D01*
X22558142Y10768150D01*
X24425600Y10768150D01*
X24425600Y10895150D01*
X24306537Y10896077D01*
X24285144Y10896224D01*
X24251956Y10896425D01*
X24207880Y10896675D01*
X24153819Y10896970D01*
X24090680Y10897305D01*
X24019368Y10897675D01*
X23940787Y10898077D01*
X23855845Y10898504D01*
X23765445Y10898953D01*
X23670493Y10899420D01*
X23571894Y10899898D01*
X23470554Y10900385D01*
X23374675Y10900840D01*
X22561875Y10904675D01*
X22558645Y12323901D01*
X23492122Y12323901D01*
X24425600Y12323900D01*
X24425600Y12457208D01*
X23493737Y12458817D01*
X22561875Y12460425D01*
X22560139Y12573497D01*
X22559910Y12615815D01*
X22560518Y12653382D01*
X22561880Y12683933D01*
X22563914Y12705203D01*
X22565169Y12711693D01*
X22577644Y12739849D01*
X22597418Y12764562D01*
X22621162Y12782169D01*
X22633834Y12787261D01*
X22643707Y12788205D01*
X22666228Y12789077D01*
X22701347Y12789875D01*
X22749011Y12790600D01*
X22809170Y12791251D01*
X22881772Y12791828D01*
X22966766Y12792330D01*
X23064101Y12792758D01*
X23173725Y12793110D01*
X23295587Y12793388D01*
X23429636Y12793589D01*
X23575820Y12793715D01*
X23734088Y12793764D01*
X23746728Y12793765D01*
X23887393Y12793778D01*
X24015922Y12793795D01*
X24132881Y12793797D01*
X24238834Y12793766D01*
X24238834Y12793766D01*
G37*
X24238834Y12793766D02*
X24334346Y12793682D01*
X24419981Y12793527D01*
X24496304Y12793283D01*
X24563881Y12792929D01*
X24623274Y12792448D01*
X24675050Y12791821D01*
X24719773Y12791029D01*
X24758008Y12790053D01*
X24790319Y12788874D01*
X24817271Y12787474D01*
X24839428Y12785834D01*
X24857356Y12783935D01*
X24871619Y12781758D01*
X24882782Y12779285D01*
X24891409Y12776497D01*
X24898066Y12773375D01*
X24903316Y12769899D01*
X24907724Y12766053D01*
X24911856Y12761815D01*
X24916276Y12757169D01*
X24918659Y12754795D01*
X24939950Y12734159D01*
X24939950Y12327318D01*
X24939933Y12245126D01*
X24939865Y12174669D01*
X24939719Y12114983D01*
X24939470Y12065102D01*
X24939091Y12024062D01*
X24938557Y11990898D01*
X24937840Y11964646D01*
X24936914Y11944341D01*
X24935754Y11929018D01*
X24934334Y11917712D01*
X24932626Y11909458D01*
X24930605Y11903292D01*
X24928298Y11898351D01*
X24914586Y11880358D01*
X24896742Y11866087D01*
X24894961Y11865123D01*
X24891367Y11863567D01*
X24886550Y11862163D01*
X24879875Y11860903D01*
X24870709Y11859779D01*
X24858417Y11858784D01*
X24842368Y11857910D01*
X24821926Y11857149D01*
X24796458Y11856494D01*
X24765331Y11855936D01*
X24727911Y11855468D01*
X24683563Y11855081D01*
X24631656Y11854769D01*
X24571554Y11854524D01*
X24502624Y11854337D01*
X24424233Y11854201D01*
X24335746Y11854108D01*
X24236531Y11854051D01*
X24125953Y11854021D01*
X24003379Y11854011D01*
X23989037Y11854010D01*
X23104800Y11854000D01*
X23104800Y11720780D01*
X24003181Y11719128D01*
X24901562Y11717475D01*
X24919168Y11699870D01*
X24936775Y11682264D01*
X24938665Y11071220D01*
X24938964Y10954152D01*
X24939099Y10849576D01*
X24939067Y10757287D01*
X24938867Y10677076D01*
X24938496Y10608738D01*
X24937955Y10552067D01*
X24937240Y10506855D01*
X24936351Y10472896D01*
X24935286Y10449984D01*
X24934043Y10437912D01*
X24933787Y10436831D01*
X24920203Y10411083D01*
X24897319Y10389856D01*
X24868440Y10376114D01*
X24865048Y10375189D01*
X24856236Y10374531D01*
X24835530Y10373874D01*
X24803733Y10373220D01*
X24761652Y10372572D01*
X24710092Y10371932D01*
X24649859Y10371303D01*
X24581756Y10370689D01*
X24506589Y10370092D01*
X24425165Y10369515D01*
X24338287Y10368961D01*
X24246761Y10368433D01*
X24151392Y10367933D01*
X24052986Y10367465D01*
X23952347Y10367031D01*
X23850282Y10366634D01*
X23747594Y10366278D01*
X23645089Y10365964D01*
X23543573Y10365695D01*
X23443851Y10365476D01*
X23346727Y10365308D01*
X23253007Y10365194D01*
X23163497Y10365137D01*
X23079001Y10365140D01*
X23000324Y10365206D01*
X22928273Y10365338D01*
X22863651Y10365539D01*
X22807265Y10365811D01*
X22759919Y10366157D01*
X22722419Y10366580D01*
X22695570Y10367083D01*
X22684231Y10367454D01*
X22649280Y10369090D01*
X22624624Y10370741D01*
X22607870Y10372896D01*
X22596621Y10376044D01*
X22588482Y10380675D01*
X22581058Y10387279D01*
X22579456Y10388873D01*
X22561875Y10406470D01*
X22560008Y10587310D01*
X22558142Y10768150D01*
X24425600Y10768150D01*
X24425600Y10895150D01*
X24306537Y10896077D01*
X24285144Y10896224D01*
X24251956Y10896425D01*
X24207880Y10896675D01*
X24153819Y10896970D01*
X24090680Y10897305D01*
X24019368Y10897675D01*
X23940787Y10898077D01*
X23855845Y10898504D01*
X23765445Y10898953D01*
X23670493Y10899420D01*
X23571894Y10899898D01*
X23470554Y10900385D01*
X23374675Y10900840D01*
X22561875Y10904675D01*
X22558645Y12323901D01*
X23492122Y12323901D01*
X24425600Y12323900D01*
X24425600Y12457208D01*
X23493737Y12458817D01*
X22561875Y12460425D01*
X22560139Y12573497D01*
X22559910Y12615815D01*
X22560518Y12653382D01*
X22561880Y12683933D01*
X22563914Y12705203D01*
X22565169Y12711693D01*
X22577644Y12739849D01*
X22597418Y12764562D01*
X22621162Y12782169D01*
X22633834Y12787261D01*
X22643707Y12788205D01*
X22666228Y12789077D01*
X22701347Y12789875D01*
X22749011Y12790600D01*
X22809170Y12791251D01*
X22881772Y12791828D01*
X22966766Y12792330D01*
X23064101Y12792758D01*
X23173725Y12793110D01*
X23295587Y12793388D01*
X23429636Y12793589D01*
X23575820Y12793715D01*
X23734088Y12793764D01*
X23746728Y12793765D01*
X23887393Y12793778D01*
X24015922Y12793795D01*
X24132881Y12793797D01*
X24238834Y12793766D01*
G36*
X19000499Y12790619D02*
X19100132Y12790554D01*
X19189823Y12790434D01*
X19270125Y12790245D01*
X19341590Y12789972D01*
X19404770Y12789600D01*
X19460216Y12789114D01*
X19508480Y12788501D01*
X19550114Y12787744D01*
X19585670Y12786830D01*
X19615700Y12785744D01*
X19640755Y12784471D01*
X19661387Y12782996D01*
X19678148Y12781305D01*
X19691590Y12779383D01*
X19702265Y12777215D01*
X19710725Y12774787D01*
X19717520Y12772084D01*
X19723204Y12769091D01*
X19728328Y12765794D01*
X19733444Y12762178D01*
X19739103Y12758227D01*
X19740372Y12757380D01*
X19758770Y12742162D01*
X19776738Y12722615D01*
X19781647Y12716047D01*
X19799625Y12690100D01*
X19799625Y12333963D01*
X19799623Y12254221D01*
X19799549Y12186142D01*
X19799297Y12128687D01*
X19798762Y12080817D01*
X19797840Y12041495D01*
X19796424Y12009683D01*
X19794411Y11984342D01*
X19791695Y11964435D01*
X19788172Y11948923D01*
X19783735Y11936769D01*
X19778281Y11926934D01*
X19771704Y11918381D01*
X19763899Y11910070D01*
X19755945Y11902147D01*
X19750131Y11896045D01*
X19745118Y11890523D01*
X19740278Y11885551D01*
X19734982Y11881100D01*
X19728601Y11877139D01*
X19720508Y11873638D01*
X19710075Y11870568D01*
X19696672Y11867898D01*
X19679672Y11865597D01*
X19658447Y11863637D01*
X19632367Y11861987D01*
X19600806Y11860616D01*
X19563133Y11859496D01*
X19518722Y11858595D01*
X19466944Y11857885D01*
X19407170Y11857334D01*
X19338772Y11856913D01*
X19261123Y11856591D01*
X19173593Y11856339D01*
X19075554Y11856127D01*
X18966378Y11855924D01*
X18845437Y11855701D01*
X18782037Y11855576D01*
X17885100Y11853745D01*
X17885100Y12330250D01*
X19307500Y12330250D01*
X19307500Y12463600D01*
X17751750Y12463600D01*
X17751750Y10368100D01*
X17531087Y10368240D01*
X17471644Y10368326D01*
X17423511Y10368545D01*
X17385298Y10368964D01*
X17355615Y10369650D01*
X17333072Y10370671D01*
X17316278Y10372092D01*
X17303845Y10373983D01*
X17294381Y10376408D01*
X17286497Y10379435D01*
X17285025Y10380102D01*
X17252919Y10400625D01*
X17229982Y10429120D01*
X17221828Y10445771D01*
X17220581Y10449747D01*
X17219443Y10455811D01*
X17218409Y10464518D01*
X17217473Y10476422D01*
X17216632Y10492077D01*
X17215879Y10512038D01*
X17215211Y10536859D01*
X17214622Y10567095D01*
X17214108Y10603299D01*
X17213664Y10646027D01*
X17213284Y10695833D01*
X17212965Y10753271D01*
X17212702Y10818896D01*
X17212488Y10893261D01*
X17212321Y10976922D01*
X17212194Y11070433D01*
X17212104Y11174348D01*
X17212044Y11289221D01*
X17212011Y11415608D01*
X17212000Y11554062D01*
X17212000Y11574600D01*
X17212013Y11717144D01*
X17212058Y11847505D01*
X17212136Y11966201D01*
X17212253Y12073751D01*
X17212411Y12170671D01*
X17212616Y12257480D01*
X17212871Y12334696D01*
X17213180Y12402836D01*
X17213547Y12462417D01*
X17213975Y12513958D01*
X17214470Y12557977D01*
X17215034Y12594990D01*
X17215672Y12625517D01*
X17216387Y12650073D01*
X17217184Y12669178D01*
X17218066Y12683349D01*
X17219038Y12693104D01*
X17220103Y12698960D01*
X17220562Y12700342D01*
X17240446Y12733541D01*
X17268864Y12762211D01*
X17290586Y12776616D01*
X17316775Y12790625D01*
X18491525Y12790625D01*
X18636439Y12790632D01*
X18769205Y12790643D01*
X18890374Y12790644D01*
X19000499Y12790619D01*
X19000499Y12790619D01*
G37*
X19000499Y12790619D02*
X19100132Y12790554D01*
X19189823Y12790434D01*
X19270125Y12790245D01*
X19341590Y12789972D01*
X19404770Y12789600D01*
X19460216Y12789114D01*
X19508480Y12788501D01*
X19550114Y12787744D01*
X19585670Y12786830D01*
X19615700Y12785744D01*
X19640755Y12784471D01*
X19661387Y12782996D01*
X19678148Y12781305D01*
X19691590Y12779383D01*
X19702265Y12777215D01*
X19710725Y12774787D01*
X19717520Y12772084D01*
X19723204Y12769091D01*
X19728328Y12765794D01*
X19733444Y12762178D01*
X19739103Y12758227D01*
X19740372Y12757380D01*
X19758770Y12742162D01*
X19776738Y12722615D01*
X19781647Y12716047D01*
X19799625Y12690100D01*
X19799625Y12333963D01*
X19799623Y12254221D01*
X19799549Y12186142D01*
X19799297Y12128687D01*
X19798762Y12080817D01*
X19797840Y12041495D01*
X19796424Y12009683D01*
X19794411Y11984342D01*
X19791695Y11964435D01*
X19788172Y11948923D01*
X19783735Y11936769D01*
X19778281Y11926934D01*
X19771704Y11918381D01*
X19763899Y11910070D01*
X19755945Y11902147D01*
X19750131Y11896045D01*
X19745118Y11890523D01*
X19740278Y11885551D01*
X19734982Y11881100D01*
X19728601Y11877139D01*
X19720508Y11873638D01*
X19710075Y11870568D01*
X19696672Y11867898D01*
X19679672Y11865597D01*
X19658447Y11863637D01*
X19632367Y11861987D01*
X19600806Y11860616D01*
X19563133Y11859496D01*
X19518722Y11858595D01*
X19466944Y11857885D01*
X19407170Y11857334D01*
X19338772Y11856913D01*
X19261123Y11856591D01*
X19173593Y11856339D01*
X19075554Y11856127D01*
X18966378Y11855924D01*
X18845437Y11855701D01*
X18782037Y11855576D01*
X17885100Y11853745D01*
X17885100Y12330250D01*
X19307500Y12330250D01*
X19307500Y12463600D01*
X17751750Y12463600D01*
X17751750Y10368100D01*
X17531087Y10368240D01*
X17471644Y10368326D01*
X17423511Y10368545D01*
X17385298Y10368964D01*
X17355615Y10369650D01*
X17333072Y10370671D01*
X17316278Y10372092D01*
X17303845Y10373983D01*
X17294381Y10376408D01*
X17286497Y10379435D01*
X17285025Y10380102D01*
X17252919Y10400625D01*
X17229982Y10429120D01*
X17221828Y10445771D01*
X17220581Y10449747D01*
X17219443Y10455811D01*
X17218409Y10464518D01*
X17217473Y10476422D01*
X17216632Y10492077D01*
X17215879Y10512038D01*
X17215211Y10536859D01*
X17214622Y10567095D01*
X17214108Y10603299D01*
X17213664Y10646027D01*
X17213284Y10695833D01*
X17212965Y10753271D01*
X17212702Y10818896D01*
X17212488Y10893261D01*
X17212321Y10976922D01*
X17212194Y11070433D01*
X17212104Y11174348D01*
X17212044Y11289221D01*
X17212011Y11415608D01*
X17212000Y11554062D01*
X17212000Y11574600D01*
X17212013Y11717144D01*
X17212058Y11847505D01*
X17212136Y11966201D01*
X17212253Y12073751D01*
X17212411Y12170671D01*
X17212616Y12257480D01*
X17212871Y12334696D01*
X17213180Y12402836D01*
X17213547Y12462417D01*
X17213975Y12513958D01*
X17214470Y12557977D01*
X17215034Y12594990D01*
X17215672Y12625517D01*
X17216387Y12650073D01*
X17217184Y12669178D01*
X17218066Y12683349D01*
X17219038Y12693104D01*
X17220103Y12698960D01*
X17220562Y12700342D01*
X17240446Y12733541D01*
X17268864Y12762211D01*
X17290586Y12776616D01*
X17316775Y12790625D01*
X18491525Y12790625D01*
X18636439Y12790632D01*
X18769205Y12790643D01*
X18890374Y12790644D01*
X19000499Y12790619D01*
G36*
X18788387Y11719169D02*
X19691675Y11717475D01*
X19729775Y11698425D01*
X19752476Y11685829D01*
X19767388Y11673396D01*
X19778726Y11657157D01*
X19783750Y11647625D01*
X19799625Y11615875D01*
X19799625Y11041200D01*
X19799622Y10940007D01*
X19799590Y10850720D01*
X19799489Y10772549D01*
X19799281Y10704701D01*
X19798929Y10646382D01*
X19798393Y10596802D01*
X19797635Y10555167D01*
X19796618Y10520686D01*
X19795303Y10492564D01*
X19793651Y10470011D01*
X19791625Y10452234D01*
X19789186Y10438440D01*
X19786295Y10427837D01*
X19782915Y10419632D01*
X19779007Y10413034D01*
X19774533Y10407249D01*
X19769455Y10401485D01*
X19768680Y10400620D01*
X19764828Y10396119D01*
X19761299Y10392054D01*
X19757463Y10388401D01*
X19752688Y10385139D01*
X19746343Y10382246D01*
X19737795Y10379700D01*
X19726414Y10377480D01*
X19711569Y10375564D01*
X19692627Y10373930D01*
X19668958Y10372555D01*
X19639930Y10371419D01*
X19604912Y10370499D01*
X19563272Y10369773D01*
X19514380Y10369221D01*
X19457602Y10368819D01*
X19392309Y10368546D01*
X19317869Y10368380D01*
X19233650Y10368300D01*
X19139021Y10368283D01*
X19033351Y10368308D01*
X18916008Y10368353D01*
X18836216Y10368381D01*
X18712950Y10368426D01*
X18601745Y10368482D01*
X18501963Y10368558D01*
X18412965Y10368663D01*
X18334112Y10368806D01*
X18264766Y10368995D01*
X18204287Y10369239D01*
X18152038Y10369546D01*
X18107379Y10369924D01*
X18069672Y10370384D01*
X18038278Y10370932D01*
X18012559Y10371578D01*
X17991875Y10372330D01*
X17975589Y10373196D01*
X17963061Y10374187D01*
X17953652Y10375309D01*
X17946725Y10376572D01*
X17941640Y10377984D01*
X17937759Y10379554D01*
X17935900Y10380491D01*
X17917346Y10394261D01*
X17901988Y10411924D01*
X17900975Y10413547D01*
X17898285Y10418414D01*
X17896004Y10423986D01*
X17894099Y10431287D01*
X17892535Y10441342D01*
X17891279Y10455175D01*
X17890298Y10473811D01*
X17889557Y10498275D01*
X17889022Y10529590D01*
X17888661Y10568781D01*
X17888440Y10616874D01*
X17888324Y10674891D01*
X17888280Y10743858D01*
X17888275Y10799900D01*
X17888275Y11165025D01*
X17904150Y11196775D01*
X17919471Y11221178D01*
X17938027Y11237140D01*
X17945425Y11241225D01*
X17949894Y11243321D01*
X17954928Y11245176D01*
X17961297Y11246807D01*
X17969772Y11248232D01*
X17981124Y11249468D01*
X17996123Y11250531D01*
X18015541Y11251440D01*
X18040147Y11252211D01*
X18070712Y11252862D01*
X18108008Y11253409D01*
X18152805Y11253871D01*
X18205873Y11254264D01*
X18267984Y11254605D01*
X18339907Y11254912D01*
X18422415Y11255202D01*
X18516276Y11255493D01*
X18594138Y11255720D01*
X19217452Y11257514D01*
X19219854Y11068395D01*
X19220388Y11020574D01*
X19220735Y10976879D01*
X19220895Y10938921D01*
X19220865Y10908310D01*
X19220643Y10886657D01*
X19220228Y10875570D01*
X19220053Y10874513D01*
X19213502Y10873732D01*
X19195260Y10872990D01*
X19166335Y10872299D01*
X19127737Y10871669D01*
X19080474Y10871110D01*
X19025555Y10870633D01*
X18963988Y10870248D01*
X18896783Y10869966D01*
X18824948Y10869797D01*
X18761025Y10869750D01*
X18304200Y10869750D01*
X18304200Y10755450D01*
X19326550Y10755450D01*
X19326550Y11390450D01*
X17885100Y11390450D01*
X17885100Y11720863D01*
X18788387Y11719169D01*
X18788387Y11719169D01*
G37*
X18788387Y11719169D02*
X19691675Y11717475D01*
X19729775Y11698425D01*
X19752476Y11685829D01*
X19767388Y11673396D01*
X19778726Y11657157D01*
X19783750Y11647625D01*
X19799625Y11615875D01*
X19799625Y11041200D01*
X19799622Y10940007D01*
X19799590Y10850720D01*
X19799489Y10772549D01*
X19799281Y10704701D01*
X19798929Y10646382D01*
X19798393Y10596802D01*
X19797635Y10555167D01*
X19796618Y10520686D01*
X19795303Y10492564D01*
X19793651Y10470011D01*
X19791625Y10452234D01*
X19789186Y10438440D01*
X19786295Y10427837D01*
X19782915Y10419632D01*
X19779007Y10413034D01*
X19774533Y10407249D01*
X19769455Y10401485D01*
X19768680Y10400620D01*
X19764828Y10396119D01*
X19761299Y10392054D01*
X19757463Y10388401D01*
X19752688Y10385139D01*
X19746343Y10382246D01*
X19737795Y10379700D01*
X19726414Y10377480D01*
X19711569Y10375564D01*
X19692627Y10373930D01*
X19668958Y10372555D01*
X19639930Y10371419D01*
X19604912Y10370499D01*
X19563272Y10369773D01*
X19514380Y10369221D01*
X19457602Y10368819D01*
X19392309Y10368546D01*
X19317869Y10368380D01*
X19233650Y10368300D01*
X19139021Y10368283D01*
X19033351Y10368308D01*
X18916008Y10368353D01*
X18836216Y10368381D01*
X18712950Y10368426D01*
X18601745Y10368482D01*
X18501963Y10368558D01*
X18412965Y10368663D01*
X18334112Y10368806D01*
X18264766Y10368995D01*
X18204287Y10369239D01*
X18152038Y10369546D01*
X18107379Y10369924D01*
X18069672Y10370384D01*
X18038278Y10370932D01*
X18012559Y10371578D01*
X17991875Y10372330D01*
X17975589Y10373196D01*
X17963061Y10374187D01*
X17953652Y10375309D01*
X17946725Y10376572D01*
X17941640Y10377984D01*
X17937759Y10379554D01*
X17935900Y10380491D01*
X17917346Y10394261D01*
X17901988Y10411924D01*
X17900975Y10413547D01*
X17898285Y10418414D01*
X17896004Y10423986D01*
X17894099Y10431287D01*
X17892535Y10441342D01*
X17891279Y10455175D01*
X17890298Y10473811D01*
X17889557Y10498275D01*
X17889022Y10529590D01*
X17888661Y10568781D01*
X17888440Y10616874D01*
X17888324Y10674891D01*
X17888280Y10743858D01*
X17888275Y10799900D01*
X17888275Y11165025D01*
X17904150Y11196775D01*
X17919471Y11221178D01*
X17938027Y11237140D01*
X17945425Y11241225D01*
X17949894Y11243321D01*
X17954928Y11245176D01*
X17961297Y11246807D01*
X17969772Y11248232D01*
X17981124Y11249468D01*
X17996123Y11250531D01*
X18015541Y11251440D01*
X18040147Y11252211D01*
X18070712Y11252862D01*
X18108008Y11253409D01*
X18152805Y11253871D01*
X18205873Y11254264D01*
X18267984Y11254605D01*
X18339907Y11254912D01*
X18422415Y11255202D01*
X18516276Y11255493D01*
X18594138Y11255720D01*
X19217452Y11257514D01*
X19219854Y11068395D01*
X19220388Y11020574D01*
X19220735Y10976879D01*
X19220895Y10938921D01*
X19220865Y10908310D01*
X19220643Y10886657D01*
X19220228Y10875570D01*
X19220053Y10874513D01*
X19213502Y10873732D01*
X19195260Y10872990D01*
X19166335Y10872299D01*
X19127737Y10871669D01*
X19080474Y10871110D01*
X19025555Y10870633D01*
X18963988Y10870248D01*
X18896783Y10869966D01*
X18824948Y10869797D01*
X18761025Y10869750D01*
X18304200Y10869750D01*
X18304200Y10755450D01*
X19326550Y10755450D01*
X19326550Y11390450D01*
X17885100Y11390450D01*
X17885100Y11720863D01*
X18788387Y11719169D01*
G36*
X21019359Y12320719D02*
X21128671Y12320696D01*
X21226573Y12320646D01*
X21313708Y12320561D01*
X21390721Y12320433D01*
X21458256Y12320254D01*
X21516958Y12320014D01*
X21567472Y12319705D01*
X21610442Y12319319D01*
X21646512Y12318848D01*
X21676326Y12318282D01*
X21700531Y12317614D01*
X21719769Y12316835D01*
X21734685Y12315935D01*
X21745924Y12314908D01*
X21754131Y12313744D01*
X21759949Y12312435D01*
X21764023Y12310972D01*
X21766998Y12309347D01*
X21767120Y12309268D01*
X21782751Y12295604D01*
X21796557Y12278278D01*
X21797029Y12277518D01*
X21800494Y12271236D01*
X21803229Y12264011D01*
X21805305Y12254399D01*
X21806794Y12240957D01*
X21807767Y12222239D01*
X21808293Y12196800D01*
X21808445Y12163198D01*
X21808292Y12119986D01*
X21807907Y12065721D01*
X21807839Y12057200D01*
X21806225Y11857175D01*
X21102962Y11855560D01*
X20399700Y11853945D01*
X20399700Y10768150D01*
X22412650Y10768150D01*
X22412649Y10593108D01*
X22412387Y10533434D01*
X22411612Y10484497D01*
X22410341Y10446758D01*
X22408590Y10420679D01*
X22406377Y10406722D01*
X22405787Y10405243D01*
X22395933Y10394800D01*
X22379369Y10383858D01*
X22372450Y10380400D01*
X22368907Y10378926D01*
X22364685Y10377578D01*
X22359230Y10376350D01*
X22351991Y10375235D01*
X22342412Y10374229D01*
X22329941Y10373326D01*
X22314025Y10372520D01*
X22294110Y10371806D01*
X22269642Y10371177D01*
X22240070Y10370629D01*
X22204838Y10370155D01*
X22163395Y10369751D01*
X22115186Y10369409D01*
X22059659Y10369126D01*
X21996260Y10368894D01*
X21924435Y10368709D01*
X21843632Y10368564D01*
X21753297Y10368454D01*
X21652876Y10368374D01*
X21541818Y10368318D01*
X21419567Y10368280D01*
X21285571Y10368254D01*
X21180650Y10368240D01*
X21037764Y10368226D01*
X20907027Y10368224D01*
X20787887Y10368239D01*
X20679795Y10368277D01*
X20582198Y10368343D01*
X20494547Y10368442D01*
X20416290Y10368581D01*
X20346876Y10368763D01*
X20285753Y10368995D01*
X20232372Y10369283D01*
X20186181Y10369631D01*
X20146629Y10370045D01*
X20113165Y10370531D01*
X20085238Y10371093D01*
X20062297Y10371738D01*
X20043791Y10372470D01*
X20029169Y10373296D01*
X20017881Y10374220D01*
X20009374Y10375248D01*
X20003099Y10376385D01*
X19998503Y10377638D01*
X19995037Y10379010D01*
X19993200Y10379931D01*
X19974665Y10393825D01*
X19959327Y10411720D01*
X19958375Y10413269D01*
X19956591Y10416490D01*
X19954980Y10420233D01*
X19953534Y10425137D01*
X19952240Y10431843D01*
X19951090Y10440990D01*
X19950072Y10453219D01*
X19949176Y10469170D01*
X19948393Y10489482D01*
X19947711Y10514795D01*
X19947121Y10545751D01*
X19946613Y10582988D01*
X19946176Y10627146D01*
X19945799Y10678867D01*
X19945473Y10738789D01*
X19945188Y10807552D01*
X19944932Y10885798D01*
X19944697Y10974165D01*
X19944470Y11073293D01*
X19944244Y11183824D01*
X19944006Y11306396D01*
X19943999Y11310069D01*
X19943777Y11451024D01*
X19943673Y11580299D01*
X19943686Y11697799D01*
X19943817Y11803429D01*
X19944063Y11897095D01*
X19944426Y11978703D01*
X19944904Y12048156D01*
X19945497Y12105361D01*
X19946204Y12150222D01*
X19947025Y12182646D01*
X19947959Y12202536D01*
X19948743Y12209203D01*
X19962222Y12240409D01*
X19984303Y12271267D01*
X20011584Y12297282D01*
X20019775Y12303141D01*
X20046348Y12320725D01*
X20897991Y12320725D01*
X21019359Y12320719D01*
X21019359Y12320719D01*
G37*
X21019359Y12320719D02*
X21128671Y12320696D01*
X21226573Y12320646D01*
X21313708Y12320561D01*
X21390721Y12320433D01*
X21458256Y12320254D01*
X21516958Y12320014D01*
X21567472Y12319705D01*
X21610442Y12319319D01*
X21646512Y12318848D01*
X21676326Y12318282D01*
X21700531Y12317614D01*
X21719769Y12316835D01*
X21734685Y12315935D01*
X21745924Y12314908D01*
X21754131Y12313744D01*
X21759949Y12312435D01*
X21764023Y12310972D01*
X21766998Y12309347D01*
X21767120Y12309268D01*
X21782751Y12295604D01*
X21796557Y12278278D01*
X21797029Y12277518D01*
X21800494Y12271236D01*
X21803229Y12264011D01*
X21805305Y12254399D01*
X21806794Y12240957D01*
X21807767Y12222239D01*
X21808293Y12196800D01*
X21808445Y12163198D01*
X21808292Y12119986D01*
X21807907Y12065721D01*
X21807839Y12057200D01*
X21806225Y11857175D01*
X21102962Y11855560D01*
X20399700Y11853945D01*
X20399700Y10768150D01*
X22412650Y10768150D01*
X22412649Y10593108D01*
X22412387Y10533434D01*
X22411612Y10484497D01*
X22410341Y10446758D01*
X22408590Y10420679D01*
X22406377Y10406722D01*
X22405787Y10405243D01*
X22395933Y10394800D01*
X22379369Y10383858D01*
X22372450Y10380400D01*
X22368907Y10378926D01*
X22364685Y10377578D01*
X22359230Y10376350D01*
X22351991Y10375235D01*
X22342412Y10374229D01*
X22329941Y10373326D01*
X22314025Y10372520D01*
X22294110Y10371806D01*
X22269642Y10371177D01*
X22240070Y10370629D01*
X22204838Y10370155D01*
X22163395Y10369751D01*
X22115186Y10369409D01*
X22059659Y10369126D01*
X21996260Y10368894D01*
X21924435Y10368709D01*
X21843632Y10368564D01*
X21753297Y10368454D01*
X21652876Y10368374D01*
X21541818Y10368318D01*
X21419567Y10368280D01*
X21285571Y10368254D01*
X21180650Y10368240D01*
X21037764Y10368226D01*
X20907027Y10368224D01*
X20787887Y10368239D01*
X20679795Y10368277D01*
X20582198Y10368343D01*
X20494547Y10368442D01*
X20416290Y10368581D01*
X20346876Y10368763D01*
X20285753Y10368995D01*
X20232372Y10369283D01*
X20186181Y10369631D01*
X20146629Y10370045D01*
X20113165Y10370531D01*
X20085238Y10371093D01*
X20062297Y10371738D01*
X20043791Y10372470D01*
X20029169Y10373296D01*
X20017881Y10374220D01*
X20009374Y10375248D01*
X20003099Y10376385D01*
X19998503Y10377638D01*
X19995037Y10379010D01*
X19993200Y10379931D01*
X19974665Y10393825D01*
X19959327Y10411720D01*
X19958375Y10413269D01*
X19956591Y10416490D01*
X19954980Y10420233D01*
X19953534Y10425137D01*
X19952240Y10431843D01*
X19951090Y10440990D01*
X19950072Y10453219D01*
X19949176Y10469170D01*
X19948393Y10489482D01*
X19947711Y10514795D01*
X19947121Y10545751D01*
X19946613Y10582988D01*
X19946176Y10627146D01*
X19945799Y10678867D01*
X19945473Y10738789D01*
X19945188Y10807552D01*
X19944932Y10885798D01*
X19944697Y10974165D01*
X19944470Y11073293D01*
X19944244Y11183824D01*
X19944006Y11306396D01*
X19943999Y11310069D01*
X19943777Y11451024D01*
X19943673Y11580299D01*
X19943686Y11697799D01*
X19943817Y11803429D01*
X19944063Y11897095D01*
X19944426Y11978703D01*
X19944904Y12048156D01*
X19945497Y12105361D01*
X19946204Y12150222D01*
X19947025Y12182646D01*
X19947959Y12202536D01*
X19948743Y12209203D01*
X19962222Y12240409D01*
X19984303Y12271267D01*
X20011584Y12297282D01*
X20019775Y12303141D01*
X20046348Y12320725D01*
X20897991Y12320725D01*
X21019359Y12320719D01*
G36*
X25867194Y12322745D02*
X26000439Y12322581D01*
X26089300Y12322427D01*
X26213786Y12322183D01*
X26326203Y12321944D01*
X26427180Y12321700D01*
X26517347Y12321442D01*
X26597336Y12321163D01*
X26667774Y12320852D01*
X26729294Y12320502D01*
X26782525Y12320102D01*
X26828097Y12319644D01*
X26866640Y12319120D01*
X26898785Y12318520D01*
X26925162Y12317835D01*
X26946400Y12317056D01*
X26963130Y12316175D01*
X26975983Y12315183D01*
X26985587Y12314070D01*
X26992574Y12312828D01*
X26997573Y12311448D01*
X27001216Y12309920D01*
X27002005Y12309506D01*
X27019614Y12295736D01*
X27033553Y12278121D01*
X27033755Y12277756D01*
X27035307Y12274387D01*
X27036713Y12269829D01*
X27037981Y12263456D01*
X27039119Y12254644D01*
X27040137Y12242769D01*
X27041042Y12227207D01*
X27041844Y12207334D01*
X27042550Y12182525D01*
X27043171Y12152156D01*
X27043714Y12115603D01*
X27044188Y12072242D01*
X27044602Y12021448D01*
X27044965Y11962598D01*
X27045284Y11895068D01*
X27045569Y11818232D01*
X27045829Y11731467D01*
X27046072Y11634149D01*
X27046306Y11525653D01*
X27046541Y11405355D01*
X27046646Y11348652D01*
X27048318Y10440079D01*
X27033863Y10418377D01*
X27018451Y10401294D01*
X26998573Y10386432D01*
X26994091Y10383975D01*
X26990370Y10382211D01*
X26986172Y10380617D01*
X26980861Y10379183D01*
X26973803Y10377902D01*
X26964363Y10376762D01*
X26951904Y10375755D01*
X26935793Y10374871D01*
X26915394Y10374101D01*
X26890071Y10373434D01*
X26859191Y10372863D01*
X26822116Y10372376D01*
X26778213Y10371966D01*
X26726846Y10371621D01*
X26667381Y10371333D01*
X26599181Y10371092D01*
X26521612Y10370889D01*
X26434039Y10370714D01*
X26335826Y10370558D01*
X26226338Y10370411D01*
X26104941Y10370264D01*
X26073425Y10370227D01*
X25935857Y10370112D01*
X25808733Y10370099D01*
X25692254Y10370188D01*
X25586623Y10370377D01*
X25492044Y10370664D01*
X25408718Y10371050D01*
X25336848Y10371533D01*
X25276638Y10372111D01*
X25228289Y10372783D01*
X25192004Y10373549D01*
X25167987Y10374407D01*
X25156439Y10375356D01*
X25155850Y10375490D01*
X25135178Y10384647D01*
X25116835Y10397719D01*
X25112163Y10402060D01*
X25107938Y10406206D01*
X25104140Y10410786D01*
X25100745Y10416430D01*
X25097730Y10423768D01*
X25095074Y10433431D01*
X25092753Y10446048D01*
X25090745Y10462250D01*
X25089027Y10482667D01*
X25087576Y10507929D01*
X25086371Y10538665D01*
X25085388Y10575506D01*
X25084605Y10619083D01*
X25083999Y10670025D01*
X25083548Y10728963D01*
X25083229Y10796525D01*
X25083020Y10873344D01*
X25082897Y10960048D01*
X25082838Y11057268D01*
X25082821Y11165634D01*
X25082823Y11285776D01*
X25082825Y11346000D01*
X25082861Y11450695D01*
X25082967Y11552149D01*
X25083140Y11649610D01*
X25083373Y11742327D01*
X25083664Y11829548D01*
X25084008Y11910521D01*
X25084401Y11984494D01*
X25084839Y12050716D01*
X25085316Y12108435D01*
X25085830Y12156900D01*
X25086375Y12195357D01*
X25086948Y12223057D01*
X25087544Y12239246D01*
X25087900Y12243074D01*
X25100654Y12274437D01*
X25123159Y12298862D01*
X25153540Y12314523D01*
X25164108Y12317281D01*
X25174489Y12318352D01*
X25194884Y12319304D01*
X25225524Y12320139D01*
X25266640Y12320858D01*
X25318463Y12321462D01*
X25381224Y12321952D01*
X25455154Y12322330D01*
X25540486Y12322597D01*
X25637449Y12322755D01*
X25746274Y12322804D01*
X25867194Y12322745D01*
X25867194Y12322745D01*
G37*
X25867194Y12322745D02*
X26000439Y12322581D01*
X26089300Y12322427D01*
X26213786Y12322183D01*
X26326203Y12321944D01*
X26427180Y12321700D01*
X26517347Y12321442D01*
X26597336Y12321163D01*
X26667774Y12320852D01*
X26729294Y12320502D01*
X26782525Y12320102D01*
X26828097Y12319644D01*
X26866640Y12319120D01*
X26898785Y12318520D01*
X26925162Y12317835D01*
X26946400Y12317056D01*
X26963130Y12316175D01*
X26975983Y12315183D01*
X26985587Y12314070D01*
X26992574Y12312828D01*
X26997573Y12311448D01*
X27001216Y12309920D01*
X27002005Y12309506D01*
X27019614Y12295736D01*
X27033553Y12278121D01*
X27033755Y12277756D01*
X27035307Y12274387D01*
X27036713Y12269829D01*
X27037981Y12263456D01*
X27039119Y12254644D01*
X27040137Y12242769D01*
X27041042Y12227207D01*
X27041844Y12207334D01*
X27042550Y12182525D01*
X27043171Y12152156D01*
X27043714Y12115603D01*
X27044188Y12072242D01*
X27044602Y12021448D01*
X27044965Y11962598D01*
X27045284Y11895068D01*
X27045569Y11818232D01*
X27045829Y11731467D01*
X27046072Y11634149D01*
X27046306Y11525653D01*
X27046541Y11405355D01*
X27046646Y11348652D01*
X27048318Y10440079D01*
X27033863Y10418377D01*
X27018451Y10401294D01*
X26998573Y10386432D01*
X26994091Y10383975D01*
X26990370Y10382211D01*
X26986172Y10380617D01*
X26980861Y10379183D01*
X26973803Y10377902D01*
X26964363Y10376762D01*
X26951904Y10375755D01*
X26935793Y10374871D01*
X26915394Y10374101D01*
X26890071Y10373434D01*
X26859191Y10372863D01*
X26822116Y10372376D01*
X26778213Y10371966D01*
X26726846Y10371621D01*
X26667381Y10371333D01*
X26599181Y10371092D01*
X26521612Y10370889D01*
X26434039Y10370714D01*
X26335826Y10370558D01*
X26226338Y10370411D01*
X26104941Y10370264D01*
X26073425Y10370227D01*
X25935857Y10370112D01*
X25808733Y10370099D01*
X25692254Y10370188D01*
X25586623Y10370377D01*
X25492044Y10370664D01*
X25408718Y10371050D01*
X25336848Y10371533D01*
X25276638Y10372111D01*
X25228289Y10372783D01*
X25192004Y10373549D01*
X25167987Y10374407D01*
X25156439Y10375356D01*
X25155850Y10375490D01*
X25135178Y10384647D01*
X25116835Y10397719D01*
X25112163Y10402060D01*
X25107938Y10406206D01*
X25104140Y10410786D01*
X25100745Y10416430D01*
X25097730Y10423768D01*
X25095074Y10433431D01*
X25092753Y10446048D01*
X25090745Y10462250D01*
X25089027Y10482667D01*
X25087576Y10507929D01*
X25086371Y10538665D01*
X25085388Y10575506D01*
X25084605Y10619083D01*
X25083999Y10670025D01*
X25083548Y10728963D01*
X25083229Y10796525D01*
X25083020Y10873344D01*
X25082897Y10960048D01*
X25082838Y11057268D01*
X25082821Y11165634D01*
X25082823Y11285776D01*
X25082825Y11346000D01*
X25082861Y11450695D01*
X25082967Y11552149D01*
X25083140Y11649610D01*
X25083373Y11742327D01*
X25083664Y11829548D01*
X25084008Y11910521D01*
X25084401Y11984494D01*
X25084839Y12050716D01*
X25085316Y12108435D01*
X25085830Y12156900D01*
X25086375Y12195357D01*
X25086948Y12223057D01*
X25087544Y12239246D01*
X25087900Y12243074D01*
X25100654Y12274437D01*
X25123159Y12298862D01*
X25153540Y12314523D01*
X25164108Y12317281D01*
X25174489Y12318352D01*
X25194884Y12319304D01*
X25225524Y12320139D01*
X25266640Y12320858D01*
X25318463Y12321462D01*
X25381224Y12321952D01*
X25455154Y12322330D01*
X25540486Y12322597D01*
X25637449Y12322755D01*
X25746274Y12322804D01*
X25867194Y12322745D01*
G36*
X26879914Y12794169D02*
X27003808Y12794097D01*
X27126412Y12793985D01*
X27247059Y12793834D01*
X27365084Y12793642D01*
X27479819Y12793411D01*
X27590600Y12793140D01*
X27696759Y12792830D01*
X27797630Y12792480D01*
X27892548Y12792091D01*
X27980846Y12791663D01*
X28061858Y12791195D01*
X28134918Y12790689D01*
X28199359Y12790143D01*
X28254515Y12789558D01*
X28299721Y12788935D01*
X28334309Y12788272D01*
X28357614Y12787571D01*
X28368970Y12786831D01*
X28369520Y12786735D01*
X28394738Y12778733D01*
X28416156Y12764931D01*
X28429522Y12752612D01*
X28443664Y12736604D01*
X28454297Y12719326D01*
X28461828Y12698801D01*
X28466663Y12673053D01*
X28469209Y12640106D01*
X28469871Y12597983D01*
X28469371Y12558850D01*
X28467375Y12460425D01*
X28097487Y12458787D01*
X27727600Y12457148D01*
X27727590Y11449137D01*
X27727582Y11316422D01*
X27727559Y11195815D01*
X27727514Y11086725D01*
X27727440Y10988558D01*
X27727331Y10900724D01*
X27727180Y10822630D01*
X27726982Y10753684D01*
X27726729Y10693294D01*
X27726416Y10640869D01*
X27726036Y10595816D01*
X27725582Y10557543D01*
X27725049Y10525459D01*
X27724429Y10498971D01*
X27723717Y10477488D01*
X27722906Y10460417D01*
X27721990Y10447167D01*
X27720962Y10437145D01*
X27719816Y10429761D01*
X27718545Y10424420D01*
X27717144Y10420533D01*
X27716477Y10419117D01*
X27703199Y10400938D01*
X27685404Y10385578D01*
X27683150Y10384192D01*
X27676834Y10380844D01*
X27669675Y10378113D01*
X27660354Y10375922D01*
X27647552Y10374197D01*
X27629950Y10372861D01*
X27606231Y10371840D01*
X27575074Y10371059D01*
X27535163Y10370441D01*
X27485177Y10369911D01*
X27424387Y10369399D01*
X27187850Y10367523D01*
X27187850Y12457250D01*
X25079650Y12457250D01*
X25079685Y12576313D01*
X25080064Y12616157D01*
X25081096Y12653149D01*
X25082660Y12684755D01*
X25084633Y12708442D01*
X25086627Y12720775D01*
X25100727Y12751923D01*
X25123611Y12773899D01*
X25155305Y12786728D01*
X25157023Y12787109D01*
X25166820Y12787851D01*
X25188652Y12788552D01*
X25221851Y12789212D01*
X25265751Y12789830D01*
X25319686Y12790407D01*
X25382991Y12790943D01*
X25454997Y12791438D01*
X25535041Y12791892D01*
X25622455Y12792305D01*
X25716573Y12792677D01*
X25816729Y12793008D01*
X25922256Y12793299D01*
X26032489Y12793549D01*
X26146762Y12793759D01*
X26264407Y12793928D01*
X26384760Y12794057D01*
X26507153Y12794145D01*
X26630920Y12794193D01*
X26755396Y12794201D01*
X26879914Y12794169D01*
X26879914Y12794169D01*
G37*
X26879914Y12794169D02*
X27003808Y12794097D01*
X27126412Y12793985D01*
X27247059Y12793834D01*
X27365084Y12793642D01*
X27479819Y12793411D01*
X27590600Y12793140D01*
X27696759Y12792830D01*
X27797630Y12792480D01*
X27892548Y12792091D01*
X27980846Y12791663D01*
X28061858Y12791195D01*
X28134918Y12790689D01*
X28199359Y12790143D01*
X28254515Y12789558D01*
X28299721Y12788935D01*
X28334309Y12788272D01*
X28357614Y12787571D01*
X28368970Y12786831D01*
X28369520Y12786735D01*
X28394738Y12778733D01*
X28416156Y12764931D01*
X28429522Y12752612D01*
X28443664Y12736604D01*
X28454297Y12719326D01*
X28461828Y12698801D01*
X28466663Y12673053D01*
X28469209Y12640106D01*
X28469871Y12597983D01*
X28469371Y12558850D01*
X28467375Y12460425D01*
X28097487Y12458787D01*
X27727600Y12457148D01*
X27727590Y11449137D01*
X27727582Y11316422D01*
X27727559Y11195815D01*
X27727514Y11086725D01*
X27727440Y10988558D01*
X27727331Y10900724D01*
X27727180Y10822630D01*
X27726982Y10753684D01*
X27726729Y10693294D01*
X27726416Y10640869D01*
X27726036Y10595816D01*
X27725582Y10557543D01*
X27725049Y10525459D01*
X27724429Y10498971D01*
X27723717Y10477488D01*
X27722906Y10460417D01*
X27721990Y10447167D01*
X27720962Y10437145D01*
X27719816Y10429761D01*
X27718545Y10424420D01*
X27717144Y10420533D01*
X27716477Y10419117D01*
X27703199Y10400938D01*
X27685404Y10385578D01*
X27683150Y10384192D01*
X27676834Y10380844D01*
X27669675Y10378113D01*
X27660354Y10375922D01*
X27647552Y10374197D01*
X27629950Y10372861D01*
X27606231Y10371840D01*
X27575074Y10371059D01*
X27535163Y10370441D01*
X27485177Y10369911D01*
X27424387Y10369399D01*
X27187850Y10367523D01*
X27187850Y12457250D01*
X25079650Y12457250D01*
X25079685Y12576313D01*
X25080064Y12616157D01*
X25081096Y12653149D01*
X25082660Y12684755D01*
X25084633Y12708442D01*
X25086627Y12720775D01*
X25100727Y12751923D01*
X25123611Y12773899D01*
X25155305Y12786728D01*
X25157023Y12787109D01*
X25166820Y12787851D01*
X25188652Y12788552D01*
X25221851Y12789212D01*
X25265751Y12789830D01*
X25319686Y12790407D01*
X25382991Y12790943D01*
X25454997Y12791438D01*
X25535041Y12791892D01*
X25622455Y12792305D01*
X25716573Y12792677D01*
X25816729Y12793008D01*
X25922256Y12793299D01*
X26032489Y12793549D01*
X26146762Y12793759D01*
X26264407Y12793928D01*
X26384760Y12794057D01*
X26507153Y12794145D01*
X26630920Y12794193D01*
X26755396Y12794201D01*
X26879914Y12794169D01*
G36*
X21328882Y12790621D02*
X21458980Y12790604D01*
X21577482Y12790569D01*
X21684940Y12790511D01*
X21781906Y12790425D01*
X21868933Y12790304D01*
X21946573Y12790145D01*
X22015377Y12789941D01*
X22075897Y12789688D01*
X22128687Y12789379D01*
X22174297Y12789011D01*
X22213280Y12788576D01*
X22246188Y12788071D01*
X22273572Y12787489D01*
X22295986Y12786826D01*
X22313982Y12786076D01*
X22328110Y12785233D01*
X22338924Y12784293D01*
X22346975Y12783251D01*
X22352816Y12782100D01*
X22356998Y12780836D01*
X22360074Y12779452D01*
X22360297Y12779332D01*
X22376791Y12766648D01*
X22392825Y12748716D01*
X22396895Y12742810D01*
X22412821Y12717581D01*
X22411148Y11820653D01*
X22410908Y11695783D01*
X22410672Y11582986D01*
X22410431Y11481633D01*
X22410175Y11391096D01*
X22409898Y11310748D01*
X22409589Y11239961D01*
X22409239Y11178107D01*
X22408841Y11124558D01*
X22408385Y11078686D01*
X22407863Y11039864D01*
X22407266Y11007464D01*
X22406585Y10980857D01*
X22405811Y10959417D01*
X22404936Y10942515D01*
X22403950Y10929523D01*
X22402846Y10919814D01*
X22401614Y10912760D01*
X22400245Y10907732D01*
X22398731Y10904104D01*
X22398352Y10903384D01*
X22382363Y10884979D01*
X22363427Y10876432D01*
X22354177Y10875614D01*
X22333121Y10874855D01*
X22301156Y10874155D01*
X22259174Y10873513D01*
X22208072Y10872930D01*
X22148744Y10872406D01*
X22082084Y10871941D01*
X22008987Y10871536D01*
X21930348Y10871189D01*
X21847062Y10870902D01*
X21760024Y10870674D01*
X21670127Y10870505D01*
X21578268Y10870396D01*
X21485340Y10870347D01*
X21392239Y10870357D01*
X21299859Y10870427D01*
X21209095Y10870558D01*
X21120841Y10870748D01*
X21035992Y10870998D01*
X20955444Y10871308D01*
X20880091Y10871678D01*
X20810827Y10872109D01*
X20748547Y10872601D01*
X20694146Y10873152D01*
X20648519Y10873765D01*
X20612560Y10874438D01*
X20587165Y10875172D01*
X20573228Y10875966D01*
X20571241Y10876254D01*
X20546935Y10887887D01*
X20525725Y10908900D01*
X20510707Y10935972D01*
X20508077Y10944025D01*
X20506438Y10956604D01*
X20505016Y10981553D01*
X20503816Y11018541D01*
X20502846Y11067238D01*
X20502110Y11127316D01*
X20501614Y11198444D01*
X20501365Y11280294D01*
X20501335Y11320775D01*
X20501357Y11397344D01*
X20501458Y11462222D01*
X20501666Y11516418D01*
X20502011Y11560940D01*
X20502519Y11596798D01*
X20503220Y11625000D01*
X20504142Y11646554D01*
X20505314Y11662471D01*
X20506762Y11673758D01*
X20508517Y11681424D01*
X20510606Y11686479D01*
X20511654Y11688158D01*
X20515282Y11693399D01*
X20518887Y11698045D01*
X20523216Y11702130D01*
X20529016Y11705691D01*
X20537033Y11708764D01*
X20548014Y11711385D01*
X20562706Y11713590D01*
X20581856Y11715415D01*
X20606210Y11716895D01*
X20636516Y11718067D01*
X20673519Y11718967D01*
X20717967Y11719629D01*
X20770606Y11720092D01*
X20832184Y11720389D01*
X20903446Y11720558D01*
X20985140Y11720634D01*
X21078013Y11720653D01*
X21182810Y11720651D01*
X21809618Y11720651D01*
X21807921Y11560313D01*
X21806225Y11399975D01*
X21452212Y11398335D01*
X21098200Y11396694D01*
X21098200Y11250750D01*
X21911000Y11250750D01*
X21911000Y12463560D01*
X20928337Y12465168D01*
X19945675Y12466775D01*
X19945789Y12577900D01*
X19945899Y12618108D01*
X19946319Y12647915D01*
X19947330Y12669621D01*
X19949210Y12685524D01*
X19952240Y12697925D01*
X19956698Y12709123D01*
X19962864Y12721416D01*
X19963344Y12722334D01*
X19984754Y12753356D01*
X20007216Y12773134D01*
X20033647Y12790625D01*
X21186636Y12790625D01*
X21328882Y12790621D01*
X21328882Y12790621D01*
G37*
X21328882Y12790621D02*
X21458980Y12790604D01*
X21577482Y12790569D01*
X21684940Y12790511D01*
X21781906Y12790425D01*
X21868933Y12790304D01*
X21946573Y12790145D01*
X22015377Y12789941D01*
X22075897Y12789688D01*
X22128687Y12789379D01*
X22174297Y12789011D01*
X22213280Y12788576D01*
X22246188Y12788071D01*
X22273572Y12787489D01*
X22295986Y12786826D01*
X22313982Y12786076D01*
X22328110Y12785233D01*
X22338924Y12784293D01*
X22346975Y12783251D01*
X22352816Y12782100D01*
X22356998Y12780836D01*
X22360074Y12779452D01*
X22360297Y12779332D01*
X22376791Y12766648D01*
X22392825Y12748716D01*
X22396895Y12742810D01*
X22412821Y12717581D01*
X22411148Y11820653D01*
X22410908Y11695783D01*
X22410672Y11582986D01*
X22410431Y11481633D01*
X22410175Y11391096D01*
X22409898Y11310748D01*
X22409589Y11239961D01*
X22409239Y11178107D01*
X22408841Y11124558D01*
X22408385Y11078686D01*
X22407863Y11039864D01*
X22407266Y11007464D01*
X22406585Y10980857D01*
X22405811Y10959417D01*
X22404936Y10942515D01*
X22403950Y10929523D01*
X22402846Y10919814D01*
X22401614Y10912760D01*
X22400245Y10907732D01*
X22398731Y10904104D01*
X22398352Y10903384D01*
X22382363Y10884979D01*
X22363427Y10876432D01*
X22354177Y10875614D01*
X22333121Y10874855D01*
X22301156Y10874155D01*
X22259174Y10873513D01*
X22208072Y10872930D01*
X22148744Y10872406D01*
X22082084Y10871941D01*
X22008987Y10871536D01*
X21930348Y10871189D01*
X21847062Y10870902D01*
X21760024Y10870674D01*
X21670127Y10870505D01*
X21578268Y10870396D01*
X21485340Y10870347D01*
X21392239Y10870357D01*
X21299859Y10870427D01*
X21209095Y10870558D01*
X21120841Y10870748D01*
X21035992Y10870998D01*
X20955444Y10871308D01*
X20880091Y10871678D01*
X20810827Y10872109D01*
X20748547Y10872601D01*
X20694146Y10873152D01*
X20648519Y10873765D01*
X20612560Y10874438D01*
X20587165Y10875172D01*
X20573228Y10875966D01*
X20571241Y10876254D01*
X20546935Y10887887D01*
X20525725Y10908900D01*
X20510707Y10935972D01*
X20508077Y10944025D01*
X20506438Y10956604D01*
X20505016Y10981553D01*
X20503816Y11018541D01*
X20502846Y11067238D01*
X20502110Y11127316D01*
X20501614Y11198444D01*
X20501365Y11280294D01*
X20501335Y11320775D01*
X20501357Y11397344D01*
X20501458Y11462222D01*
X20501666Y11516418D01*
X20502011Y11560940D01*
X20502519Y11596798D01*
X20503220Y11625000D01*
X20504142Y11646554D01*
X20505314Y11662471D01*
X20506762Y11673758D01*
X20508517Y11681424D01*
X20510606Y11686479D01*
X20511654Y11688158D01*
X20515282Y11693399D01*
X20518887Y11698045D01*
X20523216Y11702130D01*
X20529016Y11705691D01*
X20537033Y11708764D01*
X20548014Y11711385D01*
X20562706Y11713590D01*
X20581856Y11715415D01*
X20606210Y11716895D01*
X20636516Y11718067D01*
X20673519Y11718967D01*
X20717967Y11719629D01*
X20770606Y11720092D01*
X20832184Y11720389D01*
X20903446Y11720558D01*
X20985140Y11720634D01*
X21078013Y11720653D01*
X21182810Y11720651D01*
X21809618Y11720651D01*
X21807921Y11560313D01*
X21806225Y11399975D01*
X21452212Y11398335D01*
X21098200Y11396694D01*
X21098200Y11250750D01*
X21911000Y11250750D01*
X21911000Y12463560D01*
X20928337Y12465168D01*
X19945675Y12466775D01*
X19945789Y12577900D01*
X19945899Y12618108D01*
X19946319Y12647915D01*
X19947330Y12669621D01*
X19949210Y12685524D01*
X19952240Y12697925D01*
X19956698Y12709123D01*
X19962864Y12721416D01*
X19963344Y12722334D01*
X19984754Y12753356D01*
X20007216Y12773134D01*
X20033647Y12790625D01*
X21186636Y12790625D01*
X21328882Y12790621D01*
G36*
X39506442Y8569937D02*
X39595361Y8568950D01*
X39697693Y8567338D01*
X39778154Y8565635D01*
X39840272Y8563552D01*
X39887574Y8560797D01*
X39923590Y8557078D01*
X39951846Y8552106D01*
X39975871Y8545590D01*
X39999193Y8537237D01*
X40004330Y8535223D01*
X40085784Y8489945D01*
X40155316Y8425403D01*
X40207667Y8346843D01*
X40219516Y8320631D01*
X40248950Y8247750D01*
X40255844Y6044300D01*
X39721900Y6044300D01*
X39721900Y7096432D01*
X39721879Y7284563D01*
X39721795Y7448933D01*
X39721610Y7591182D01*
X39721291Y7712950D01*
X39720800Y7815876D01*
X39720104Y7901601D01*
X39719165Y7971763D01*
X39717950Y8028002D01*
X39716422Y8071958D01*
X39714545Y8105270D01*
X39712285Y8129577D01*
X39709606Y8146521D01*
X39706472Y8157739D01*
X39702849Y8164872D01*
X39698699Y8169560D01*
X39698674Y8169582D01*
X39681974Y8179707D01*
X39655503Y8186120D01*
X39614222Y8189518D01*
X39553092Y8190594D01*
X39546274Y8190601D01*
X39514596Y8191593D01*
X39486823Y8193537D01*
X39462703Y8194880D01*
X39441981Y8194070D01*
X39424403Y8189555D01*
X39409714Y8179785D01*
X39397661Y8163206D01*
X39387989Y8138268D01*
X39380444Y8103418D01*
X39374771Y8057104D01*
X39370717Y7997776D01*
X39368027Y7923880D01*
X39366447Y7833866D01*
X39365723Y7726181D01*
X39365600Y7599274D01*
X39365825Y7451593D01*
X39366143Y7281586D01*
X39366299Y7092050D01*
X39366300Y6044300D01*
X38832900Y6044300D01*
X38832900Y7089718D01*
X38833073Y7307526D01*
X38833592Y7502811D01*
X38834452Y7675210D01*
X38835648Y7824363D01*
X38837176Y7949909D01*
X38839032Y8051486D01*
X38841210Y8128733D01*
X38843708Y8181288D01*
X38846389Y8208107D01*
X38875604Y8314661D01*
X38920690Y8401620D01*
X38982499Y8469870D01*
X39061884Y8520300D01*
X39159698Y8553798D01*
X39183034Y8558838D01*
X39227866Y8564414D01*
X39296416Y8568115D01*
X39389127Y8569952D01*
X39506442Y8569937D01*
X39506442Y8569937D01*
G37*
X39506442Y8569937D02*
X39595361Y8568950D01*
X39697693Y8567338D01*
X39778154Y8565635D01*
X39840272Y8563552D01*
X39887574Y8560797D01*
X39923590Y8557078D01*
X39951846Y8552106D01*
X39975871Y8545590D01*
X39999193Y8537237D01*
X40004330Y8535223D01*
X40085784Y8489945D01*
X40155316Y8425403D01*
X40207667Y8346843D01*
X40219516Y8320631D01*
X40248950Y8247750D01*
X40255844Y6044300D01*
X39721900Y6044300D01*
X39721900Y7096432D01*
X39721879Y7284563D01*
X39721795Y7448933D01*
X39721610Y7591182D01*
X39721291Y7712950D01*
X39720800Y7815876D01*
X39720104Y7901601D01*
X39719165Y7971763D01*
X39717950Y8028002D01*
X39716422Y8071958D01*
X39714545Y8105270D01*
X39712285Y8129577D01*
X39709606Y8146521D01*
X39706472Y8157739D01*
X39702849Y8164872D01*
X39698699Y8169560D01*
X39698674Y8169582D01*
X39681974Y8179707D01*
X39655503Y8186120D01*
X39614222Y8189518D01*
X39553092Y8190594D01*
X39546274Y8190601D01*
X39514596Y8191593D01*
X39486823Y8193537D01*
X39462703Y8194880D01*
X39441981Y8194070D01*
X39424403Y8189555D01*
X39409714Y8179785D01*
X39397661Y8163206D01*
X39387989Y8138268D01*
X39380444Y8103418D01*
X39374771Y8057104D01*
X39370717Y7997776D01*
X39368027Y7923880D01*
X39366447Y7833866D01*
X39365723Y7726181D01*
X39365600Y7599274D01*
X39365825Y7451593D01*
X39366143Y7281586D01*
X39366299Y7092050D01*
X39366300Y6044300D01*
X38832900Y6044300D01*
X38832900Y7089718D01*
X38833073Y7307526D01*
X38833592Y7502811D01*
X38834452Y7675210D01*
X38835648Y7824363D01*
X38837176Y7949909D01*
X38839032Y8051486D01*
X38841210Y8128733D01*
X38843708Y8181288D01*
X38846389Y8208107D01*
X38875604Y8314661D01*
X38920690Y8401620D01*
X38982499Y8469870D01*
X39061884Y8520300D01*
X39159698Y8553798D01*
X39183034Y8558838D01*
X39227866Y8564414D01*
X39296416Y8568115D01*
X39389127Y8569952D01*
X39506442Y8569937D01*
G36*
X41459160Y8565190D02*
X41548531Y8564881D01*
X41618722Y8564130D01*
X41672843Y8562742D01*
X41714004Y8560524D01*
X41745314Y8557284D01*
X41769885Y8552826D01*
X41790825Y8546958D01*
X41811246Y8539486D01*
X41820430Y8535817D01*
X41902334Y8489674D01*
X41972132Y8424437D01*
X42024417Y8345514D01*
X42035616Y8320631D01*
X42065050Y8247750D01*
X42071944Y6044300D01*
X41538000Y6044300D01*
X41538000Y6883162D01*
X41150650Y6876150D01*
X41143952Y6044300D01*
X40610900Y6044300D01*
X40611292Y7063475D01*
X40611510Y7232626D01*
X40612017Y7394164D01*
X40612791Y7546126D01*
X40613810Y7686551D01*
X40614133Y7719642D01*
X41144487Y7719642D01*
X41144692Y7619544D01*
X41145363Y7527654D01*
X41146437Y7447033D01*
X41147857Y7380742D01*
X41149561Y7331840D01*
X41151490Y7303389D01*
X41152766Y7297367D01*
X41167823Y7294391D01*
X41203595Y7291873D01*
X41255400Y7290014D01*
X41318556Y7289016D01*
X41349616Y7288900D01*
X41538000Y7288900D01*
X41538000Y7724623D01*
X41537764Y7849829D01*
X41537011Y7951653D01*
X41535669Y8032112D01*
X41533669Y8093220D01*
X41530939Y8136992D01*
X41527409Y8165444D01*
X41523010Y8180590D01*
X41522001Y8182225D01*
X41512486Y8191260D01*
X41496694Y8197215D01*
X41470228Y8200537D01*
X41428693Y8201670D01*
X41367693Y8201061D01*
X41341379Y8200528D01*
X41274040Y8198883D01*
X41227617Y8196811D01*
X41197631Y8193435D01*
X41179601Y8187880D01*
X41169047Y8179269D01*
X41161489Y8166726D01*
X41160715Y8165200D01*
X41155921Y8148456D01*
X41152073Y8117839D01*
X41149099Y8071349D01*
X41146927Y8006989D01*
X41145482Y7922759D01*
X41144693Y7816661D01*
X41144487Y7719642D01*
X40614133Y7719642D01*
X40615051Y7813474D01*
X40616492Y7924932D01*
X40618111Y8018964D01*
X40619885Y8093605D01*
X40621793Y8146893D01*
X40623811Y8176864D01*
X40623938Y8177900D01*
X40642585Y8265745D01*
X40673724Y8348134D01*
X40714266Y8418469D01*
X40760698Y8469806D01*
X40800470Y8497263D01*
X40850040Y8524496D01*
X40877600Y8536933D01*
X40898077Y8544837D01*
X40918266Y8551117D01*
X40941260Y8555958D01*
X40970155Y8559547D01*
X41008048Y8562071D01*
X41058032Y8563716D01*
X41123203Y8564670D01*
X41206656Y8565118D01*
X41311488Y8565246D01*
X41347500Y8565250D01*
X41459160Y8565190D01*
X41459160Y8565190D01*
G37*
X41459160Y8565190D02*
X41548531Y8564881D01*
X41618722Y8564130D01*
X41672843Y8562742D01*
X41714004Y8560524D01*
X41745314Y8557284D01*
X41769885Y8552826D01*
X41790825Y8546958D01*
X41811246Y8539486D01*
X41820430Y8535817D01*
X41902334Y8489674D01*
X41972132Y8424437D01*
X42024417Y8345514D01*
X42035616Y8320631D01*
X42065050Y8247750D01*
X42071944Y6044300D01*
X41538000Y6044300D01*
X41538000Y6883162D01*
X41150650Y6876150D01*
X41143952Y6044300D01*
X40610900Y6044300D01*
X40611292Y7063475D01*
X40611510Y7232626D01*
X40612017Y7394164D01*
X40612791Y7546126D01*
X40613810Y7686551D01*
X40614133Y7719642D01*
X41144487Y7719642D01*
X41144692Y7619544D01*
X41145363Y7527654D01*
X41146437Y7447033D01*
X41147857Y7380742D01*
X41149561Y7331840D01*
X41151490Y7303389D01*
X41152766Y7297367D01*
X41167823Y7294391D01*
X41203595Y7291873D01*
X41255400Y7290014D01*
X41318556Y7289016D01*
X41349616Y7288900D01*
X41538000Y7288900D01*
X41538000Y7724623D01*
X41537764Y7849829D01*
X41537011Y7951653D01*
X41535669Y8032112D01*
X41533669Y8093220D01*
X41530939Y8136992D01*
X41527409Y8165444D01*
X41523010Y8180590D01*
X41522001Y8182225D01*
X41512486Y8191260D01*
X41496694Y8197215D01*
X41470228Y8200537D01*
X41428693Y8201670D01*
X41367693Y8201061D01*
X41341379Y8200528D01*
X41274040Y8198883D01*
X41227617Y8196811D01*
X41197631Y8193435D01*
X41179601Y8187880D01*
X41169047Y8179269D01*
X41161489Y8166726D01*
X41160715Y8165200D01*
X41155921Y8148456D01*
X41152073Y8117839D01*
X41149099Y8071349D01*
X41146927Y8006989D01*
X41145482Y7922759D01*
X41144693Y7816661D01*
X41144487Y7719642D01*
X40614133Y7719642D01*
X40615051Y7813474D01*
X40616492Y7924932D01*
X40618111Y8018964D01*
X40619885Y8093605D01*
X40621793Y8146893D01*
X40623811Y8176864D01*
X40623938Y8177900D01*
X40642585Y8265745D01*
X40673724Y8348134D01*
X40714266Y8418469D01*
X40760698Y8469806D01*
X40800470Y8497263D01*
X40850040Y8524496D01*
X40877600Y8536933D01*
X40898077Y8544837D01*
X40918266Y8551117D01*
X40941260Y8555958D01*
X40970155Y8559547D01*
X41008048Y8562071D01*
X41058032Y8563716D01*
X41123203Y8564670D01*
X41206656Y8565118D01*
X41311488Y8565246D01*
X41347500Y8565250D01*
X41459160Y8565190D01*
G36*
X43120592Y8533128D02*
X43243366Y8532041D01*
X43349777Y8530289D01*
X43437809Y8527920D01*
X43505451Y8524981D01*
X43550688Y8521520D01*
X43563981Y8519664D01*
X43665620Y8489801D01*
X43750433Y8440935D01*
X43818335Y8373135D01*
X43869242Y8286469D01*
X43877012Y8267808D01*
X43886641Y8240878D01*
X43893958Y8212925D01*
X43899386Y8179718D01*
X43903346Y8137024D01*
X43906257Y8080611D01*
X43908543Y8006246D01*
X43910120Y7935139D01*
X43911414Y7823568D01*
X43910473Y7730806D01*
X43907352Y7658893D01*
X43902108Y7609870D01*
X43900884Y7603350D01*
X43874317Y7523194D01*
X43831703Y7451639D01*
X43777511Y7395577D01*
X43756704Y7380933D01*
X43702208Y7347004D01*
X43759397Y7308427D01*
X43818282Y7253923D01*
X43848867Y7206718D01*
X43881150Y7143586D01*
X43884833Y6593943D01*
X43888517Y6044300D01*
X43354100Y6044300D01*
X43354100Y6527735D01*
X43353744Y6665323D01*
X43352697Y6782872D01*
X43350983Y6879371D01*
X43348629Y6953807D01*
X43345661Y7005169D01*
X43342105Y7032447D01*
X43340953Y7035735D01*
X43333283Y7046026D01*
X43320318Y7052980D01*
X43297579Y7057237D01*
X43260587Y7059442D01*
X43204865Y7060234D01*
X43169503Y7060300D01*
X43011200Y7060300D01*
X43011200Y6044300D01*
X42477800Y6044300D01*
X42477800Y8165200D01*
X43011200Y8165200D01*
X43011200Y7441300D01*
X43175579Y7441300D01*
X43243203Y7441551D01*
X43290021Y7442773D01*
X43320623Y7445670D01*
X43339603Y7450945D01*
X43351552Y7459303D01*
X43359729Y7469526D01*
X43366951Y7492590D01*
X43372754Y7536216D01*
X43377146Y7596041D01*
X43380135Y7667700D01*
X43381730Y7746827D01*
X43381938Y7829059D01*
X43380767Y7910029D01*
X43378227Y7985375D01*
X43374324Y8050731D01*
X43369067Y8101732D01*
X43362464Y8134013D01*
X43358481Y8141975D01*
X43346718Y8151703D01*
X43329155Y8158309D01*
X43301216Y8162371D01*
X43258320Y8164467D01*
X43195890Y8165173D01*
X43174331Y8165200D01*
X43011200Y8165200D01*
X42477800Y8165200D01*
X42477800Y8533500D01*
X42983467Y8533500D01*
X43120592Y8533128D01*
X43120592Y8533128D01*
G37*
X43120592Y8533128D02*
X43243366Y8532041D01*
X43349777Y8530289D01*
X43437809Y8527920D01*
X43505451Y8524981D01*
X43550688Y8521520D01*
X43563981Y8519664D01*
X43665620Y8489801D01*
X43750433Y8440935D01*
X43818335Y8373135D01*
X43869242Y8286469D01*
X43877012Y8267808D01*
X43886641Y8240878D01*
X43893958Y8212925D01*
X43899386Y8179718D01*
X43903346Y8137024D01*
X43906257Y8080611D01*
X43908543Y8006246D01*
X43910120Y7935139D01*
X43911414Y7823568D01*
X43910473Y7730806D01*
X43907352Y7658893D01*
X43902108Y7609870D01*
X43900884Y7603350D01*
X43874317Y7523194D01*
X43831703Y7451639D01*
X43777511Y7395577D01*
X43756704Y7380933D01*
X43702208Y7347004D01*
X43759397Y7308427D01*
X43818282Y7253923D01*
X43848867Y7206718D01*
X43881150Y7143586D01*
X43884833Y6593943D01*
X43888517Y6044300D01*
X43354100Y6044300D01*
X43354100Y6527735D01*
X43353744Y6665323D01*
X43352697Y6782872D01*
X43350983Y6879371D01*
X43348629Y6953807D01*
X43345661Y7005169D01*
X43342105Y7032447D01*
X43340953Y7035735D01*
X43333283Y7046026D01*
X43320318Y7052980D01*
X43297579Y7057237D01*
X43260587Y7059442D01*
X43204865Y7060234D01*
X43169503Y7060300D01*
X43011200Y7060300D01*
X43011200Y6044300D01*
X42477800Y6044300D01*
X42477800Y8165200D01*
X43011200Y8165200D01*
X43011200Y7441300D01*
X43175579Y7441300D01*
X43243203Y7441551D01*
X43290021Y7442773D01*
X43320623Y7445670D01*
X43339603Y7450945D01*
X43351552Y7459303D01*
X43359729Y7469526D01*
X43366951Y7492590D01*
X43372754Y7536216D01*
X43377146Y7596041D01*
X43380135Y7667700D01*
X43381730Y7746827D01*
X43381938Y7829059D01*
X43380767Y7910029D01*
X43378227Y7985375D01*
X43374324Y8050731D01*
X43369067Y8101732D01*
X43362464Y8134013D01*
X43358481Y8141975D01*
X43346718Y8151703D01*
X43329155Y8158309D01*
X43301216Y8162371D01*
X43258320Y8164467D01*
X43195890Y8165173D01*
X43174331Y8165200D01*
X43011200Y8165200D01*
X42477800Y8165200D01*
X42477800Y8533500D01*
X42983467Y8533500D01*
X43120592Y8533128D01*
G36*
X45116760Y8565190D02*
X45206131Y8564881D01*
X45276322Y8564130D01*
X45330443Y8562742D01*
X45371604Y8560524D01*
X45402914Y8557284D01*
X45427485Y8552826D01*
X45448425Y8546958D01*
X45468846Y8539486D01*
X45478030Y8535817D01*
X45559934Y8489674D01*
X45629732Y8424437D01*
X45682017Y8345514D01*
X45693216Y8320631D01*
X45722650Y8247750D01*
X45729544Y6044300D01*
X45195600Y6044300D01*
X45195600Y6883162D01*
X44808250Y6876150D01*
X44801552Y6044300D01*
X44268500Y6044300D01*
X44268892Y7063475D01*
X44269110Y7232626D01*
X44269617Y7394164D01*
X44270391Y7546126D01*
X44271410Y7686551D01*
X44271733Y7719642D01*
X44802087Y7719642D01*
X44802292Y7619544D01*
X44802963Y7527654D01*
X44804037Y7447033D01*
X44805457Y7380742D01*
X44807161Y7331840D01*
X44809090Y7303389D01*
X44810366Y7297367D01*
X44825423Y7294391D01*
X44861195Y7291873D01*
X44913000Y7290014D01*
X44976156Y7289016D01*
X45007216Y7288900D01*
X45195600Y7288900D01*
X45195600Y7724623D01*
X45195364Y7849829D01*
X45194611Y7951653D01*
X45193269Y8032112D01*
X45191269Y8093220D01*
X45188539Y8136992D01*
X45185009Y8165444D01*
X45180610Y8180590D01*
X45179601Y8182225D01*
X45170086Y8191260D01*
X45154294Y8197215D01*
X45127828Y8200537D01*
X45086293Y8201670D01*
X45025293Y8201061D01*
X44998979Y8200528D01*
X44931640Y8198883D01*
X44885217Y8196811D01*
X44855231Y8193435D01*
X44837201Y8187880D01*
X44826647Y8179269D01*
X44819089Y8166726D01*
X44818315Y8165200D01*
X44813521Y8148456D01*
X44809673Y8117839D01*
X44806699Y8071349D01*
X44804527Y8006989D01*
X44803082Y7922759D01*
X44802293Y7816661D01*
X44802087Y7719642D01*
X44271733Y7719642D01*
X44272651Y7813474D01*
X44274092Y7924932D01*
X44275711Y8018964D01*
X44277485Y8093605D01*
X44279393Y8146893D01*
X44281411Y8176864D01*
X44281538Y8177900D01*
X44300185Y8265745D01*
X44331324Y8348134D01*
X44371866Y8418469D01*
X44418298Y8469806D01*
X44458070Y8497263D01*
X44507640Y8524496D01*
X44535200Y8536933D01*
X44555677Y8544837D01*
X44575866Y8551117D01*
X44598860Y8555958D01*
X44627755Y8559547D01*
X44665648Y8562071D01*
X44715632Y8563716D01*
X44780803Y8564670D01*
X44864256Y8565118D01*
X44969088Y8565246D01*
X45005100Y8565250D01*
X45116760Y8565190D01*
X45116760Y8565190D01*
G37*
X45116760Y8565190D02*
X45206131Y8564881D01*
X45276322Y8564130D01*
X45330443Y8562742D01*
X45371604Y8560524D01*
X45402914Y8557284D01*
X45427485Y8552826D01*
X45448425Y8546958D01*
X45468846Y8539486D01*
X45478030Y8535817D01*
X45559934Y8489674D01*
X45629732Y8424437D01*
X45682017Y8345514D01*
X45693216Y8320631D01*
X45722650Y8247750D01*
X45729544Y6044300D01*
X45195600Y6044300D01*
X45195600Y6883162D01*
X44808250Y6876150D01*
X44801552Y6044300D01*
X44268500Y6044300D01*
X44268892Y7063475D01*
X44269110Y7232626D01*
X44269617Y7394164D01*
X44270391Y7546126D01*
X44271410Y7686551D01*
X44271733Y7719642D01*
X44802087Y7719642D01*
X44802292Y7619544D01*
X44802963Y7527654D01*
X44804037Y7447033D01*
X44805457Y7380742D01*
X44807161Y7331840D01*
X44809090Y7303389D01*
X44810366Y7297367D01*
X44825423Y7294391D01*
X44861195Y7291873D01*
X44913000Y7290014D01*
X44976156Y7289016D01*
X45007216Y7288900D01*
X45195600Y7288900D01*
X45195600Y7724623D01*
X45195364Y7849829D01*
X45194611Y7951653D01*
X45193269Y8032112D01*
X45191269Y8093220D01*
X45188539Y8136992D01*
X45185009Y8165444D01*
X45180610Y8180590D01*
X45179601Y8182225D01*
X45170086Y8191260D01*
X45154294Y8197215D01*
X45127828Y8200537D01*
X45086293Y8201670D01*
X45025293Y8201061D01*
X44998979Y8200528D01*
X44931640Y8198883D01*
X44885217Y8196811D01*
X44855231Y8193435D01*
X44837201Y8187880D01*
X44826647Y8179269D01*
X44819089Y8166726D01*
X44818315Y8165200D01*
X44813521Y8148456D01*
X44809673Y8117839D01*
X44806699Y8071349D01*
X44804527Y8006989D01*
X44803082Y7922759D01*
X44802293Y7816661D01*
X44802087Y7719642D01*
X44271733Y7719642D01*
X44272651Y7813474D01*
X44274092Y7924932D01*
X44275711Y8018964D01*
X44277485Y8093605D01*
X44279393Y8146893D01*
X44281411Y8176864D01*
X44281538Y8177900D01*
X44300185Y8265745D01*
X44331324Y8348134D01*
X44371866Y8418469D01*
X44418298Y8469806D01*
X44458070Y8497263D01*
X44507640Y8524496D01*
X44535200Y8536933D01*
X44555677Y8544837D01*
X44575866Y8551117D01*
X44598860Y8555958D01*
X44627755Y8559547D01*
X44665648Y8562071D01*
X44715632Y8563716D01*
X44780803Y8564670D01*
X44864256Y8565118D01*
X44969088Y8565246D01*
X45005100Y8565250D01*
X45116760Y8565190D01*
D14*
X8000000Y38500000D03*
X14000000Y10500000D03*
X80000000Y10500000D03*
X86000000Y38500000D03*
D15*
X78000000Y21775000D03*
X78000000Y15425000D03*
X29000000Y21425000D03*
X29000000Y15075000D03*
X24000000Y21425000D03*
X24000000Y15075000D03*
X73000000Y21775000D03*
X73000000Y15425000D03*
D16*
X54750000Y38150000D03*
D17*
X54750000Y34250000D03*
D16*
X53250000Y38150000D03*
X51750000Y38150000D03*
X50250000Y38150000D03*
X48750000Y38150000D03*
D17*
X53250000Y34250000D03*
X51750000Y34250000D03*
X50250000Y34250000D03*
X48750000Y34250000D03*
D16*
X45250000Y38150000D03*
D17*
X45250000Y34250000D03*
D16*
X43750000Y38150000D03*
X42250000Y38150000D03*
X40750000Y38150000D03*
X39250000Y38150000D03*
D17*
X43750000Y34250000D03*
X42250000Y34250000D03*
X40750000Y34250000D03*
X39250000Y34250000D03*
D18*
X67000000Y10155000D03*
X67000000Y6845000D03*
D19*
X18750000Y18750000D03*
D20*
X14250000Y18750000D03*
X18750000Y15250000D03*
D21*
X61400000Y16350000D03*
X61400000Y15850000D03*
X61400000Y15350000D03*
X61400000Y14850000D03*
X61400000Y14350000D03*
X65800000Y14350000D03*
X65800000Y14850000D03*
X65800000Y15350000D03*
X65800000Y15850000D03*
X65800000Y16350000D03*
X61400000Y13850000D03*
X61400000Y13350000D03*
X61400000Y12850000D03*
X65800000Y13850000D03*
X65800000Y13350000D03*
X65800000Y12850000D03*
D22*
X64000000Y15550000D03*
X64000000Y14600000D03*
X64000000Y13650000D03*
X63200000Y13650000D03*
X63200000Y14600000D03*
X63200000Y15550000D03*
D16*
X61250000Y38150000D03*
D17*
X61250000Y34250000D03*
D16*
X59750000Y38150000D03*
X58250000Y38150000D03*
D17*
X59750000Y34250000D03*
X58250000Y34250000D03*
D16*
X35750000Y38150000D03*
D17*
X35750000Y34250000D03*
D16*
X34250000Y38150000D03*
X32750000Y38150000D03*
D17*
X34250000Y34250000D03*
X32750000Y34250000D03*
D23*
X74850000Y6520000D03*
X74850000Y7170000D03*
X74850000Y7830000D03*
X74850000Y8480000D03*
X72650000Y8480000D03*
X72650000Y7830000D03*
X72650000Y7170000D03*
X72650000Y6520000D03*
D24*
X58500000Y21300000D03*
X59000000Y21300000D03*
X59500000Y21300000D03*
X60000000Y21300000D03*
X60500000Y21300000D03*
X61000000Y21300000D03*
D25*
X61700000Y22000000D03*
X61700000Y22500000D03*
X61700000Y23000000D03*
X61700000Y23500000D03*
X61700000Y24000000D03*
X61700000Y24500000D03*
D24*
X61000000Y25200000D03*
X60500000Y25200000D03*
X60000000Y25200000D03*
X59500000Y25200000D03*
X59000000Y25200000D03*
X58500000Y25200000D03*
D25*
X57800000Y24500000D03*
X57800000Y24000000D03*
X57800000Y23500000D03*
X57800000Y23000000D03*
X57800000Y22500000D03*
X57800000Y22000000D03*
D26*
X60400000Y23900000D03*
X59100000Y23900000D03*
X60400000Y22600000D03*
X59100000Y22600000D03*
D27*
X59100000Y11200000D03*
X62100000Y11200000D03*
D28*
X60200000Y16000000D03*
X60200000Y17100000D03*
D29*
X67650000Y15400000D03*
X69150000Y15400000D03*
D30*
X29500000Y23200000D03*
X29500000Y24700000D03*
X81250000Y21000000D03*
X81250000Y22500000D03*
D28*
X67400000Y14350000D03*
X67400000Y13250000D03*
D30*
X71000000Y9250000D03*
X71000000Y7750000D03*
D31*
X59000000Y6250000D03*
X59000000Y9250000D03*
X62250000Y6250000D03*
X62250000Y9250000D03*
D32*
X76200000Y8250000D03*
X77300000Y8250000D03*
D28*
X63000000Y21750000D03*
X63000000Y20650000D03*
D32*
X61400000Y27900000D03*
X60300000Y27900000D03*
X61400000Y26700000D03*
X60300000Y26700000D03*
D28*
X63000000Y23450000D03*
X63000000Y24550000D03*
D33*
X22300000Y40200000D03*
X20900000Y40200000D03*
X75300000Y40200000D03*
X73900000Y40200000D03*
X18700000Y40200000D03*
X17300000Y40200000D03*
X71700000Y40200000D03*
X70300000Y40200000D03*
D34*
X43000000Y26300000D03*
X44600000Y26300000D03*
X58200000Y18200000D03*
X59800000Y18200000D03*
D35*
X59650000Y15300000D03*
X58750000Y15300000D03*
X41150000Y26300000D03*
X42050000Y26300000D03*
X77200000Y7000000D03*
X76300000Y7000000D03*
D36*
X51750000Y30450000D03*
X51750000Y29550000D03*
X50250000Y30450000D03*
X50250000Y29550000D03*
X48750000Y30450000D03*
X48750000Y29550000D03*
X42250000Y30450000D03*
X42250000Y29550000D03*
X40750000Y30450000D03*
X40750000Y29550000D03*
X39250000Y30450000D03*
X39250000Y29550000D03*
D35*
X58050000Y16800000D03*
X57150000Y16800000D03*
D36*
X45400000Y20250000D03*
X45400000Y21150000D03*
X46600000Y21150000D03*
X46600000Y20250000D03*
D37*
X41250000Y18500000D03*
X41750000Y18500000D03*
X42250000Y18500000D03*
X42750000Y18500000D03*
X43250000Y18500000D03*
X43750000Y18500000D03*
X44250000Y18500000D03*
X44750000Y18500000D03*
X45250000Y18500000D03*
X45750000Y18500000D03*
X46250000Y18500000D03*
X46750000Y18500000D03*
X47250000Y18500000D03*
X47750000Y18500000D03*
X48250000Y18500000D03*
X48750000Y18500000D03*
X49250000Y18500000D03*
X49750000Y18500000D03*
X50250000Y18500000D03*
X50750000Y18500000D03*
X51250000Y18500000D03*
X51750000Y18500000D03*
X52250000Y18500000D03*
X52750000Y18500000D03*
D38*
X38800000Y17200000D03*
X55200000Y17200000D03*
D39*
X39350000Y15670000D03*
X54650000Y15670000D03*
D40*
X40400000Y17250000D03*
X53600000Y17250000D03*
D41*
X90061000Y26610000D03*
X90061000Y24070000D03*
X90061000Y21530000D03*
X90061000Y18990000D03*
X92239000Y26610000D03*
X92239000Y24070000D03*
X92239000Y21530000D03*
X92239000Y18990000D03*
D10*
G36*
X88784963Y34087570D02*
X90163843Y35244587D01*
X91192303Y34018916D01*
X89813423Y32861899D01*
X88784963Y34087570D01*
X88784963Y34087570D01*
G37*
G36*
X86839210Y32454890D02*
X88218090Y33611907D01*
X89246550Y32386236D01*
X87867670Y31229219D01*
X86839210Y32454890D01*
X86839210Y32454890D01*
G37*
G36*
X84893457Y30822209D02*
X86272337Y31979226D01*
X87300797Y30753555D01*
X85921917Y29596538D01*
X84893457Y30822209D01*
X84893457Y30822209D01*
G37*
G36*
X82947704Y29189529D02*
X84326584Y30346546D01*
X85355044Y29120875D01*
X83976164Y27963858D01*
X82947704Y29189529D01*
X82947704Y29189529D01*
G37*
G36*
X90184956Y32419125D02*
X91563836Y33576142D01*
X92592296Y32350471D01*
X91213416Y31193454D01*
X90184956Y32419125D01*
X90184956Y32419125D01*
G37*
G36*
X88239203Y30786445D02*
X89618083Y31943462D01*
X90646543Y30717791D01*
X89267663Y29560774D01*
X88239203Y30786445D01*
X88239203Y30786445D01*
G37*
G36*
X86293450Y29153764D02*
X87672330Y30310781D01*
X88700790Y29085110D01*
X87321910Y27928093D01*
X86293450Y29153764D01*
X86293450Y29153764D01*
G37*
G36*
X84347697Y27521084D02*
X85726577Y28678101D01*
X86755037Y27452430D01*
X85376157Y26295413D01*
X84347697Y27521084D01*
X84347697Y27521084D01*
G37*
G36*
X91713563Y15898189D02*
X93506714Y15741309D01*
X93367265Y14147397D01*
X91574114Y14304277D01*
X91713563Y15898189D01*
X91713563Y15898189D01*
G37*
G36*
X89183229Y16119564D02*
X90976380Y15962684D01*
X90836931Y14368772D01*
X89043780Y14525652D01*
X89183229Y16119564D01*
X89183229Y16119564D01*
G37*
G36*
X86652894Y16340940D02*
X88446045Y16184060D01*
X88306596Y14590148D01*
X86513445Y14747028D01*
X86652894Y16340940D01*
X86652894Y16340940D01*
G37*
G36*
X84122560Y16562315D02*
X85915711Y16405435D01*
X85776262Y14811523D01*
X83983111Y14968403D01*
X84122560Y16562315D01*
X84122560Y16562315D01*
G37*
G36*
X91523738Y13728477D02*
X93316889Y13571597D01*
X93177440Y11977685D01*
X91384289Y12134565D01*
X91523738Y13728477D01*
X91523738Y13728477D01*
G37*
G36*
X88993404Y13949852D02*
X90786555Y13792972D01*
X90647106Y12199060D01*
X88853955Y12355940D01*
X88993404Y13949852D01*
X88993404Y13949852D01*
G37*
G36*
X86463069Y14171228D02*
X88256220Y14014348D01*
X88116771Y12420436D01*
X86323620Y12577316D01*
X86463069Y14171228D01*
X86463069Y14171228D01*
G37*
G36*
X83932735Y14392603D02*
X85725886Y14235723D01*
X85586437Y12641811D01*
X83793286Y12798691D01*
X83932735Y14392603D01*
X83932735Y14392603D01*
G37*
D41*
X3939000Y18990000D03*
X3939000Y21530000D03*
X3939000Y24070000D03*
X3939000Y26610000D03*
X1761000Y18990000D03*
X1761000Y21530000D03*
X1761000Y24070000D03*
X1761000Y26610000D03*
D10*
G36*
X9673416Y30336546D02*
X11052296Y29179529D01*
X10023836Y27953858D01*
X8644956Y29110875D01*
X9673416Y30336546D01*
X9673416Y30336546D01*
G37*
G36*
X7727663Y31969226D02*
X9106543Y30812209D01*
X8078083Y29586538D01*
X6699203Y30743555D01*
X7727663Y31969226D01*
X7727663Y31969226D01*
G37*
G36*
X5781910Y33601907D02*
X7160790Y32444890D01*
X6132330Y31219219D01*
X4753450Y32376236D01*
X5781910Y33601907D01*
X5781910Y33601907D01*
G37*
G36*
X3836157Y35234587D02*
X5215037Y34077570D01*
X4186577Y32851899D01*
X2807697Y34008916D01*
X3836157Y35234587D01*
X3836157Y35234587D01*
G37*
G36*
X8273423Y28668101D02*
X9652303Y27511084D01*
X8623843Y26285413D01*
X7244963Y27442430D01*
X8273423Y28668101D01*
X8273423Y28668101D01*
G37*
G36*
X6327670Y30300781D02*
X7706550Y29143764D01*
X6678090Y27918093D01*
X5299210Y29075110D01*
X6327670Y30300781D01*
X6327670Y30300781D01*
G37*
G36*
X4381917Y31933462D02*
X5760797Y30776445D01*
X4732337Y29550774D01*
X3353457Y30707791D01*
X4381917Y31933462D01*
X4381917Y31933462D01*
G37*
G36*
X2436164Y33566142D02*
X3815044Y32409125D01*
X2786584Y31183454D01*
X1407704Y32340471D01*
X2436164Y33566142D01*
X2436164Y33566142D01*
G37*
G36*
X8084289Y16395435D02*
X9877440Y16552315D01*
X10016889Y14958403D01*
X8223738Y14801523D01*
X8084289Y16395435D01*
X8084289Y16395435D01*
G37*
G36*
X5553955Y16174060D02*
X7347106Y16330940D01*
X7486555Y14737028D01*
X5693404Y14580148D01*
X5553955Y16174060D01*
X5553955Y16174060D01*
G37*
G36*
X3023620Y15952684D02*
X4816771Y16109564D01*
X4956220Y14515652D01*
X3163069Y14358772D01*
X3023620Y15952684D01*
X3023620Y15952684D01*
G37*
G36*
X493286Y15731309D02*
X2286437Y15888189D01*
X2425886Y14294277D01*
X632735Y14137397D01*
X493286Y15731309D01*
X493286Y15731309D01*
G37*
G36*
X8274114Y14225723D02*
X10067265Y14382603D01*
X10206714Y12788691D01*
X8413563Y12631811D01*
X8274114Y14225723D01*
X8274114Y14225723D01*
G37*
G36*
X5743780Y14004348D02*
X7536931Y14161228D01*
X7676380Y12567316D01*
X5883229Y12410436D01*
X5743780Y14004348D01*
X5743780Y14004348D01*
G37*
G36*
X3213445Y13782972D02*
X5006596Y13939852D01*
X5146045Y12345940D01*
X3352894Y12189060D01*
X3213445Y13782972D01*
X3213445Y13782972D01*
G37*
G36*
X683111Y13561597D02*
X2476262Y13718477D01*
X2615711Y12124565D01*
X822560Y11967685D01*
X683111Y13561597D01*
X683111Y13561597D01*
G37*
D42*
X67785000Y24874000D03*
X69055000Y24874000D03*
X70325000Y24874000D03*
X71595000Y24874000D03*
X72865000Y24874000D03*
X74135000Y24874000D03*
X75405000Y24874000D03*
X76675000Y24874000D03*
X77945000Y24874000D03*
X79215000Y24874000D03*
X79215000Y38126000D03*
X77945000Y38126000D03*
X76675000Y38126000D03*
X75405000Y38126000D03*
X74135000Y38126000D03*
X72865000Y38126000D03*
X71595000Y38126000D03*
X70325000Y38126000D03*
X69055000Y38126000D03*
X67785000Y38126000D03*
D43*
X66515000Y31500000D03*
X80485000Y31500000D03*
D44*
X69690000Y31500000D03*
X72230000Y31500000D03*
X74770000Y31500000D03*
X77310000Y31500000D03*
D42*
X14785000Y24874000D03*
X16055000Y24874000D03*
X17325000Y24874000D03*
X18595000Y24874000D03*
X19865000Y24874000D03*
X21135000Y24874000D03*
X22405000Y24874000D03*
X23675000Y24874000D03*
X24945000Y24874000D03*
X26215000Y24874000D03*
X26215000Y38126000D03*
X24945000Y38126000D03*
X23675000Y38126000D03*
X22405000Y38126000D03*
X21135000Y38126000D03*
X19865000Y38126000D03*
X18595000Y38126000D03*
X17325000Y38126000D03*
X16055000Y38126000D03*
X14785000Y38126000D03*
D43*
X13515000Y31500000D03*
X27485000Y31500000D03*
D44*
X16690000Y31500000D03*
X19230000Y31500000D03*
X21770000Y31500000D03*
X24310000Y31500000D03*
D45*
X30190000Y8050000D03*
D46*
X30190000Y12050000D03*
X31460000Y8050000D03*
X31460000Y12050000D03*
X32730000Y8050000D03*
X32730000Y12050000D03*
X34000000Y8050000D03*
X34000000Y12050000D03*
X35270000Y8050000D03*
X35270000Y12050000D03*
D47*
X75350000Y12000000D03*
D48*
X72250000Y12000000D03*
M02*
